ply
format ascii 1.0
element face 0
property list uchar int vertex_indices
element vertex 817
property float x
property float y
property float z
property uchar diffuse_red
property uchar diffuse_green
property uchar diffuse_blue
end_header
-9.554651e-001 -1.187498e+000 -9.049044e+000 153 113 47
-9.314426e-001 7.755361e-001 -8.904350e+000 141 80 34
-1.486946e+000 1.606581e-001 -9.235265e+000 199 89 87
-1.221328e+000 1.454696e-001 -9.040207e+000 94 28 29
-2.081766e+000 -2.940892e-001 -9.583216e+000 113 27 34
-1.009515e+000 -7.842678e-001 -9.103341e+000 250 211 91
-1.090168e+000 7.963037e-001 -8.978243e+000 252 212 88
5.030102e+000 -2.026204e+000 -1.263591e+001 134 125 122
2.704943e+000 1.722822e+000 -9.965895e+000 81 81 90
-3.451894e-001 3.434995e-001 -9.225672e+000 127 95 46
2.570721e+000 -1.932852e+000 -1.317672e+001 103 51 57
-1.560706e-001 -5.508929e-001 -9.538978e+000 82 82 59
-1.152407e+000 -3.172090e-001 -9.054705e+000 93 36 28
-1.090639e+000 5.833088e-001 -8.982890e+000 98 31 31
-1.016443e+001 6.141523e+000 -2.802515e+001 83 81 84
-7.101934e-001 3.717289e-001 -8.961431e+000 106 41 37
-1.851304e-001 -8.410924e-003 -9.365529e+000 97 68 28
-9.115799e-002 1.108807e-002 -9.422553e+000 100 68 30
-9.147014e-002 1.105735e-002 -9.423418e+000 100 68 30
-6.761027e+000 2.674996e+000 -2.772162e+001 95 94 96
-6.490682e+000 2.631792e+000 -2.783610e+001 53 51 54
-6.366665e+000 2.489680e+000 -2.793911e+001 81 79 84
1.201358e+000 2.252329e+000 -1.145914e+001 229 187 79
-2.295295e-001 -1.123219e+000 -9.523019e+000 85 96 72
-1.502463e+001 7.090135e+000 -3.221659e+001 211 193 177
-6.434494e+000 3.046602e+000 -2.772658e+001 42 37 41
-1.552187e+001 6.551554e+000 -3.290303e+001 201 179 168
-1.339581e+001 4.519286e+000 -3.117592e+001 217 201 193
-1.531655e+001 5.361688e+000 -3.232905e+001 146 133 127
-6.937249e+000 1.865437e+000 -2.812585e+001 106 105 110
-6.587957e+000 2.849152e+000 -2.767501e+001 98 99 101
-7.145272e+000 2.114913e+000 -2.797650e+001 45 43 48
-1.439347e+001 5.253349e+000 -3.139485e+001 118 109 110
-7.581097e-001 -1.720192e-001 -9.017316e+000 102 38 37
-8.122407e+000 5.468477e+000 -2.635322e+001 146 135 133
-1.341062e+001 4.199748e+000 -3.080373e+001 230 216 203
-6.668422e+000 2.989063e+000 -2.761980e+001 92 91 96
-1.556159e+001 5.074669e+000 -3.326072e+001 175 158 150
-7.203263e+000 1.245133e+000 -2.840717e+001 89 88 93
-7.021443e+000 1.189982e+000 -2.853110e+001 44 43 46
-7.020487e+000 1.189155e+000 -2.852608e+001 44 43 46
-6.883499e+000 1.616655e+000 -2.829024e+001 44 44 46
-1.464679e+001 3.582339e+000 -3.245155e+001 204 187 174
-7.308478e+000 1.468062e+000 -2.824453e+001 45 40 46
2.127095e+000 -1.750173e+000 -1.274871e+001 119 90 57
-1.527664e+001 5.723324e+000 -3.249365e+001 217 199 187
-1.554364e+001 4.972766e+000 -3.225474e+001 210 194 181
-1.563715e+001 5.023332e+000 -3.251516e+001 210 194 181
-7.063423e+000 1.425312e+000 -2.837486e+001 97 96 101
-6.847145e+000 1.386505e+000 -2.843651e+001 93 94 96
-7.509596e+000 1.071600e+000 -2.854943e+001 39 38 41
-1.669591e+001 5.886726e+000 -3.299410e+001 192 180 180
-1.028461e+001 5.085371e+000 -2.754683e+001 45 43 48
-9.891272e+000 2.568712e+000 -2.754256e+001 252 231 202
-9.891272e+000 2.568712e+000 -2.754256e+001 252 231 202
-8.848447e-001 9.908698e-001 -8.912245e+000 230 187 82
-1.157064e+001 5.048708e+000 -2.851227e+001 227 218 213
-6.495252e+000 2.439844e+000 -2.785919e+001 68 69 71
2.754585e+000 -1.797315e+000 -1.319438e+001 114 58 58
-9.432413e-001 1.135880e-001 -9.036761e+000 206 85 86
-1.178730e+000 -5.238949e-001 -9.107883e+000 255 221 88
-1.314794e+001 3.761735e+000 -3.030885e+001 195 181 175
-1.748091e+000 1.922380e-001 -9.245209e+000 105 28 33
1.771182e+000 -1.480975e+000 -1.256821e+001 118 90 51
2.693238e+000 1.664440e+000 -9.983415e+000 157 168 163
-2.519999e-001 -4.849323e-003 -9.325565e+000 101 71 29
-1.172448e+001 5.029304e+000 -2.844360e+001 242 231 233
-1.130401e+001 4.882284e+000 -2.818191e+001 159 147 145
-6.846813e+000 2.867086e+000 -2.771267e+001 48 46 49
8.219663e-001 2.221831e+000 -1.162498e+001 116 45 47
-7.254336e+000 4.509074e-001 -2.895934e+001 40 35 39
2.754585e+000 -1.797315e+000 -1.319438e+001 114 58 58
-9.764175e-001 -3.671428e-001 -9.082548e+000 247 210 89
-1.017359e-001 6.345707e-001 -9.361995e+000 54 51 45
-1.748091e+000 1.922380e-001 -9.245209e+000 105 28 33
-1.221328e+000 1.454696e-001 -9.040207e+000 94 28 29
-3.871503e-001 -1.620334e-001 -9.338381e+000 123 92 45
1.702659e+000 2.366826e+000 -1.101864e+001 220 180 97
-1.255873e+001 7.212899e+000 -2.876934e+001 252 238 237
-1.290296e+001 7.012464e+000 -2.900148e+001 247 236 236
-1.209714e+001 4.920812e+000 -2.849428e+001 233 225 222
-1.188764e+001 4.920039e+000 -2.844145e+001 231 222 219
2.551615e+000 -1.266919e+000 -1.295711e+001 104 53 55
2.533515e+000 1.408899e+000 -9.894808e+000 108 102 102
-1.167182e+001 4.908693e+000 -2.836637e+001 221 211 206
-6.669403e+000 2.591796e+000 -2.785960e+001 64 62 65
2.130345e+000 -1.753587e+000 -1.276496e+001 119 90 57
-9.007989e-001 6.015088e-001 -8.976405e+000 236 199 89
-1.374964e+001 5.371774e+000 -3.134316e+001 236 223 210
-1.698840e+000 -2.011907e-002 -9.308274e+000 216 67 65
2.717083e+000 -1.599961e+000 -1.330254e+001 230 222 211
-8.873637e-001 1.011371e+000 -8.935212e+000 233 189 84
-1.455057e+000 6.145138e-001 -9.197905e+000 215 96 93
-1.162375e+000 -7.557957e-002 -9.119338e+000 217 76 76
-9.809926e-001 -1.352959e-001 -9.024713e+000 113 31 35
4.300405e+000 -1.795578e+000 -1.363803e+001 68 58 60
4.279689e+000 -1.728539e+000 -1.338574e+001 66 56 57
-1.260240e+001 6.824417e+000 -2.871942e+001 235 223 224
5.193734e+000 3.219153e+000 -1.197520e+001 245 234 227
1.311122e+000 2.401354e+000 -1.135148e+001 222 189 92
-1.142954e+001 4.864820e+000 -2.814766e+001 202 195 189
-1.297590e+000 1.900580e+000 -9.976806e+000 135 53 58
2.660523e+000 1.487445e+000 -9.888262e+000 139 153 147
-2.110689e+000 1.013204e+000 -9.678328e+000 142 26 35
-1.367213e+001 2.337312e+000 -3.038564e+001 223 211 211
-1.385021e+001 2.285996e+000 -3.059889e+001 214 202 202
-1.310692e+001 2.333727e+000 -3.027701e+001 228 217 215
-1.168859e+001 2.047829e+000 -2.694942e+001 216 207 201
-1.342840e+001 1.661029e+000 -3.090701e+001 158 147 148
-1.703626e+000 2.713557e-001 -9.218020e+000 128 33 35
-1.452452e+000 -9.197975e-001 -9.496877e+000 212 91 90
-1.227788e+001 7.147801e+000 -2.839966e+001 224 213 214
-1.254320e+001 7.107162e+000 -2.873307e+001 228 216 216
5.771646e+000 3.160247e+000 -1.109874e+001 247 234 228
1.589026e+000 2.344163e+000 -1.093626e+001 226 189 94
-1.173746e+001 5.265694e+000 -2.842959e+001 244 234 233
1.870574e+000 1.912423e+000 -9.967793e+000 130 70 72
5.718657e+000 2.130848e+000 -1.117809e+001 181 171 163
-1.293544e+001 2.716100e+000 -2.981992e+001 240 230 228
-1.295572e+001 2.549497e+000 -2.994611e+001 219 209 205
-1.277773e+001 2.576062e+000 -2.980597e+001 233 223 222
-1.267377e+001 2.456408e+000 -2.996455e+001 223 213 209
-1.254581e+001 2.163565e+000 -2.985710e+001 186 177 172
-1.275865e+001 2.040804e+000 -3.019880e+001 185 176 171
5.124965e-001 -3.751380e-001 -6.533204e+000 129 90 47
5.658349e-001 -8.266459e-001 -9.925254e+000 69 34 27
6.285362e+000 -1.011247e+000 -9.964880e+000 201 188 182
-2.076064e+000 3.081598e-001 -9.525389e+000 215 95 96
6.329517e+000 -2.252258e-001 -1.001183e+001 234 221 215
1.184712e+000 2.441943e+000 -1.150955e+001 135 69 65
1.299724e+000 2.066734e+000 -1.144442e+001 200 154 75
-1.389670e+001 4.835445e+000 -3.085390e+001 200 186 177
-1.411219e+000 1.322174e+000 -9.403182e+000 113 34 38
-1.638521e-001 1.396560e+000 -9.249026e+000 57 53 52
2.460438e+000 1.565672e+000 -9.857042e+000 112 163 160
-9.927870e-001 5.294579e-001 -9.074027e+000 203 99 92
-3.511752e-001 -1.096346e+000 -9.417581e+000 62 68 56
-1.141696e+001 6.076473e+000 -2.833180e+001 108 100 100
-8.890874e-001 1.540583e+000 -9.178040e+000 122 52 56
-1.552286e+001 5.292168e+000 -3.318472e+001 180 166 161
1.350465e+000 1.825069e+000 -1.130664e+001 150 92 46
2.383615e+000 1.548557e+000 -9.873717e+000 79 87 89
-1.039727e+001 3.440306e+000 -2.738374e+001 244 227 199
-1.081417e+000 9.953881e-001 -9.059203e+000 144 53 41
-8.408887e-001 8.790232e-001 -8.862013e+000 231 195 83
-8.408887e-001 8.790232e-001 -8.862013e+000 231 195 83
-9.773149e-001 6.226804e-001 -9.032317e+000 234 191 88
-8.709182e-001 4.598060e-001 -8.936881e+000 205 90 90
-8.718472e-001 4.598445e-001 -8.943672e+000 205 90 90
-1.574212e+001 2.297886e+000 -3.334181e+001 114 108 112
-1.426753e+001 7.334202e+000 -3.123957e+001 206 186 176
1.346235e+000 2.302370e+000 -1.125058e+001 178 118 56
1.775606e+000 1.959971e+000 -1.004118e+001 121 52 56
1.772984e+000 1.857502e+000 -1.002228e+001 165 80 83
-1.039801e+001 3.682961e+000 -2.751567e+001 193 169 129
-1.033887e+001 3.668933e+000 -2.738369e+001 193 169 129
-9.516243e-001 1.441494e+000 -9.031435e+000 243 209 85
-1.187208e+000 1.208500e+000 -9.207807e+000 155 39 49
-5.049811e-002 1.338022e+000 -9.344583e+000 88 98 72
2.377032e+000 1.060919e+000 -1.053916e+001 112 72 39
2.377032e+000 1.060919e+000 -1.053916e+001 112 72 39
2.398650e+000 9.682488e-001 -1.034450e+001 153 120 60
-6.650472e+000 1.782134e+000 -2.819014e+001 94 95 97
-1.840881e+000 -9.771911e-001 -9.795168e+000 125 35 45
-2.114768e+001 -1.409672e+001 -4.573141e+001 64 62 68
8.625094e-001 2.058717e+000 -1.150519e+001 146 66 62
1.331308e+000 2.135766e+000 -1.119063e+001 165 102 46
-1.357134e+001 3.584082e+000 -3.067636e+001 239 219 205
-1.612239e+000 8.549538e-001 -9.088153e+000 217 85 82
-2.045899e+000 5.339576e-001 -9.427189e+000 137 29 39
-1.886645e-001 6.023685e-001 -9.324663e+000 52 47 41
-1.886645e-001 6.023685e-001 -9.324663e+000 52 47 41
-2.816096e+000 4.009368e-001 -1.059840e+001 227 107 101
-2.332172e+000 4.397795e-001 -9.737709e+000 170 33 41
-1.513307e+000 4.654111e-001 -9.259256e+000 135 29 37
-2.088690e+000 8.966687e-002 -9.466601e+000 142 31 39
-1.590158e+000 -4.236340e-001 -9.285001e+000 143 33 40
-1.572676e-001 -5.492056e-001 -9.529695e+000 82 82 59
-2.258923e+000 -7.926974e-001 -1.021950e+001 218 97 93
-1.995212e+000 -8.503735e-001 -9.780479e+000 237 104 110
-1.857047e+000 -8.192464e-001 -9.701995e+000 143 34 40
2.551179e+000 -8.372617e-001 -1.243734e+001 105 74 43
2.700547e+000 -6.860258e-001 -1.243049e+001 89 35 40
-1.456737e+000 -1.329393e+000 -1.006927e+001 193 90 91
-2.518564e+001 -1.462640e+001 -5.082073e+001 121 113 109
-2.496392e+001 -1.449456e+001 -5.034394e+001 121 113 109
-2.102088e+001 -1.412486e+001 -4.475174e+001 133 126 120
-2.126295e+001 -1.428929e+001 -4.529735e+001 133 126 120
1.088862e+000 2.414357e+000 -1.152437e+001 131 66 57
-1.214069e+000 1.794644e+000 -9.859629e+000 206 95 88
1.179703e+000 2.014644e+000 -1.142877e+001 97 44 43
1.439101e+000 2.187306e+000 -1.093777e+001 233 190 82
-1.321405e+000 1.318605e+000 -9.420060e+000 219 95 90
-1.059858e+000 1.246883e+000 -8.883267e+000 254 218 88
-9.065330e-001 1.221119e+000 -8.868460e+000 148 86 42
-1.278657e+001 3.107361e+000 -2.944183e+001 178 170 168
-6.597977e+000 2.851276e+000 -2.770268e+001 98 99 101
-2.008529e+000 1.091282e+000 -9.842020e+000 131 27 37
-1.875442e+000 9.195982e-001 -9.603733e+000 214 92 90
-1.438134e+000 1.179753e+000 -9.293974e+000 114 30 37
-2.253361e+000 7.441027e-001 -9.775505e+000 216 98 94
-2.004259e+000 7.922831e-001 -9.571547e+000 114 27 35
-1.998121e-002 6.049048e-001 -9.426177e+000 50 47 42
-2.041789e+000 4.186439e-001 -9.479793e+000 128 27 35
-1.663657e+000 4.136235e-001 -9.251523e+000 223 72 72
-2.130574e+000 -5.229503e-001 -9.876867e+000 116 31 38
-1.020130e+000 -5.723051e-001 -9.077518e+000 148 86 36
-2.388217e+001 -1.477186e+001 -4.917721e+001 135 129 130
-1.343296e+000 1.992510e+000 -1.008959e+001 119 46 48
1.602444e+000 2.172060e+000 -1.083124e+001 151 73 49
-2.244872e+000 9.475725e-001 -9.711762e+000 135 28 36
-1.652630e+000 1.134482e+000 -9.541433e+000 217 100 93
-1.467146e+000 8.329729e-001 -9.174723e+000 121 31 35
-1.469534e+000 8.340255e-001 -9.222780e+000 121 31 35
-1.456457e+000 6.150746e-001 -9.216267e+000 215 96 93
-2.018422e+000 2.270450e-001 -9.414915e+000 210 91 88
-1.571554e+000 -5.048328e-001 -9.293720e+000 124 32 35
-1.571554e+000 -5.048328e-001 -9.293720e+000 124 32 35
3.272660e+000 -1.093329e+000 -1.344154e+001 81 41 43
-1.694088e-001 -4.230658e-001 -9.451005e+000 53 48 45
-1.694088e-001 -4.230658e-001 -9.451005e+000 53 48 45
3.242829e+000 -1.056304e+000 -1.323649e+001 77 40 41
4.033451e+000 -2.320888e+000 -1.369280e+001 145 140 135
1.154863e+000 8.126600e-001 -1.043993e+001 131 99 50
1.154863e+000 8.126600e-001 -1.043993e+001 131 99 50
-2.017475e-001 -1.444054e+000 -1.059060e+001 96 54 55
2.574819e+000 -1.942285e+000 -1.322446e+001 103 51 57
-1.870800e+001 -7.349505e+000 -4.954217e+001 36 35 40
-1.195817e+001 4.537993e+000 -2.866012e+001 255 255 255
-1.192967e+001 1.868728e+000 -2.971571e+001 60 58 63
-1.953111e+000 -5.617929e-002 -9.578996e+000 124 29 32
-1.543696e+001 -7.453168e+000 -4.357396e+001 35 34 38
-2.278692e+001 -1.011272e+001 -4.987418e+001 95 91 92
1.018988e+000 -1.536023e+000 -1.177309e+001 95 49 49
-1.386304e+000 1.237539e+000 -9.350489e+000 143 53 51
-1.362816e+001 2.284937e+000 -3.044782e+001 208 199 198
-1.950550e+000 1.011341e+000 -9.671294e+000 138 41 44
-1.438769e+001 5.827547e+000 -3.158935e+001 231 213 201
-7.354720e-001 1.343818e+000 -8.888373e+000 149 101 49
-1.527401e+001 4.036120e+000 -3.293172e+001 202 186 173
-6.779100e-002 7.455267e-001 -9.470571e+000 76 82 54
-6.779100e-002 7.455267e-001 -9.470571e+000 76 82 54
-1.583529e-001 1.219622e+000 -9.312926e+000 64 64 52
5.685358e+000 4.417024e+000 -1.129872e+001 233 224 214
5.685358e+000 4.417024e+000 -1.129872e+001 233 224 214
6.570374e+000 3.896510e+000 -9.719673e+000 231 221 214
6.570374e+000 3.896510e+000 -9.719673e+000 231 221 214
6.673803e+000 3.807205e+000 -9.579097e+000 237 225 219
6.667206e+000 3.796773e+000 -9.497688e+000 252 241 235
6.364553e+000 3.541900e+000 -1.015236e+001 247 234 228
6.546120e+000 3.762022e+000 -9.850352e+000 235 221 218
6.615290e+000 3.520365e+000 -9.627214e+000 239 225 219
6.696211e+000 3.629621e+000 -9.554246e+000 250 241 236
5.770675e+000 3.237975e+000 -1.080104e+001 227 214 208
6.302663e+000 3.341077e+000 -1.024105e+001 241 226 221
6.302663e+000 3.341077e+000 -1.024105e+001 241 226 221
6.288200e+000 3.297031e+000 -1.020493e+001 253 240 234
6.288200e+000 3.297031e+000 -1.020493e+001 253 240 234
6.490795e+000 3.186278e+000 -9.838627e+000 237 227 219
5.440836e+000 3.018136e+000 -1.149030e+001 221 211 204
5.767460e+000 3.164402e+000 -1.110509e+001 246 237 228
6.138516e+000 2.906669e+000 -1.063074e+001 231 218 210
6.394908e+000 2.962454e+000 -1.000052e+001 242 228 220
6.394908e+000 2.962454e+000 -1.000052e+001 242 228 220
6.309048e+000 2.827449e+000 -1.020484e+001 235 222 216
6.695398e+000 3.083378e+000 -9.576541e+000 242 230 222
6.787543e+000 2.916397e+000 -9.303312e+000 247 236 227
5.513538e+000 2.824362e+000 -1.152594e+001 219 209 200
5.510382e+000 2.767920e+000 -1.154917e+001 233 223 214
5.510382e+000 2.767920e+000 -1.154917e+001 233 223 214
6.366135e+000 2.742127e+000 -1.010948e+001 235 221 218
6.500532e+000 2.680238e+000 -9.803585e+000 248 239 235
6.497909e+000 2.628232e+000 -9.791500e+000 248 237 231
6.552598e+000 2.542618e+000 -9.727447e+000 236 224 219
6.570939e+000 2.459338e+000 -9.741393e+000 251 241 238
6.750792e+000 2.671883e+000 -9.316295e+000 243 229 224
6.806434e+000 2.695767e+000 -9.270878e+000 252 243 235
6.806434e+000 2.695767e+000 -9.270878e+000 252 243 235
6.697733e+000 2.435682e+000 -9.422163e+000 251 244 238
1.416833e+000 2.002950e+000 -1.143580e+001 136 83 34
6.395334e+000 2.127280e+000 -1.002014e+001 226 212 207
6.467701e+000 2.165965e+000 -1.005840e+001 236 225 221
6.443935e+000 2.080917e+000 -1.001097e+001 246 233 227
6.600010e+000 2.262854e+000 -9.605196e+000 242 228 226
-1.809053e+000 1.405327e+000 -9.387458e+000 219 87 84
6.181679e+000 2.039454e+000 -1.044682e+001 220 207 201
6.122201e+000 1.946905e+000 -1.038845e+001 237 225 219
6.245667e+000 1.682005e+000 -1.029847e+001 212 198 193
6.680390e+000 1.997640e+000 -9.512060e+000 254 247 242
6.578085e+000 1.660166e+000 -9.694284e+000 230 217 212
6.606277e+000 1.607272e+000 -9.628958e+000 252 245 240
6.653004e+000 1.418796e+000 -9.583823e+000 239 225 222
-2.201523e+000 5.368177e-001 -9.439393e+000 224 115 111
-2.161771e+000 5.735220e-001 -9.355710e+000 234 124 120
-9.682923e-001 5.747454e-001 -8.985765e+000 210 123 79
6.292275e+000 1.091545e+000 -1.018270e+001 199 186 178
6.497105e+000 1.038484e+000 -9.780819e+000 246 235 231
6.536572e+000 9.303821e-001 -9.865340e+000 217 202 197
6.643729e+000 1.055022e+000 -9.492084e+000 232 225 219
6.822583e+000 9.679057e-001 -9.351932e+000 254 251 246
9.669899e-001 5.359813e-001 -1.005432e+001 104 67 22
3.017484e+000 6.308928e-001 -1.286041e+001 205 173 156
6.554409e+000 8.208413e-001 -9.696285e+000 218 205 199
6.463272e+000 5.882721e-001 -9.848039e+000 208 194 190
6.526807e+000 6.277943e-001 -9.742116e+000 222 209 203
6.712872e+000 8.138602e-001 -9.449624e+000 236 224 218
6.812363e+000 7.270096e-001 -9.357444e+000 243 232 226
-1.676325e+000 7.213529e-004 -9.224348e+000 219 68 67
-5.843927e-002 5.128169e-003 -9.425581e+000 111 78 34
3.193526e-001 9.106834e-002 -9.676400e+000 114 82 34
6.432036e+000 2.169234e-001 -9.950834e+000 204 191 183
6.512544e+000 2.853248e-001 -9.803885e+000 221 208 202
6.687230e+000 4.205438e-001 -9.555434e+000 233 222 218
6.776048e+000 5.438838e-001 -9.429800e+000 240 232 229
6.602663e+000 3.843794e-001 -9.657268e+000 255 251 245
6.538644e+000 -1.162487e-002 -9.745592e+000 241 228 222
6.586435e+000 -1.998500e-003 -9.681546e+000 228 217 211
6.706400e+000 1.329732e-002 -9.504231e+000 252 246 240
6.939412e+000 2.296056e-001 -9.173959e+000 253 250 246
8.457005e-001 -8.137499e-001 -1.019185e+001 137 109 61
1.734009e+000 -1.121407e+000 -1.302913e+001 161 139 132
6.932296e+000 -1.183379e-001 -9.046622e+000 241 232 227
-1.691595e+000 -1.207995e+000 -9.982213e+000 153 70 72
-1.515875e+000 -1.394979e+000 -1.032478e+001 203 106 100
-3.624117e-001 -1.235541e+000 -9.556696e+000 56 53 52
1.754898e+000 -1.246008e+000 -1.271756e+001 110 83 57
1.982873e+000 -1.531910e+000 -1.294049e+001 85 44 41
6.517100e+000 -9.085894e-001 -9.772784e+000 224 214 205
2.603568e+000 -1.712738e+000 -1.322041e+001 165 127 118
6.163566e+000 -1.314645e+000 -1.041990e+001 172 161 156
6.935091e+000 -8.764743e-001 -9.147503e+000 254 249 241
6.870367e+000 -1.488146e+000 -9.179627e+000 232 216 209
6.870367e+000 -1.488146e+000 -9.179627e+000 232 216 209
6.928663e+000 -1.501248e+000 -9.231376e+000 230 212 205
6.584726e+000 -1.793319e+000 -9.664924e+000 230 217 212
6.822295e+000 -1.725939e+000 -9.398934e+000 232 219 213
6.817576e+000 -1.662863e+000 -9.306377e+000 235 221 214
6.901583e+000 -1.784877e+000 -9.243587e+000 232 219 213
6.628280e+000 3.474648e+000 -9.627262e+000 255 248 242
5.963440e+000 3.537344e+000 -1.079461e+001 230 217 209
5.963440e+000 3.537344e+000 -1.079461e+001 230 217 209
6.011278e+000 3.477613e+000 -1.090741e+001 228 215 207
5.855611e+000 2.995079e+000 -1.097668e+001 224 211 202
6.791477e+000 3.038973e+000 -9.314393e+000 253 248 242
6.745576e+000 2.980219e+000 -9.234304e+000 235 222 216
-1.081657e+000 1.980290e+000 -9.935219e+000 191 97 95
8.809253e-001 2.467190e+000 -1.138654e+001 173 83 85
5.570497e+000 2.801109e+000 -1.144119e+001 212 202 194
5.570497e+000 2.801109e+000 -1.144119e+001 212 202 194
5.789348e+000 2.635348e+000 -1.098368e+001 236 223 214
5.910242e+000 2.525182e+000 -1.091044e+001 210 200 191
6.286082e+000 2.651418e+000 -9.999021e+000 233 220 214
6.463798e+000 2.671962e+000 -9.885413e+000 253 246 237
6.394309e+000 2.576748e+000 -1.002091e+001 231 218 213
6.669420e+000 2.395815e+000 -9.620983e+000 254 248 242
6.773126e+000 2.652460e+000 -9.287595e+000 255 252 247
1.579491e+000 1.991066e+000 -1.098906e+001 187 138 71
6.091563e+000 2.084656e+000 -1.043391e+001 213 200 194
6.210539e+000 2.163069e+000 -1.024635e+001 220 209 203
6.294332e+000 2.164941e+000 -1.023645e+001 224 210 205
6.447117e+000 2.318442e+000 -1.017533e+001 252 239 233
6.351358e+000 2.198208e+000 -1.008624e+001 225 212 206
6.435932e+000 2.094908e+000 -1.006484e+001 227 213 210
6.345253e+000 2.036928e+000 -9.976308e+000 232 219 213
6.806521e+000 2.194494e+000 -9.367860e+000 255 249 242
-1.607419e+000 1.283958e+000 -9.410625e+000 135 39 41
-1.389546e+000 1.314601e+000 -9.302534e+000 136 45 45
6.336101e+000 1.937927e+000 -1.014136e+001 222 209 203
6.378930e+000 1.841110e+000 -1.011225e+001 219 206 200
6.710807e+000 1.856384e+000 -9.404276e+000 254 243 240
6.254315e+000 1.593939e+000 -1.021338e+001 209 196 190
6.407548e+000 1.397332e+000 -1.007127e+001 213 200 194
6.540229e+000 1.497306e+000 -9.701798e+000 225 212 206
6.820782e+000 1.511604e+000 -9.238006e+000 236 222 219
6.820782e+000 1.511604e+000 -9.238006e+000 236 222 219
-2.094393e+000 6.878150e-001 -9.573655e+000 223 96 95
-9.027027e-001 5.547553e-001 -8.939974e+000 204 104 74
6.536553e-002 5.816431e-001 -9.260440e+000 119 89 47
2.183953e+000 1.013489e+000 -1.049972e+001 104 65 36
6.318693e+000 1.114227e+000 -1.025029e+001 200 187 179
6.648603e+000 1.061781e+000 -9.615285e+000 254 249 244
6.710823e+000 1.035815e+000 -9.455588e+000 235 220 214
-2.171218e+000 3.960685e-001 -9.455831e+000 227 186 185
9.937403e-001 5.668458e-001 -9.979043e+000 134 100 54
1.257459e+000 5.670336e-001 -1.027412e+001 113 81 48
6.624599e+000 8.701892e-001 -9.602408e+000 230 218 212
6.667194e+000 8.328324e-001 -9.476612e+000 228 215 209
6.716508e+000 8.491256e-001 -9.321765e+000 241 229 222
6.609168e+000 7.364240e-001 -9.654871e+000 227 214 208
6.824543e+000 8.464028e-001 -9.363252e+000 254 251 246
6.825447e+000 7.371332e-001 -9.305079e+000 254 252 245
6.825447e+000 7.371332e-001 -9.305079e+000 254 252 245
1.838581e+000 -1.728123e-001 -1.141125e+001 71 91 89
-1.051540e+000 -2.582013e-001 -9.184680e+000 178 86 72
6.535614e+000 3.029410e-002 -9.742226e+000 224 212 204
7.183998e-001 -8.104233e-001 -1.010914e+001 131 106 59
6.325688e+000 -2.102716e+000 -1.012736e+001 217 204 196
6.744959e+000 3.516261e+000 -9.468498e+000 253 244 234
6.594202e+000 3.379322e+000 -9.748214e+000 234 223 214
6.686445e+000 3.349849e+000 -9.545924e+000 237 223 220
6.371693e+000 2.903789e+000 -1.010498e+001 235 222 216
5.497052e+000 2.742114e+000 -1.138184e+001 214 204 195
5.942957e+000 2.660214e+000 -1.065512e+001 218 205 197
-7.115090e-001 1.457317e+000 -8.914732e+000 147 106 59
2.126702e+000 1.623240e+000 -9.900875e+000 80 97 97
6.050326e+000 1.783944e+000 -1.066478e+001 196 184 178
-1.368934e+000 9.462429e-001 -9.018581e+000 195 83 77
6.676604e+000 1.389084e+000 -9.492334e+000 233 219 216
6.676604e+000 1.389084e+000 -9.492334e+000 233 219 216
6.839812e+000 1.546499e+000 -9.199860e+000 254 250 247
9.334552e-001 9.618483e-001 -9.940442e+000 131 97 52
6.241829e+000 1.254849e+000 -1.025518e+001 197 184 178
-2.544264e+000 5.742195e-002 -1.004092e+001 224 75 74
-2.477694e-001 -3.274203e-001 -9.441115e+000 108 90 42
-2.134985e+000 -6.779283e-001 -1.013933e+001 183 87 83
3.120086e-001 -8.003781e-001 -9.875960e+000 132 99 55
6.076172e-001 -8.000282e-001 -1.001061e+001 130 100 54
1.975751e+000 -1.220748e+000 -1.352040e+001 149 124 116
6.387752e+000 -2.380499e-001 -1.012464e+001 227 214 208
6.568093e+000 -6.614586e-001 -9.755264e+000 219 209 202
6.568093e+000 -6.614586e-001 -9.755264e+000 219 209 202
6.371316e+000 -1.315320e+000 -1.011387e+001 206 195 188
6.371316e+000 -1.315320e+000 -1.011387e+001 206 195 188
6.413624e+000 -1.545615e+000 -9.980582e+000 219 206 197
6.413624e+000 -1.545615e+000 -9.980582e+000 219 206 197
6.932340e+000 -1.497455e+000 -9.121400e+000 231 215 211
5.686414e+000 -3.133164e+000 -1.119982e+001 186 177 172
6.585957e+000 3.441040e+000 -9.766826e+000 250 242 235
2.838570e+000 2.270708e+000 -1.072065e+001 154 72 81
-9.550981e-001 1.891607e+000 -9.727248e+000 193 92 91
9.024479e-001 2.135087e+000 -1.154885e+001 161 76 75
9.024479e-001 2.135087e+000 -1.154885e+001 161 76 75
1.402662e+000 2.030582e+000 -1.109976e+001 210 165 76
1.354234e+000 1.405574e+000 -9.979060e+000 102 43 42
2.120283e+000 1.462854e+000 -9.838114e+000 74 109 105
2.463529e+000 1.573133e+000 -9.901369e+000 122 167 168
6.747453e+000 1.886123e+000 -9.379169e+000 238 224 220
3.352817e+000 6.848051e-001 -1.338742e+001 80 40 37
6.675996e+000 7.406142e-001 -9.580524e+000 225 214 208
-1.567016e+000 -2.163648e-001 -9.243501e+000 193 91 87
-1.627562e+000 -6.834369e-001 -9.447194e+000 196 90 88
1.701841e+000 -1.185106e+000 -1.267687e+001 160 138 125
1.197652e+000 1.853643e+000 -1.140799e+001 155 114 60
-1.569846e+000 1.488525e+000 -9.392463e+000 240 125 125
-1.248653e+000 1.481078e+000 -9.369745e+000 108 32 36
3.347400e+000 5.067873e-001 -1.269049e+001 69 47 49
-2.146294e+000 -2.325501e-001 -9.654476e+000 148 29 35
-2.276118e+000 -5.707142e-001 -9.871826e+000 191 78 77
2.410186e+000 -9.864968e-001 -1.297716e+001 95 67 46
-2.213582e+000 1.380102e+000 -1.013105e+001 171 30 38
-1.962882e+000 1.326025e+000 -9.726909e+000 168 29 40
-1.962882e+000 1.326025e+000 -9.726909e+000 168 29 40
1.467091e+000 1.654623e+000 -9.777763e+000 122 43 48
-2.551676e+000 1.108648e+000 -1.020539e+001 166 32 39
-2.699120e+000 6.182240e-001 -1.028563e+001 210 76 72
-2.581605e+000 4.845100e-001 -1.006297e+001 169 27 37
-2.065067e+000 6.510077e-001 -9.528192e+000 218 104 98
-2.003373e+000 -1.634596e-001 -9.397621e+000 186 70 70
-2.641883e-001 -3.943807e-001 -9.387506e+000 48 47 42
3.246524e+000 -2.205060e-001 -1.294704e+001 101 70 70
-1.008290e+000 -1.190071e+000 -9.177036e+000 230 204 96
-1.827407e+000 1.386678e+000 -9.561820e+000 222 91 88
-2.393576e+000 9.812258e-001 -9.740032e+000 215 70 72
-1.747969e+000 1.000196e+000 -9.644835e+000 158 30 36
-1.394990e+000 1.016667e+000 -9.081506e+000 202 92 81
-2.324936e+000 6.008758e-001 -9.881960e+000 159 32 37
-2.160959e+000 4.782476e-001 -9.425289e+000 230 154 162
-2.984402e+000 2.088357e-001 -1.069583e+001 222 63 71
-2.348196e+000 1.482079e-001 -9.896649e+000 164 28 40
-1.970166e+000 -3.933529e-001 -9.708433e+000 218 102 98
-7.175383e-002 -4.056253e-001 -9.529156e+000 47 49 43
-1.856864e+000 -8.218071e-001 -9.712032e+000 144 34 43
-1.473724e+000 -9.059969e-001 -9.526914e+000 212 101 94
-3.128084e-001 -1.026165e+000 -9.753577e+000 66 63 55
-7.283107e-001 1.001592e+000 -8.894088e+000 143 94 41
2.116344e+000 1.373958e+000 -1.004487e+001 56 49 45
-8.972054e-001 6.048589e-001 -8.942787e+000 236 198 84
-1.120014e+000 1.278652e-001 -9.070002e+000 89 26 32
-2.052065e+000 -2.906608e-001 -9.425221e+000 116 27 33
-1.587604e+000 -8.292450e-001 -9.453295e+000 109 31 39
1.404697e+000 -8.100533e-001 -1.136224e+001 92 44 44
1.999086e+000 -1.540237e+000 -1.257132e+001 88 45 47
2.018584e+000 -1.564045e+000 -1.271292e+001 88 45 47
-1.673882e+000 1.352269e+000 -9.456840e+000 136 33 40
-1.673882e+000 1.352269e+000 -9.456840e+000 136 33 40
2.172216e+000 1.178124e+000 -1.035895e+001 169 132 61
-1.129701e+000 3.608332e-001 -9.042838e+000 217 82 78
-9.543646e-001 3.423073e-001 -8.989941e+000 114 30 35
-9.530849e-001 3.436685e-001 -8.963946e+000 114 30 35
-2.071629e+000 1.960339e-002 -9.428508e+000 127 26 37
-1.855728e+000 -1.919116e-001 -9.505775e+000 113 28 32
-1.534904e+000 -2.861327e-001 -9.273481e+000 203 83 79
-1.451773e+000 -1.663368e+000 -1.047715e+001 226 222 213
5.096052e-001 2.373112e+000 -1.178317e+001 157 56 59
5.028467e-001 1.861384e+000 -1.173694e+001 79 35 38
-1.376158e+000 -8.893394e-002 -9.166096e+000 115 27 30
-8.064159e-001 -6.434936e-001 -9.023123e+000 131 91 42
1.320711e-001 -8.920757e-001 -1.021374e+001 128 96 49
5.561792e-001 -1.820805e+000 -1.254530e+001 114 44 49
-2.122216e+000 9.581227e-001 -9.737049e+000 133 29 36
-1.087074e-001 6.367852e-001 -9.358757e+000 54 51 43
1.468367e+000 1.909262e+000 -1.119710e+001 201 153 69
2.694686e+000 2.139161e+000 -1.092048e+001 121 62 65
-1.008883e+000 1.325664e+000 -9.003115e+000 214 167 63
3.101985e+000 -1.534399e+000 -1.340656e+001 218 211 202
3.101985e+000 -1.534399e+000 -1.340656e+001 218 211 202
2.246779e+000 1.960422e+000 -1.039555e+001 91 46 51
8.828409e-001 5.355427e-001 -1.082683e+001 130 98 47
3.347978e+000 -3.110870e+000 -1.510854e+001 222 219 210
-1.273416e+001 7.025877e+000 -2.891496e+001 231 220 221
-1.300580e+000 1.773417e+000 -9.891050e+000 129 48 49
-1.852377e-001 1.998408e+000 -1.024995e+001 104 65 65
-1.575861e+000 1.439385e+000 -9.628439e+000 175 75 77
2.748195e+000 1.653965e+000 -1.005254e+001 150 171 168
9.800876e-001 7.851150e-001 -9.998948e+000 121 89 42
-1.988293e+000 -8.494267e-001 -9.661462e+000 224 88 95
-1.455488e+001 8.350398e+000 -3.045916e+001 186 174 174
-1.218835e+001 7.293640e+000 -2.856995e+001 215 205 202
2.823742e+000 2.283334e+000 -1.054970e+001 152 102 98
-1.580235e+000 1.262438e+000 -9.441414e+000 188 79 80
2.756580e+000 1.366336e+000 -1.002890e+001 227 215 208
-3.382401e+000 -2.184231e+000 -4.096945e+001 155 68 69
-1.675859e-001 1.325164e+000 -9.293281e+000 58 64 55
2.139178e+000 1.476136e+000 -9.959336e+000 78 112 109
-2.916082e+000 3.590820e-001 -1.058478e+001 72 31 34
-1.145890e+001 6.298009e+000 -2.828838e+001 102 97 95
6.573572e+000 -8.043468e-001 -9.900862e+000 229 218 212
6.295862e-001 9.623291e-001 -9.775564e+000 133 101 41
-6.352550e+000 2.806944e+000 -2.781500e+001 89 85 90
-1.516569e+001 1.928187e+000 -3.249375e+001 115 113 116
-6.640287e+000 1.564152e+000 -2.836365e+001 79 77 80
-6.444726e+000 1.698393e+000 -2.835645e+001 48 42 46
-6.584293e+000 1.345198e+000 -2.851933e+001 42 38 39
-6.809254e+000 1.176566e+000 -2.879030e+001 73 71 74
-1.864582e+001 9.902818e+000 -3.667902e+001 84 77 84
-1.409539e+001 7.912977e+000 -2.996937e+001 192 175 158
-1.896315e+001 9.407939e+000 -3.675253e+001 80 76 82
-1.333148e+001 7.026010e+000 -3.006359e+001 217 200 191
-1.459584e+001 6.200183e+000 -3.170313e+001 210 190 179
-1.332281e+001 4.179818e+000 -2.974692e+001 197 181 168
-6.248529e+000 2.283318e+000 -2.805420e+001 43 41 42
-6.938421e+000 9.699188e-001 -2.863227e+001 85 84 89
-6.680531e+000 9.255964e-001 -2.872991e+001 44 38 41
-1.973998e+001 1.021379e+001 -3.810110e+001 38 33 39
-1.499804e+001 4.323293e+000 -3.235585e+001 210 192 180
-7.190517e+000 2.568524e+000 -2.839561e+001 48 44 45
-6.402802e+000 1.964887e+000 -2.819781e+001 47 38 41
-1.429806e+001 8.463455e+000 -3.046415e+001 116 110 122
-1.970296e+000 -3.962692e-001 -9.702553e+000 214 94 90
-1.588942e+000 -8.032748e-001 -9.428850e+000 109 34 38
-1.055284e+000 -1.017526e+000 -9.107854e+000 145 87 41
-2.233011e+001 -1.298522e+001 -4.703352e+001 133 125 122
-1.358608e+001 8.827743e+000 -2.995095e+001 109 106 117
-1.473629e+001 4.686576e+000 -3.238817e+001 229 211 199
-1.123956e+000 3.652888e-001 -9.059341e+000 215 82 79
-1.017080e-001 6.244648e-001 -9.329853e+000 54 51 45
-7.198503e+000 8.742194e-001 -2.887409e+001 81 82 86
1.469272e-001 -9.195861e-001 -1.001506e+001 132 100 53
-2.221134e+000 1.853676e+000 -1.036035e+001 231 224 210
-1.192382e+001 4.503350e+000 -2.840408e+001 255 255 255
-1.487883e+000 1.911611e+000 -9.922606e+000 170 67 69
-1.487883e+000 1.911611e+000 -9.922606e+000 170 67 69
2.143346e+000 1.172680e+000 -1.072613e+001 150 115 53
-1.191976e+001 5.021846e+000 -2.846218e+001 251 241 238
-1.283194e+001 2.700975e+000 -2.954569e+001 244 233 232
-1.285060e+001 2.171265e+000 -3.024513e+001 186 177 170
-1.777221e-001 1.322868e+000 -9.301270e+000 56 58 55
-8.927919e+000 3.579552e+000 -2.629626e+001 125 114 109
-6.200477e+000 2.627388e+000 -2.798160e+001 43 37 39
-7.073772e+000 1.628458e+000 -2.813343e+001 91 90 95
-1.510858e+001 3.645356e+000 -3.268643e+001 218 199 184
-1.194154e+001 2.921272e+000 -2.878892e+001 185 177 174
-7.340005e+000 1.480950e+000 -2.829705e+001 41 36 38
-1.123192e-001 4.923604e-001 -9.315632e+000 117 94 44
-1.333689e+001 1.082671e+000 -3.210047e+001 94 88 90
-1.127863e+000 1.340038e-001 -9.010920e+000 89 26 32
-1.892462e+001 -1.707543e+001 -4.158344e+001 65 64 67
-1.892462e+001 -1.707543e+001 -4.158344e+001 65 64 67
-1.345820e+001 1.259184e+000 -3.103300e+001 46 44 48
-1.092199e+001 4.489881e+000 -2.807790e+001 78 74 78
-1.346913e+001 2.292855e+000 -3.028136e+001 219 207 207
-1.243593e+001 2.552816e+000 -2.948527e+001 191 181 180
-8.923556e+000 3.887525e+000 -2.595473e+001 84 82 86
-6.555194e+000 2.508902e+000 -2.766896e+001 83 79 83
4.765056e-001 2.558912e+000 -1.212741e+001 186 96 97
4.174804e-001 2.508617e+000 -1.200112e+001 227 208 194
-1.323307e+001 2.578603e+000 -2.987567e+001 243 231 232
-1.496620e+000 1.978417e+000 -9.946929e+000 219 103 104
2.324849e+000 1.656195e+000 -9.996368e+000 59 69 73
2.324849e+000 1.656195e+000 -9.996368e+000 59 69 73
1.338374e+000 2.308890e+000 -1.120764e+001 174 119 52
2.479050e+000 1.348032e+000 -9.899178e+000 53 56 57
1.170601e+000 4.399992e-001 -1.013287e+001 116 94 45
-1.527581e+000 1.046240e+000 -9.246302e+000 216 99 92
-1.631530e+000 5.946682e-001 -9.304852e+000 117 22 33
-2.615511e-001 -4.056961e-001 -9.429862e+000 42 42 39
1.616075e+000 2.150794e+000 -1.104189e+001 152 73 47
-1.658859e+000 1.136260e+000 -9.537538e+000 216 103 97
-1.456382e+000 6.180812e-001 -9.168875e+000 212 96 91
-1.528857e+000 -7.278975e-002 -9.218592e+000 113 25 31
-1.461847e+000 8.425445e-001 -9.116277e+000 116 26 34
5.240703e-001 2.390059e+000 -1.199561e+001 155 55 63
9.178613e-001 2.731728e+000 -1.262517e+001 229 222 213
-6.777278e-001 1.144999e+000 -9.119187e+000 127 85 37
4.792876e+000 -1.805161e+000 -1.200780e+001 119 114 111
6.616597e+000 3.212963e+000 -9.728565e+000 226 213 205
6.459577e+000 2.597620e+000 -1.012349e+001 219 211 200
6.807732e+000 2.310702e+000 -9.363911e+000 222 209 201
7.061513e+000 1.661123e+000 -8.829486e+000 230 216 207
6.246697e+000 2.566754e+000 -1.051253e+001 209 199 190
6.284245e+000 2.444412e+000 -1.023725e+001 217 207 199
6.584760e+000 1.769286e+000 -9.662090e+000 209 199 189
6.945211e+000 1.781035e+000 -9.039215e+000 226 212 204
6.937279e+000 1.631110e+000 -9.070308e+000 224 211 205
1.727219e+000 2.236825e+000 -1.004290e+001 215 200 187
5.637646e+000 2.535229e+000 -1.126617e+001 202 193 184
-1.165069e+000 1.507130e+000 -9.439129e+000 190 99 90
1.478594e+000 2.493314e+000 -1.147809e+001 218 194 97
1.198823e+000 2.489606e+000 -1.166351e+001 146 99 68
2.290234e+000 1.727264e+000 -9.938560e+000 93 95 97
2.397479e+000 1.629980e+000 -9.977970e+000 83 112 115
2.695309e+000 1.605027e+000 -1.000547e+001 153 171 168
2.429567e+000 1.400107e+000 -9.826821e+000 111 141 139
2.769688e+000 1.509665e+000 -1.015625e+001 149 169 165
2.667268e+000 1.410892e+000 -9.966204e+000 147 158 155
1.317832e+000 1.964495e+000 -1.152676e+001 191 144 74
-1.444485e+000 6.835609e-001 -9.223162e+000 199 95 93
1.030440e+000 9.429649e-001 -1.001030e+001 129 96 56
6.057627e+000 4.776368e-001 -1.056331e+001 149 141 135
6.585063e+000 5.460030e-002 -9.502088e+000 225 212 206
-2.333259e+000 6.773485e-001 -9.796774e+000 221 96 93
6.445819e+000 -3.850529e-001 -9.681520e+000 246 239 236
6.445819e+000 -3.850529e-001 -9.681520e+000 246 239 236
-2.551721e-001 -1.124542e-002 -9.303649e+000 105 74 28
-1.838770e-001 -5.647361e-003 -9.377563e+000 103 71 32
-1.007012e+000 -2.903576e-001 -9.154061e+000 209 114 91
-9.389837e-001 -3.102072e-001 -9.018274e+000 199 89 63
6.096666e+000 -7.417547e-001 -1.024191e+001 154 143 139
6.143195e+000 -1.207569e+000 -9.960503e+000 195 182 174
6.106540e+000 -1.307148e+000 -9.960398e+000 193 180 172
-2.152726e+000 -6.626941e-001 -1.014430e+001 168 81 80
-1.443330e+000 -9.141088e-001 -9.458604e+000 206 88 87
-1.442544e+000 -1.067802e+000 -9.561853e+000 177 55 59
6.293605e+000 -1.802200e+000 -9.757462e+000 229 219 213
6.303457e+000 -2.067657e+000 -9.635477e+000 251 246 240
-1.527716e+000 -1.271785e+000 -1.018636e+001 120 52 55
4.862811e-001 -1.158178e+000 -1.240486e+001 191 167 161
6.075342e+000 -2.592914e+000 -1.000064e+001 252 244 239
6.140830e+000 -2.916827e+000 -9.747392e+000 254 249 245
6.419091e+000 -3.074614e+000 -9.412978e+000 242 231 228
5.639804e+000 -3.320548e+000 -1.062724e+001 216 205 200
5.706086e+000 -3.478025e+000 -1.053890e+001 222 213 206
6.031325e+000 -3.211476e+000 -1.003608e+001 252 243 235
5.645529e+000 -3.724955e+000 -1.060579e+001 245 233 227
6.680001e+000 2.845955e+000 -9.628500e+000 226 213 205
6.539208e+000 2.501060e+000 -9.914856e+000 218 205 197
6.560441e+000 2.452039e+000 -9.803657e+000 218 205 198
6.531932e+000 2.302992e+000 -9.874158e+000 215 202 196
6.909966e+000 1.870565e+000 -9.104428e+000 225 211 205
6.256544e+000 2.093290e+000 -1.038113e+001 209 199 191
6.880035e+000 1.383030e+000 -9.111439e+000 218 205 197
-1.933116e-001 1.400981e+000 -9.372785e+000 94 98 77
2.497831e+000 1.560365e+000 -9.961809e+000 108 146 152
2.463693e+000 1.432695e+000 -9.762309e+000 103 99 103
6.176765e+000 1.558156e+000 -1.043086e+001 192 181 175
6.754858e+000 6.580552e-001 -9.234467e+000 227 217 210
-9.009007e-001 5.434881e-001 -8.951678e+000 194 89 73
-2.338561e+000 3.872506e-001 -9.948845e+000 218 94 96
6.296212e+000 -5.982055e-001 -9.942333e+000 193 180 172
-1.060894e+000 -2.478274e-001 -9.189527e+000 185 92 86
6.268725e+000 -1.044231e+000 -9.942685e+000 207 195 187
-1.900267e+000 -1.040460e+000 -9.776962e+000 195 85 85
-9.357775e-001 -1.068368e+000 -9.020607e+000 152 102 42
6.050805e+000 -1.710877e+000 -1.017413e+001 191 180 174
6.480244e+000 -3.046090e+000 -9.170586e+000 244 235 231
4.702487e+000 -4.300167e+000 -1.232096e+001 213 204 199
6.763491e+000 2.143285e+000 -9.439537e+000 220 208 204
6.026871e+000 1.920627e+000 -1.080934e+001 216 207 200
6.076714e+000 1.599829e+000 -1.050705e+001 185 176 169
2.355850e+000 1.308712e+000 -1.049183e+001 119 91 57
6.748641e+000 5.103456e-001 -9.261536e+000 232 219 215
-1.727724e+000 1.106507e+000 -9.632778e+000 207 94 91
-2.235519e+000 4.099326e-001 -9.483595e+000 214 81 80
-2.430201e+000 -4.974567e-001 -9.922991e+000 141 39 40
-1.326279e+000 -7.932194e-001 -9.496163e+000 153 73 67
6.347991e+000 1.934153e+000 -1.017635e+001 227 217 208
6.515017e+000 1.382740e+000 -9.675019e+000 206 196 187
1.770879e+000 1.893745e+000 -1.015558e+001 168 83 86
1.770879e+000 1.893745e+000 -1.015558e+001 168 83 86
2.149406e+000 1.700944e+000 -1.016259e+001 68 48 53
-9.474683e-001 1.005439e+000 -9.076981e+000 238 189 78
1.317155e+000 2.089143e+000 -1.156080e+001 203 154 76
1.438774e+000 1.566091e+000 -1.113274e+001 120 80 54
-1.768330e-001 5.423672e-001 -9.397795e+000 116 95 48
1.113834e+000 -8.312877e-001 -1.016935e+001 145 114 60
1.113834e+000 -8.312877e-001 -1.016935e+001 145 114 60
-1.358178e+000 -1.132446e+000 -9.607734e+000 185 92 89
-4.197432e-001 -1.219740e+000 -9.402916e+000 124 103 48
-3.469737e-001 -1.200588e+000 -9.401875e+000 53 55 52
2.689969e+000 1.355849e+000 -1.000874e+001 78 78 77
2.711674e+000 1.331591e+000 -1.020713e+001 221 214 204
-1.752528e+000 1.013590e+000 -9.579840e+000 163 38 41
-1.752528e+000 1.013590e+000 -9.579840e+000 163 38 41
-1.685347e+000 7.456244e-001 -9.335648e+000 132 29 37
1.546628e+000 1.125644e+000 -1.078752e+001 224 219 208
1.634045e+000 1.057665e+000 -1.083520e+001 78 42 39
1.745681e+000 5.125078e-001 -1.109144e+001 57 47 55
1.351660e+000 -3.605627e-001 -1.087197e+001 43 43 44
-2.894307e+000 1.972474e-002 -1.077793e+001 212 90 90
-1.738676e+000 -7.970255e-001 -9.596204e+000 221 108 105
-2.126491e+000 -7.587127e-001 -1.007667e+001 158 28 40
-2.126491e+000 -7.587127e-001 -1.007667e+001 158 28 40
-1.763446e+000 -1.060920e+000 -9.654748e+000 208 100 98
-1.763446e+000 -1.060920e+000 -9.654748e+000 208 100 98
-1.443698e+000 -1.115129e+000 -9.560580e+000 86 36 37
1.666553e+000 2.194868e+000 -1.012473e+001 194 81 83
1.546401e+000 2.116234e+000 -1.068449e+001 156 83 52
1.909176e+000 1.828792e+000 -1.012130e+001 92 44 47
2.303481e+000 1.589563e+000 -1.000266e+001 92 111 117
2.456123e+000 1.607435e+000 -1.019686e+001 73 82 89
-1.586438e+000 1.557101e+000 -9.576319e+000 205 97 94
2.398861e+000 1.346680e+000 -1.034956e+001 65 50 45
-9.765603e-001 6.341902e-001 -9.115540e+000 229 188 90
-2.833029e+000 4.207264e-001 -1.065365e+001 219 93 97
-2.732945e+000 1.497906e-001 -1.040040e+001 216 81 80
-2.732945e+000 1.497906e-001 -1.040040e+001 216 81 80
-2.141005e+000 -1.398065e-001 -9.623566e+000 213 91 90
-2.382090e+000 -7.037751e-001 -1.047539e+001 159 30 42
-1.290487e+000 -1.091349e+000 -9.308978e+000 118 35 38
-1.019179e+000 -1.179251e+000 -9.106435e+000 225 204 85
2.374809e+000 -1.008086e+000 -1.282579e+001 100 69 43
2.230671e+000 2.189641e+000 -1.012167e+001 117 65 68
1.339755e+000 2.112216e+000 -1.118852e+001 157 96 49
1.468296e+000 2.209828e+000 -1.109154e+001 228 187 80
-1.702034e+000 1.405885e+000 -9.814990e+000 140 35 41
-1.702034e+000 1.405885e+000 -9.814990e+000 140 35 41
-1.875629e+000 9.227549e-001 -9.606981e+000 216 99 96
-1.623881e+000 9.244482e-001 -9.398628e+000 216 88 87
-1.493101e+000 8.908822e-001 -9.492275e+000 126 33 41
-1.094814e-002 5.919321e-001 -9.408894e+000 54 52 42
-2.058939e+000 3.962844e-001 -9.445082e+000 138 31 39
-2.540834e+000 4.554367e-001 -1.010148e+001 152 28 39
-2.605856e+000 3.664716e-001 -1.027547e+001 217 91 87
-2.203980e+000 4.871196e-002 -9.593193e+000 225 102 102
-2.080209e+000 1.163978e-001 -9.622198e+000 130 30 34
-2.080209e+000 1.163978e-001 -9.622198e+000 130 30 34
-2.338411e+000 -2.635134e-002 -9.806220e+000 145 29 39
-2.584481e+000 1.981244e-002 -1.018815e+001 149 28 38
-2.088323e+000 -4.195876e-002 -9.522516e+000 126 29 35
-1.697138e+000 -2.082197e-001 -9.379706e+000 104 25 33
-1.963202e+000 -5.997908e-001 -9.835017e+000 102 29 36
-1.192950e+000 -7.259627e-001 -9.173497e+000 106 39 33
4.072287e-001 -8.075535e-001 -1.038641e+001 91 42 38
-2.113182e+000 -9.355068e-001 -1.006287e+001 131 36 46
-1.147077e+000 -1.155626e+000 -9.274181e+000 242 205 90
-1.978391e+000 -1.274701e+000 -1.022382e+001 206 97 95
-1.392081e+000 -1.195960e+000 -9.856289e+000 70 35 41
-1.392081e+000 -1.195960e+000 -9.856289e+000 70 35 41
7.164972e-001 -1.815161e+000 -1.208064e+001 141 65 67
1.642094e+000 2.465300e+000 -1.094640e+001 221 216 203
1.097946e+000 2.456181e+000 -1.167172e+001 129 63 57
-1.060793e+000 1.288909e+000 -8.993180e+000 254 216 95
-9.005115e-001 1.290001e+000 -9.076769e+000 146 89 42
1.144330e+000 2.020013e+000 -1.143911e+001 98 42 38
-2.012346e+000 1.083528e+000 -9.780321e+000 126 29 36
-1.487709e+000 8.222986e-001 -9.268125e+000 123 34 40
-1.797282e+000 6.243877e-001 -9.469851e+000 121 28 37
-1.664779e+000 4.264666e-001 -9.320273e+000 224 70 75
1.685934e+000 1.048102e+000 -1.173458e+001 96 47 47
-2.014601e+000 2.425051e-001 -9.499655e+000 210 95 92
-1.528658e+000 -3.840477e-002 -9.297877e+000 114 29 34
-1.714026e+000 -5.079294e-001 -9.163134e+000 213 64 64
-9.633613e-001 -3.778774e-001 -9.042246e+000 247 214 96
-1.017516e+000 -5.652376e-001 -9.052060e+000 144 87 28
-1.795635e+000 -6.887993e-001 -9.705079e+000 210 94 89
-1.795635e+000 -6.887993e-001 -9.705079e+000 210 94 89
-1.211287e+000 -9.724154e-001 -9.130840e+000 255 222 84
-1.474676e+000 -9.090731e-001 -9.577325e+000 209 90 86
-1.447290e+000 -1.334695e+000 -1.014103e+001 196 86 86
4.815838e-001 -1.331209e+000 -1.236151e+001 76 44 45
-1.172962e+000 2.255737e+000 -1.028336e+001 224 227 214
-1.652907e+000 1.141377e+000 -9.691355e+000 214 81 82
-1.652907e+000 1.141377e+000 -9.691355e+000 214 81 82
1.387516e+000 -4.363071e-001 -1.076497e+001 56 49 47
2.686442e+000 -8.180530e-001 -1.293409e+001 104 73 42
-7.171078e-002 -1.499529e+000 -1.099100e+001 109 57 58
3.066033e-001 1.222814e+000 -9.912671e+000 132 99 54
-1.819803e+000 -1.991919e-001 -9.413340e+000 110 29 31
-1.735678e-001 -4.199544e-001 -9.492298e+000 53 52 47
-9.918079e-002 -1.472461e+000 -1.099982e+001 106 56 57
2.844351e-001 -1.184178e+000 -1.182506e+001 229 225 214
3.204638e-001 -1.514395e+000 -1.245499e+001 231 224 214
5.728753e-001 -1.821415e+000 -1.252998e+001 114 51 55
5.728753e-001 -1.821415e+000 -1.252998e+001 114 51 55
-1.331478e+000 8.045408e-001 -8.999114e+000 126 45 41
-1.896437e+000 4.552526e-001 -9.346702e+000 120 29 36
-1.942031e-001 -7.989499e-001 -9.562456e+000 70 60 50
3.283127e+000 -1.104605e+000 -1.323170e+001 77 38 43
-9.539036e-001 1.056954e+000 -9.254333e+000 236 186 86
3.616670e+000 1.683298e+000 -1.269874e+001 222 213 204
-2.616615e+000 -1.192433e+000 -1.129456e+001 231 224 214
-2.630193e+000 7.031631e-001 -1.122298e+001 219 94 92
1.054664e+000 -1.534876e+000 -1.251319e+001 89 40 42
2.334032e+000 2.059719e+000 -1.109130e+001 77 48 50
2.334032e+000 2.059719e+000 -1.109130e+001 77 48 50
-1.117511e+000 -4.809175e-001 2.933853e+000 0 255 0
-1.115076e+000 -4.802545e-001 2.883917e+000 255 255 0
-4.865117e-001 7.012297e-001 2.553582e+000 255 0 0
-4.844179e-001 6.974237e-001 2.503771e+000 255 255 0
4.930931e-002 1.467098e+000 2.666653e+000 0 255 0
5.159474e-002 1.462267e+000 2.616940e+000 255 255 0
-1.608994e+000 -3.880443e+000 2.782335e+000 255 0 0
-1.604469e+000 -3.867861e+000 2.734156e+000 255 255 0
-1.340501e+000 -2.725336e+000 2.446549e+000 0 255 0
-1.336043e+000 -2.716698e+000 2.397503e+000 255 255 0
-7.210699e-001 3.349104e+000 2.335053e+000 255 0 0
-7.182317e-001 3.339298e+000 2.286106e+000 255 255 0
