ply
format ascii 1.0
element face 0
property list uchar int vertex_indices
element vertex 240
property float x
property float y
property float z
property uchar diffuse_red
property uchar diffuse_green
property uchar diffuse_blue
end_header
-3.106911e-001 -6.141383e-001 -8.993103e+000 153 113 47
-2.869364e-001 8.280042e-001 -8.916132e+000 141 80 34
-7.146113e-001 3.755690e-001 -9.180813e+000 199 89 87
-5.019970e-001 3.637223e-001 -8.986690e+000 94 28 29
-1.163145e+000 3.658744e-002 -9.391824e+000 113 27 34
-3.555012e-001 -3.220863e-001 -9.073349e+000 250 211 91
-4.080406e-001 8.481094e-001 -8.985118e+000 252 212 88
4.070148e+000 -1.301430e+000 -1.213041e+001 134 125 122
2.344204e+000 1.519042e+000 -9.794886e+000 81 81 90
1.340366e-001 5.140606e-001 -9.255142e+000 127 95 46
2.171551e+000 -1.227923e+000 -1.235039e+001 103 51 57
2.603266e-001 -1.522647e-001 -9.431853e+000 82 82 59
-4.619645e-001 2.352196e-002 -9.040681e+000 93 36 28
-4.125400e-001 6.908837e-001 -9.019902e+000 98 31 31
-9.275774e+000 5.433521e+000 -2.670666e+001 83 81 84
-1.279679e-001 5.333822e-001 -8.995829e+000 106 41 37
2.453689e-001 2.508028e-001 -9.273146e+000 97 68 28
3.127164e-001 2.644335e-001 -9.335328e+000 100 68 30
3.127164e-001 2.644335e-001 -9.335328e+000 100 68 30
-6.268316e+000 2.404521e+000 -2.646694e+001 95 94 96
-6.071875e+000 2.377624e+000 -2.671027e+001 53 51 54
-5.948343e+000 2.246154e+000 -2.672539e+001 81 79 84
1.202943e+000 1.922536e+000 -1.099317e+001 229 187 79
2.035513e-001 -5.819481e-001 -9.469946e+000 85 96 72
-1.461459e+001 6.600194e+000 -3.212216e+001 211 193 177
-5.957456e+000 2.718657e+000 -2.636819e+001 42 37 41
-1.495800e+001 6.045146e+000 -3.241607e+001 201 179 168
-1.278158e+001 4.134735e+000 -3.056247e+001 217 201 193
-1.458258e+001 4.905927e+000 -3.157283e+001 146 133 127
-6.444729e+000 1.694089e+000 -2.681838e+001 106 105 110
-6.068988e+000 2.537292e+000 -2.622925e+001 98 99 101
-6.603745e+000 1.911612e+000 -2.662843e+001 45 43 48
-1.379687e+001 4.837687e+000 -3.091232e+001 118 109 110
-1.654952e-001 1.345684e-001 -9.013020e+000 102 38 37
-7.359557e+000 4.826588e+000 -2.513081e+001 146 135 133
-1.260487e+001 3.801339e+000 -2.982463e+001 230 216 203
-6.160142e+000 2.668394e+000 -2.627193e+001 92 91 96
-1.549791e+001 4.808935e+000 -3.379331e+001 175 158 150
-6.695099e+000 1.153379e+000 -2.706425e+001 89 88 93
-6.585842e+000 1.107618e+000 -2.735072e+001 44 43 46
-6.585842e+000 1.107618e+000 -2.735072e+001 44 43 46
-6.413249e+000 1.478318e+000 -2.698527e+001 44 44 46
-1.418777e+001 3.326749e+000 -3.211076e+001 204 187 174
-6.864823e+000 1.358831e+000 -2.723204e+001 45 40 46
1.853994e+000 -1.086395e+000 -1.202176e+001 119 90 57
-1.475173e+001 5.293053e+000 -3.211505e+001 217 199 187
-1.608227e+001 4.894031e+000 -3.418407e+001 210 194 181
-1.608227e+001 4.894031e+000 -3.418407e+001 210 194 181
-6.587884e+000 1.307286e+000 -2.710882e+001 97 96 101
-6.427160e+000 1.280759e+000 -2.726906e+001 93 94 96
-7.202673e+000 1.009682e+000 -2.804203e+001 39 38 41
-1.644410e+001 5.539272e+000 -3.323649e+001 192 180 180
-9.214080e+000 4.452192e+000 -2.590391e+001 45 43 48
-9.015624e+000 2.314030e+000 -2.627145e+001 252 231 202
-9.015624e+000 2.314030e+000 -2.627145e+001 252 231 202
-2.528784e-001 9.908789e-001 -8.924149e+000 230 187 82
-1.064786e+001 4.520724e+000 -2.736922e+001 227 218 213
-5.957266e+000 2.178683e+000 -2.622777e+001 68 69 71
2.326896e+000 -1.138078e+000 -1.248107e+001 114 58 58
-3.021633e-001 3.425793e-001 -9.009131e+000 206 85 86
-4.798926e-001 -1.314278e-001 -9.069783e+000 255 221 88
-1.237785e+001 3.420186e+000 -2.950231e+001 195 181 175
-9.060102e-001 3.979823e-001 -9.162376e+000 105 28 33
1.627365e+000 -9.124043e-001 -1.216680e+001 118 90 51
2.331989e+000 1.475450e+000 -9.799070e+000 157 168 163
1.978134e-001 2.537454e-001 -9.272840e+000 101 71 29
-1.076171e+001 4.498076e+000 -2.726708e+001 242 231 233
-1.048210e+001 4.410077e+000 -2.730946e+001 159 147 145
-6.360682e+000 2.575977e+000 -2.652071e+001 48 46 49
9.158843e-001 1.904181e+000 -1.114186e+001 116 45 47
-6.963434e+000 4.487576e-001 -2.829887e+001 40 35 39
2.326896e+000 -1.138078e+000 -1.248107e+001 114 58 58
-3.290321e-001 -1.505894e-002 -9.048196e+000 247 210 89
3.049486e-001 7.232827e-001 -9.323405e+000 54 51 45
-9.060102e-001 3.979823e-001 -9.162376e+000 105 28 33
-5.019970e-001 3.637223e-001 -8.986690e+000 94 28 29
9.614709e-002 1.416797e-001 -9.186605e+000 123 92 45
1.616722e+000 2.029040e+000 -1.083822e+001 220 180 97
-1.162818e+001 6.477868e+000 -2.781922e+001 252 238 237
-1.190562e+001 6.280402e+000 -2.793149e+001 247 236 236
-1.108493e+001 4.401885e+000 -2.728121e+001 233 225 222
-1.088852e+001 4.397266e+000 -2.721942e+001 231 222 219
2.207836e+000 -7.530806e-001 -1.247621e+001 104 53 55
2.223190e+000 1.291130e+000 -9.755124e+000 108 102 102
-1.068922e+001 4.382744e+000 -2.712637e+001 221 211 206
-6.057351e+000 2.290562e+000 -2.603350e+001 64 62 65
1.853994e+000 -1.086395e+000 -1.202176e+001 119 90 57
-2.664354e-001 7.057796e-001 -8.958121e+000 236 199 89
-1.301273e+001 4.897721e+000 -3.049376e+001 236 223 210
-8.762303e-001 2.406432e-001 -9.242981e+000 216 67 65
2.304932e+000 -9.957236e-001 -1.262155e+001 230 222 211
-2.576994e-001 1.005725e+000 -8.961180e+000 233 189 84
-6.888415e-001 7.115104e-001 -9.154720e+000 215 96 93
-4.709020e-001 1.978517e-001 -9.127816e+000 217 76 76
-3.308066e-001 1.576377e-001 -9.021894e+000 113 31 35
3.411253e+000 -1.103866e+000 -1.260915e+001 68 58 60
3.402576e+000 -1.048263e+000 -1.238255e+001 66 56 57
-1.163649e+001 6.119818e+000 -2.770777e+001 235 223 224
4.211099e+000 2.667912e+000 -1.169104e+001 245 234 227
1.294058e+000 2.043381e+000 -1.099550e+001 222 189 92
-1.042765e+001 4.330905e+000 -2.685681e+001 202 195 189
-6.046619e-001 1.663871e+000 -9.778686e+000 135 53 58
2.329642e+000 1.353203e+000 -9.807427e+000 139 153 147
-1.195990e+000 1.005302e+000 -9.514241e+000 142 26 35
-1.290756e+001 2.148335e+000 -2.961497e+001 223 211 211
-1.308986e+001 2.101232e+000 -2.982715e+001 214 202 202
-1.234332e+001 2.140049e+000 -2.942797e+001 228 217 215
-1.055712e+001 1.863496e+000 -2.567243e+001 216 207 201
-1.274558e+001 1.534049e+000 -3.016352e+001 158 147 148
-8.723335e-001 4.572853e-001 -9.152491e+000 128 33 35
-6.992172e-001 -4.293647e-001 -9.387148e+000 212 91 90
-1.129322e+001 6.388972e+000 -2.734765e+001 224 213 214
-1.158501e+001 6.371266e+000 -2.772784e+001 228 216 216
4.638578e+000 2.608667e+000 -1.096744e+001 247 234 228
1.513149e+000 1.997410e+000 -1.065739e+001 226 189 94
-1.081119e+001 4.720110e+000 -2.734996e+001 244 234 233
1.745207e+000 1.669404e+000 -9.857892e+000 130 70 72
4.589877e+000 1.835005e+000 -1.099198e+001 181 171 163
-1.211196e+001 2.480017e+000 -2.890155e+001 240 230 228
-1.214853e+001 2.331134e+000 -2.904011e+001 219 209 205
-1.196455e+001 2.353579e+000 -2.888042e+001 233 223 222
-1.189294e+001 2.247025e+000 -2.905735e+001 223 213 209
-1.179908e+001 1.989046e+000 -2.902339e+001 186 177 172
-1.200747e+001 1.874325e+000 -2.932340e+001 185 176 171
8.491554e-001 8.928286e-003 -7.095430e+000 129 90 47
7.819460e-001 -3.619356e-001 -9.763016e+000 69 34 27
4.931091e+000 -4.834057e-001 -9.844861e+000 201 188 182
-2.794420e+001 -1.648623e+001 -5.663101e+001 79 85 101
-1.164492e+000 4.837381e-001 -9.383846e+000 215 95 96
4.974256e+000 8.762374e-002 -9.910018e+000 234 221 215
1.194308e+000 2.074977e+000 -1.112255e+001 135 69 65
1.282398e+000 1.791413e+000 -1.106311e+001 200 154 75
-1.304970e+001 4.382312e+000 -2.987499e+001 200 186 177
-6.635754e-001 1.233987e+000 -9.307275e+000 113 34 38
2.644404e-001 1.287560e+000 -9.211998e+000 57 53 52
2.182828e+000 1.411327e+000 -9.778131e+000 112 163 160
-3.404118e-001 6.491495e-001 -9.051344e+000 203 99 92
1.212810e-001 -5.569433e-001 -9.341966e+000 62 68 56
-1.051266e+001 5.434714e+000 -2.725415e+001 108 100 100
-2.679783e-001 1.394746e+000 -9.139444e+000 122 52 56
-1.522542e+001 4.956958e+000 -3.317361e+001 180 166 161
1.323698e+000 1.608104e+000 -1.093897e+001 150 92 46
2.129028e+000 1.397009e+000 -9.790319e+000 79 87 89
-9.392060e+000 3.061286e+000 -2.595256e+001 244 227 199
-4.048280e-001 9.954482e-001 -9.078539e+000 144 53 41
-2.202771e-001 9.087402e-001 -8.903434e+000 231 195 83
-2.202771e-001 9.087402e-001 -8.903434e+000 231 195 83
-3.316052e-001 7.187807e-001 -9.049407e+000 234 191 88
-2.434347e-001 5.975763e-001 -8.943248e+000 205 90 90
-2.434347e-001 5.975763e-001 -8.943248e+000 205 90 90
-1.538004e+001 2.136426e+000 -3.317022e+001 114 108 112
-1.358672e+001 6.714186e+000 -3.066381e+001 206 186 176
1.323003e+000 1.968032e+000 -1.090954e+001 178 118 56
1.673263e+000 1.705114e+000 -9.915963e+000 121 52 56
1.677254e+000 1.632962e+000 -9.930191e+000 165 80 83
-9.432071e+000 3.287145e+000 -2.621357e+001 193 169 129
-9.432071e+000 3.287145e+000 -2.621357e+001 193 169 129
-3.111938e-001 1.325338e+000 -9.040422e+000 243 209 85
-4.894556e-001 1.152517e+000 -9.203732e+000 155 39 49
3.446428e-001 1.244196e+000 -9.290907e+000 88 98 72
2.110079e+000 1.037330e+000 -1.034456e+001 112 72 39
2.110079e+000 1.037330e+000 -1.034456e+001 112 72 39
2.126065e+000 9.674360e-001 -1.016053e+001 153 120 60
-6.224630e+000 1.625599e+000 -2.698026e+001 94 95 97
-1.002430e+000 -4.772162e-001 -9.622057e+000 125 35 45
-2.513442e+001 -1.597705e+001 -5.288111e+001 64 62 68
9.544611e-001 1.779625e+000 -1.105544e+001 146 66 62
1.313936e+000 1.836803e+000 -1.083164e+001 165 102 46
-1.281165e+001 3.270120e+000 -2.986435e+001 239 219 205
-8.089818e-001 8.961290e-001 -9.135830e+000 217 85 82
-1.140156e+000 6.513127e-001 -9.351653e+000 137 29 39
2.447791e-001 7.011947e-001 -9.279700e+000 52 47 41
2.447791e-001 7.011947e-001 -9.279700e+000 52 47 41
-1.771635e+000 5.447108e-001 -1.025142e+001 227 107 101
-1.367532e+000 5.790691e-001 -9.583615e+000 170 33 41
-7.328943e-001 6.006106e-001 -9.188193e+000 135 29 37
-1.170235e+000 3.203239e-001 -9.348982e+000 142 31 39
-7.915792e-001 -5.814194e-002 -9.209348e+000 143 33 40
2.603266e-001 -1.522647e-001 -9.431853e+000 82 82 59
-1.335443e+000 -3.458362e-001 -9.957708e+000 218 97 93
-1.116938e+000 -3.826473e-001 -9.606969e+000 237 104 110
-1.011018e+000 -3.568675e-001 -9.541733e+000 143 34 40
2.179014e+000 -3.954788e-001 -1.179882e+001 105 74 43
2.299244e+000 -2.848717e-001 -1.183149e+001 89 35 40
-7.279468e-001 -7.436780e-001 -9.851779e+000 193 90 91
-3.037132e+001 -1.690512e+001 -5.923392e+001 121 113 109
-3.037132e+001 -1.690512e+001 -5.923392e+001 121 113 109
-2.419112e+001 -1.551119e+001 -5.028094e+001 133 126 120
-2.419112e+001 -1.551119e+001 -5.028094e+001 133 126 120
1.122074e+000 2.052168e+000 -1.112219e+001 131 66 57
-5.390506e-001 1.587900e+000 -9.708465e+000 206 95 88
1.189698e+000 1.753778e+000 -1.104374e+001 97 44 43
1.401667e+000 1.876118e+000 -1.063666e+001 233 190 82
-5.946706e-001 1.228735e+000 -9.312543e+000 219 95 90
-3.847772e-001 1.182931e+000 -8.938465e+000 254 218 88
-2.677347e-001 1.158981e+000 -8.894536e+000 148 86 42
-1.229333e+001 2.893143e+000 -2.930791e+001 178 170 168
-6.068988e+000 2.537292e+000 -2.622925e+001 98 99 101
-1.130287e+000 1.064485e+000 -9.657544e+000 131 27 37
-1.022508e+000 9.366620e-001 -9.488847e+000 214 92 90
-6.832016e-001 1.131812e+000 -9.248215e+000 114 30 37
-1.307227e+000 8.050936e-001 -9.589906e+000 216 98 94
-1.110432e+000 8.410753e-001 -9.428885e+000 114 27 35
3.657620e-001 7.025566e-001 -9.365405e+000 50 47 42
-1.129436e+000 5.632424e-001 -9.314956e+000 128 27 35
-8.471071e-001 5.627085e-001 -9.206191e+000 223 72 72
-1.222115e+000 -1.395849e-001 -9.679758e+000 116 31 38
-3.595202e-001 -1.647529e-001 -9.043244e+000 148 86 36
-2.597885e+001 -1.445763e+001 -5.319790e+001 133 125 122
-2.842875e+001 -1.681062e+001 -5.668720e+001 135 129 130
-6.437330e-001 1.732816e+000 -9.870598e+000 119 46 48
1.529207e+000 1.866856e+000 -1.057294e+001 151 73 49
-1.300448e+000 9.577469e-001 -9.561192e+000 135 28 36
-8.441894e-001 1.094325e+000 -9.417163e+000 217 100 93
-6.987834e-001 8.733558e-001 -9.159745e+000 121 31 35
-6.987834e-001 8.733558e-001 -9.159745e+000 121 31 35
-6.888415e-001 7.115104e-001 -9.154720e+000 215 96 93
-1.114473e+000 4.216969e-001 -9.315399e+000 210 91 88
-7.750520e-001 -1.184077e-001 -9.198392e+000 124 32 35
-7.750520e-001 -1.184077e-001 -9.198392e+000 124 32 35
2.680346e+000 -5.922893e-001 -1.252370e+001 81 41 43
2.541238e-001 -5.793672e-002 -9.367750e+000 53 48 45
2.541238e-001 -5.793672e-002 -9.367750e+000 53 48 45
2.701201e+000 -5.784644e-001 -1.256012e+001 77 40 41
3.292363e+000 -1.546703e+000 -1.295413e+001 145 140 135
1.185711e+000 8.470315e-001 -1.008514e+001 131 99 50
1.185711e+000 8.470315e-001 -1.008514e+001 131 99 50
1.889201e-001 -8.342489e-001 -1.029214e+001 96 54 55
2.171551e+000 -1.227923e+000 -1.235039e+001 103 51 57
-2.568654e+001 -9.655640e+000 -6.478300e+001 36 35 40
-1.111550e+001 4.108887e+000 -2.775748e+001 255 255 255
-1.112965e+001 1.712157e+000 -2.866437e+001 60 58 63
-1.080377e+000 2.091195e-001 -9.502603e+000 124 29 32
-1.726168e+001 -7.876108e+000 -4.704193e+001 35 34 38
-2.856512e+001 -1.217707e+001 -6.021705e+001 95 91 92
1.057684e+000 -9.176806e-001 -1.128541e+001 95 49 49
2.619310e-002 2.518295e-002 -2.627449e-001 0 255 0
2.605201e-002 2.515481e-002 -3.127447e-001 255 255 0
4.346474e-001 8.211494e-001 -5.937199e-001 255 0 0
4.344020e-001 8.170326e-001 -6.435495e-001 255 255 0
