ply
format ascii 1.0
element face 0
property list uchar int vertex_indices
element vertex 671
property float x
property float y
property float z
property uchar diffuse_red
property uchar diffuse_green
property uchar diffuse_blue
end_header
4.650939e-001 8.404816e-001 -6.845672e+000 18 10 20
-2.569478e-001 5.599083e-001 -7.642254e+000 166 150 142
5.110414e-001 3.478855e-001 -6.756183e+000 236 235 233
-2.543022e-001 1.974928e-001 -7.655507e+000 54 25 24
2.647553e-001 1.971480e-001 -7.005764e+000 146 133 125
-1.611227e-001 4.097479e-002 -6.882823e+000 82 44 35
-7.894289e-002 8.980575e-002 -6.979268e+000 124 111 102
-3.861265e-002 8.506432e-002 -6.928970e+000 166 157 148
6.347982e-002 -1.676676e-002 -6.902246e+000 132 119 111
7.690570e-002 -2.800923e-002 -6.885104e+000 155 142 134
9.143865e-001 2.021854e-002 -6.380665e+000 247 87 98
-1.602377e-001 -1.133564e-001 -6.819754e+000 33 17 4
8.098775e-001 -1.166466e-001 -6.488783e+000 206 50 54
-5.419016e-001 -1.820691e-001 -6.534135e+000 94 23 19
-4.654960e-001 -1.892532e-001 -6.627384e+000 122 38 20
-3.183456e-001 -1.865658e-001 -6.688433e+000 118 12 13
-1.474670e-001 -1.763728e-001 -6.868467e+000 131 107 70
-1.999281e-001 -2.221320e-001 -6.801515e+000 130 109 98
-3.171163e-001 -2.592065e-001 -6.677435e+000 32 12 14
-3.269025e-001 -2.766229e-001 -6.671565e+000 179 154 126
-3.124386e-001 -2.743372e-001 -6.677854e+000 175 116 101
-3.119796e-001 -2.730341e-001 -6.674041e+000 175 116 101
-3.148893e-001 -2.859834e-001 -6.670021e+000 34 17 11
-2.071695e-001 -3.196445e-001 -6.768252e+000 201 196 193
-8.320582e-002 -3.422850e-001 -6.927409e+000 255 251 242
3.650772e-001 -8.823840e-001 -7.250488e+000 162 140 96
-1.874153e-001 6.753781e-001 -7.572926e+000 207 44 50
6.818169e-002 5.179474e-001 -7.166830e+000 194 185 180
-3.040618e+000 6.999197e-001 -1.133820e+001 35 29 31
-2.478852e-001 2.121960e-001 -7.674223e+000 212 52 51
-1.980651e-001 2.143170e-001 -7.634004e+000 207 200 186
1.458528e-001 1.877690e-001 -6.950126e+000 154 140 124
8.861670e-001 1.557480e-001 -6.425064e+000 25 15 23
4.927596e-003 3.644968e-002 -6.925000e+000 118 107 101
-4.600302e-002 2.032161e-002 -6.881811e+000 122 107 102
9.044688e-001 1.863020e-002 -6.388154e+000 233 78 82
-1.334884e-001 -6.902172e-002 -6.810807e+000 115 33 22
-1.226264e-001 -8.654772e-002 -6.799979e+000 149 67 49
-1.225692e-001 -8.647419e-002 -6.799082e+000 149 67 49
5.015377e-002 -1.437008e-001 -6.854428e+000 206 201 197
1.383600e-001 -1.409003e-001 -6.847860e+000 234 227 221
2.015783e-001 -1.189307e-001 -6.874084e+000 238 235 229
8.126631e-001 -1.362267e-001 -6.500407e+000 161 38 46
-4.579118e-001 -2.050811e-001 -6.635602e+000 154 52 29
3.651250e-001 -2.542018e-001 -6.897912e+000 211 204 195
-3.525514e-001 -2.694606e-001 -6.664289e+000 50 50 69
-2.080355e-001 -2.978931e-001 -6.751047e+000 163 155 150
-1.672012e-001 -2.972001e-001 -6.793489e+000 174 164 161
-1.674506e-001 -2.976218e-001 -6.800979e+000 174 164 161
-1.083492e-001 -2.844611e-001 -6.859943e+000 185 178 170
2.338673e-001 -3.870597e-001 -6.945139e+000 156 144 127
1.021538e+000 -3.011299e-001 -6.312080e+000 239 225 177
4.142151e-001 -4.828506e-001 -6.844804e+000 158 145 125
5.072676e-001 -5.704762e-001 -6.842495e+000 246 231 218
3.198650e-001 -8.975655e-001 -7.296541e+000 165 149 102
3.877758e-001 -8.734230e-001 -7.219409e+000 233 219 164
3.214019e-002 8.533371e-001 -7.292265e+000 202 190 185
6.034770e-001 6.629513e-001 -6.674647e+000 18 3 6
6.058377e-001 6.046338e-001 -6.627292e+000 167 39 45
7.140069e-001 4.800718e-001 -6.568191e+000 18 7 11
2.385659e-001 5.278948e-001 -7.097033e+000 184 177 167
6.276970e-001 4.201020e-001 -6.618195e+000 222 53 59
-8.618955e-002 3.953416e-001 -7.328722e+000 170 161 154
3.322865e-001 9.511880e-002 -6.830421e+000 154 141 132
-2.003443e-001 3.044249e-002 -6.929067e+000 72 27 22
-1.271083e-001 -2.180489e-002 -6.811828e+000 142 119 110
-3.279486e-001 -5.821652e-002 -6.750226e+000 86 18 7
-1.478710e-001 -7.707289e-002 -6.803939e+000 165 80 59
-4.357027e-001 -1.870295e-001 -6.726877e+000 134 33 10
-1.817071e-001 -2.382625e-001 -6.840090e+000 113 94 79
4.340106e-001 -2.408735e-001 -6.859599e+000 172 163 148
-2.341035e-001 -2.921583e-001 -6.713148e+000 181 172 170
-1.954675e-001 -3.136142e-001 -6.765582e+000 253 254 249
3.399336e-001 -4.296629e-001 -6.912612e+000 229 226 218
3.399336e-001 -4.296629e-001 -6.912612e+000 229 226 218
8.185961e-001 -5.187994e-001 -6.493102e+000 18 1 7
6.299913e-001 5.962747e-001 -6.627507e+000 196 55 61
-3.315881e-001 6.908360e-001 -7.734754e+000 30 16 16
7.065389e-001 4.657250e-001 -6.569357e+000 176 42 37
7.291870e-002 4.535159e-001 -7.154673e+000 186 177 168
3.944932e-001 4.100329e-001 -6.950244e+000 166 157 150
2.376269e-001 2.533569e-001 -7.033613e+000 123 110 99
8.714533e-001 1.794606e-001 -6.421493e+000 25 5 9
3.146833e-002 1.394314e-001 -7.016214e+000 178 169 160
3.146833e-002 1.394314e-001 -7.016214e+000 178 169 160
2.843399e-001 1.412478e-001 -6.856474e+000 142 129 113
5.739523e-001 7.655837e-002 -6.744188e+000 195 188 178
1.722385e-001 2.691421e-002 -6.847455e+000 192 182 172
1.733437e-001 5.588199e-004 -6.851463e+000 203 194 187
9.138121e-001 2.245209e-002 -6.393031e+000 243 79 98
-9.057248e-002 -2.878993e-002 -6.832708e+000 183 173 164
8.964529e-001 -1.034621e-001 -6.416800e+000 249 79 93
-7.139957e-001 -1.789848e-001 -6.562449e+000 135 113 67
-2.631419e+000 -6.245628e-001 -1.089446e+001 44 39 39
-3.684899e-001 -2.290910e-001 -6.696563e+000 188 105 67
4.483659e-001 -2.339607e-001 -6.812539e+000 243 240 231
5.267627e-001 -2.302576e-001 -6.719124e+000 172 158 147
6.595343e-001 -2.165050e-001 -6.603157e+000 158 145 134
-2.532969e-001 -3.065315e-001 -6.713259e+000 236 232 229
-2.709795e-002 -3.538111e-001 -6.985696e+000 255 254 249
7.021143e-001 -3.615151e-001 -6.550130e+000 182 159 106
7.240041e-001 -4.484133e-001 -6.615387e+000 169 147 134
3.719165e-001 -8.912642e-001 -7.229953e+000 45 32 34
6.891784e-001 -7.652183e-001 -6.782941e+000 253 82 93
3.076797e-001 8.014611e-001 -6.989580e+000 219 212 209
6.089781e-003 8.508282e-001 -7.319767e+000 192 35 44
6.391599e-001 6.320348e-001 -6.667843e+000 16 12 9
6.870630e-001 4.934117e-001 -6.587969e+000 203 42 57
-2.422297e-001 6.044000e-001 -7.598566e+000 206 191 183
3.722412e-001 4.266701e-001 -6.954090e+000 181 174 166
-8.677426e-002 4.221479e-001 -7.306399e+000 208 199 190
7.997425e-001 2.979689e-001 -6.463772e+000 214 49 60
7.868896e-001 2.144489e-001 -6.526253e+000 235 64 73
8.621311e-001 1.621797e-001 -6.421362e+000 229 58 64
5.414083e-001 1.152977e-001 -6.796005e+000 170 163 153
1.168688e-002 5.747543e-002 -6.938780e+000 179 168 162
3.099148e-002 3.802549e-002 -6.910828e+000 182 171 165
8.717396e-001 3.401240e-002 -6.370088e+000 204 53 62
9.280968e-001 5.432205e-002 -6.398493e+000 29 12 20
5.132748e-001 2.526856e-002 -6.707927e+000 162 150 138
8.573351e-001 1.293915e-002 -6.378064e+000 169 29 40
2.817828e-001 -2.673161e-002 -6.802744e+000 204 194 185
5.770654e-002 -9.343104e-002 -6.837435e+000 177 166 162
3.739283e-001 -9.778042e-002 -6.762559e+000 224 221 214
-5.477796e-001 -1.555968e-001 -6.554341e+000 145 60 38
-9.446435e-002 -1.906891e-001 -6.832021e+000 238 235 230
7.868118e-002 -1.966489e-001 -6.871385e+000 205 191 182
7.868118e-002 -1.966489e-001 -6.871385e+000 205 191 182
7.175271e-001 -1.587192e-001 -6.563031e+000 164 149 141
-7.832810e-002 -2.282745e-001 -6.880870e+000 241 240 237
2.534612e-001 -2.475921e-001 -6.924683e+000 215 208 200
-3.440500e-001 -2.722318e-001 -6.671921e+000 46 42 53
-1.443945e-001 -2.843615e-001 -6.820534e+000 159 143 131
3.328433e-001 -4.039008e-001 -6.922648e+000 254 255 250
4.033493e-001 -3.906065e-001 -6.851010e+000 151 132 94
5.127622e-001 -4.324393e-001 -6.737023e+000 239 233 224
3.468248e-001 -5.337969e-001 -6.977881e+000 254 255 250
7.374967e-001 -6.608173e-001 -6.663275e+000 28 11 12
2.830920e-001 -9.326467e-001 -7.363370e+000 208 191 147
2.920515e-001 8.476813e-001 -7.029924e+000 196 34 40
3.356514e-001 8.130087e-001 -6.964980e+000 206 37 44
6.432942e-001 5.737652e-001 -6.624763e+000 17 1 8
-3.064957e-001 7.181700e-001 -7.671046e+000 193 36 43
5.095621e-001 5.209136e-001 -6.760376e+000 148 124 116
5.028830e-001 4.934631e-001 -6.772722e+000 221 212 203
-7.802628e-002 4.565695e-001 -7.303350e+000 150 141 131
3.469192e-001 2.490636e-001 -6.997418e+000 142 132 119
8.405531e-001 2.180847e-001 -6.445436e+000 232 58 71
3.428239e-001 1.163951e-001 -6.842910e+000 194 184 174
3.484381e-001 3.777117e-002 -6.807484e+000 146 136 127
6.164883e-001 7.330773e-002 -6.691192e+000 188 181 171
-1.565363e-001 1.813827e-002 -6.877949e+000 77 20 13
-1.266095e-001 2.803783e-003 -6.863512e+000 156 144 132
4.527622e-001 2.671091e-002 -6.736922e+000 160 150 141
5.200723e-001 -3.522476e-003 -6.683867e+000 209 200 193
-2.116360e-001 -2.249297e-001 -6.760593e+000 169 145 135
3.327769e-001 -2.536861e-001 -6.899079e+000 227 220 210
5.489919e-001 -2.214545e-001 -6.687335e+000 177 166 154
-1.694294e-002 -3.888964e-001 -7.024552e+000 50 39 37
-3.265377e-001 -3.969157e-001 -6.829575e+000 40 34 25
3.658986e-001 -4.366519e-001 -6.900692e+000 254 253 249
7.498624e-001 -6.313286e-001 -6.654654e+000 250 255 249
2.149382e-001 7.121464e-001 -7.144482e+000 221 215 212
6.490213e-001 5.371753e-001 -6.628518e+000 227 55 67
3.650786e-001 5.846700e-001 -6.952780e+000 228 223 217
5.506619e-001 5.020551e-001 -6.682177e+000 219 53 65
-1.604581e-001 5.824621e-001 -7.523898e+000 156 143 134
1.097141e-001 5.233993e-001 -7.183153e+000 221 214 208
3.664530e-001 5.053493e-001 -6.970289e+000 240 233 227
4.558858e-002 4.984127e-001 -7.210454e+000 207 198 193
6.413145e-001 3.669974e-001 -6.644716e+000 215 204 198
4.894609e-002 4.092418e-001 -7.192403e+000 204 193 187
6.661029e-001 3.356020e-001 -6.590145e+000 213 45 54
-3.470201e-001 3.272968e-001 -7.699802e+000 212 202 193
1.773603e-001 2.637650e-001 -7.050028e+000 180 169 163
8.055211e-002 1.611470e-001 -6.988153e+000 138 125 116
7.104312e-001 1.575037e-001 -6.567286e+000 158 143 136
2.563467e-001 1.360286e-001 -6.897893e+000 198 190 179
8.801576e-001 9.860743e-002 -6.410672e+000 207 45 51
3.341982e-002 8.896755e-002 -6.972144e+000 129 119 109
7.839346e-002 8.987927e-002 -6.944315e+000 214 207 201
9.030721e-001 -7.685023e-003 -6.382221e+000 16 7 3
5.424174e-001 -2.695341e-002 -6.666595e+000 161 149 137
1.315972e-001 -1.175238e-001 -6.866010e+000 195 188 180
-6.282109e-001 -1.859536e-001 -6.550586e+000 122 56 50
8.764082e-001 -1.355461e-001 -6.431971e+000 122 23 36
-3.223304e-001 -2.004044e-001 -6.685014e+000 142 25 26
4.868426e-001 -2.429500e-001 -6.784490e+000 163 151 137
-3.752214e-001 -2.593992e-001 -6.688009e+000 239 188 141
4.499366e-001 -3.292319e-001 -6.774056e+000 161 138 94
3.653723e-001 -4.395913e-001 -6.902929e+000 255 254 250
7.523442e-001 -3.652171e-001 -6.521507e+000 230 217 208
3.717587e-001 -5.759105e-001 -7.001789e+000 225 222 215
5.993634e-001 -7.355863e-001 -6.854618e+000 44 28 34
3.637401e-001 7.496559e-001 -6.940532e+000 223 217 213
-2.043467e-002 7.969294e-001 -7.333705e+000 195 185 176
9.817726e-002 7.279079e-001 -7.245849e+000 206 199 193
5.318505e-001 5.735480e-001 -6.789663e+000 203 197 189
1.654216e-001 2.107862e-001 -7.009883e+000 126 113 104
7.850874e-001 1.584594e-001 -6.509611e+000 192 37 42
2.642435e-001 2.341287e-002 -6.839096e+000 160 152 141
1.352493e-001 -4.596417e-002 -6.859918e+000 255 254 250
1.987991e-001 -4.784451e-002 -6.857024e+000 209 198 192
5.868479e-001 -8.590325e-002 -6.620310e+000 145 131 120
8.800863e-001 -8.485248e-002 -6.401618e+000 241 66 78
-5.689816e-001 -1.687356e-001 -6.524787e+000 119 50 49
-5.384168e-001 -1.353804e-001 -6.558021e+000 149 68 39
-1.111785e-001 -2.495991e-001 -6.908847e+000 50 37 18
-1.109508e-001 -2.498362e-001 -6.911744e+000 50 37 18
-3.067504e-001 -2.658650e-001 -6.665537e+000 170 71 60
1.941917e-001 -3.286922e-001 -6.944783e+000 254 245 190
3.514858e-001 -2.844042e-001 -6.889535e+000 112 94 80
5.403141e-001 -4.022562e-001 -6.711659e+000 144 126 78
6.214804e-001 -3.686562e-001 -6.631771e+000 199 174 118
4.648524e-001 -4.968817e-001 -6.830168e+000 145 127 104
8.459444e-001 -6.212731e-001 -6.570765e+000 254 86 97
8.503943e-001 -6.260175e-001 -6.587812e+000 254 86 97
2.319110e-001 6.358110e-001 -7.082809e+000 163 154 145
1.478022e-001 6.074562e-001 -7.193904e+000 219 211 208
6.666155e-001 3.899179e-001 -6.583339e+000 162 31 39
7.277431e-001 3.639803e-001 -6.499352e+000 234 64 75
1.636993e-001 4.044640e-001 -7.108584e+000 214 205 198
7.564725e-001 1.384170e-001 -6.554833e+000 219 210 205
-1.470067e-001 -5.006661e-002 -6.814310e+000 85 24 16
1.871948e-001 -1.213240e-001 -6.862966e+000 254 255 250
8.862532e-001 -6.691274e-002 -6.450370e+000 243 67 77
8.261683e-001 -1.446603e-001 -6.469354e+000 135 32 35
-6.748224e-001 -2.214855e-001 -6.526906e+000 38 28 32
2.434271e-001 -2.175569e-001 -6.905687e+000 231 228 221
6.067858e-001 -2.460527e-001 -6.630197e+000 122 104 81
5.646005e-001 -3.085559e-001 -6.639401e+000 210 186 131
4.211319e-001 -4.422214e-001 -6.930316e+000 110 87 62
8.940604e-001 -3.409905e-001 -6.443494e+000 24 9 8
8.396083e-001 -5.350336e-001 -6.498971e+000 21 9 12
7.100800e-001 -7.439358e-001 -6.709925e+000 230 64 74
7.100800e-001 -7.439358e-001 -6.709925e+000 230 64 74
5.192683e-002 6.550495e-001 -7.223196e+000 170 157 151
5.192683e-002 6.550495e-001 -7.223196e+000 170 157 151
4.652119e-002 5.452312e-001 -7.205488e+000 208 199 194
2.679455e-001 5.410203e-001 -7.013540e+000 228 221 214
8.575322e-001 1.307204e-001 -6.423128e+000 216 46 55
8.130147e-001 5.313160e-002 -6.439021e+000 131 15 23
-5.945964e-001 -2.343541e-001 -6.572471e+000 246 124 75
7.946954e-002 -3.859874e-001 -6.966622e+000 255 255 253
7.033125e-001 -3.238196e-001 -6.550447e+000 154 132 86
5.064614e-001 -6.473485e-001 -6.901486e+000 22 12 13
7.155714e-001 -6.140953e-001 -6.666876e+000 255 255 253
9.185239e-001 -9.261859e-002 -6.360606e+000 42 30 32
-2.582206e-001 -3.534622e-001 -6.784125e+000 233 232 230
7.522197e-001 -4.795649e-001 -6.577792e+000 182 38 45
3.064376e-001 -8.595607e-001 -7.293446e+000 144 123 80
3.744628e-002 -2.607673e-002 -6.886150e+000 132 119 110
-5.485163e-002 -1.429816e-001 -6.860676e+000 248 244 242
5.669839e-001 3.847449e-001 -6.687791e+000 255 255 253
7.461543e-001 -9.146564e-003 -6.542448e+000 230 225 221
2.869326e-001 -5.073364e-001 -7.003922e+000 254 254 252
9.450747e-001 -2.244718e-001 -6.367333e+000 198 173 117
9.480522e-001 -2.249093e-001 -6.372979e+000 198 173 117
6.490047e-001 -5.365078e-001 -6.712265e+000 238 231 225
9.654058e-001 4.588248e-002 -6.433426e+000 46 34 34
1.680877e-002 8.367768e-001 -7.321886e+000 199 198 186
5.804186e-001 5.842551e-001 -6.589804e+000 219 51 60
5.926108e-001 5.458395e-001 -6.497371e+000 231 69 82
-1.709821e-001 6.519427e-001 -7.566578e+000 173 157 153
7.482662e-002 4.794717e-001 -7.190381e+000 178 165 159
9.139203e-001 7.605839e-002 -6.396468e+000 30 7 14
-6.931527e-003 4.776108e-002 -6.925041e+000 122 107 100
9.291011e-001 2.734621e-002 -6.387854e+000 22 12 11
-9.639014e-002 -1.785038e-002 -6.823955e+000 172 156 148
-1.306720e-001 -5.691182e-002 -6.815200e+000 162 69 54
-3.345171e-001 -1.352602e-001 -6.678220e+000 228 113 68
-2.057450e-001 -9.211793e-002 -6.694496e+000 75 18 11
-5.935507e-001 -1.439646e-001 -6.456695e+000 54 23 1
-1.170849e-001 -1.957204e-001 -6.887175e+000 124 102 57
-4.992338e-001 -1.996575e-001 -6.479584e+000 162 49 30
-3.354707e-001 -2.828006e-001 -6.658177e+000 47 35 45
-1.751739e-001 -2.981898e-001 -6.772076e+000 214 209 203
-1.746434e-001 -2.973433e-001 -6.770238e+000 214 209 203
-3.542097e-001 -3.699421e-001 -6.770012e+000 227 116 60
-9.205784e-002 -3.324336e-001 -6.834257e+000 45 34 30
1.344746e-001 7.567503e-001 -7.222117e+000 188 185 178
6.689474e-001 4.139408e-001 -6.624070e+000 168 32 38
-2.760134e-002 2.106266e-001 -7.170241e+000 157 147 137
3.416736e-002 1.732552e-001 -7.013989e+000 156 146 136
1.143360e-001 2.139651e-001 -6.938170e+000 148 134 122
-2.139226e-001 9.404526e-002 -6.846503e+000 114 55 46
-2.139226e-001 9.404526e-002 -6.846503e+000 114 55 46
-1.068916e-001 -1.793365e-001 -6.816963e+000 229 216 214
-5.170186e-001 -2.385355e-001 -6.512185e+000 217 106 79
-4.587863e-001 -2.245647e-001 -6.545622e+000 91 38 22
-1.488039e-001 -2.335979e-001 -6.807501e+000 46 30 11
-1.530210e-001 -2.633077e-001 -6.820775e+000 144 126 115
7.313648e-001 -2.067517e-001 -6.508138e+000 155 133 91
-2.071142e-001 -2.963869e-001 -6.738150e+000 163 155 150
-1.222577e-001 -3.015039e-001 -6.801075e+000 192 189 184
-1.222577e-001 -3.015039e-001 -6.801075e+000 192 189 184
2.756072e-001 8.460692e-001 -7.035263e+000 200 41 45
1.649724e-001 7.267516e-001 -7.158719e+000 225 218 212
7.918796e-001 3.376877e-001 -6.489705e+000 193 34 51
-6.649365e-002 3.615160e-001 -7.142019e+000 193 184 177
-2.366671e-001 8.562812e-002 -6.974094e+000 42 30 30
-1.103359e-001 -2.335078e-002 -6.832903e+000 102 37 22
-1.649745e-001 -1.439439e-001 -6.639916e+000 176 90 69
-4.977217e-001 -2.336945e-001 -6.575190e+000 167 47 36
-1.809633e-001 -2.375702e-001 -6.832968e+000 113 94 79
-5.372229e-001 -2.796295e-001 -6.593260e+000 210 94 65
-4.654648e-002 -3.530275e-001 -6.914792e+000 52 41 37
8.812028e-001 -3.771046e-001 -6.486751e+000 248 66 76
3.210441e-001 9.606995e-001 -6.998047e+000 28 16 22
-3.563588e-001 3.232262e-001 -7.713109e+000 219 206 198
7.643599e-001 1.438132e-001 -6.519844e+000 209 192 183
7.744868e-001 1.129437e-001 -6.511422e+000 192 178 168
-1.887821e-001 9.460217e-002 -7.062473e+000 37 25 20
-1.988110e-001 6.049517e-002 -6.962330e+000 47 28 22
5.032206e-001 -4.674723e-002 -6.664082e+000 222 215 209
-1.264897e-001 -1.725260e-001 -6.814824e+000 80 58 21
-4.502848e-001 -2.877363e-001 -6.728555e+000 48 29 27
-2.343813e-001 -2.908836e-001 -6.706631e+000 180 170 168
-1.240232e-001 3.470392e-001 -7.306344e+000 209 202 192
-1.160172e-002 2.452021e-001 -7.094102e+000 166 156 146
-1.160172e-002 2.452021e-001 -7.094102e+000 166 156 146
4.165812e-001 -6.602996e-002 -6.759513e+000 195 190 184
-6.566772e-001 -1.381495e-001 -6.406822e+000 190 163 108
6.881084e-001 -1.411502e-001 -6.604757e+000 195 188 182
3.501760e-001 -3.413419e-001 -6.882333e+000 183 163 112
7.353793e-001 -3.532400e-001 -6.565725e+000 178 154 106
2.074308e-001 -5.997046e-001 -7.296199e+000 72 62 35
4.909567e-001 7.815712e-001 -6.798507e+000 202 42 51
-7.466047e-002 4.522412e-001 -7.267583e+000 150 141 131
1.146565e-001 2.791416e-001 -6.921196e+000 181 168 159
-5.925506e-001 -9.961284e-002 -6.500468e+000 146 69 42
-2.185175e-001 -1.850617e-001 -6.657245e+000 121 73 56
-2.185175e-001 -1.850617e-001 -6.657245e+000 121 73 56
1.135090e-001 -3.245877e-001 -6.904663e+000 47 30 18
4.208753e-001 -3.414924e-001 -6.946271e+000 102 84 47
3.877670e-001 -4.184096e-001 -7.004370e+000 85 66 41
7.233301e-001 -4.499803e-001 -6.633530e+000 180 158 145
7.297892e-001 -7.927218e-001 -6.724285e+000 224 60 67
7.297892e-001 -7.927218e-001 -6.724285e+000 224 60 67
7.038627e-001 1.565906e-001 -6.544963e+000 158 143 136
4.772953e-001 -3.010727e-002 -6.676883e+000 191 184 175
-4.991588e-001 -2.657281e-001 -6.591786e+000 255 211 172
5.540295e-001 6.754157e-001 -6.684634e+000 194 34 44
7.306644e-001 4.115378e-001 -6.473158e+000 19 0 9
-1.600802e-001 5.240073e-001 -7.528128e+000 223 216 209
1.997353e-001 4.559398e-001 -7.055084e+000 149 139 129
3.534103e-001 3.805404e-001 -6.898710e+000 222 213 208
-2.837407e-001 -5.791896e-002 -6.626260e+000 87 23 15
8.722858e-001 -3.441532e-002 -6.394899e+000 248 77 87
5.346813e-001 -8.654572e-002 -6.661982e+000 241 241 233
6.765494e-001 -2.213227e-001 -6.583939e+000 111 91 67
7.518984e-001 -2.396436e-001 -6.567269e+000 165 141 95
6.674091e-001 -2.784524e-001 -6.599163e+000 188 166 113
4.642660e-001 -4.375253e-001 -6.804874e+000 205 195 184
4.629470e-001 4.943213e-001 -6.758594e+000 209 202 194
-1.651546e-001 -1.606450e-001 -6.911287e+000 93 66 37
3.738243e-001 -2.229312e-001 -6.896178e+000 247 245 241
1.736572e-001 -3.778707e-001 -6.935246e+000 61 39 25
8.093361e-001 -5.278639e-001 -6.578528e+000 255 78 92
2.682435e-001 5.414544e-001 -7.018768e+000 228 221 214
3.108816e-001 -8.746661e-001 -7.351857e+000 144 123 80
-4.335249e-001 -3.792732e-001 -6.870666e+000 45 33 33
8.929555e-001 -4.400344e-001 -6.478072e+000 24 8 11
-6.267883e-002 9.057290e-001 -7.429775e+000 148 23 29
-4.518562e-002 5.979326e-001 -7.316777e+000 212 206 197
6.142580e-001 6.174546e-001 -6.650735e+000 98 12 21
8.680407e-002 4.695771e-001 -7.212510e+000 155 145 135
6.730035e-001 5.269323e-001 -6.601417e+000 188 53 56
-8.508834e-002 3.475042e-001 -7.313797e+000 151 141 131
2.778881e-001 1.840773e-001 -6.960026e+000 143 129 118
-8.411700e-002 3.907328e-002 -6.864059e+000 135 120 113
-1.583209e-002 5.552069e-002 -6.926317e+000 122 110 103
-3.686851e-003 3.003161e-002 -6.906967e+000 153 143 133
1.516134e-001 3.909356e-002 -6.741487e+000 156 146 137
-4.562831e-001 -1.390791e-001 -6.715781e+000 156 71 47
-4.562831e-001 -1.390791e-001 -6.715781e+000 156 71 47
-3.846392e-001 -1.072169e-001 -6.701663e+000 176 90 62
-3.911518e-001 -1.119094e-001 -6.739419e+000 176 90 62
-2.009785e-001 -1.195060e-001 -6.712105e+000 145 58 35
-2.249289e-001 -1.389988e-001 -6.674892e+000 196 88 56
3.935989e-001 -3.442290e-002 -6.784550e+000 197 189 181
-4.411915e-001 -2.093086e-001 -6.758938e+000 187 84 56
-4.062203e-001 -2.016473e-001 -6.760248e+000 191 72 37
6.068521e-002 -1.977784e-001 -6.891585e+000 242 236 231
-4.868156e-002 -2.509947e-001 -6.935209e+000 44 33 15
-3.244727e-001 -2.849925e-001 -6.667269e+000 201 179 160
1.310620e-001 -2.904558e-001 -6.933203e+000 141 120 74
3.636436e-001 -4.905820e-001 -6.937314e+000 241 238 228
5.212170e-001 -6.273787e-001 -6.921808e+000 229 79 86
8.088709e-001 -4.857699e-001 -6.468458e+000 180 21 31
8.030011e-001 -5.017966e-001 -6.454291e+000 23 4 1
-2.716279e-001 5.761637e-001 -7.673450e+000 195 186 185
6.434040e-001 5.926667e-001 -6.628831e+000 18 6 10
7.106208e-002 4.984429e-001 -7.175444e+000 212 206 200
7.072003e-002 4.992182e-001 -7.188057e+000 212 206 200
5.822189e-001 4.320263e-001 -6.670311e+000 234 229 226
5.822189e-001 4.320263e-001 -6.670311e+000 234 229 226
1.225272e-001 2.122612e-001 -6.947022e+000 136 120 107
6.703681e-003 1.738338e-001 -7.068596e+000 152 139 130
-5.393913e-003 7.442527e-002 -6.957039e+000 128 114 105
2.648909e-001 1.577890e-001 -6.926934e+000 140 127 111
-1.029283e-001 5.173876e-002 -6.891012e+000 123 110 102
-1.029283e-001 5.173876e-002 -6.891012e+000 123 110 102
-5.140045e-002 1.254088e-002 -6.856459e+000 147 134 126
4.040986e-002 -1.249375e-002 -6.828252e+000 125 112 104
4.970241e-002 -4.347534e-003 -6.864850e+000 169 160 151
-2.127812e-001 -8.960353e-002 -6.723198e+000 65 4 1
-2.127812e-001 -8.960353e-002 -6.723198e+000 65 4 1
-1.287123e-001 -5.449917e-002 -6.808692e+000 172 87 71
-1.303552e-001 -9.661347e-002 -6.804078e+000 207 180 171
-5.321414e-001 -2.185712e-001 -6.559836e+000 230 112 81
-5.321414e-001 -2.185712e-001 -6.559836e+000 230 112 81
-4.105698e-001 -2.555062e-001 -6.760664e+000 66 24 20
-3.339147e-001 -2.763839e-001 -6.650538e+000 57 54 68
-1.693211e-001 -2.785203e-001 -6.799425e+000 179 166 158
3.289940e-001 -1.798129e-001 -6.886344e+000 230 227 220
-2.913861e-002 -3.470789e-001 -6.944019e+000 254 252 247
-1.700588e-002 -3.800690e-001 -7.022715e+000 46 35 29
5.846576e-001 -3.876571e-001 -6.625533e+000 211 186 130
9.680549e-001 -2.876197e-001 -6.381885e+000 198 175 121
1.965848e-001 -7.186167e-001 -7.121424e+000 41 31 23
3.381897e-001 -8.196064e-001 -7.202426e+000 150 128 79
8.201398e-001 -4.645879e-001 -6.485874e+000 211 46 55
4.392755e-001 8.734864e-001 -6.947766e+000 182 43 46
-2.572091e-001 5.594619e-001 -7.633884e+000 156 140 131
5.620997e-001 6.264491e-001 -6.641894e+000 113 9 17
-4.070364e-001 3.798752e-001 -7.874114e+000 34 24 16
-1.469163e-001 4.711994e-001 -7.555745e+000 205 198 188
-1.873233e-001 3.860319e-001 -7.619819e+000 217 210 200
-1.340563e-001 3.096707e-001 -7.379355e+000 144 131 120
-3.821567e-002 3.035209e-001 -7.268152e+000 172 162 152
5.559053e-001 3.943278e-001 -6.701018e+000 229 226 221
5.559053e-001 3.943278e-001 -6.701018e+000 229 226 221
1.156466e-001 1.728005e-001 -6.950412e+000 175 165 156
-1.254751e-001 9.828739e-002 -6.958879e+000 138 124 115
-1.389146e-002 2.140636e-002 -6.900189e+000 115 102 93
2.930023e-002 8.014834e-003 -6.854854e+000 123 113 104
-1.180652e-001 -8.133674e-002 -6.857609e+000 184 161 155
1.590546e-001 -2.604989e-002 -6.811848e+000 206 197 188
-5.854259e-001 -1.361466e-001 -6.534964e+000 77 22 2
-5.666696e-001 -1.516454e-001 -6.499710e+000 54 5 8
-2.069651e-001 -1.405369e-001 -6.706883e+000 219 97 66
-1.318187e-001 -1.741062e-001 -6.871559e+000 93 69 26
-4.706122e-001 -2.241013e-001 -6.638097e+000 225 183 143
-1.014988e-001 -2.176342e-001 -6.871093e+000 97 79 41
-1.503086e-001 -2.494812e-001 -6.829010e+000 203 193 181
-1.332500e-001 -3.484703e-001 -6.891295e+000 45 36 31
-2.491264e-001 -4.011539e-001 -6.850492e+000 234 233 229
8.713097e-001 -2.405814e-001 -6.410332e+000 152 124 77
4.403205e-001 -5.015791e-001 -6.823638e+000 160 147 126
5.022342e-001 -5.870558e-001 -6.871024e+000 174 33 33
7.946433e-001 -4.650042e-001 -6.471372e+000 214 52 58
-3.246804e-002 8.353460e-001 -7.336138e+000 173 35 41
-1.716000e-001 7.691763e-001 -7.587917e+000 195 44 52
-1.716000e-001 7.691763e-001 -7.587917e+000 195 44 52
-2.498530e-001 6.325646e-001 -7.583597e+000 210 44 53
-1.316374e-001 6.461743e-001 -7.536598e+000 203 195 185
-1.316374e-001 6.461743e-001 -7.536598e+000 203 195 185
-2.791358e-001 5.980264e-001 -7.692325e+000 183 34 41
-2.828378e-001 5.099102e-001 -7.668979e+000 178 166 154
1.958217e-001 5.417500e-001 -7.170776e+000 213 204 198
5.798133e-002 4.645644e-001 -7.210611e+000 195 185 177
2.225585e-001 5.194273e-001 -7.114339e+000 208 201 195
-7.906987e-002 3.742076e-001 -7.302417e+000 193 184 175
6.711362e-001 4.317323e-001 -6.614087e+000 203 45 53
6.875673e-001 4.637239e-001 -6.602315e+000 171 26 33
-2.230919e-001 1.262278e-001 -7.717345e+000 203 52 59
-3.814760e-002 1.624724e-001 -7.102215e+000 124 111 102
-1.414356e-003 1.250614e-001 -7.041998e+000 122 114 103
-1.775308e-001 4.073950e-002 -6.912819e+000 130 108 100
5.562735e-001 8.748607e-002 -6.750609e+000 188 179 170
-6.874487e-001 -1.378365e-001 -6.482301e+000 158 135 82
8.476360e-001 1.099472e-001 -6.515405e+000 222 55 65
4.195693e-001 -7.207470e-002 -6.772236e+000 202 197 191
-6.145201e-001 -1.879655e-001 -6.518830e+000 98 31 28
-3.058034e-001 -2.178509e-001 -6.644337e+000 143 9 18
4.313816e-001 -2.408541e-001 -6.854042e+000 165 151 141
4.102926e-001 -3.246903e-001 -6.851222e+000 91 74 38
5.096738e-001 -2.542653e-001 -6.739131e+000 165 152 135
4.835756e-001 -2.804180e-001 -6.742154e+000 148 138 123
7.538473e-001 -1.902293e-001 -6.515898e+000 83 65 39
7.451551e-001 -1.839625e-001 -6.488065e+000 83 65 39
8.794927e-001 -1.492491e-001 -6.410231e+000 140 118 71
7.429411e-001 -3.937554e-001 -6.557513e+000 197 167 159
1.021933e+000 -2.776313e-001 -6.296680e+000 27 14 14
5.254797e-001 -6.201386e-001 -6.773605e+000 39 28 23
6.433741e-001 -6.348609e-001 -6.714169e+000 224 57 65
-3.166039e+000 7.066288e-001 -1.149945e+001 11 7 8
2.097276e-001 6.571740e-001 -7.138789e+000 192 179 173
5.709287e-001 6.876503e-001 -6.719021e+000 183 29 39
-2.739654e-002 4.235824e-001 -7.220920e+000 183 173 163
3.850391e-001 3.106984e-001 -6.938700e+000 183 175 163
-1.981647e-001 1.826394e-001 -7.624943e+000 168 33 38
1.919602e-001 5.416884e-002 -6.875291e+000 159 144 137
-2.690833e-001 -2.991128e-002 -6.817559e+000 123 51 35
3.388012e-001 6.613780e-002 -6.831497e+000 179 171 160
-6.874076e-001 -1.908047e-001 -6.541747e+000 32 23 24
-3.952079e-001 -1.399628e-001 -6.700033e+000 234 122 84
-3.775304e-001 -1.565028e-001 -6.667026e+000 166 35 18
-1.221609e-002 -9.850169e-002 -6.809787e+000 241 236 233
8.806478e-001 6.048467e-002 -6.386294e+000 119 10 23
-3.428554e-001 -3.156264e-001 -6.733111e+000 161 144 133
-1.660035e-001 -3.447555e-001 -6.850154e+000 211 204 198
7.043033e-001 -2.019054e-001 -6.595536e+000 147 129 119
6.924566e-001 -2.270703e-001 -6.513963e+000 174 151 101
5.230386e-001 -4.485838e-001 -6.699630e+000 194 185 174
7.274628e-001 -3.503582e-001 -6.533318e+000 175 151 105
1.005239e+000 -2.894131e-001 -6.287280e+000 206 183 115
1.005239e+000 -2.894131e-001 -6.287280e+000 206 183 115
6.602221e-001 -5.456532e-001 -6.699608e+000 208 200 189
3.014726e-001 -8.762674e-001 -7.317380e+000 134 114 69
3.935480e-001 -8.402444e-001 -7.209282e+000 13 5 8
8.041672e-001 -4.496546e-001 -6.482315e+000 150 2 16
-1.734965e+000 -2.481384e+000 -1.021095e+001 37 31 33
-1.704620e+000 -2.561465e+000 -1.014975e+001 37 31 33
-1.238277e+000 -1.806145e+000 -8.433730e+000 39 33 35
-4.170759e-001 5.212284e-001 -7.839515e+000 191 41 42
-5.300689e-002 4.886578e-001 -7.301001e+000 206 197 188
-3.533833e-001 3.251096e-001 -7.746076e+000 208 194 184
-1.383641e-001 3.482826e-001 -7.378026e+000 202 194 183
3.767846e-001 2.228513e-001 -6.986677e+000 141 133 122
1.188073e-001 7.833443e-002 -6.926135e+000 155 145 136
-6.452810e-001 -1.225457e-001 -6.460770e+000 39 24 28
-1.372315e-001 -1.110484e-001 -6.834483e+000 182 160 154
3.624658e-001 4.415045e-003 -6.769457e+000 220 216 210
3.624658e-001 4.415045e-003 -6.769457e+000 220 216 210
2.182889e-001 -9.370001e-002 -6.852571e+000 255 252 244
4.887370e-001 -2.888774e-002 -6.696366e+000 188 179 172
5.221000e-001 -3.559500e-003 -6.690631e+000 213 205 196
5.844320e-001 -3.333818e-002 -6.677726e+000 180 172 160
5.844320e-001 -3.333818e-002 -6.677726e+000 180 172 160
4.264538e-001 -1.089206e-001 -6.764211e+000 226 221 217
4.264538e-001 -1.089206e-001 -6.764211e+000 226 221 217
8.612761e-001 -3.705450e-001 -6.462465e+000 229 58 69
-1.707097e+000 -2.424732e+000 -1.023194e+001 24 18 20
-1.642420e+000 -2.459731e+000 -1.007633e+001 20 14 16
-1.594902e+000 -2.606917e+000 -1.006523e+001 29 23 25
4.926276e-001 7.824474e-001 -6.823578e+000 199 40 48
-1.510907e-001 7.349531e-001 -7.594818e+000 191 41 48
-7.038422e-002 5.436117e-001 -7.290179e+000 177 168 159
-2.739979e-002 5.574552e-001 -7.263765e+000 218 211 201
5.471936e-001 5.825477e-001 -6.693070e+000 189 43 49
-4.197814e-001 3.699884e-001 -7.892820e+000 38 24 21
-9.245350e-002 3.332198e-001 -7.350708e+000 145 133 122
1.158052e-001 2.886919e-001 -7.054204e+000 188 175 166
2.954185e-001 2.563591e-001 -7.002318e+000 170 162 149
5.042215e-001 1.148480e-001 -6.837212e+000 155 145 134
-6.794171e-001 -1.466189e-001 -6.490473e+000 168 147 100
-6.794171e-001 -1.466189e-001 -6.490473e+000 168 147 100
-6.284999e-001 -1.420645e-001 -6.513120e+000 151 127 81
5.199595e-001 -3.418323e-003 -6.683087e+000 213 205 196
8.868856e-001 -3.247454e-002 -6.419016e+000 247 80 90
3.742365e-001 -3.976663e-001 -6.899033e+000 81 64 37
4.654575e-001 -4.370574e-001 -6.798956e+000 204 191 182
9.763058e-001 -2.578783e-001 -6.344661e+000 163 139 91
3.341987e-001 -9.105576e-001 -7.262183e+000 41 28 23
-1.523153e+000 -2.575280e+000 -1.007461e+001 68 64 65
-9.165765e-002 6.960452e-001 -7.294680e+000 220 197 200
4.207389e-001 4.359588e-001 -6.927834e+000 210 201 194
9.042621e-002 3.354414e-001 -7.120215e+000 153 141 129
2.734665e-001 3.557200e-001 -7.071382e+000 178 169 160
3.756866e-003 2.882356e-001 -7.232203e+000 140 130 118
8.129641e-002 1.606707e-001 -7.003797e+000 128 116 106
1.357584e-001 1.536979e-001 -6.967239e+000 201 194 184
3.745466e-001 2.310358e-001 -6.994076e+000 151 143 132
5.912580e-001 1.861230e-001 -6.705243e+000 249 245 240
9.208329e-002 -1.942945e-002 -6.882463e+000 127 117 107
-5.365368e-001 -1.317956e-001 -6.545354e+000 155 66 34
1.711209e-002 -2.243649e-001 -6.900898e+000 244 241 236
5.891915e-001 -8.754014e-002 -6.627406e+000 133 119 108
5.242481e-001 -1.923657e-001 -6.720305e+000 234 230 221
4.102821e-001 7.671198e-001 -6.902498e+000 207 41 48
-3.098551e-001 2.414468e-001 -7.706896e+000 37 29 27
7.486979e-001 4.154788e-001 -6.521614e+000 17 7 8
-2.883573e-001 -5.612089e-002 -6.710693e+000 87 27 18
1.795217e-001 -3.724026e-001 -6.908344e+000 63 35 24
8.264504e-001 -1.491623e-001 -6.482055e+000 108 27 33
5.615576e-001 -3.043542e-001 -6.621777e+000 222 197 140
7.371207e-001 -2.325786e-001 -6.495775e+000 175 151 103
7.198192e-001 -3.907889e-001 -6.540753e+000 227 214 206
2.590622e-001 5.368587e-001 -6.924699e+000 230 221 214
4.638427e-001 5.032478e-001 -6.845060e+000 215 208 200
3.384905e-001 3.790009e-001 -6.941155e+000 211 204 196
3.407024e-001 3.781416e-001 -6.955292e+000 211 204 196
6.104995e-001 2.435791e-001 -6.692110e+000 174 159 147
3.046785e-001 9.667935e-002 -6.852409e+000 178 168 159
8.305655e-001 -2.691271e-001 -6.446957e+000 108 88 50
4.728445e-002 5.452488e-001 -7.216353e+000 217 208 201
6.389342e-003 3.888382e-001 -7.249056e+000 186 176 167
4.320671e-002 2.716117e-001 -7.155553e+000 131 121 111
6.896968e-001 2.409459e-001 -6.575068e+000 249 248 244
5.902856e-001 -1.637382e-001 -6.616079e+000 247 240 234
3.085514e-001 -8.685049e-001 -7.313930e+000 140 121 72
1.083629e-001 7.968667e-001 -7.211373e+000 210 201 196
3.150718e-001 4.636143e-001 -6.955124e+000 233 224 217
-2.074939e-001 -6.977062e-002 -6.757648e+000 76 21 19
4.265503e-001 9.258634e-002 -6.775939e+000 138 126 114
4.535508e-001 -3.391419e-001 -6.819491e+000 170 148 100
-2.388282e-001 4.212850e-001 -7.728135e+000 215 206 197
-2.199257e-002 -5.247813e-001 -6.956967e+000 39 31 29
5.666211e-001 3.241896e-001 -6.702613e+000 243 242 237
-1.731923e-001 1.356926e-002 -6.866785e+000 73 25 18
6.637026e-003 1.435496e-002 -6.923770e+000 142 132 122
-1.328156e-001 -2.790849e-001 -6.823102e+000 172 159 150
-1.867678e-001 -2.985712e-001 -6.774106e+000 171 161 150
1.978662e-001 5.213592e-001 -7.174236e+000 175 166 157
2.084073e-001 1.680575e-001 -6.987116e+000 124 113 103
-1.067451e-001 -1.016502e-002 -6.864152e+000 149 136 128
-1.991040e-001 -2.344234e-001 -6.797007e+000 168 150 139
6.037029e-001 6.462619e-001 -6.667940e+000 122 32 33
-1.048425e-001 3.733423e-001 -7.374122e+000 164 156 145
-3.939600e-001 -6.139374e-002 -6.734645e+000 108 35 15
-2.795021e-001 -2.705906e-001 -6.642689e+000 168 149 148
9.051067e-001 5.471156e-002 -6.388178e+000 180 41 48
3.592866e-001 -9.039776e-002 -6.820390e+000 253 250 245
-1.164635e-001 -3.351633e-001 -6.907577e+000 240 237 230
5.022715e-001 -5.873622e-001 -6.871152e+000 181 39 35
6.643321e-001 4.946122e-001 -6.615303e+000 189 34 42
5.734026e-001 4.736454e-001 -6.661571e+000 249 64 78
8.200643e-001 1.766818e-001 -6.498504e+000 227 60 68
8.752422e-001 6.079892e-002 -6.380568e+000 121 11 20
-8.212294e+000 -6.085573e+000 -1.877326e+001 106 97 95
-3.412119e-001 6.887509e-001 -7.750741e+000 25 18 16
1.708722e-001 3.101136e-001 -7.082651e+000 134 124 111
-6.810382e-003 8.572615e-001 -7.330301e+000 181 36 41
9.871030e-001 -1.302127e-001 -6.308487e+000 190 165 111
9.871030e-001 -1.302127e-001 -6.308487e+000 190 165 111
1.379631e-001 2.918370e-002 -6.892357e+000 132 120 108
-4.605118e-001 -9.786661e-002 -6.691711e+000 69 22 15
4.256119e-001 5.268800e-002 -7.145575e+000 142 132 120
4.754104e-001 4.922041e-001 -6.815666e+000 194 186 177
-9.059162e-002 1.090885e-001 -6.882923e+000 102 88 79
-5.413008e-001 -1.139931e-001 -6.938743e+000 114 51 31
-3.502697e-001 -1.630680e-001 -6.659341e+000 186 45 12
1.874638e-001 6.767394e-001 -7.140629e+000 195 186 181
-6.801162e-001 -1.267772e-001 -6.445507e+000 140 113 65
-6.684851e-001 -2.685091e-001 -6.682650e+000 51 37 33
-3.694750e-001 -1.605107e-001 -6.639533e+000 146 24 8
-4.844827e-001 -2.522178e-001 -6.588292e+000 220 167 124
-4.623437e-001 -2.211004e-001 -6.557041e+000 82 29 13
-4.623437e-001 -2.211004e-001 -6.557041e+000 82 29 13
2.027843e-001 5.287685e-001 -6.921465e+000 209 200 191
4.700151e-001 5.978396e-001 -6.718851e+000 187 177 171
-1.475804e-001 2.390757e-002 -6.847481e+000 89 32 21
-5.132810e-001 -2.628212e-001 -6.623418e+000 252 220 167
-4.823005e-001 -2.360911e-001 -6.584282e+000 253 210 175
-4.395439e-001 -2.270922e-001 -6.730309e+000 160 51 24
-4.039269e-001 -2.194371e-001 -6.712766e+000 239 157 124
-2.077990e-001 -1.373891e-001 -6.693637e+000 218 101 62
3.021499e-001 8.019781e-001 -6.952044e+000 227 214 213
5.484288e-001 4.949036e-001 -6.692940e+000 208 52 57
4.952081e-001 4.344033e-001 -6.971727e+000 150 140 128
-6.582725e-001 -1.419071e-001 -6.523799e+000 46 31 24
-1.827341e-001 -1.311086e-001 -6.673791e+000 99 24 18
-4.550624e-001 -2.488545e-001 -6.613282e+000 237 191 148
-6.169802e-001 -1.310466e-001 -6.462790e+000 140 117 76
4.171579e-001 8.292071e-001 -6.754752e+000 196 44 50
-4.889431e-001 -2.510536e-001 -6.590179e+000 232 174 132
-6.299853e-001 -1.108712e-001 -6.600817e+000 137 59 23
-2.227076e-001 -1.618376e-001 -6.653200e+000 227 105 57
2.328855e-001 6.378179e-001 -7.063906e+000 153 142 134
1.012651e-001 5.570078e-004 -3.819215e+000 0 255 0
1.004241e-001 2.207462e-004 -3.869207e+000 255 255 0
-3.762330e-002 3.746664e-001 -3.948326e+000 255 0 0
-3.651720e-002 3.668604e-001 -3.997701e+000 255 255 0
3.129520e-002 1.121667e-001 -3.937674e+000 0 255 0
3.161773e-002 1.085962e-001 -3.987545e+000 255 255 0
-8.511449e-002 6.129917e-001 -3.900448e+000 255 0 0
-8.296479e-002 6.020570e-001 -3.949190e+000 255 255 0
-1.466837e-001 7.254981e-001 -3.778008e+000 0 255 0
-1.439625e-001 7.113405e-001 -3.825884e+000 255 255 0
