ply
format ascii 1.0
element face 0
property list uchar int vertex_indices
element vertex 606
property float x
property float y
property float z
property uchar diffuse_red
property uchar diffuse_green
property uchar diffuse_blue
end_header
1.399977e+000 -4.534254e+000 -7.669071e+000 141 54 61
1.016049e+000 -4.707289e+000 -7.579782e+000 141 130 128
1.457414e+000 -2.019087e+000 -7.126053e+000 115 89 76
1.211170e+000 -4.975194e+000 -7.788518e+000 144 133 129
1.772369e+000 -1.816122e+000 -7.819151e+000 52 30 20
1.772369e+000 -1.816122e+000 -7.819151e+000 52 30 20
4.393983e+000 -3.656419e+000 -6.786669e+000 163 163 160
1.541027e+000 -2.036460e+000 -7.097714e+000 51 30 25
1.178936e+000 -4.625445e+000 -7.549915e+000 145 125 126
4.269087e+000 -5.807759e-001 -7.369790e+000 159 155 146
4.322355e+000 -2.150810e+000 -7.056898e+000 161 157 154
4.378930e+000 -3.586147e+000 -6.910613e+000 156 151 148
3.804015e+000 -4.529936e+000 -7.127200e+000 37 26 24
4.062470e+000 -4.371008e+000 -7.138575e+000 125 107 102
4.444892e+000 -5.095064e+000 -6.812872e+000 171 170 165
4.440015e-001 -4.156771e+000 -7.305612e+000 99 70 54
1.576865e+000 -4.010433e+000 -7.538127e+000 148 108 60
1.652008e+000 -2.822952e+000 -6.940381e+000 163 120 78
1.702667e+000 -2.806919e+000 -6.994479e+000 156 75 56
6.148617e-001 -4.106604e+000 -7.198813e+000 119 84 66
4.762534e+000 -5.152531e+000 -6.661717e+000 158 111 89
7.370711e-001 -4.994770e+000 -7.641396e+000 147 127 126
2.394532e+000 -3.467970e+000 -7.249846e+000 155 133 125
4.779188e+000 -5.515801e+000 -6.621497e+000 147 90 73
6.344440e-001 -4.306451e+000 -7.276067e+000 121 44 45
4.474371e-001 -4.243441e+000 -7.142658e+000 108 90 81
6.495066e+000 -7.171498e-001 -7.855455e+000 158 106 59
2.946563e+000 -3.211394e+000 -7.598895e+000 139 125 124
1.479643e+000 -3.783157e+000 -7.338827e+000 148 103 54
2.872540e+000 -3.718432e+000 -7.823649e+000 151 104 58
4.562548e+000 -3.616843e+000 -6.800465e+000 80 51 39
4.604478e+000 -5.023501e+000 -6.613344e+000 64 36 24
-8.199398e-001 -1.962239e+000 -5.645110e+000 66 71 74
1.721415e+000 -4.146937e+000 -7.462807e+000 141 124 123
1.442180e+000 -2.816633e+000 -6.992853e+000 150 111 70
1.802675e+000 -4.387291e+000 -7.711912e+000 149 131 127
6.374941e-001 -4.145840e+000 -7.180274e+000 33 23 22
1.683082e+000 -4.091135e+000 -7.550125e+000 137 120 115
1.707436e+000 -4.391992e+000 -7.716870e+000 142 128 127
6.859423e-001 -4.369401e+000 -7.287189e+000 125 108 101
4.444007e+000 -5.092542e+000 -6.803855e+000 171 170 165
4.166086e+000 -8.057624e-001 -7.659669e+000 86 49 40
4.268922e+000 -8.641479e-001 -7.155784e+000 125 92 73
-9.409800e-001 -4.381423e+000 -5.572101e+000 223 132 123
4.160543e+000 -1.814366e+000 -7.403144e+000 112 55 38
-1.284192e+000 -2.448370e+000 -5.925421e+000 236 227 152
1.691369e+000 -3.058096e+000 -7.128045e+000 140 94 74
4.341159e+000 -4.442342e+000 -7.270044e+000 121 77 59
4.220244e+000 -3.567593e-001 -7.015485e+000 192 165 138
3.982663e+000 -1.963373e-001 -8.058378e+000 77 48 26
3.869931e+000 -2.085590e+000 -7.840384e+000 66 47 41
4.027738e+000 -2.176944e+000 -7.855369e+000 88 64 59
4.257657e+000 -3.729785e+000 -7.380933e+000 132 107 103
-2.475312e+000 -3.880493e+000 -6.687837e+000 231 226 164
-2.475312e+000 -3.880493e+000 -6.687837e+000 231 226 164
9.759317e-001 -4.746478e+000 -7.572571e+000 45 35 33
4.212039e+000 -2.397516e-001 -7.316699e+000 160 97 64
4.302458e+000 -1.147622e+000 -7.128467e+000 135 110 80
4.019556e+000 -2.106928e+000 -7.703024e+000 76 54 54
1.627528e+000 -2.750441e+000 -6.932662e+000 162 120 92
-2.697571e+000 -3.401411e+000 -6.823928e+000 234 219 156
-2.694195e+000 -3.402318e+000 -6.818076e+000 234 219 156
2.088098e+000 -3.584403e+000 -7.302217e+000 157 131 116
1.774360e+000 -3.746643e+000 -7.307972e+000 130 75 44
4.360288e+000 -4.650836e+000 -7.125416e+000 139 76 59
2.789326e+000 -4.773683e+000 -8.257415e+000 136 120 122
4.164128e+000 -2.148218e-001 -7.389055e+000 187 163 112
4.227011e+000 -3.984438e-001 -7.376451e+000 161 86 54
4.314830e+000 -1.639168e+000 -7.023818e+000 143 112 84
1.725191e+000 -3.712441e+000 -7.407791e+000 146 93 54
4.414067e+000 -4.281383e+000 -6.928326e+000 73 46 27
4.335742e+000 -4.362749e+000 -7.192323e+000 136 78 59
1.375601e+000 -4.388619e+000 -7.584875e+000 147 59 57
1.687023e+000 -4.557922e+000 -7.763882e+000 141 125 125
2.035127e+000 -4.622839e+000 -7.935082e+000 143 49 51
4.800567e+000 -5.731854e+000 -6.653916e+000 143 92 73
6.281020e+000 -1.437508e-001 -7.772497e+000 146 119 94
3.995878e+000 -4.896496e-001 -8.050353e+000 72 84 93
4.340664e+000 -9.574477e-001 -7.257217e+000 139 108 87
4.204321e+000 -1.408079e+000 -7.537621e+000 137 75 64
4.323542e+000 -3.714674e+000 -7.311807e+000 125 67 52
4.439444e+000 -3.823533e+000 -6.806624e+000 135 108 82
4.333082e+000 -3.884716e+000 -7.308234e+000 129 67 57
5.840404e-001 -4.505304e+000 -7.309390e+000 111 90 70
4.343541e+000 -4.539255e+000 -7.207840e+000 133 64 52
2.125970e+000 -4.736449e+000 -7.938450e+000 40 34 30
4.814966e+000 3.375351e-002 -7.288480e+000 150 65 56
4.155236e+000 -5.789980e-003 -7.741357e+000 182 109 66
4.063221e+000 -1.429126e-001 -7.950425e+000 162 121 64
7.727366e-001 -3.933671e+000 -7.173401e+000 126 58 46
2.090653e+000 -3.917303e+000 -7.463264e+000 138 117 111
1.725224e+000 -4.475013e+000 -7.732359e+000 36 26 24
4.393952e+000 -4.860945e+000 -6.987770e+000 152 142 138
4.383739e+000 -4.858550e+000 -6.966734e+000 152 142 138
6.789750e+000 -7.318642e-001 -7.872143e+000 150 123 102
4.814056e+000 -1.588020e+000 -7.160326e+000 147 116 101
2.666584e+000 -3.033780e+000 -7.443670e+000 140 123 124
2.666584e+000 -3.033780e+000 -7.443670e+000 140 123 124
2.946563e+000 -3.211394e+000 -7.598895e+000 139 125 124
6.483095e+000 -5.491139e+000 -7.221055e+000 156 124 99
4.198030e+000 -1.373554e-001 -7.188853e+000 183 185 178
5.810018e+000 4.218850e-002 -7.721538e+000 84 55 32
4.388403e+000 -6.736979e-001 -7.026244e+000 69 44 31
2.741697e+000 -3.246723e+000 -7.608514e+000 36 20 21
1.177986e+000 -4.625675e+000 -7.552672e+000 145 125 126
4.039428e+000 -1.881692e+000 -7.544098e+000 116 102 101
-6.046855e-001 -3.194514e+000 -5.351814e+000 220 113 113
3.016941e+000 -2.950415e+000 -7.671056e+000 35 25 26
3.603976e+000 -3.538713e+000 -8.114669e+000 99 32 49
7.102374e-001 -4.742615e+000 -7.510151e+000 142 121 119
4.455683e+000 -5.540195e+000 -6.695895e+000 189 192 182
-7.831097e-001 -2.780364e+000 -5.558716e+000 66 72 72
3.172818e+000 -3.712419e+000 -7.977707e+000 35 23 24
-7.430724e-001 -4.419406e+000 -5.421082e+000 76 82 81
3.664407e+000 -4.461387e+000 -7.803323e+000 143 52 69
3.687229e+000 -3.743371e+000 -6.984963e+000 40 26 26
-1.621718e+000 -2.174303e+000 -6.153779e+000 231 225 168
4.162405e+000 -1.682001e+000 -7.489259e+000 102 58 51
5.688772e-001 -4.398397e+000 -7.282554e+000 119 98 90
4.357483e+000 -4.940460e+000 -7.127970e+000 149 103 87
4.249918e+000 -1.686538e+000 -7.488987e+000 124 62 53
1.715870e+000 -4.399174e+000 -7.744536e+000 135 122 121
3.262530e+000 -4.580690e+000 -7.019200e+000 62 31 26
9.295264e-001 -4.703156e+000 -7.499149e+000 139 128 127
9.308060e-001 -4.699173e+000 -7.474853e+000 139 128 127
4.482631e+000 -5.392327e+000 -6.692585e+000 195 113 81
4.942894e+000 -4.488975e+000 -6.789078e+000 148 121 102
-3.514431e+000 -3.041829e+000 -6.885472e+000 84 67 54
1.771044e+000 -2.947468e+000 -7.093556e+000 138 65 47
1.769848e+000 -2.946856e+000 -7.096937e+000 138 65 47
-4.620761e-001 -4.177103e+000 -5.219602e+000 126 150 146
-4.680935e-001 -4.184131e+000 -5.267815e+000 126 150 146
5.268830e-001 -4.626708e+000 -7.405612e+000 126 65 41
2.789326e+000 -4.773683e+000 -8.257415e+000 136 120 122
4.347297e+000 -1.629924e+000 -7.118400e+000 143 112 84
2.096558e+000 -3.246994e+000 -7.042943e+000 154 135 128
4.697467e+000 -4.933940e+000 -6.497770e+000 139 64 58
-4.440629e-001 -4.114015e+000 -5.218487e+000 82 94 94
-3.926513e-001 -4.186794e+000 -5.151245e+000 149 172 170
2.066090e+000 -4.423203e+000 -7.837120e+000 36 23 29
2.066090e+000 -4.423203e+000 -7.837120e+000 36 23 29
1.296553e+000 -5.041631e+000 -7.857583e+000 45 34 35
4.718389e+000 -1.132206e-001 -7.256549e+000 151 123 102
4.155236e+000 -5.789980e-003 -7.741357e+000 182 109 66
3.880380e+000 -1.554813e+000 -7.385008e+000 131 109 105
-5.972662e-001 -2.205971e+000 -5.508638e+000 75 83 85
6.989469e+000 -4.060065e+000 -7.542087e+000 149 124 107
2.709026e+000 -4.793489e+000 -8.269727e+000 139 124 122
4.378694e+000 -5.545204e+000 -7.120190e+000 183 104 66
4.337368e+000 -5.791678e+000 -7.405006e+000 195 160 78
-1.182223e+000 -1.140767e+000 -5.886798e+000 216 189 102
7.711657e-001 -4.287916e+000 -7.278196e+000 136 115 109
1.855114e+000 -4.172603e+000 -7.575675e+000 142 124 120
4.379237e+000 -5.677376e+000 -7.045599e+000 190 111 64
5.058724e+000 -3.829685e+000 -6.981390e+000 143 53 53
6.171351e+000 -3.209104e+000 -7.307978e+000 144 63 44
-9.091527e-001 -3.216243e+000 -5.524898e+000 223 119 116
4.669695e+000 -5.716356e+000 -6.679341e+000 69 43 30
-6.046855e-001 -3.194514e+000 -5.351814e+000 220 113 113
3.383690e+000 -1.499318e+000 -7.462610e+000 144 53 69
-5.606523e-001 -4.028163e+000 -5.289422e+000 222 117 116
4.568449e+000 -1.299552e+000 -7.053511e+000 148 60 56
-2.658227e-001 -8.908615e-001 -5.905706e+000 43 50 56
4.098026e+000 6.687532e-002 -7.638608e+000 203 163 89
4.161632e+000 -5.273249e-001 -7.510264e+000 120 73 60
3.764362e+000 -1.250061e+000 -7.402422e+000 97 74 68
4.108924e+000 -1.303412e+000 -7.499795e+000 136 106 101
-1.420180e+000 -1.763483e+000 -5.982116e+000 231 216 149
-1.246220e+000 -1.783168e+000 -5.905220e+000 228 219 163
-2.111989e+000 -1.917888e+000 -6.532713e+000 239 224 160
1.038054e+000 -1.919199e+000 -7.303185e+000 54 35 20
1.447968e+000 -2.114056e+000 -6.892131e+000 109 52 51
1.652791e+000 -2.065041e+000 -7.087197e+000 57 33 26
-1.278653e+000 -2.449738e+000 -5.905820e+000 236 227 152
1.404146e+000 -2.273500e+000 -6.635987e+000 112 80 67
1.404146e+000 -2.273500e+000 -6.635987e+000 112 80 67
2.682820e+000 -2.043384e+000 -7.502232e+000 112 82 74
2.684172e+000 -2.181754e+000 -7.317325e+000 59 35 34
4.426568e+000 -2.057510e+000 -7.072658e+000 73 53 39
-2.576776e+000 -2.685346e+000 -6.903058e+000 236 217 141
-4.689212e+000 -3.119523e+000 -6.754834e+000 73 43 33
-2.790016e+000 -2.924223e+000 -6.914503e+000 230 216 155
-3.772783e-001 -2.953739e+000 -5.223432e+000 105 98 93
-2.042084e+000 -3.178339e+000 -6.401194e+000 235 227 159
-2.042084e+000 -3.178339e+000 -6.401194e+000 235 227 159
-3.956217e-001 -3.108979e+000 -5.282808e+000 74 80 80
1.034884e+000 -3.713428e+000 -7.109712e+000 143 86 53
1.185103e+000 -3.714329e+000 -7.231049e+000 138 108 71
5.764896e+000 -4.248157e+000 -1.176043e+001 145 106 89
4.405793e+000 -3.850301e+000 -6.821235e+000 123 94 71
-1.075073e+000 -4.049934e+000 -5.688472e+000 230 204 124
4.321870e+000 -4.139781e+000 -7.252548e+000 145 110 98
4.412439e+000 -3.978308e+000 -6.880738e+000 114 87 64
2.223866e+000 -4.638450e+000 -9.218033e+000 37 26 20
1.703317e+000 -4.787199e+000 -7.921179e+000 152 134 130
1.704576e+000 -4.793004e+000 -7.959363e+000 152 134 130
4.296065e+000 -4.535212e+000 -7.232322e+000 147 114 112
-3.935327e-001 -4.872972e+000 -5.182406e+000 79 85 84
3.915908e+000 -6.653683e-001 -7.372622e+000 63 36 25
-4.160908e-001 -1.534086e+000 -5.372854e+000 60 38 32
4.068686e+000 -1.019367e+000 -7.684283e+000 62 39 31
-1.326915e+000 -1.698138e+000 -5.993936e+000 228 218 167
3.976468e+000 -1.299946e+000 -7.492520e+000 137 118 114
5.566566e-001 -1.888663e+000 -7.187389e+000 111 70 52
2.122357e+000 -1.732428e+000 -8.148658e+000 104 76 62
1.230781e+000 -1.953296e+000 -7.248811e+000 48 30 16
1.230781e+000 -1.953296e+000 -7.248811e+000 48 30 16
2.114699e+000 -1.819061e+000 -7.939274e+000 63 35 23
4.591616e+000 -2.548722e+000 -6.903637e+000 62 36 23
2.411907e+000 -3.230804e+000 -7.427566e+000 77 57 47
3.038398e+000 -3.161349e+000 -7.663961e+000 144 124 123
2.189086e+000 -3.451688e+000 -7.184762e+000 146 112 69
8.796158e-001 -3.774580e+000 -7.072688e+000 123 64 34
3.487194e+000 -3.764578e+000 -8.000790e+000 111 43 59
4.687433e+000 -3.600766e+000 -6.942562e+000 76 38 33
1.436841e+000 -4.026762e+000 -7.448479e+000 125 109 104
2.123802e+000 -4.275578e+000 -7.831729e+000 146 59 68
-3.585502e-001 -4.218452e+000 -5.121747e+000 110 135 134
3.193117e+000 -4.543213e+000 -6.978404e+000 86 57 48
4.067883e+000 -4.840384e+000 -7.252125e+000 45 24 19
-3.336827e-001 -4.993631e+000 -5.121370e+000 72 72 69
5.946117e+000 -5.790034e+000 -7.004281e+000 114 75 43
4.103878e+000 2.745778e-002 -7.730714e+000 183 108 68
4.041004e+000 -8.011535e-001 -7.433465e+000 103 70 55
4.067123e+000 -8.646262e-001 -7.527618e+000 130 94 85
4.245065e+000 -7.679346e-001 -7.029760e+000 165 164 154
4.488127e+000 -7.696357e-001 -7.070096e+000 59 29 21
4.488127e+000 -7.696357e-001 -7.070096e+000 59 29 21
4.178758e+000 -2.081751e+000 -7.527593e+000 127 106 110
4.235836e+000 -2.075783e+000 -7.222131e+000 141 132 125
4.581627e+000 -2.756014e+000 -6.977150e+000 74 47 36
2.442630e+000 -3.333329e+000 -7.185643e+000 157 134 121
-7.077546e-001 -3.499275e+000 -5.494199e+000 106 118 114
1.785074e+000 -3.548188e+000 -7.117820e+000 145 130 124
1.629348e+000 -3.754709e+000 -7.387109e+000 137 78 46
2.121097e+000 -4.146795e+000 -7.744662e+000 131 124 117
4.348996e+000 -4.162034e+000 -7.202119e+000 143 80 70
4.465559e+000 -4.024466e+000 -6.793209e+000 158 132 105
3.746855e-001 -4.601186e+000 -7.383884e+000 113 76 58
4.213943e-001 -4.655417e+000 -7.414730e+000 122 60 38
1.277775e+000 -4.629092e+000 -7.773542e+000 146 128 128
4.942894e+000 -4.488975e+000 -6.789078e+000 148 121 102
2.783924e+000 -4.835109e+000 -8.163659e+000 47 38 36
4.440120e+000 -5.313795e+000 -6.642020e+000 181 108 72
4.083322e+000 -2.947113e-001 -7.805072e+000 130 68 47
4.153031e+000 -3.069404e-001 -7.362586e+000 168 91 62
6.826157e+000 -7.584828e-001 -7.831801e+000 147 123 100
4.342562e+000 -1.817500e+000 -7.096056e+000 132 107 76
6.024244e+000 -1.803190e+000 -7.517892e+000 130 100 75
-7.613314e-001 -3.467609e+000 -5.453468e+000 75 84 83
2.127614e+000 -3.664149e+000 -7.285931e+000 146 123 102
5.835317e-001 -3.890120e+000 -7.083573e+000 122 86 61
1.639021e+000 -3.863122e+000 -7.259117e+000 152 99 59
6.087376e-001 -4.882117e+000 -7.592688e+000 134 52 53
4.725429e+000 -5.039015e+000 -6.722912e+000 69 47 35
4.163700e+000 -7.304380e-001 -7.599866e+000 78 41 29
4.184568e+000 -1.580757e+000 -7.406865e+000 126 69 55
9.488570e-001 -1.950641e+000 -7.183484e+000 114 85 61
3.624606e+000 -2.836245e+000 -7.606989e+000 51 31 26
5.029928e+000 -2.827752e+000 -7.036070e+000 155 123 112
-3.459159e+000 -3.224010e+000 -6.879532e+000 66 41 37
5.918724e+000 -3.231231e+000 -7.242078e+000 150 123 104
2.909138e+000 -3.493082e+000 -7.692844e+000 49 24 26
3.112736e+000 -3.552788e+000 -8.079361e+000 79 34 43
7.742590e-001 -3.742635e+000 -7.004455e+000 131 83 43
4.351027e+000 -3.547184e+000 -7.160357e+000 135 125 124
5.283039e+000 -3.788311e+000 -7.168898e+000 161 124 108
1.398251e+000 -4.979491e+000 -7.918802e+000 148 134 133
1.386735e+000 -4.952555e+000 -7.786745e+000 148 134 133
4.512486e+000 -4.819506e+000 -6.732490e+000 133 102 77
6.352404e+000 -4.797135e+000 -7.245138e+000 143 68 47
6.124992e+000 -4.896056e+000 -7.085923e+000 143 67 43
6.115263e+000 -4.892650e+000 -7.064386e+000 143 67 43
5.200577e+000 -5.421150e+000 -6.672857e+000 152 118 98
3.863350e+000 -1.164545e+000 -7.628140e+000 97 71 67
4.211040e+000 -1.746064e+000 -7.461563e+000 123 65 51
1.339630e+000 -1.964781e+000 -7.224352e+000 110 80 59
4.224185e+000 -2.073590e+000 -7.418035e+000 125 63 48
4.509946e+000 -3.668262e+000 -6.791257e+000 69 40 27
1.722710e+000 -4.471473e+000 -7.710796e+000 36 26 24
9.479399e-001 -4.809391e+000 -7.620102e+000 43 35 33
4.043094e+000 -2.909236e+000 -7.474755e+000 63 34 30
2.741697e+000 -3.246723e+000 -7.608514e+000 36 20 21
3.561719e+000 -3.789630e+000 -8.076536e+000 105 39 53
3.561719e+000 -3.789630e+000 -8.076536e+000 105 39 53
2.021125e+000 -4.080462e+000 -7.632613e+000 36 22 24
2.021125e+000 -4.080462e+000 -7.632613e+000 36 22 24
2.709026e+000 -4.793489e+000 -8.269727e+000 139 124 122
-9.660902e-001 -1.170246e+000 -5.769913e+000 74 69 75
3.768978e+000 -9.143179e-001 -7.737444e+000 57 52 56
6.629411e+000 -4.080693e+000 -7.419431e+000 157 105 57
1.149255e+000 -4.909660e+000 -7.773797e+000 151 132 136
3.934534e+000 -5.012017e+000 -7.139098e+000 59 49 46
4.951514e-001 -5.271848e+000 -6.084710e+000 134 106 85
-7.425039e-001 -5.714372e-001 -5.733147e+000 66 70 73
3.106031e-002 -4.156901e+000 -5.674729e+000 34 23 21
5.155405e+000 -5.341508e+000 -6.863924e+000 151 64 57
5.446900e-002 -5.305737e+000 -5.612473e+000 33 25 23
-6.786558e-001 -8.779805e-001 -5.502998e+000 223 113 114
4.052141e+000 -5.082686e-001 -7.652558e+000 77 50 38
3.041721e+000 -1.637573e+000 -8.942006e+000 46 28 24
-5.923947e-001 -2.407126e+000 -5.370583e+000 218 112 112
1.622783e+000 -2.889776e+000 -6.984016e+000 144 85 46
3.515209e+000 -2.922420e+000 -7.922516e+000 91 68 62
-7.301968e-001 -3.614295e+000 -5.487277e+000 71 80 77
2.142607e+000 -3.032401e+000 -6.952010e+000 52 27 22
1.970394e+000 -3.451683e+000 -7.011069e+000 160 129 116
4.825456e+000 -4.288366e+000 -6.991735e+000 132 43 37
2.509734e+000 -4.443048e+000 -8.078176e+000 138 118 117
5.903255e+000 -2.415997e+000 -6.985583e+000 148 122 105
3.958382e+000 -8.635936e-001 -7.485090e+000 118 88 76
6.840504e-001 -1.820455e+000 -7.437927e+000 56 33 17
4.377996e+000 -1.913997e+000 -7.078119e+000 139 117 89
4.275624e+000 -2.557018e+000 -7.264272e+000 140 125 119
-4.633105e+000 -3.089895e+000 -6.732124e+000 105 81 71
-5.384117e+000 -3.245095e+000 -6.699906e+000 146 149 142
-7.758629e-001 -3.196783e+000 -5.512651e+000 230 141 133
1.689905e+000 -2.991862e+000 -7.097191e+000 127 68 36
1.689905e+000 -2.991862e+000 -7.097191e+000 127 68 36
4.300055e+000 -3.673094e+000 -7.460563e+000 118 68 57
1.671755e+000 -4.033497e+000 -7.547937e+000 129 78 48
4.406590e+000 -4.027718e+000 -6.859367e+000 119 93 70
3.972712e-001 -4.455909e+000 -7.270916e+000 33 20 12
4.356199e+000 -5.248700e+000 -7.048353e+000 177 119 106
4.140814e+000 -4.645325e-002 -7.587663e+000 171 104 58
3.901529e+000 -2.030662e-001 -8.718306e+000 87 56 36
4.320008e+000 -7.753738e-001 -7.089932e+000 67 45 31
4.302042e+000 -9.569930e-001 -7.110860e+000 144 111 91
3.525647e+000 -1.285539e+000 -7.387466e+000 127 58 65
4.359381e+000 -1.552207e+000 -7.159179e+000 137 108 84
6.795777e-001 -1.749062e+000 -7.631709e+000 113 86 66
4.317567e+000 -1.987448e+000 -7.196165e+000 77 59 55
4.333991e+000 -1.980324e+000 -6.996188e+000 72 56 41
2.984486e+000 -2.207524e+000 -7.378235e+000 97 67 57
4.099631e+000 -1.963447e+000 -8.138830e+000 63 43 42
3.942315e+000 -2.143441e+000 -7.775459e+000 60 38 32
1.667100e+000 -2.947752e+000 -7.068569e+000 132 76 37
1.667100e+000 -2.947752e+000 -7.068569e+000 132 76 37
-3.713879e+000 -3.318557e+000 -7.063338e+000 74 54 47
-1.326113e+000 -3.236495e+000 -5.832543e+000 213 191 119
4.608813e+000 -3.265352e+000 -6.914664e+000 80 52 41
-8.838165e-001 -3.546612e+000 -5.558493e+000 82 91 92
2.450032e+000 -3.425236e+000 -7.343723e+000 142 109 62
8.840992e-001 -3.773784e+000 -7.030944e+000 123 64 34
2.045483e+000 -3.635436e+000 -7.204280e+000 139 105 74
9.407182e-001 -3.924870e+000 -7.191069e+000 120 65 33
1.213020e+000 -4.542408e+000 -7.594423e+000 149 122 131
4.467659e+000 -4.406916e+000 -6.714444e+000 150 125 94
4.487350e+000 -4.921257e+000 -6.573992e+000 62 40 27
4.064380e+000 -8.669990e-001 -7.518901e+000 130 94 85
2.372670e+000 -2.754774e+000 9.763277e-001 143 71 49
4.594260e+000 -2.015223e+000 -7.054872e+000 51 35 22
4.594260e+000 -2.015223e+000 -7.054872e+000 51 35 22
-3.516028e+000 -2.977031e+000 -7.008325e+000 68 44 34
1.725967e+000 -2.856002e+000 -7.033560e+000 144 64 41
2.507886e+000 -3.429670e+000 -7.233306e+000 155 129 115
2.594662e+000 -3.447671e+000 -7.309495e+000 101 74 63
9.624168e-001 -3.829987e+000 -7.125699e+000 151 92 62
4.303015e+000 -3.672778e+000 -7.196613e+000 122 56 45
-6.858630e-001 -3.829988e+000 -5.371530e+000 234 127 133
1.596371e+000 -4.007364e+000 -7.513903e+000 148 99 49
4.419843e-001 -4.340199e+000 -7.179046e+000 120 40 51
3.468685e-001 -4.735470e+000 -7.398160e+000 124 81 47
1.381850e+000 -4.849928e+000 -7.794424e+000 148 137 133
6.163775e+000 -4.786244e+000 -7.127910e+000 149 122 97
4.408414e+000 -5.599276e+000 -7.021112e+000 183 109 65
4.500318e+000 -2.540201e-001 -7.214678e+000 78 48 37
5.086133e+000 4.335765e-002 -7.573376e+000 154 128 98
6.247671e+000 -1.481478e+000 -7.557018e+000 150 125 105
4.337735e+000 -2.044707e+000 -6.977571e+000 167 162 153
-8.462761e-001 -3.726131e+000 -5.466697e+000 219 126 118
4.337798e+000 -4.217990e+000 -7.253730e+000 131 69 57
4.514934e+000 -4.336827e+000 -6.720864e+000 129 53 44
6.645572e-001 -4.985431e+000 -7.586434e+000 44 25 18
1.210786e+000 -4.976294e+000 -7.787145e+000 144 133 129
4.689033e+000 -4.942891e+000 -6.664654e+000 66 39 27
4.156846e+000 -9.186915e-001 -7.566880e+000 116 59 48
4.232201e+000 -1.410024e+000 -7.299791e+000 148 138 133
5.793244e+000 -1.422475e+000 -7.570411e+000 146 124 103
7.908353e+000 -1.052811e+000 -8.818104e+000 55 40 32
4.275153e+000 -1.910203e+000 -7.304995e+000 137 125 124
4.275153e+000 -1.910203e+000 -7.304995e+000 137 125 124
6.803258e+000 -2.564803e+000 -7.788759e+000 135 104 71
4.274949e+000 -2.729251e+000 -7.416984e+000 128 57 53
4.943511e+000 -2.715617e+000 -6.973504e+000 151 118 107
4.348190e+000 -3.857459e+000 -7.054851e+000 151 137 134
1.530268e+000 -4.462409e+000 -7.651517e+000 44 32 34
1.530268e+000 -4.462409e+000 -7.651517e+000 44 32 34
6.269171e+000 -5.076356e+000 -7.179917e+000 152 121 107
4.790540e+000 -5.382732e+000 -6.660731e+000 138 80 66
4.261262e+000 -2.406320e+000 -7.460068e+000 131 61 60
2.513855e+000 -3.014785e+000 -7.415147e+000 39 24 21
6.241740e+000 -3.308787e+000 -7.340170e+000 154 75 56
4.069850e+000 -4.587601e+000 -7.046702e+000 86 66 59
4.092495e+000 -4.991595e+000 -7.207181e+000 65 82 100
5.032135e+000 -4.771735e+000 -6.607086e+000 148 122 100
6.893500e+000 -9.737078e-001 -7.969843e+000 150 124 109
3.995051e+000 -4.484846e+000 -7.154052e+000 123 106 98
5.054338e+000 -2.330841e+000 -7.277443e+000 147 59 55
6.599206e+000 -2.364603e+000 -7.699853e+000 157 110 56
-5.644232e-001 -4.239302e+000 -5.279886e+000 78 87 88
4.455919e+000 9.526627e-003 -7.341830e+000 81 56 36
-1.931546e-002 -3.023677e+000 -5.811693e+000 23 19 16
-1.898091e+000 -3.152468e+000 -6.846354e+000 224 195 111
3.798738e+000 -7.104199e-002 -9.056654e+000 135 111 78
4.174270e+000 -3.069005e-001 -7.240840e+000 187 137 112
4.154103e+000 -1.023274e+000 -7.658883e+000 103 66 57
4.213998e+000 -1.088534e+000 -7.134321e+000 80 55 36
-1.454287e+000 -1.552571e+000 -6.054601e+000 235 226 159
-2.089446e+000 -1.996910e+000 -6.427159e+000 216 199 127
4.306341e+000 -1.566693e+000 -6.989736e+000 144 112 87
-1.558321e+000 -2.198620e+000 -6.082110e+000 232 222 180
-1.558321e+000 -2.198620e+000 -6.082110e+000 232 222 180
9.484066e-001 -2.023964e+000 -6.993448e+000 111 82 66
1.900858e+000 -1.956946e+000 -7.482215e+000 62 34 25
7.168241e+000 -1.679975e+000 -7.912760e+000 104 90 81
3.905102e+000 -2.170241e+000 -7.752498e+000 88 64 60
3.990060e+000 -2.087544e+000 -7.818342e+000 84 63 58
-3.865429e-001 -2.407412e+000 -5.308091e+000 60 35 24
-1.244979e+000 -2.900999e+000 -5.794861e+000 233 215 136
1.031229e+000 -3.914508e+000 -7.299676e+000 128 63 42
4.320799e+000 -3.998958e+000 -7.418219e+000 99 54 48
4.323128e-001 -4.345157e+000 -7.199822e+000 111 40 42
2.195805e+000 -4.694283e+000 -7.983881e+000 143 122 127
4.369668e+000 -4.808281e+000 -7.230899e+000 148 108 96
5.880709e+000 -4.995742e+000 -7.063874e+000 159 124 93
-8.141104e-001 -7.052714e-001 -5.531948e+000 219 120 120
-1.108484e+000 -9.509216e-001 -5.831680e+000 222 198 115
3.891712e+000 -1.633573e-001 -8.310874e+000 136 105 76
4.147675e+000 -1.017146e+000 -7.780427e+000 108 79 74
-1.303149e+000 -1.726067e+000 -5.963047e+000 228 218 155
4.206605e+000 -1.353168e+000 -7.433656e+000 127 64 53
1.822995e+000 -1.894991e+000 -7.602059e+000 34 18 15
1.641131e+000 -2.905203e+000 -7.052312e+000 149 80 47
-6.566217e-001 -3.039507e+000 -5.373748e+000 225 122 119
1.995587e+000 -3.367481e+000 -6.992812e+000 147 116 54
2.879396e+000 -3.555095e+000 -7.710348e+000 135 95 63
1.350688e+000 -4.460753e+000 -7.588419e+000 157 119 117
1.351146e+000 -4.469911e+000 -7.613286e+000 157 119 117
8.839434e-001 -4.671534e+000 -7.420841e+000 34 25 20
4.424270e+000 -4.851411e+000 -7.284144e+000 129 64 52
4.486623e+000 -4.915855e+000 -6.738743e+000 67 46 28
4.508648e+000 -4.924287e+000 -6.645121e+000 71 43 31
-1.105673e+000 -1.315382e+000 -5.809453e+000 218 194 106
-4.164644e-001 -1.443902e+000 -5.355124e+000 53 33 27
2.821180e+000 -1.448776e+000 -9.196428e+000 83 59 51
5.257111e-001 -2.094213e+000 -6.865423e+000 77 49 44
4.573019e+000 -2.018076e+000 -6.988682e+000 53 30 26
4.573019e+000 -2.018076e+000 -6.988682e+000 53 30 26
4.094798e+000 -2.225164e+000 -7.872056e+000 73 53 51
3.929631e+000 -2.577906e+000 -7.589924e+000 66 47 42
-5.328050e+000 -3.235738e+000 -6.678709e+000 83 57 38
-5.328050e+000 -3.235738e+000 -6.678709e+000 83 57 38
1.513747e+000 -2.746713e+000 -6.872672e+000 162 108 66
-4.653138e-001 -3.265103e+000 -5.236076e+000 78 91 93
2.426672e+000 -3.237172e+000 -7.483792e+000 81 61 52
2.685751e+000 -3.358809e+000 -7.617852e+000 119 102 92
1.950982e+000 -3.390836e+000 -6.907298e+000 152 131 124
1.950982e+000 -3.390836e+000 -6.907298e+000 152 131 124
4.444869e+000 -4.402596e+000 -7.024380e+000 80 46 36
4.419209e+000 -5.220380e+000 -6.918682e+000 165 158 161
1.926284e+000 -1.682042e+000 -8.150193e+000 30 18 19
2.570562e+000 -1.930764e+000 -7.727120e+000 42 18 13
2.570562e+000 -1.930764e+000 -7.727120e+000 42 18 13
4.281958e+000 -1.768826e+000 -7.120897e+000 89 64 44
2.570234e+000 -2.231412e+000 -7.506678e+000 91 65 59
4.309145e+000 -2.404139e+000 -7.336712e+000 136 125 123
-3.413832e+000 -3.314207e+000 -6.951375e+000 113 87 70
2.381891e+000 -3.284436e+000 -7.268065e+000 42 25 22
5.893323e+000 -3.123454e+000 -7.284446e+000 133 101 73
2.904560e+000 -3.491306e+000 -7.681618e+000 44 24 15
-1.046702e+000 -4.040972e+000 -5.657987e+000 219 197 116
6.705330e+000 -3.800575e+000 -7.531434e+000 142 110 82
1.146606e-001 -4.150203e+000 -5.719681e+000 21 19 20
2.190501e+000 -4.592622e+000 -8.012526e+000 143 55 63
2.039198e+000 -4.755446e+000 -8.005026e+000 151 131 131
1.435107e+000 -5.074804e+000 -7.938063e+000 44 34 32
1.434475e+000 -5.173333e+000 -8.005096e+000 162 117 63
6.201761e+000 -4.744923e+000 -7.268857e+000 142 104 78
4.438066e+000 -5.505903e+000 -6.956233e+000 187 183 174
7.368109e+000 -5.761733e+000 -7.522393e+000 61 37 30
7.983920e+000 1.116739e+000 -1.131816e+001 169 139 66
-4.701856e-001 -9.053417e-001 -5.652652e+000 64 45 38
-4.840417e-001 -1.307666e+000 -5.335358e+000 73 83 85
4.290202e+000 -9.632097e-001 -7.101233e+000 139 112 91
-6.384404e-001 -1.673495e+000 -5.456289e+000 216 114 111
3.776649e+000 -1.317475e+000 -7.462332e+000 42 28 29
6.267902e+000 -1.157232e+000 -7.534521e+000 139 104 73
4.232485e+000 -1.743205e+000 -7.212340e+000 143 132 128
4.219145e+000 -2.236915e+000 -7.359022e+000 121 63 52
4.284320e+000 -3.067821e+000 -7.360785e+000 122 59 49
-9.386758e-001 -3.591083e+000 -5.576709e+000 92 97 100
3.257566e+000 -4.104994e+000 -7.016553e+000 53 25 21
3.262708e+000 -4.114760e+000 -7.044010e+000 53 25 21
1.178122e+000 -4.473734e+000 -7.583560e+000 36 35 29
1.178122e+000 -4.473734e+000 -7.583560e+000 36 35 29
2.816551e+000 -4.705954e+000 -8.421890e+000 44 23 22
4.383423e+000 -4.359033e+000 -7.048930e+000 157 142 140
-4.756584e-001 -1.581044e+000 -5.361066e+000 216 118 119
5.854926e+000 -1.609361e+000 -7.442079e+000 148 122 100
3.587025e+000 -2.240577e+000 -7.761593e+000 39 24 22
4.245656e+000 -2.569080e+000 -7.373374e+000 129 65 53
3.950806e+000 -4.229650e+000 -7.106290e+000 116 103 96
7.028287e+000 -4.060895e+000 -7.582624e+000 146 121 98
4.230873e+000 -4.515684e+000 -7.239040e+000 129 106 102
4.428057e+000 -4.256412e+000 -6.662930e+000 135 105 77
5.036427e+000 -5.552921e+000 -6.496794e+000 153 118 98
3.705776e+000 -5.608384e-001 -7.637022e+000 51 54 52
1.655290e+000 -1.940051e+000 -7.442098e+000 107 80 59
1.941897e+000 -1.856079e+000 -7.673462e+000 108 82 58
-4.187319e+000 -3.244881e+000 -6.995378e+000 191 136 109
1.618350e+000 -3.238834e+000 -7.026200e+000 41 22 17
4.868135e+000 -3.060397e+000 -6.957776e+000 144 120 110
2.496347e+000 -4.815449e+000 -8.135006e+000 56 33 31
2.496347e+000 -4.815449e+000 -8.135006e+000 56 33 31
-6.402136e-001 -1.342565e+000 -5.548181e+000 73 83 88
4.065621e+000 -1.206900e+000 -7.547397e+000 75 54 49
6.564701e+000 -2.370271e+000 -7.636934e+000 157 107 56
4.289526e+000 -5.613786e+000 -7.411688e+000 180 146 72
4.240701e+000 -5.862743e+000 -7.699555e+000 109 79 51
1.995153e+000 -1.581648e+000 -8.177308e+000 39 20 21
6.097197e+000 -1.571647e+000 -7.496268e+000 157 77 54
2.830123e+000 -2.219586e+000 -7.269283e+000 96 67 59
1.913754e+000 -4.684024e+000 -8.011588e+000 142 123 127
1.660095e-002 -5.101504e+000 -5.796364e+000 51 69 86
7.084084e+000 -5.473772e+000 -7.521750e+000 149 120 102
6.066103e+000 -5.661667e+000 -7.018587e+000 98 57 35
6.665568e+000 -2.700014e-001 -7.843947e+000 147 122 102
3.933609e+000 -1.455834e+000 -7.379169e+000 117 99 97
3.385743e+000 -4.063718e+000 -7.969048e+000 94 75 66
3.385743e+000 -4.063718e+000 -7.969048e+000 94 75 66
4.294941e+000 -5.227735e+000 -7.212934e+000 63 38 26
2.439179e+000 -1.745604e+000 -7.913107e+000 106 75 55
2.326311e+000 -3.789491e+000 -7.454110e+000 136 100 68
2.326311e+000 -3.789491e+000 -7.454110e+000 136 100 68
3.918147e+000 -3.495305e-002 -8.176079e+000 141 118 84
-2.248070e+000 -2.183942e+000 -6.581477e+000 232 220 146
1.439814e+000 -2.166899e+000 -6.790563e+000 54 20 18
1.393427e+000 -2.233882e+000 -6.578474e+000 84 45 42
4.864973e-002 -2.555589e+000 -5.868065e+000 46 76 88
-1.247976e+000 -2.903540e+000 -5.807947e+000 225 216 147
1.492874e+000 -2.844539e+000 -7.044611e+000 140 88 48
1.789686e+000 -3.068346e+000 -7.139891e+000 115 70 46
4.645901e+000 -3.286613e+000 -7.026818e+000 82 59 45
1.088415e+000 -3.994330e+000 -7.407540e+000 45 33 29
-4.366333e-001 -4.909457e+000 -5.203130e+000 72 85 85
5.097592e+000 -5.001137e+000 -6.920673e+000 151 123 107
-1.421390e+000 -1.151677e+000 -6.221479e+000 80 66 64
-1.606341e+000 -2.173833e+000 -6.125653e+000 223 219 161
-1.880970e+000 -2.451264e+000 -6.293020e+000 230 225 162
4.206014e+000 -1.992861e+000 -7.239011e+000 113 64 58
1.693695e+000 -2.906589e+000 -6.997564e+000 162 107 76
2.417854e+000 -3.221343e+000 -7.408928e+000 87 68 51
1.547313e+000 -3.908671e+000 -7.334149e+000 135 75 48
4.341171e+000 -3.695745e+000 -7.169693e+000 138 132 135
6.757345e-001 -4.946063e+000 -7.658391e+000 137 131 123
9.668810e-001 -5.368062e+000 -8.008604e+000 60 46 50
-1.735973e-001 -5.870586e+000 -5.437745e+000 122 107 94
4.458297e+000 -7.667128e-001 -6.956322e+000 57 24 20
4.458297e+000 -7.667128e-001 -6.956322e+000 57 24 20
-5.452021e-001 -1.645423e+000 -5.377480e+000 214 114 116
-5.647768e-001 -1.701779e+000 -5.358591e+000 79 98 100
4.213351e+000 -1.157300e+000 -7.077807e+000 85 65 41
-8.132302e-001 -1.837421e+000 -5.587660e+000 72 89 89
4.197754e+000 -1.528365e+000 -7.370050e+000 129 75 64
-3.642430e+000 -2.990162e+000 -7.066002e+000 55 40 35
1.751217e+000 -2.752446e+000 -6.981421e+000 152 109 64
9.304505e-001 -3.890634e+000 -7.141967e+000 127 71 44
1.500716e+000 -4.392766e+000 -7.628493e+000 143 134 133
6.069662e-001 -4.925331e+000 -7.710645e+000 157 59 71
4.129141e+000 -4.926539e+000 -7.243635e+000 56 37 32
4.326862e+000 -6.002305e+000 -7.763173e+000 110 88 61
-1.886385e-001 -5.778213e+000 -5.337969e+000 78 57 41
6.100825e+000 -1.469090e-001 -7.541388e+000 150 124 102
5.926832e+000 -1.341613e+000 -7.281941e+000 135 101 73
1.546021e+000 -1.885507e+000 -7.538387e+000 97 83 64
7.641401e+000 -1.850826e+000 -8.138647e+000 54 37 30
-4.999313e-001 -4.267830e+000 -5.300040e+000 57 73 76
6.318644e+000 -4.755361e+000 -7.165357e+000 139 80 57
6.318644e+000 -4.755361e+000 -7.165357e+000 139 80 57
6.187627e+000 -1.155365e+000 -7.357558e+000 134 108 71
4.162878e+000 -1.909779e+000 -7.271866e+000 120 61 55
-3.547530e+000 -3.209551e+000 -7.338616e+000 99 75 61
4.287832e+000 -3.388717e+000 -7.304838e+000 129 69 57
4.481620e+000 -4.046445e+000 -6.859584e+000 143 124 96
6.473786e+000 -4.888892e+000 -7.308986e+000 148 121 107
5.895646e-001 -3.921754e+000 -7.147577e+000 112 93 53
1.645262e+000 -3.583762e+000 -7.219283e+000 30 18 17
1.908407e+000 -4.447982e+000 -7.853467e+000 141 127 127
5.066370e+000 -5.833962e+000 -6.920651e+000 155 67 66
3.184836e+000 -4.349932e+000 -8.619979e+000 76 32 29
3.294184e-001 -5.168166e+000 -6.113994e+000 82 54 34
6.327824e+000 -4.939663e+000 -7.284472e+000 164 86 63
4.782346e+000 -5.048403e-001 -6.943224e+000 138 112 85
-8.551979e-001 -1.181773e+000 -5.672609e+000 65 73 76
7.477418e+000 -5.684914e+000 -7.728914e+000 67 51 42
3.747039e+000 -1.945936e+000 -7.766524e+000 37 26 25
7.701276e+000 -5.528109e+000 -8.007254e+000 50 35 32
7.556153e-001 -3.271278e+000 3.811301e+000 0 255 0
7.553214e-001 -3.270836e+000 3.761304e+000 255 255 0
7.920154e-001 -2.117984e+000 3.608757e+000 255 0 0
7.917305e-001 -2.122953e+000 3.559005e+000 255 255 0
8.594044e-001 -1.829292e+000 3.783359e+000 0 255 0
8.593669e-001 -1.836781e+000 3.733923e+000 255 255 0
1.145462e+000 -8.477853e-001 3.910345e+000 255 0 0
1.144435e+000 -8.595616e-001 3.861763e+000 255 255 0
