ply
format ascii 1.0
element face 0
property list uchar int vertex_indices
element vertex 887
property float x
property float y
property float z
property uchar diffuse_red
property uchar diffuse_green
property uchar diffuse_blue
end_header
5.399539e-001 8.913254e-001 -6.652037e+000 18 10 20
-2.149680e-001 5.985642e-001 -7.454868e+000 166 150 142
5.874429e-001 3.773159e-001 -6.568015e+000 236 235 233
-2.126414e-001 2.225597e-001 -7.472046e+000 54 25 24
3.290676e-001 2.205516e-001 -6.818989e+000 146 133 125
-1.137023e-001 5.781314e-002 -6.697944e+000 82 44 35
-2.836841e-002 1.089097e-001 -6.790678e+000 124 111 102
1.377254e-002 1.039068e-001 -6.739260e+000 166 157 148
1.197219e-001 3.988279e-005 -6.688361e+000 132 119 111
1.339849e-001 -1.372205e-002 -6.693857e+000 155 142 134
1.012241e+000 3.447507e-002 -6.185585e+000 247 87 98
-1.127315e-001 -1.029638e-001 -6.630718e+000 33 17 4
9.008743e-001 -1.079003e-001 -6.293729e+000 206 50 54
-5.113849e-001 -1.759899e-001 -6.342356e+000 94 23 19
-4.307935e-001 -1.827514e-001 -6.434311e+000 122 38 20
-2.771138e-001 -1.796380e-001 -6.496351e+000 118 12 13
-9.941932e-002 -1.683077e-001 -6.678599e+000 131 107 70
-1.539097e-001 -2.161499e-001 -6.610685e+000 130 109 98
-2.759133e-001 -2.552791e-001 -6.484911e+000 32 12 14
-2.864788e-001 -2.739934e-001 -6.481034e+000 179 154 126
-2.713024e-001 -2.715288e-001 -6.487345e+000 175 116 101
-2.708436e-001 -2.700754e-001 -6.483117e+000 175 116 101
-2.735878e-001 -2.833926e-001 -6.477686e+000 34 17 11
-1.614446e-001 -3.178577e-001 -6.576799e+000 201 196 193
-3.293798e-002 -3.404247e-001 -6.736691e+000 255 251 242
4.298960e-001 -8.956672e-001 -7.046902e+000 162 140 96
-1.427079e-001 7.192135e-001 -7.390522e+000 207 44 50
1.251467e-001 5.562007e-001 -6.995481e+000 194 185 180
-3.120410e+000 7.574326e-001 -1.119742e+001 35 29 31
-2.057451e-001 2.377803e-001 -7.487824e+000 212 52 51
-1.527702e-001 2.403574e-001 -7.442727e+000 207 200 186
2.052428e-001 2.106259e-001 -6.758832e+000 154 140 124
9.815446e-001 1.765739e-001 -6.227941e+000 25 15 23
5.906495e-002 5.332974e-002 -6.735747e+000 118 107 101
6.069618e-003 3.634418e-002 -6.693037e+000 122 107 102
1.002187e+000 3.286077e-002 -6.194379e+000 233 78 82
-8.502483e-002 -5.680172e-002 -6.619924e+000 115 33 22
-7.302978e-002 -7.467553e-002 -6.606589e+000 149 67 49
-7.310145e-002 -7.467305e-002 -6.606793e+000 149 67 49
1.062493e-001 -1.343843e-001 -6.665136e+000 206 201 197
1.980434e-001 -1.314650e-001 -6.657830e+000 234 227 221
2.637331e-001 -1.085662e-001 -6.684905e+000 238 235 229
9.040962e-001 -1.283541e-001 -6.306528e+000 161 38 46
-4.229191e-001 -1.993588e-001 -6.443066e+000 154 52 29
4.334412e-001 -2.488916e-001 -6.706297e+000 211 204 195
-3.139033e-001 -2.675800e-001 -6.479130e+000 50 50 69
-1.625102e-001 -2.955561e-001 -6.560567e+000 163 155 150
-1.200265e-001 -2.945398e-001 -6.603142e+000 174 164 161
-1.201272e-001 -2.947304e-001 -6.609925e+000 174 164 161
-5.882700e-002 -2.808391e-001 -6.669962e+000 185 178 170
2.966540e-001 -3.866763e-001 -6.753559e+000 156 144 127
1.124711e+000 -3.016858e-001 -6.112859e+000 239 225 177
4.816129e-001 -4.803865e-001 -6.621358e+000 158 145 125
5.810916e-001 -5.773233e-001 -6.645332e+000 246 231 218
3.828526e-001 -9.112738e-001 -7.093970e+000 165 149 102
4.541274e-001 -8.881238e-001 -7.020227e+000 233 219 164
8.624278e-002 9.051218e-001 -7.109203e+000 202 190 185
6.869681e-001 7.081105e-001 -6.492327e+000 18 3 6
6.877598e-001 6.456594e-001 -6.436408e+000 167 39 45
8.023621e-001 5.158541e-001 -6.380658e+000 18 7 11
3.020060e-001 5.655118e-001 -6.917365e+000 184 177 167
7.104291e-001 4.526726e-001 -6.427311e+000 222 53 59
-3.711679e-002 4.274052e-001 -7.143989e+000 170 161 154
4.008278e-001 1.136848e-001 -6.645492e+000 154 141 132
-1.546940e-001 4.706150e-002 -6.741844e+000 72 27 22
-7.812105e-002 -7.679093e-003 -6.623234e+000 142 119 110
-2.873946e-001 -4.595149e-002 -6.563835e+000 86 18 7
-9.942909e-002 -6.505222e-002 -6.613304e+000 165 80 59
-3.997237e-001 -1.799724e-001 -6.535052e+000 134 33 10
-1.352238e-001 -2.329826e-001 -6.650706e+000 113 94 79
5.051400e-001 -2.356838e-001 -6.669425e+000 172 163 148
-1.896281e-001 -2.898289e-001 -6.522505e+000 181 172 170
-1.493738e-001 -3.117953e-001 -6.575029e+000 253 254 249
4.072056e-001 -4.316114e-001 -6.721967e+000 229 226 218
4.072056e-001 -4.316114e-001 -6.721967e+000 229 226 218
9.078140e-001 -5.255535e-001 -6.288814e+000 18 1 7
7.137042e-001 6.373860e-001 -6.441412e+000 196 55 61
-2.925138e-001 7.345679e-001 -7.545981e+000 30 16 16
7.934699e-001 5.005009e-001 -6.380514e+000 176 42 37
1.299771e-001 4.884700e-001 -6.987639e+000 186 177 168
4.642181e-001 4.420414e-001 -6.759101e+000 166 157 150
3.006259e-001 2.790373e-001 -6.845987e+000 123 110 99
9.694174e-001 2.009138e-001 -6.234584e+000 25 5 9
8.584302e-002 1.606617e-001 -6.824275e+000 178 169 160
8.584302e-002 1.606617e-001 -6.824275e+000 178 169 160
3.508681e-001 1.627113e-001 -6.662189e+000 142 129 113
6.529413e-001 9.423392e-002 -6.556240e+000 195 188 178
2.334663e-001 4.303705e-002 -6.659072e+000 192 182 172
2.345910e-001 1.563385e-002 -6.663062e+000 203 194 187
1.011775e+000 3.697029e-002 -6.198226e+000 243 79 98
-3.989688e-002 -1.439222e-002 -6.638422e+000 183 173 164
9.995756e-001 -9.754457e-002 -6.241893e+000 249 79 93
-6.914005e-001 -1.725538e-001 -6.368323e+000 135 113 67
-2.659584e+000 -6.095568e-001 -1.066465e+001 44 39 39
-3.298628e-001 -2.242088e-001 -6.506697e+000 188 105 67
5.206668e-001 -2.282673e-001 -6.620142e+000 243 240 231
6.038518e-001 -2.258672e-001 -6.531530e+000 172 158 147
7.425077e-001 -2.112786e-001 -6.408920e+000 158 145 134
-2.094089e-001 -3.045352e-001 -6.521342e+000 236 232 229
2.531077e-002 -3.521133e-001 -6.795650e+000 255 254 249
7.869698e-001 -3.624355e-001 -6.352833e+000 182 159 106
8.069611e-001 -4.507217e-001 -6.410594e+000 169 147 134
4.371393e-001 -9.051505e-001 -7.026350e+000 45 32 34
7.701435e-001 -7.792081e-001 -6.579317e+000 253 82 93
3.745556e-001 8.507476e-001 -6.800717e+000 219 212 209
5.897326e-002 9.023542e-001 -7.135357e+000 192 35 44
7.236603e-001 6.749761e-001 -6.481228e+000 16 12 9
7.735466e-001 5.296433e-001 -6.401467e+000 203 42 57
-2.000551e-001 6.448470e-001 -7.412610e+000 206 191 183
4.414449e-001 4.594830e-001 -6.766637e+000 181 174 166
-3.816066e-002 4.552380e-001 -7.124822e+000 208 199 190
8.920414e-001 3.251288e-001 -6.272602e+000 214 49 60
8.723289e-001 2.371396e-001 -6.317804e+000 235 64 73
9.570460e-001 1.829706e-001 -6.227530e+000 229 58 64
6.183755e-001 1.347798e-001 -6.607229e+000 170 163 153
6.597156e-002 7.552296e-002 -6.745110e+000 179 168 162
8.636420e-002 5.498842e-002 -6.719885e+000 182 171 165
9.685303e-001 4.921333e-002 -6.175131e+000 204 53 62
1.025475e+000 7.046505e-002 -6.201128e+000 29 12 20
5.903534e-001 4.109835e-002 -6.517392e+000 162 150 138
9.532173e-001 2.661985e-002 -6.185890e+000 169 29 40
3.476318e-001 -1.303796e-002 -6.613352e+000 204 194 185
1.142465e-001 -8.229303e-002 -6.648958e+000 177 166 162
4.438010e-001 -8.715908e-002 -6.572716e+000 224 221 214
-5.169265e-001 -1.480908e-001 -6.360522e+000 145 60 38
-4.413603e-002 -1.833713e-001 -6.641869e+000 238 235 230
1.357992e-001 -1.894120e-001 -6.681620e+000 205 191 182
1.357992e-001 -1.894120e-001 -6.681620e+000 205 191 182
8.053445e-001 -1.522890e-001 -6.375479e+000 164 149 141
-2.779940e-002 -2.226007e-001 -6.693043e+000 241 240 237
3.172556e-001 -2.420383e-001 -6.734314e+000 215 208 200
-3.040240e-001 -2.690589e-001 -6.479592e+000 46 42 53
-9.626074e-002 -2.809956e-001 -6.630492e+000 159 143 131
3.994729e-001 -4.040830e-001 -6.729151e+000 254 255 250
4.733442e-001 -3.909070e-001 -6.658073e+000 151 132 94
5.878225e-001 -4.348577e-001 -6.541134e+000 239 233 224
4.138275e-001 -5.356549e-001 -6.774246e+000 254 255 250
8.193294e-001 -6.718313e-001 -6.457803e+000 28 11 12
3.442774e-001 -9.438969e-001 -7.152277e+000 208 191 147
3.590758e-001 8.999700e-001 -6.846447e+000 196 34 40
4.046994e-001 8.637423e-001 -6.780992e+000 206 37 44
7.273632e-001 6.137022e-001 -6.435300e+000 17 1 8
-2.666632e-001 7.626435e-001 -7.480790e+000 193 36 43
5.881268e-001 5.589046e-001 -6.581005e+000 148 124 116
5.796322e-001 5.295386e-001 -6.587416e+000 221 212 203
-3.029257e-002 4.907743e-001 -7.123494e+000 150 141 131
4.157834e-001 2.742245e-001 -6.824216e+000 142 132 119
9.341865e-001 2.415110e-001 -6.251785e+000 232 58 71
4.110664e-001 1.358891e-001 -6.655907e+000 194 184 174
4.174096e-001 5.458050e-002 -6.615763e+000 146 136 127
6.981808e-001 9.030472e-002 -6.506233e+000 188 181 171
-1.089265e-001 3.442696e-002 -6.685238e+000 77 20 13
-7.737001e-002 1.851430e-002 -6.671251e+000 156 144 132
5.254567e-001 4.268334e-002 -6.543460e+000 160 150 141
5.967002e-001 1.068734e-002 -6.493091e+000 209 200 193
-1.660001e-001 -2.193719e-001 -6.569726e+000 169 145 135
3.999577e-001 -2.485404e-001 -6.708489e+000 227 220 210
6.272344e-001 -2.166801e-001 -6.498101e+000 177 166 154
3.434132e-002 -3.862235e-001 -6.820804e+000 50 39 37
-2.863651e-001 -3.983120e-001 -6.639077e+000 40 34 25
4.341481e-001 -4.383081e-001 -6.707231e+000 254 253 249
8.353530e-001 -6.428221e-001 -6.455860e+000 250 255 249
2.769601e-001 7.570022e-001 -6.956394e+000 221 215 212
7.315398e-001 5.746504e-001 -6.432640e+000 227 55 67
4.342067e-001 6.243222e-001 -6.764938e+000 228 223 217
6.296683e-001 5.383484e-001 -6.492628e+000 219 53 65
-1.129410e-001 6.228874e-001 -7.339607e+000 156 143 134
1.673221e-001 5.608269e-001 -7.003764e+000 221 214 208
4.347085e-001 5.412203e-001 -6.781872e+000 240 233 227
1.004423e-001 5.343324e-001 -7.023345e+000 207 198 193
7.236214e-001 3.969009e-001 -6.455594e+000 215 204 198
1.039548e-001 4.415479e-001 -7.005915e+000 204 193 187
7.513685e-001 3.646126e-001 -6.400564e+000 213 45 54
-3.116119e-001 3.559850e-001 -7.509471e+000 212 202 193
2.369362e-001 2.895780e-001 -6.863696e+000 180 169 163
1.371639e-001 1.833969e-001 -6.791936e+000 138 125 116
7.986505e-001 1.782074e-001 -6.381899e+000 158 143 136
3.209029e-001 1.566463e-001 -6.710875e+000 198 190 179
9.747010e-001 1.168621e-001 -6.211985e+000 207 45 51
8.745329e-002 1.078444e-001 -6.780372e+000 129 119 109
1.351220e-001 1.087734e-001 -6.756486e+000 214 207 201
1.002812e+000 4.734976e-003 -6.193452e+000 16 7 3
6.198315e-001 -1.396610e-002 -6.475962e+000 161 149 137
1.909857e-001 -1.072157e-001 -6.677199e+000 195 188 180
-5.991396e-001 -1.782124e-001 -6.349892e+000 122 56 50
9.718410e-001 -1.288636e-001 -6.239943e+000 122 23 36
-2.807415e-001 -1.930227e-001 -6.487027e+000 142 25 26
5.610055e-001 -2.375309e-001 -6.590836e+000 163 151 137
-3.377935e-001 -2.575848e-001 -6.508117e+000 239 188 141
5.224030e-001 -3.276170e-001 -6.581006e+000 161 138 94
4.333454e-001 -4.411637e-001 -6.708506e+000 255 254 250
8.397319e-001 -3.665236e-001 -6.323711e+000 230 217 208
4.381320e-001 -5.767020e-001 -6.787792e+000 225 222 215
6.761366e-001 -7.479606e-001 -6.652967e+000 44 28 34
-1.464324e+001 -1.130083e+001 -4.260877e+001 18 11 9
4.328159e-001 7.965114e-001 -6.750720e+000 223 217 213
3.192674e-002 8.457737e-001 -7.147958e+000 195 185 176
1.557760e-001 7.728634e-001 -7.051095e+000 206 199 193
6.076766e-001 6.120308e-001 -6.592570e+000 203 197 189
2.253993e-001 2.342644e-001 -6.830692e+000 126 113 104
8.760213e-001 1.792990e-001 -6.318267e+000 192 37 42
3.290440e-001 3.947353e-002 -6.648097e+000 160 152 141
1.947717e-001 -3.226048e-002 -6.666601e+000 255 254 250
2.610903e-001 -3.454174e-002 -6.666341e+000 209 198 192
6.673524e-001 -7.550611e-002 -6.430146e+000 145 131 120
9.756102e-001 -7.518573e-002 -6.205869e+000 241 66 78
-5.396056e-001 -1.620114e-001 -6.333135e+000 119 50 49
-5.086487e-001 -1.278235e-001 -6.371412e+000 149 68 39
-6.129721e-002 -2.423978e-001 -6.708823e+000 50 37 18
-6.167797e-002 -2.445749e-001 -6.722446e+000 50 37 18
-2.657695e-001 -2.645920e-001 -6.488294e+000 170 71 60
2.554395e-001 -3.260782e-001 -6.753480e+000 254 245 190
4.190250e-001 -2.811612e-001 -6.700760e+000 112 94 80
6.166890e-001 -4.041541e-001 -6.517438e+000 144 126 78
7.020795e-001 -3.693147e-001 -6.435532e+000 199 174 118
5.374406e-001 -5.028456e-001 -6.640296e+000 145 127 104
9.358144e-001 -6.320754e-001 -6.367615e+000 254 86 97
9.403049e-001 -6.370257e-001 -6.385229e+000 254 86 97
2.948251e-001 6.773708e-001 -6.894243e+000 163 154 145
2.063633e-001 6.478906e-001 -7.009440e+000 219 211 208
7.485262e-001 4.207863e-001 -6.379393e+000 162 31 39
8.150997e-001 3.943373e-001 -6.298853e+000 234 64 75
2.219985e-001 4.358146e-001 -6.920793e+000 214 205 198
8.438201e-001 1.585512e-001 -6.359106e+000 219 210 205
-9.960137e-002 -3.725387e-002 -6.623493e+000 85 24 16
2.467135e-001 -1.110453e-001 -6.667389e+000 254 255 250
9.738116e-001 -5.358612e-002 -6.231050e+000 243 67 77
9.181215e-001 -1.372871e-001 -6.274050e+000 135 32 35
-6.509422e-001 -2.174230e-001 -6.334698e+000 38 28 32
3.068057e-001 -2.114910e-001 -6.717886e+000 231 228 221
6.867125e-001 -2.417060e-001 -6.434646e+000 122 104 81
6.428658e-001 -3.069120e-001 -6.444895e+000 210 186 131
4.880382e-001 -4.360424e-001 -6.702394e+000 110 87 62
9.889825e-001 -3.420167e-001 -6.244973e+000 24 9 8
9.296455e-001 -5.439236e-001 -6.298087e+000 21 9 12
7.881029e-001 -7.502352e-001 -6.485145e+000 230 64 74
7.881029e-001 -7.502352e-001 -6.485145e+000 230 64 74
1.076341e-001 6.975780e-001 -7.034532e+000 170 157 151
1.076341e-001 6.975780e-001 -7.034532e+000 170 157 151
1.022537e-001 5.827318e-001 -7.009605e+000 208 199 194
3.324462e-001 5.785602e-001 -6.826946e+000 228 221 214
9.529246e-001 1.500514e-001 -6.231203e+000 216 46 55
9.071155e-001 6.884298e-002 -6.249866e+000 131 15 23
-5.668149e-001 -2.306811e-001 -6.381575e+000 246 124 75
1.353028e-001 -3.849578e-001 -6.771941e+000 255 255 253
7.897439e-001 -3.233004e-001 -6.355651e+000 154 132 86
5.795251e-001 -6.562628e-001 -6.702298e+000 22 12 13
7.990003e-001 -6.236390e-001 -6.465286e+000 255 255 253
1.016884e+000 -8.356476e-002 -6.165289e+000 42 30 32
-2.154339e-001 -3.532860e-001 -6.592617e+000 233 232 230
8.385227e-001 -4.848184e-001 -6.377994e+000 182 38 45
3.690438e-001 -8.721601e-001 -7.091859e+000 144 123 80
9.222019e-002 -1.199894e-002 -6.695055e+000 132 119 110
-3.881754e-003 -1.328631e-001 -6.662898e+000 248 244 242
6.456764e-001 4.155435e-001 -6.497176e+000 255 255 253
8.445428e-001 3.931058e-004 -6.387526e+000 230 225 221
3.512658e-001 -5.109306e-001 -6.810412e+000 254 254 252
1.044116e+000 -2.210674e-001 -6.169633e+000 198 173 117
1.045432e+000 -2.209154e-001 -6.171278e+000 198 173 117
7.334920e-001 -5.479307e-001 -6.531251e+000 238 231 225
1.065578e+000 6.152408e-002 -6.239881e+000 46 34 34
7.032642e-002 8.859411e-001 -7.131836e+000 199 198 186
6.614343e-001 6.244365e-001 -6.398456e+000 219 51 60
6.745965e-001 5.836318e-001 -6.300716e+000 231 69 82
-1.254636e-001 6.937035e-001 -7.379014e+000 173 157 153
1.309463e-001 5.146895e-001 -7.004266e+000 178 165 159
1.012291e+000 9.300433e-002 -6.203574e+000 30 7 14
4.682156e-002 6.529838e-002 -6.735234e+000 122 107 100
1.027716e+000 4.194273e-002 -6.193139e+000 22 12 11
-4.630801e-002 -3.731571e-003 -6.639691e+000 172 156 148
-8.187344e-002 -4.430740e-002 -6.626993e+000 162 69 54
-2.943675e-001 -1.263131e-001 -6.488557e+000 228 113 68
-1.589622e-001 -8.102797e-002 -6.497264e+000 75 18 11
-5.632364e-001 -1.358918e-001 -6.254724e+000 54 23 1
-6.756380e-002 -1.880318e-001 -6.693538e+000 124 102 57
-4.646402e-001 -1.938526e-001 -6.278507e+000 162 49 30
-2.942933e-001 -2.797153e-001 -6.461592e+000 47 35 45
-1.282085e-001 -2.956831e-001 -6.581767e+000 214 209 203
-1.277165e-001 -2.947065e-001 -6.579639e+000 214 209 203
-3.142568e-001 -3.699709e-001 -6.575412e+000 227 116 60
-4.146671e-002 -3.304254e-001 -6.640651e+000 45 34 30
1.923244e-001 8.006466e-001 -7.017994e+000 188 185 178
7.536585e-001 4.464574e-001 -6.434765e+000 168 32 38
2.440402e-002 2.350357e-001 -6.984488e+000 157 147 137
8.918254e-002 1.955341e-001 -6.821819e+000 156 146 136
1.728256e-001 2.376365e-001 -6.745552e+000 148 134 122
-1.678380e-001 1.129694e-001 -6.650255e+000 114 55 46
-1.678380e-001 1.129694e-001 -6.650255e+000 114 55 46
-5.668803e-002 -1.712909e-001 -6.622398e+000 229 216 214
-4.834700e-001 -2.343221e-001 -6.312260e+000 217 106 79
-4.226096e-001 -2.195637e-001 -6.346348e+000 91 38 22
-1.002860e-001 -2.277529e-001 -6.613024e+000 46 30 11
-1.046775e-001 -2.586689e-001 -6.630424e+000 144 126 115
8.179301e-001 -2.016568e-001 -6.311561e+000 155 133 91
-1.608201e-001 -2.934442e-001 -6.543187e+000 163 155 150
-7.272919e-002 -2.984323e-001 -6.607014e+000 192 189 184
-7.272919e-002 -2.984323e-001 -6.607014e+000 192 189 184
3.413917e-001 8.992720e-001 -6.854200e+000 200 41 45
2.261312e-001 7.745748e-001 -6.992605e+000 225 218 212
8.834771e-001 3.667656e-001 -6.298712e+000 193 34 51
-1.596395e-002 3.917565e-001 -6.953645e+000 193 184 177
-1.919187e-001 1.045914e-001 -6.779553e+000 42 30 30
-6.056276e-002 -8.237342e-003 -6.631556e+000 102 37 22
-1.164359e-001 -1.351844e-001 -6.442742e+000 176 90 69
-4.633084e-001 -2.289454e-001 -6.376073e+000 167 47 36
-1.338267e-001 -2.317732e-001 -6.638753e+000 113 94 79
-5.049487e-001 -2.769152e-001 -6.395507e+000 210 94 65
5.525160e-003 -3.513744e-001 -6.721854e+000 52 41 37
9.747007e-001 -3.794995e-001 -6.288770e+000 248 66 76
3.897144e-001 1.018605e+000 -6.815265e+000 28 16 22
-3.181871e-001 3.529056e-001 -7.526629e+000 219 206 198
8.543502e-001 1.640307e-001 -6.330202e+000 209 192 183
8.630803e-001 1.315320e-001 -6.314488e+000 192 178 168
-1.425242e-001 1.141187e-001 -6.869718e+000 37 25 20
-1.525731e-001 7.842761e-002 -6.768079e+000 47 28 22
5.803997e-001 -3.498099e-002 -6.481043e+000 222 215 209
-7.704718e-002 -1.642139e-001 -6.620120e+000 80 58 21
-4.142633e-001 -2.846174e-001 -6.532920e+000 48 29 27
-1.891095e-001 -2.878754e-001 -6.511161e+000 180 170 168
-7.647391e-002 3.771268e-001 -7.121124e+000 209 202 192
4.134668e-002 2.704498e-001 -6.902187e+000 166 156 146
4.134668e-002 2.704498e-001 -6.902187e+000 166 156 146
4.878616e-001 -5.399185e-002 -6.566274e+000 195 190 184
-6.292547e-001 -1.300061e-001 -6.203297e+000 190 163 108
7.723857e-001 -1.339446e-001 -6.415456e+000 195 188 182
4.178757e-001 -3.395480e-001 -6.690013e+000 183 163 112
8.214883e-001 -3.539628e-001 -6.369329e+000 178 154 106
2.670702e-001 -6.046187e-001 -7.103149e+000 72 62 35
5.664164e-001 8.298728e-001 -6.605627e+000 202 42 51
-2.506407e-002 4.866165e-001 -7.083024e+000 150 141 131
1.732715e-001 3.052889e-001 -6.727245e+000 181 168 159
-5.620417e-001 -8.943270e-002 -6.298641e+000 146 69 42
-1.722691e-001 -1.778931e-001 -6.460297e+000 121 73 56
-1.722691e-001 -1.778931e-001 -6.460297e+000 121 73 56
1.718593e-001 -3.219112e-001 -6.712119e+000 47 30 18
4.907466e-001 -3.392089e-001 -6.753034e+000 102 84 47
4.559821e-001 -4.187477e-001 -6.811639e+000 85 66 41
8.080510e-001 -4.541268e-001 -6.436703e+000 180 158 145
8.146784e-001 -8.105294e-001 -6.526305e+000 224 60 67
8.146784e-001 -8.105294e-001 -6.526305e+000 224 60 67
7.894231e-001 1.771656e-001 -6.349617e+000 158 143 136
5.516147e-001 -1.692674e-002 -6.482373e+000 191 184 175
-4.651274e-001 -2.623977e-001 -6.394141e+000 255 211 172
6.333455e-001 7.192952e-001 -6.491526e+000 194 34 44
8.190554e-001 4.434753e-001 -6.277460e+000 19 0 9
-1.137507e-001 5.618673e-001 -7.345674e+000 223 216 209
2.612658e-001 4.898661e-001 -6.866973e+000 149 139 129
4.217777e-001 4.108988e-001 -6.706887e+000 222 213 208
-2.398485e-001 -4.564250e-002 -6.427098e+000 87 23 15
9.672894e-001 -2.254947e-002 -6.198540e+000 248 77 87
6.116794e-001 -7.578362e-002 -6.468700e+000 241 241 233
7.591310e-001 -2.162550e-001 -6.386673e+000 111 91 67
8.388184e-001 -2.356693e-001 -6.371456e+000 165 141 95
7.503352e-001 -2.758624e-001 -6.403887e+000 188 166 113
5.367316e-001 -4.396610e-001 -6.609281e+000 205 195 184
5.370857e-001 5.295971e-001 -6.565795e+000 209 202 194
-1.175666e-001 -1.514620e-001 -6.717458e+000 93 66 37
4.433440e-001 -2.161175e-001 -6.704906e+000 247 245 241
2.341535e-001 -3.770986e-001 -6.742873e+000 61 39 25
8.983183e-001 -5.357092e-001 -6.380211e+000 255 78 92
3.327697e-001 5.787869e-001 -6.829016e+000 228 221 214
3.736742e-001 -8.884220e-001 -7.154715e+000 144 123 80
-3.970953e-001 -3.791596e-001 -6.676774e+000 45 33 33
9.869451e-001 -4.451157e-001 -6.279157e+000 24 8 11
-1.227679e-002 9.562311e-001 -7.223701e+000 148 23 29
6.016009e-003 6.378443e-001 -7.123325e+000 212 206 197
6.925391e-001 6.582738e-001 -6.443625e+000 98 12 21
1.432649e-001 5.044353e-001 -7.026712e+000 155 145 135
7.582691e-001 5.644763e-001 -6.409927e+000 188 53 56
-3.554618e-002 3.777020e-001 -7.129274e+000 151 141 131
3.430284e-001 2.070309e-001 -6.771439e+000 143 129 118
-3.346521e-002 5.543338e-002 -6.677824e+000 135 120 113
3.744166e-002 7.145020e-002 -6.749801e+000 122 110 103
5.021574e-002 4.593032e-002 -6.722880e+000 153 143 133
2.128496e-001 5.465895e-002 -6.556932e+000 156 146 137
-4.215080e-001 -1.304430e-001 -6.526034e+000 156 71 47
-4.215080e-001 -1.304430e-001 -6.526034e+000 156 71 47
-3.467660e-001 -9.741889e-002 -6.513116e+000 176 90 62
-3.534118e-001 -1.020064e-001 -6.550035e+000 176 90 62
-1.562657e-001 -1.139554e-001 -6.540633e+000 145 58 35
-1.801601e-001 -1.313477e-001 -6.489089e+000 196 88 56
4.579264e-001 -1.252032e-002 -6.548855e+000 197 189 181
-4.058258e-001 -2.034944e-001 -6.569540e+000 187 84 56
-3.692690e-001 -1.954932e-001 -6.570957e+000 191 72 37
1.169971e-001 -1.906930e-001 -6.702986e+000 242 236 231
3.058754e-003 -2.458279e-001 -6.746816e+000 44 33 15
-2.843128e-001 -2.835028e-001 -6.479154e+000 201 179 160
1.898036e-001 -2.862001e-001 -6.741495e+000 141 120 74
4.311164e-001 -4.921462e-001 -6.737875e+000 241 238 228
5.943251e-001 -6.343937e-001 -6.720421e+000 229 79 86
8.987209e-001 -4.919128e-001 -6.266615e+000 180 21 31
8.932106e-001 -5.089508e-001 -6.252919e+000 23 4 1
-2.301600e-001 6.158333e-001 -7.489738e+000 195 186 185
7.269338e-001 6.332334e-001 -6.438048e+000 18 6 10
1.275865e-001 5.358793e-001 -7.016381e+000 212 206 200
1.267086e-001 5.351759e-001 -7.000324e+000 212 206 200
6.627234e-001 4.650935e-001 -6.482156e+000 234 229 226
6.643827e-001 4.647374e-001 -6.490859e+000 234 229 226
1.815575e-001 2.359692e-001 -6.761739e+000 136 120 107
5.906052e-002 1.953520e-001 -6.888623e+000 152 139 130
4.830979e-002 9.453975e-002 -6.756627e+000 128 114 105
3.297397e-001 1.792230e-001 -6.740719e+000 140 127 111
-5.268270e-002 6.994677e-002 -6.697372e+000 123 110 102
-5.268270e-002 6.994677e-002 -6.697372e+000 123 110 102
5.225362e-004 2.807216e-002 -6.667920e+000 147 134 126
9.758757e-002 -4.389901e-003 -6.676058e+000 125 112 104
1.059680e-001 9.978432e-003 -6.680134e+000 169 160 151
-1.684848e-001 -8.329164e-002 -6.554633e+000 65 4 1
-1.684848e-001 -8.329164e-002 -6.554633e+000 65 4 1
-8.038368e-002 -4.260338e-002 -6.622346e+000 172 87 71
-8.079210e-002 -8.353677e-002 -6.605516e+000 207 180 171
-5.013331e-001 -2.144645e-001 -6.369473e+000 230 112 81
-5.013331e-001 -2.144645e-001 -6.369473e+000 230 112 81
-3.747609e-001 -2.536789e-001 -6.579234e+000 66 24 20
-2.941850e-001 -2.746917e-001 -6.462588e+000 57 54 68
-1.222735e-001 -2.752984e-001 -6.610225e+000 179 166 158
3.961590e-001 -1.718082e-001 -6.696374e+000 230 227 220
2.313620e-002 -3.449937e-001 -6.752099e+000 254 252 247
3.542750e-002 -3.784621e-001 -6.829649e+000 46 35 29
6.636913e-001 -3.890386e-001 -6.428969e+000 211 186 130
1.067603e+000 -2.866020e-001 -6.182450e+000 198 175 121
2.559618e-001 -7.265597e-001 -6.918354e+000 41 31 23
4.048896e-001 -8.388279e-001 -7.021619e+000 150 128 79
9.105209e-001 -4.696508e-001 -6.284396e+000 211 46 55
5.104125e-001 9.246476e-001 -6.749648e+000 182 43 46
-2.148962e-001 5.985958e-001 -7.447953e+000 156 140 131
6.425661e-001 6.687611e-001 -6.455265e+000 113 9 17
-3.704246e-001 4.126277e-001 -7.672971e+000 34 24 16
-1.001468e-001 5.064599e-001 -7.361695e+000 205 198 188
-1.414156e-001 4.188422e-001 -7.396233e+000 217 210 200
-8.668905e-002 3.384777e-001 -7.187526e+000 144 131 120
1.312089e-002 3.317562e-001 -7.082269e+000 172 162 152
6.348448e-001 4.255266e-001 -6.514529e+000 229 226 221
6.352307e-001 4.251179e-001 -6.518042e+000 229 226 221
1.753406e-001 1.954534e-001 -6.763160e+000 175 165 156
-7.715515e-002 1.159985e-001 -6.783653e+000 138 124 115
3.966864e-002 3.693339e-002 -6.717272e+000 115 102 93
8.519482e-002 2.053574e-002 -6.705515e+000 123 113 104
-6.881279e-002 -6.973312e-002 -6.669577e+000 184 161 155
2.233206e-001 -1.917995e-002 -6.659976e+000 206 197 188
-5.576248e-001 -1.289804e-001 -6.347064e+000 77 22 2
-5.380034e-001 -1.453936e-001 -6.311338e+000 54 5 8
-1.614304e-001 -1.326997e-001 -6.520904e+000 219 97 66
-8.333663e-002 -1.635406e-001 -6.672306e+000 93 69 26
-4.365540e-001 -2.195627e-001 -6.447343e+000 225 183 143
-5.184571e-002 -2.114558e-001 -6.682230e+000 97 79 41
-1.030175e-001 -2.469850e-001 -6.647577e+000 203 193 181
-8.511236e-002 -3.471452e-001 -6.700388e+000 45 36 31
-2.057901e-001 -4.024356e-001 -6.659527e+000 234 233 229
9.670958e-001 -2.381925e-001 -6.215487e+000 152 124 77
5.113221e-001 -5.053015e-001 -6.625585e+000 160 147 126
5.753398e-001 -5.938347e-001 -6.672268e+000 174 33 33
8.840772e-001 -4.705150e-001 -6.270731e+000 214 52 58
1.917135e-002 8.862701e-001 -7.159953e+000 173 35 41
-1.253280e-001 8.148348e-001 -7.383458e+000 195 44 52
-1.253280e-001 8.148348e-001 -7.383458e+000 195 44 52
-2.080824e-001 6.752542e-001 -7.414852e+000 210 44 53
-8.459638e-002 6.885204e-001 -7.348978e+000 203 195 185
-8.429153e-002 6.885905e-001 -7.348330e+000 203 195 185
-2.358016e-001 6.388939e-001 -7.493086e+000 183 34 41
-2.416560e-001 5.470084e-001 -7.485208e+000 178 166 154
2.567928e-001 5.793795e-001 -6.982749e+000 213 204 198
1.133087e-001 4.993203e-001 -7.010973e+000 195 185 177
2.862441e-001 5.562515e-001 -6.941561e+000 208 201 195
-3.038547e-002 4.045043e-001 -7.126449e+000 193 184 175
7.574730e-001 4.653001e-001 -6.423947e+000 203 45 53
7.730331e-001 4.985176e-001 -6.409566e+000 171 26 33
-1.788785e-001 1.497041e-001 -7.526624e+000 203 52 59
1.375724e-002 1.845665e-001 -6.918247e+000 124 111 102
5.216172e-002 1.454226e-001 -6.857971e+000 122 114 103
-1.304617e-001 5.838423e-002 -6.722549e+000 130 108 100
6.379636e-001 1.028845e-001 -6.579620e+000 188 179 170
-6.649061e-001 -1.309534e-001 -6.293411e+000 158 135 82
9.412313e-001 1.285869e-001 -6.323600e+000 222 55 65
4.849373e-001 -5.256444e-002 -6.543569e+000 202 197 191
-5.882831e-001 -1.832797e-001 -6.330293e+000 98 31 28
-2.671981e-001 -2.225205e-001 -6.489741e+000 143 9 18
5.026456e-001 -2.353660e-001 -6.662354e+000 165 151 141
4.782839e-001 -3.168491e-001 -6.640223e+000 91 74 38
5.845697e-001 -2.492428e-001 -6.543402e+000 165 152 135
5.577853e-001 -2.770704e-001 -6.549177e+000 148 138 123
8.407681e-001 -1.826607e-001 -6.315159e+000 83 65 39
8.332000e-001 -1.782201e-001 -6.293305e+000 83 65 39
9.760849e-001 -1.429337e-001 -6.216964e+000 140 118 71
8.294607e-001 -3.958622e-001 -6.359422e+000 197 167 159
1.126916e+000 -2.778084e-001 -6.099884e+000 27 14 14
6.000739e-001 -6.286266e-001 -6.572938e+000 39 28 23
7.233111e-001 -6.443046e-001 -6.511993e+000 224 57 65
-3.216639e+000 7.602308e-001 -1.127817e+001 11 7 8
2.718542e-001 7.003967e-001 -6.957800e+000 192 179 173
6.480594e-001 7.315641e-001 -6.521322e+000 183 29 39
2.473501e-002 4.567029e-001 -7.036065e+000 183 173 163
4.549129e-001 3.386046e-001 -6.752367e+000 183 175 163
-1.537466e-001 2.072661e-001 -7.437916e+000 168 33 38
2.539935e-001 7.126158e-002 -6.688378e+000 159 144 137
-2.259879e-001 -1.545019e-002 -6.622953e+000 123 51 35
4.068592e-001 8.409477e-002 -6.639419e+000 179 171 160
-6.646088e-001 -1.859808e-001 -6.352559e+000 32 23 24
-3.580709e-001 -1.327833e-001 -6.517494e+000 234 122 84
-3.422357e-001 -1.546410e-001 -6.500085e+000 166 35 18
4.161397e-002 -8.659994e-002 -6.614500e+000 241 236 233
9.771512e-001 7.649500e-002 -6.192406e+000 119 10 23
-3.031001e-001 -3.143790e-001 -6.542875e+000 161 144 133
-1.185874e-001 -3.395539e-001 -6.646441e+000 211 204 198
7.888756e-001 -1.939606e-001 -6.393770e+000 147 129 119
7.777938e-001 -2.230267e-001 -6.319456e+000 174 151 101
5.987281e-001 -4.515393e-001 -6.502389e+000 194 185 174
8.137593e-001 -3.508140e-001 -6.335686e+000 175 151 105
1.116127e+000 -2.945520e-001 -6.105756e+000 206 183 115
1.116127e+000 -2.945520e-001 -6.105756e+000 206 183 115
7.382180e-001 -5.472606e-001 -6.487498e+000 208 200 189
3.633393e-001 -8.867413e-001 -7.109837e+000 134 114 69
4.600328e-001 -8.534667e-001 -7.009180e+000 13 5 8
8.938884e-001 -4.543858e-001 -6.281667e+000 150 2 16
-1.738982e+000 -2.513117e+000 -9.969090e+000 37 31 33
-1.730807e+000 -2.636892e+000 -9.990766e+000 37 31 33
-1.241701e+000 -1.857976e+000 -8.252528e+000 39 33 35
-3.835926e-001 5.590408e-001 -7.672136e+000 191 41 42
-2.663772e-003 5.244464e-001 -7.111640e+000 206 197 188
-3.156973e-001 3.554267e-001 -7.562993e+000 208 194 184
-9.101552e-002 3.786509e-001 -7.192377e+000 202 194 183
4.452718e-001 2.471640e-001 -6.797563e+000 141 133 122
1.771808e-001 9.902313e-002 -6.725046e+000 155 145 136
-6.205944e-001 -1.150779e-001 -6.271849e+000 39 24 28
-8.925161e-002 -1.009445e-001 -6.646585e+000 182 160 154
4.308577e-001 2.020355e-002 -6.574279e+000 220 216 210
4.308577e-001 2.020355e-002 -6.574279e+000 220 216 210
2.819479e-001 -8.560194e-002 -6.676905e+000 255 252 244
5.639669e-001 -1.588501e-002 -6.506627e+000 188 179 172
5.983113e-001 1.082593e-002 -6.498302e+000 213 205 196
6.626024e-001 -1.913590e-002 -6.480991e+000 180 172 160
6.626721e-001 -1.924189e-002 -6.481402e+000 180 172 160
4.987919e-001 -9.897499e-002 -6.575515e+000 226 221 217
4.987919e-001 -9.897499e-002 -6.575515e+000 226 221 217
9.542929e-001 -3.724594e-001 -6.263253e+000 229 58 69
-1.704794e+000 -2.444924e+000 -9.972595e+000 24 18 20
-1.657798e+000 -2.517427e+000 -9.887310e+000 20 14 16
-1.596546e+000 -2.643745e+000 -9.824179e+000 29 23 25
5.672058e-001 8.304710e-001 -6.628694e+000 199 40 48
-1.042122e-001 7.794355e-001 -7.391631e+000 191 41 48
-2.006177e-002 5.814906e-001 -7.098570e+000 177 168 159
2.448018e-002 5.959710e-001 -7.079275e+000 218 211 201
6.221378e-001 6.224599e-001 -6.482281e+000 189 43 49
-3.813315e-001 4.028641e-001 -7.680287e+000 38 24 21
-4.361742e-002 3.628454e-001 -7.166100e+000 145 133 122
1.742060e-001 3.156784e-001 -6.871110e+000 188 175 166
3.617623e-001 2.821371e-001 -6.815112e+000 170 162 149
5.786031e-001 1.343967e-001 -6.647084e+000 155 145 134
-6.564665e-001 -1.401242e-001 -6.301695e+000 168 147 100
-6.564665e-001 -1.401242e-001 -6.301695e+000 168 147 100
-6.019725e-001 -1.344529e-001 -6.320243e+000 151 127 81
5.968276e-001 1.063532e-002 -6.493630e+000 213 205 196
9.828794e-001 -2.041311e-002 -6.224203e+000 247 80 90
4.425416e-001 -3.992748e-001 -6.709273e+000 81 64 37
5.380196e-001 -4.388410e-001 -6.602639e+000 204 191 182
1.074211e+000 -2.541878e-001 -6.138851e+000 163 139 91
3.979409e-001 -9.251198e-001 -7.059959e+000 41 28 23
-1.522459e+000 -2.610764e+000 -9.833538e+000 68 64 65
-4.249166e-002 7.405523e-001 -7.107206e+000 220 197 200
4.926881e-001 4.696599e-001 -6.733839e+000 210 201 194
1.461664e-001 3.646941e-001 -6.928081e+000 153 141 129
3.378770e-001 3.856491e-001 -6.884893e+000 178 169 160
5.709414e-002 3.167891e-001 -7.035497e+000 140 130 118
1.382380e-001 1.824974e-001 -6.817241e+000 128 116 106
1.941638e-001 1.765403e-001 -6.769631e+000 201 194 184
4.435862e-001 2.557332e-001 -6.808026e+000 151 143 132
6.714867e-001 2.083719e-001 -6.516696e+000 249 245 240
1.502373e-001 -4.814785e-003 -6.693009e+000 127 117 107
-5.084529e-001 -1.265474e-001 -6.365848e+000 155 66 34
7.151084e-002 -2.180419e-001 -6.710992e+000 244 241 236
6.685674e-001 -7.629716e-002 -6.432578e+000 133 119 108
6.007254e-001 -1.858625e-001 -6.529347e+000 234 230 221
4.828231e-001 8.159338e-001 -6.721229e+000 207 41 48
-2.703769e-001 2.684190e-001 -7.523444e+000 37 29 27
8.366715e-001 4.483903e-001 -6.325083e+000 17 7 8
-2.463210e-001 -4.445717e-002 -6.524317e+000 87 27 18
2.400744e-001 -3.711507e-001 -6.714520e+000 63 35 24
9.165610e-001 -1.421112e-001 -6.285550e+000 108 27 33
6.398173e-001 -3.025167e-001 -6.426632e+000 222 197 140
8.256473e-001 -2.294120e-001 -6.303088e+000 175 151 103
8.118924e-001 -3.998095e-001 -6.365935e+000 227 214 206
3.239070e-001 5.743384e-001 -6.735912e+000 230 221 214
5.378479e-001 5.394351e-001 -6.657894e+000 215 208 200
4.059758e-001 4.096346e-001 -6.755221e+000 211 204 196
4.088187e-001 4.089024e-001 -6.769753e+000 211 204 196
6.899925e-001 2.693651e-001 -6.494908e+000 174 159 147
3.718277e-001 1.151664e-001 -6.667752e+000 178 168 159
9.221969e-001 -2.692854e-001 -6.254521e+000 108 88 50
1.028027e-001 5.826272e-001 -7.011639e+000 217 208 201
5.836325e-002 4.199492e-001 -7.064587e+000 186 176 167
9.895927e-002 2.983199e-001 -6.974038e+000 131 121 111
7.746243e-001 2.654132e-001 -6.383298e+000 249 248 244
6.708909e-001 -1.579552e-001 -6.429794e+000 247 240 234
3.709487e-001 -8.809664e-001 -7.111523e+000 140 121 72
1.658666e-001 8.454453e-001 -7.022234e+000 210 201 196
3.820726e-001 4.980292e-001 -6.767932e+000 233 224 217
-1.618942e-001 -5.822715e-002 -6.570289e+000 76 21 19
4.977577e-001 1.133769e-001 -6.575953e+000 138 126 114
5.261235e-001 -3.366189e-001 -6.623323e+000 170 148 100
-1.932196e-001 4.562611e-001 -7.531517e+000 215 206 197
3.057841e-002 -5.297227e-001 -6.764456e+000 39 31 29
6.460527e-001 3.524875e-001 -6.514169e+000 243 242 237
-1.263022e-001 2.909273e-002 -6.679900e+000 73 25 18
6.032087e-002 3.036684e-002 -6.731181e+000 142 132 122
-8.428259e-002 -2.757050e-001 -6.633871e+000 172 159 150
-1.404991e-001 -2.963151e-001 -6.584289e+000 171 161 150
2.590060e-001 5.583770e-001 -6.988499e+000 175 166 157
2.693972e-001 1.908234e-001 -6.780336e+000 124 113 103
-5.707001e-002 4.333939e-003 -6.676992e+000 149 136 128
-1.533196e-001 -2.294781e-001 -6.608588e+000 168 150 139
6.860832e-001 6.898811e-001 -6.484553e+000 122 32 33
-5.638109e-002 4.044787e-001 -7.187334e+000 164 156 145
-3.565207e-001 -4.941935e-002 -6.546566e+000 108 35 15
-2.369446e-001 -2.680385e-001 -6.452334e+000 168 149 148
9.985719e-001 7.125521e-002 -6.183015e+000 180 41 48
4.281612e-001 -7.931262e-002 -6.630780e+000 253 250 245
-6.752141e-002 -3.334089e-001 -6.717649e+000 240 237 230
5.753286e-001 -5.941421e-001 -6.672226e+000 181 39 35
7.490471e-001 5.307951e-001 -6.426394e+000 189 34 42
6.545942e-001 5.088269e-001 -6.478371e+000 249 64 78
9.105764e-001 1.992344e-001 -6.298723e+000 227 60 68
9.736107e-001 7.560456e-002 -6.196194e+000 121 11 20
-8.298208e+000 -6.085820e+000 -1.829973e+001 106 97 95
-3.019004e-001 7.318891e-001 -7.556493e+000 25 18 16
2.310377e-001 3.382318e-001 -6.886895e+000 134 124 111
4.579276e-002 9.069038e-001 -7.134632e+000 181 36 41
1.088991e+000 -1.230374e-001 -6.110566e+000 190 165 111
1.088991e+000 -1.230374e-001 -6.110566e+000 190 165 111
1.951487e-001 4.586922e-002 -6.694058e+000 132 120 108
-4.262232e-001 -8.766754e-002 -6.503656e+000 69 22 15
4.953088e-001 7.057624e-002 -6.958895e+000 142 132 120
5.503176e-001 5.278048e-001 -6.629885e+000 194 186 177
-7.703277e-002 3.101483e-001 -7.142278e+000 152 140 128
-7.465417e-002 1.586883e-001 -6.904216e+000 137 127 117
-4.017969e-002 1.294873e-001 -6.692221e+000 102 88 79
-5.101324e-001 -1.025192e-001 -6.749206e+000 114 51 31
-3.143453e-001 -1.676509e-001 -6.510457e+000 186 45 12
2.523569e-001 7.200475e-001 -7.002627e+000 195 186 181
-6.553263e-001 -1.169471e-001 -6.248097e+000 140 113 65
-6.434360e-001 -2.643749e-001 -6.488782e+000 51 37 33
-3.306984e-001 -1.520388e-001 -6.446284e+000 146 24 8
-4.511743e-001 -2.482963e-001 -6.394970e+000 220 167 124
-4.280168e-001 -2.161204e-001 -6.364058e+000 82 29 13
-4.280168e-001 -2.161204e-001 -6.364058e+000 82 29 13
-2.878412e-001 7.361821e-001 -7.560333e+000 20 20 18
2.656696e-001 5.658881e-001 -6.736760e+000 209 200 191
5.456455e-001 6.381741e-001 -6.533075e+000 187 177 171
-1.065593e-002 3.716971e-001 -7.115290e+000 180 172 162
-9.922939e-002 3.640282e-002 -6.678457e+000 89 32 21
-4.813836e-001 -2.593546e-001 -6.430891e+000 252 220 167
-4.488126e-001 -2.313735e-001 -6.390711e+000 253 210 175
1.452056e-001 1.485474e-001 -6.755132e+000 162 152 142
-4.042237e-001 -2.215656e-001 -6.539214e+000 160 51 24
-3.669250e-001 -2.134456e-001 -6.520835e+000 239 157 124
-1.620796e-001 -1.276952e-001 -6.500729e+000 218 101 62
3.749436e-001 8.530093e-001 -6.812475e+000 227 214 213
-5.389089e-002 4.130643e-001 -7.180357e+000 165 155 145
6.269927e-001 5.308080e-001 -6.502806e+000 208 52 57
5.704207e-001 4.672891e-001 -6.790031e+000 150 140 128
-6.326581e-001 -1.328878e-001 -6.328793e+000 46 31 24
-1.359015e-001 -1.212113e-001 -6.480624e+000 99 24 18
-4.203384e-001 -2.445008e-001 -6.419803e+000 237 191 148
-2.852440e-001 -2.724528e-001 -6.411582e+000 99 81 63
-5.893756e-001 -1.217040e-001 -6.266774e+000 140 117 76
5.083739e-001 8.859145e-001 -6.664293e+000 196 44 50
-4.557599e-001 -2.468878e-001 -6.396344e+000 232 174 132
-6.030811e-001 -1.005123e-001 -6.408093e+000 137 59 23
-1.776713e-001 -1.539626e-001 -6.461886e+000 227 105 57
2.982338e-001 6.799207e-001 -6.887909e+000 153 142 134
-9.440956e-002 5.306878e-001 -7.340163e+000 171 163 153
-1.706826e+000 -2.255073e+000 -9.909195e+000 58 49 50
7.716617e-001 4.794600e-001 -6.408343e+000 200 52 59
6.302159e-001 -7.076114e-001 -6.596782e+000 230 98 105
-1.032883e+001 -1.191247e+001 -2.545876e+001 23 19 20
2.395321e-001 -3.747759e-001 -6.728079e+000 63 35 24
4.343922e-001 9.678830e-001 -6.721563e+000 174 44 51
1.275258e-001 5.364421e-001 -6.951532e+000 216 207 198
6.397040e-001 6.523844e-001 -6.446043e+000 188 44 48
3.287694e-001 2.056504e-001 -6.742229e+000 121 109 94
2.488040e-001 1.362482e-001 -6.655441e+000 191 178 169
-1.746027e-001 -8.803819e-002 -6.551123e+000 84 16 7
-2.611753e-001 -1.776188e-001 -6.460824e+000 167 86 64
4.359677e-001 -5.202353e-002 -6.567831e+000 214 209 202
4.389948e-001 -7.579921e-002 -6.599239e+000 223 217 211
5.883356e-002 5.433844e-001 -7.075172e+000 205 198 190
6.895919e-001 6.620961e-001 -6.467202e+000 82 12 15
6.336699e-001 6.438693e-001 -6.373122e+000 206 47 61
1.135584e-001 1.997108e-001 -6.812112e+000 152 142 133
-2.665363e-001 -1.335086e-002 -6.602483e+000 118 50 32
-2.665363e-001 -1.335086e-002 -6.602483e+000 118 50 32
3.837225e-002 5.753823e-002 -6.719876e+000 164 151 143
-1.394434e-001 -3.623034e-002 -6.645518e+000 84 17 11
2.503929e-001 -9.192067e-002 -6.663393e+000 254 254 249
-1.511232e+000 -3.149060e+000 -9.768860e+000 45 39 41
3.274284e-001 1.028556e+000 -6.878546e+000 200 48 52
3.871421e-001 8.992258e-001 -6.863392e+000 214 51 52
3.800282e-001 8.972409e-001 -6.814244e+000 214 51 52
-7.990476e-002 6.970790e-001 -7.334038e+000 203 196 186
-1.124655e-001 4.677477e-001 -7.359141e+000 180 171 162
-9.609442e-002 5.288854e-002 -6.696205e+000 135 120 113
9.491668e-001 -2.436477e-001 -6.203629e+000 170 147 95
9.666750e-001 -2.355381e-001 -6.210626e+000 164 139 85
6.929359e-001 4.762635e-001 -6.431609e+000 245 68 80
5.886477e-001 1.890062e-001 -6.660946e+000 172 163 152
6.198904e-001 -2.004909e-001 -6.525107e+000 229 225 216
-6.369265e+000 -7.517901e+000 -1.740400e+001 31 32 36
-4.394781e+000 -6.207083e+000 -1.439795e+001 131 127 141
-4.194510e+000 -6.486498e+000 -1.452041e+001 21 19 22
-5.794910e+000 -8.471927e+000 -1.640209e+001 110 109 122
3.566796e-001 1.014137e+000 -6.838618e+000 204 47 54
3.948877e-001 9.864059e-001 -6.783678e+000 194 38 42
6.588646e-001 4.836985e-001 -6.481219e+000 250 245 244
1.476804e-001 -4.137037e-002 -6.667842e+000 160 146 135
2.894447e-001 -1.642645e-001 -6.718450e+000 218 209 202
2.894447e-001 -1.642645e-001 -6.718450e+000 218 209 202
3.924485e-001 -2.072917e-001 -6.716005e+000 217 210 200
1.001219e+000 -7.303223e-002 -6.201685e+000 25 9 12
7.423763e-001 -5.958517e-001 -6.520254e+000 210 205 196
8.264913e-001 -5.868148e-001 -6.413306e+000 250 75 86
9.515122e-001 -6.431846e-001 -6.355404e+000 250 86 94
9.515122e-001 -6.431846e-001 -6.355404e+000 250 86 94
-4.213904e+000 -6.388385e+000 -1.426843e+001 134 131 146
-5.370765e+000 -8.409835e+000 -1.653950e+001 51 51 59
1.714549e-001 -3.182639e-001 -6.710208e+000 44 28 15
1.090255e+000 -1.180519e-001 -6.100014e+000 204 174 122
1.090255e+000 -1.180519e-001 -6.100014e+000 204 174 122
9.407785e-001 -6.294504e-001 -6.340214e+000 250 78 90
9.407785e-001 -6.294504e-001 -6.340214e+000 250 78 90
8.909506e-001 3.186428e-001 -6.278727e+000 218 54 65
6.526345e-002 -4.085455e-001 -6.817333e+000 43 34 30
9.488430e-001 -1.052987e-001 -6.285902e+000 228 64 75
4.997330e-001 7.287276e-001 -6.660625e+000 230 219 215
2.550970e-001 4.979186e-001 -6.945061e+000 139 126 117
5.438339e-001 2.180116e-001 -6.681076e+000 209 202 194
2.638358e-002 -2.567510e-001 -6.703519e+000 125 108 78
-6.148658e+000 -7.574561e+000 -1.706164e+001 115 112 119
-6.017794e+000 -7.865138e+000 -1.672425e+001 133 131 142
-6.017794e+000 -7.865138e+000 -1.672425e+001 133 131 142
5.061976e-001 7.193138e-001 -6.678848e+000 229 221 218
2.429553e-001 -3.809335e-001 -6.742262e+000 66 33 26
-4.516556e+000 -6.333110e+000 -1.491932e+001 167 169 184
-6.268823e+000 -6.417133e+000 -1.796125e+001 19 17 22
-1.916140e-001 4.574809e-001 -7.527965e+000 213 204 195
2.359592e-001 5.692498e-001 -7.076924e+000 177 170 162
7.126494e-001 6.490815e-001 -6.452454e+000 109 22 20
-8.219806e-002 1.026131e-001 -6.782424e+000 107 93 84
-5.147883e-002 8.115404e-002 -6.710946e+000 145 130 123
-2.613115e-001 -3.111267e-002 -6.618449e+000 87 19 8
-1.442117e-002 2.923516e-002 -6.669040e+000 128 114 109
-3.322960e-001 -8.701567e-002 -6.512899e+000 125 31 14
-5.374441e-001 -1.477510e-001 -6.359980e+000 87 29 14
-4.556235e+000 -5.905968e+000 -1.451624e+001 95 90 100
8.959407e-001 -5.050689e-001 -6.280684e+000 243 85 83
-5.438943e-002 7.098987e-001 -7.281997e+000 183 176 168
-3.608028e-001 4.660849e-001 -7.650131e+000 206 40 46
-8.968677e-002 4.900893e-001 -7.334897e+000 166 157 148
3.445813e-001 1.981152e-001 -6.872978e+000 144 130 119
-1.131429e-001 5.594543e-002 -6.703101e+000 79 33 28
-2.949289e-001 -3.367793e-002 -6.571776e+000 139 61 39
-4.281000e-001 -9.916967e-002 -6.480166e+000 74 17 10
3.279946e-001 -2.556804e-001 -6.728945e+000 126 110 95
5.907221e-001 -6.046987e-002 -6.480053e+000 218 214 205
5.907221e-001 -6.046987e-002 -6.480053e+000 218 214 205
-5.607707e+000 -8.637400e+000 -1.642434e+001 156 161 183
6.799928e-001 6.686786e-001 -6.471687e+000 76 7 10
1.732155e-001 1.752426e-001 -6.771906e+000 199 191 180
7.081584e-001 4.248712e-001 -6.488029e+000 207 201 195
8.807467e-001 3.100605e-001 -6.281445e+000 234 67 77
-1.636032e-001 -1.417242e-001 -6.546253e+000 214 102 65
7.332965e-001 -7.296011e-001 -6.593158e+000 226 78 79
-1.121203e+000 -2.275295e+000 -8.261015e+000 25 19 21
-4.003898e-001 4.466612e-001 -7.730899e+000 217 58 56
-7.067129e-002 2.932983e-001 -7.106358e+000 140 127 118
-4.506502e-003 3.515837e-001 -7.112140e+000 140 130 117
5.696135e-001 5.050460e-001 -6.623760e+000 166 156 146
2.958720e-001 2.280788e-001 -6.797300e+000 119 104 94
-1.565165e-001 5.035963e-002 -6.719931e+000 61 12 11
4.360768e-001 1.743381e-001 -6.708343e+000 120 108 94
-1.784237e-001 -3.830101e-002 -6.619659e+000 78 23 16
9.080375e-001 2.021276e-001 -6.290483e+000 242 73 82
-9.621822e-002 -2.928920e-001 -6.657583e+000 169 148 135
-4.672294e+000 -6.251381e+000 -1.444133e+001 9 8 14
-1.260656e+000 -4.231871e+000 -9.833843e+000 46 40 42
4.103128e-001 1.354522e-001 -6.656569e+000 203 195 185
6.740865e-001 7.951663e-002 -6.534567e+000 194 185 178
-6.162375e+000 -7.347290e+000 -1.783861e+001 84 84 92
9.151897e-001 -2.950900e-001 -6.240826e+000 110 86 48
-4.577296e+000 -6.295447e+000 -1.434588e+001 155 153 167
-4.577296e+000 -6.295447e+000 -1.434588e+001 155 153 167
-5.846558e+000 -8.507226e+000 -1.631218e+001 130 131 149
-1.084783e-001 6.681825e-001 -7.361768e+000 202 193 185
4.323554e-001 5.822422e-001 -6.797460e+000 168 157 153
4.323554e-001 5.822422e-001 -6.797460e+000 168 157 153
5.562638e-001 2.758910e-001 -6.659390e+000 194 185 176
8.111397e-001 -7.967601e-001 -6.521665e+000 231 66 80
8.111397e-001 -7.967601e-001 -6.521665e+000 231 66 80
5.644117e-001 8.294461e-001 -6.615151e+000 209 45 56
7.564902e-001 -2.148085e-001 -6.382736e+000 91 74 54
7.844380e-001 -6.353258e-002 -6.398624e+000 164 151 143
8.193781e-001 -2.151794e-001 -6.273430e+000 182 157 108
-4.202681e+000 -6.460468e+000 -1.394375e+001 161 161 173
-5.395303e+000 -7.943013e+000 -1.618605e+001 10 8 12
-5.395303e+000 -7.943013e+000 -1.618605e+001 10 8 12
1.016525e+000 -9.108318e-002 -6.181487e+000 37 26 27
-5.749589e+000 -8.600672e+000 -1.656279e+001 168 173 195
-1.245592e-001 2.005040e-001 -7.235683e+000 122 28 31
-5.560433e-002 1.153893e-001 -6.611641e+000 142 129 120
-7.261421e-002 -2.368558e-002 -6.626708e+000 109 37 21
-5.208262e-002 -1.857194e-001 -6.663661e+000 240 229 226
4.174212e-001 -8.052834e-002 -6.636521e+000 238 235 228
-1.877867e-001 8.480827e-001 -7.423966e+000 29 19 19
-1.193314e-001 6.693998e-001 -7.462104e+000 203 194 185
2.707614e-001 5.907187e-001 -6.954418e+000 190 181 174
2.707614e-001 5.907187e-001 -6.954418e+000 190 181 174
2.111438e-001 2.011321e-001 -6.718053e+000 157 141 126
-3.034372e-001 -3.317959e-002 -6.544536e+000 144 65 43
-1.950403e-002 5.648420e-002 -6.738524e+000 131 116 109
-5.916255e-001 -1.726422e-001 -6.317480e+000 91 24 17
-3.539150e-001 -1.522225e-001 -6.462892e+000 251 139 101
-5.959580e-002 -2.729395e-001 -6.646580e+000 191 183 174
-1.510721e+000 -3.039395e+000 -9.697850e+000 41 35 37
7.617661e-001 -1.860834e-001 -6.390606e+000 139 122 110
4.557702e-001 -8.919467e-001 -7.026824e+000 241 221 182
6.330535e-002 1.042901e+000 -7.090979e+000 186 39 40
-1.825509e-001 -1.713312e-002 -7.538770e+000 35 27 26
-1.825509e-001 -1.713312e-002 -7.538770e+000 35 27 26
-3.729966e-001 -4.842122e-003 -6.620755e+000 69 16 8
-3.729966e-001 -4.842122e-003 -6.620755e+000 69 16 8
7.523535e-001 4.551658e-001 -6.455098e+000 214 57 66
-4.357596e-001 -1.193800e-001 -6.400408e+000 147 63 39
4.275032e-001 5.908206e-002 -6.654763e+000 131 119 107
3.953800e-002 -1.647641e-001 -6.650939e+000 253 250 243
1.551578e-001 -1.431343e-001 -6.689763e+000 232 225 219
-4.771736e-001 -2.468255e-001 -6.392125e+000 43 35 33
-1.006091e-001 -3.115286e-001 -6.640112e+000 232 225 221
3.893669e-001 -3.378295e-001 -6.692025e+000 196 183 131
-1.448485e+000 -3.181482e+000 -9.793721e+000 53 47 47
1.010467e-001 9.308476e-001 -7.076183e+000 203 42 49
-1.640156e-001 -1.322945e-001 -6.524519e+000 227 116 77
1.810173e-002 -1.440100e-001 -6.629393e+000 227 224 219
-3.131250e-001 3.580076e-001 -7.498756e+000 213 200 191
7.294468e-001 4.426820e-001 -6.429657e+000 174 33 44
1.237609e-001 -1.626139e-002 -6.667739e+000 159 149 140
1.237609e-001 -1.626139e-002 -6.667739e+000 159 149 140
-6.458053e-002 -3.095543e-001 -6.675969e+000 242 236 232
9.120073e-001 1.574533e-001 -6.283953e+000 195 35 45
9.120073e-001 1.574533e-001 -6.283953e+000 195 35 45
4.593674e-001 -2.456376e-001 -6.704841e+000 244 237 231
9.745174e-001 4.620251e-002 -6.182332e+000 229 83 91
6.602400e-001 -6.518238e-001 -6.569300e+000 219 47 59
2.821654e-001 7.532378e-001 -6.986792e+000 223 217 213
-2.985070e-001 -1.431364e-001 -6.498678e+000 249 132 87
5.823208e-001 -4.542495e-001 -6.567064e+000 229 217 208
-3.943131e-001 -8.491061e-002 -6.481590e+000 94 33 26
3.723061e-001 6.272502e-002 -6.644073e+000 199 190 181
4.706990e-001 4.390788e-002 -6.566791e+000 146 134 120
4.706990e-001 4.390788e-002 -6.566791e+000 146 134 120
4.879308e-001 9.573684e-003 -6.518387e+000 214 207 199
5.207681e-001 -3.227396e-001 -6.558899e+000 178 156 106
1.622389e-001 1.024854e+000 -7.040454e+000 203 48 54
-9.351032e-002 2.099940e-001 -7.243980e+000 184 174 162
-1.603871e-001 4.991384e-002 -7.107821e+000 220 212 205
-4.013508e-002 5.097939e-001 -7.222510e+000 168 162 150
-4.013508e-002 5.097939e-001 -7.222510e+000 168 162 150
5.022790e-001 -6.179144e-001 -6.706166e+000 251 250 245
-4.380664e-001 -1.066370e-001 -6.560290e+000 65 17 12
6.046320e-001 -2.737228e-001 -6.509890e+000 100 85 64
6.862431e-001 -7.275286e-001 -6.542152e+000 50 36 36
-2.668989e-001 1.955235e-001 -7.347701e+000 38 27 27
-1.716436e-001 -6.778328e-002 -6.596516e+000 66 11 8
3.449486e-001 -1.084390e-001 -6.704423e+000 245 242 234
3.449486e-001 -1.084390e-001 -6.704423e+000 245 242 234
5.245039e-002 -5.335361e-001 -6.795105e+000 35 30 27
1.753058e-001 6.302556e-003 -3.537877e+000 0 255 0
1.742049e-001 6.113904e-003 -3.587864e+000 255 255 0
2.521103e-002 4.007286e-001 -3.689577e+000 255 0 0
2.616419e-002 3.928656e-001 -3.738946e+000 255 255 0
9.972644e-002 1.234722e-001 -3.670866e+000 0 255 0
9.983685e-002 1.199887e-001 -3.720744e+000 255 255 0
-2.430062e-002 6.575702e-001 -3.637177e+000 255 0 0
-2.228365e-002 6.464104e-001 -3.685874e+000 255 255 0
-9.082270e-002 7.745728e-001 -3.509489e+000 0 255 0
-8.818687e-002 7.601602e-001 -3.557294e+000 255 255 0
-2.221316e-001 1.117997e+000 -3.627258e+000 255 0 0
-2.179595e-001 1.102494e+000 -3.674610e+000 255 255 0
-3.636285e-001 1.355160e+000 -3.771029e+000 0 255 0
-3.572176e-001 1.333722e+000 -3.815743e+000 255 255 0
