ply
format ascii 1.0
element face 0
property list uchar int vertex_indices
element vertex 906
property float x
property float y
property float z
property uchar diffuse_red
property uchar diffuse_green
property uchar diffuse_blue
end_header
7.438513e+000 -2.170799e+000 -1.013509e+000 113 107 95
7.441501e+000 -2.218244e+000 -9.190826e-001 109 95 79
7.462532e+000 -2.192350e+000 -9.808559e-001 111 103 80
7.489028e+000 -2.203543e+000 -9.958498e-001 107 96 75
8.734702e+000 -2.083168e+000 -1.284266e+000 188 174 126
7.298860e+000 -2.348035e+000 -9.410234e-001 104 94 92
7.316179e+000 -2.420517e+000 -8.575720e-001 138 137 133
7.864270e+000 -2.549301e+000 -9.447451e-001 73 54 37
6.403086e+000 -2.710742e+000 -2.863158e-001 76 68 59
6.558790e+000 -2.778011e+000 -1.930210e-001 110 97 88
6.146167e+000 -2.812278e+000 -2.997874e-001 71 60 60
6.200195e+000 -2.848176e+000 -2.249752e-001 124 124 114
6.277828e+000 -2.817136e+000 -2.241470e-001 98 95 82
7.934491e+000 -2.784263e+000 -9.065732e-001 97 76 52
6.121934e+000 -2.984393e+000 -1.516990e-001 149 145 133
6.243674e+000 -2.938002e+000 -9.211833e-002 116 113 99
6.243674e+000 -2.938002e+000 -9.211833e-002 116 113 99
7.621698e+000 -2.914876e+000 -6.231464e-001 91 73 59
6.355345e+000 -3.032737e+000 -2.384228e-002 92 86 74
6.325105e+000 -3.071246e+000 5.759037e-003 91 89 77
6.474605e+000 -3.145788e+000 -2.261346e-002 78 70 59
6.093215e+000 -3.157540e+000 -9.563217e-002 94 91 74
8.810052e+000 -3.134915e+000 -8.081301e-001 131 114 71
6.588767e+000 -3.245686e+000 4.166905e-002 105 103 90
7.789876e+000 -3.305815e+000 -5.890318e-001 85 70 65
8.077155e+000 -3.311613e+000 -1.888305e-001 157 166 165
6.458665e+000 -3.362954e+000 7.939283e-002 63 54 46
7.399441e+000 -3.375871e+000 -5.831575e-001 76 61 56
7.866768e+000 -3.553021e+000 -4.410495e-001 98 86 76
6.670180e+000 -3.550721e+000 1.799933e-001 86 73 51
6.702063e+000 -3.593371e+000 1.889676e-001 85 70 46
7.386282e+000 -3.748672e+000 -8.338872e-001 62 43 29
7.852823e+000 -3.704887e+000 -5.082553e-001 79 70 62
7.569851e+000 -2.461143e+000 -8.615342e-001 78 60 45
6.529052e+000 -2.684875e+000 -3.222464e-001 117 109 98
6.334067e+000 -2.772418e+000 -2.381258e-001 83 72 60
6.400444e+000 -2.740960e+000 -2.315911e-001 67 57 48
6.388504e+000 -2.752620e+000 -2.296270e-001 161 155 141
6.190177e+000 -2.770755e+000 -3.038418e-001 86 81 78
6.307428e+000 -2.837087e+000 -1.560133e-001 70 66 55
6.298356e+000 -2.859992e+000 -1.223332e-001 88 83 77
7.103651e+000 -2.605261e+000 -1.603978e+000 169 145 112
8.074703e+000 -2.677145e+000 -1.005004e+000 183 187 174
7.249648e+000 -2.807008e+000 -6.217692e-001 135 155 150
7.249648e+000 -2.807008e+000 -6.217692e-001 135 155 150
7.290460e+000 -2.809829e+000 -6.146002e-001 87 80 70
7.782628e+000 -2.790452e+000 -7.961390e-001 92 73 56
6.021440e+000 -2.982855e+000 -2.270987e-001 150 150 132
6.091528e+000 -2.982291e+000 -1.761867e-001 150 148 135
7.659843e+000 -2.887950e+000 -6.709464e-001 93 76 60
5.769151e+000 -3.025234e+000 -4.627074e-001 114 111 114
6.005949e+000 -3.032082e+000 -2.343964e-001 140 136 124
6.187833e+000 -3.036799e+000 -6.323146e-002 110 102 87
5.842375e+000 -3.086243e+000 -3.847341e-001 150 148 133
6.067979e+000 -3.122598e+000 -1.082905e-001 108 105 98
6.131931e+000 -3.099435e+000 -8.495494e-002 101 97 85
6.207265e+000 -3.076356e+000 -4.753846e-002 110 103 85
6.182891e+000 -3.110028e+000 -3.731166e-002 129 126 111
6.301669e+000 -3.110719e+000 1.456899e-002 127 122 113
6.344289e+000 -3.135166e+000 -6.599604e-003 105 102 88
6.576987e+000 -3.087479e+000 -3.371819e-002 87 77 65
8.907557e+000 -3.069741e+000 -5.625889e-001 178 161 105
6.111233e+000 -3.148783e+000 -7.765102e-002 121 115 101
6.346964e+000 -3.210163e+000 1.731464e-002 76 67 60
6.466248e+000 -3.172558e+000 5.246551e-002 110 101 90
6.559753e+000 -3.174023e+000 6.763707e-002 75 67 57
8.054003e+000 -3.180364e+000 -2.692171e-001 96 81 65
8.915789e+000 -3.147298e+000 -7.496897e-001 121 103 70
6.233341e+000 -3.217077e+000 -3.922685e-002 86 84 73
6.308922e+000 -3.254882e+000 -3.748881e-003 114 110 99
6.310744e+000 -3.224005e+000 -4.820869e-003 140 138 126
6.310744e+000 -3.224005e+000 -4.820869e-003 140 138 126
6.337000e+000 -3.276580e+000 2.571010e-002 97 90 80
6.578829e+000 -3.260465e+000 4.343637e-002 128 143 134
6.647225e+000 -3.222445e+000 3.345936e-002 100 96 89
8.094767e+000 -3.229622e+000 -1.808481e-001 180 178 166
7.263634e+000 -3.408493e+000 -6.424942e-001 42 27 24
7.446323e+000 -3.420240e+000 -6.806036e-001 54 35 29
7.899205e+000 -3.412555e+000 -9.539769e-001 82 69 61
7.795161e+000 -3.468888e+000 -5.936141e-001 54 41 34
7.451302e+000 -3.552379e+000 -6.928373e-001 55 35 32
7.451302e+000 -3.552379e+000 -6.928373e-001 55 35 32
7.478092e+000 -3.573041e+000 -6.973324e-001 56 35 32
7.576233e+000 -3.625214e+000 -7.408765e-001 46 28 26
7.841352e+000 -3.672634e+000 -5.341397e-001 35 26 19
7.290403e+000 -3.810808e+000 -8.033054e-001 71 45 30
7.331076e+000 -3.761152e+000 -7.310660e-001 62 39 25
7.515928e+000 -3.785118e+000 -7.964751e-001 78 64 61
6.809081e+000 -3.727922e+000 1.446356e-001 70 56 44
9.006405e+000 -2.062192e+000 -6.882956e-001 157 144 92
6.092669e+000 -2.308500e+000 -2.166325e-001 78 61 69
7.355631e+000 -2.191271e+000 -1.003460e+000 81 78 72
7.367817e+000 -2.360237e+000 -8.803328e-001 66 57 48
7.368249e+000 -2.454299e+000 -8.021626e-001 101 92 82
7.492558e+000 -2.450736e+000 -8.222868e-001 77 60 48
7.492558e+000 -2.450736e+000 -8.222868e-001 77 60 48
7.617165e+000 -2.399547e+000 -9.649760e-001 75 56 42
7.631063e+000 -2.426464e+000 -8.772192e-001 100 84 69
7.631063e+000 -2.426464e+000 -8.772192e-001 100 84 69
7.085402e+000 -2.444058e+000 -8.521551e-001 167 144 103
7.085402e+000 -2.444058e+000 -8.521551e-001 167 144 103
7.464908e+000 -2.530321e+000 -8.119039e-001 77 59 47
8.697980e+000 -2.428900e+000 -1.156354e+000 150 133 83
6.422777e+000 -2.664067e+000 -3.352263e-001 55 42 39
7.462297e+000 -2.612883e+000 -7.394676e-001 77 59 47
6.585263e+000 -2.723449e+000 -2.875680e-001 113 103 93
6.609901e+000 -2.764958e+000 -2.632865e-001 62 41 38
7.542652e+000 -2.693150e+000 -7.475420e-001 72 58 46
7.716371e+000 -2.636441e+000 -8.405825e-001 98 79 62
8.797813e+000 -2.632037e+000 -1.029045e+000 141 119 70
6.246182e+000 -2.828687e+000 -2.447375e-001 141 143 129
6.332330e+000 -2.792695e+000 -2.128048e-001 80 70 61
6.476643e+000 -2.870992e+000 -4.014756e-002 64 48 33
6.530953e+000 -2.803147e+000 -1.583634e-001 68 56 48
7.262522e+000 -2.804017e+000 -5.501318e-001 70 61 56
7.451643e+000 -2.736504e+000 -6.798906e-001 74 60 47
7.444672e+000 -2.772638e+000 -7.134470e-001 90 76 62
6.093345e+000 -2.909959e+000 -2.253285e-001 95 91 82
6.228626e+000 -2.857880e+000 -1.936715e-001 86 88 77
5.981027e+000 -2.976410e+000 -2.756215e-001 154 152 139
6.460836e+000 -2.952138e+000 -1.629528e-002 90 81 72
6.211970e+000 -3.040943e+000 -3.967714e-002 144 140 123
6.302133e+000 -3.042362e+000 -5.064269e-003 94 86 75
6.309434e+000 -3.061312e+000 -2.476610e-003 136 137 123
6.414968e+000 -3.027786e+000 2.853506e-002 63 54 45
6.485785e+000 -3.026173e+000 1.295707e-002 54 39 32
6.501430e+000 -3.031565e+000 -1.422308e-002 72 61 55
6.583001e+000 -3.064938e+000 -3.735095e-004 56 46 37
6.600811e+000 -3.071194e+000 2.818446e-003 91 77 64
7.229049e+000 -2.952137e+000 -8.575677e-001 40 28 28
6.093810e+000 -3.099176e+000 -9.013619e-002 93 89 78
6.089602e+000 -3.098487e+000 -1.105393e-001 93 89 78
6.112022e+000 -3.117883e+000 -7.599023e-002 132 128 117
6.165567e+000 -3.128444e+000 -6.231677e-002 83 78 67
6.516930e+000 -3.109023e+000 1.674880e-002 71 61 52
7.556721e+000 -3.058295e+000 -5.515260e-001 93 78 71
7.710952e+000 -3.098892e+000 -5.904749e-001 68 54 45
7.759924e+000 -3.089572e+000 -5.999950e-001 66 50 37
7.759924e+000 -3.089572e+000 -5.999950e-001 66 50 37
6.217167e+000 -3.173526e+000 -3.655737e-002 104 98 84
6.204316e+000 -3.184159e+000 -2.250086e-002 89 84 73
6.188437e+000 -3.207258e+000 -4.474195e-002 142 139 122
6.293432e+000 -3.160257e+000 -1.759981e-002 135 132 114
6.374644e+000 -3.211221e+000 2.293636e-003 136 133 122
6.491169e+000 -3.156903e+000 2.374412e-002 103 94 85
7.413205e+000 -3.151084e+000 -6.412859e-001 36 27 22
7.678569e+000 -3.177008e+000 -5.755779e-001 45 27 23
6.282213e+000 -3.265280e+000 -2.486087e-002 115 111 100
6.576927e+000 -3.219636e+000 2.589304e-002 112 108 96
7.536019e+000 -3.224973e+000 -6.697993e-001 51 33 29
6.258983e+000 -3.276968e+000 -4.145662e-002 124 119 109
6.274055e+000 -3.291346e+000 -2.176869e-002 55 52 44
6.369954e+000 -3.330088e+000 1.588407e-002 65 54 48
6.422183e+000 -3.325278e+000 6.024267e-002 56 48 46
6.449012e+000 -3.289340e+000 3.845702e-002 108 98 86
6.660938e+000 -3.288541e+000 2.226111e-002 81 66 59
6.652445e+000 -3.322383e+000 4.191752e-002 61 50 41
6.725807e+000 -3.296051e+000 2.562577e-002 76 58 54
8.085215e+000 -3.324404e+000 -1.810993e-001 185 194 186
6.432482e+000 -3.405570e+000 5.193611e-002 76 66 54
6.703190e+000 -3.348520e+000 3.650985e-002 45 31 27
7.019311e+000 -3.389476e+000 -5.084865e-001 80 58 47
7.502467e+000 -3.386078e+000 -7.867255e-001 73 58 51
8.484496e+000 -3.435861e+000 -9.997416e-001 74 55 48
6.746415e+000 -3.456614e+000 2.393047e-002 47 28 22
6.869326e+000 -3.433856e+000 -4.168023e-002 44 22 16
6.869326e+000 -3.433856e+000 -4.168023e-002 44 22 16
7.519925e+000 -3.498748e+000 -6.866501e-001 74 57 53
7.832116e+000 -3.463475e+000 -6.219778e-001 87 78 73
7.505528e+000 -3.526477e+000 -7.167252e-001 74 59 52
7.521074e+000 -3.565310e+000 -7.119715e-001 74 55 48
7.554535e+000 -3.566272e+000 -7.102175e-001 55 37 30
7.648871e+000 -3.646988e+000 -7.558022e-001 74 59 54
7.873062e+000 -3.720060e+000 -4.156468e-001 115 105 93
8.088761e+000 -3.663850e+000 -3.800398e-001 115 98 82
7.520535e+000 -3.761214e+000 -7.928925e-001 44 30 27
7.796922e+000 -3.791674e+000 -5.734896e-001 66 53 49
7.830716e+000 -3.869340e+000 -5.549380e-001 63 48 45
7.917497e+000 -3.833353e+000 -4.991630e-001 108 93 78
6.149521e+000 -3.789227e+000 3.480889e-001 64 60 63
7.867632e+000 -3.895524e+000 -5.506725e-001 70 51 45
7.879707e+000 -3.918406e+000 -5.630907e-001 104 84 73
6.994095e+000 -3.940078e+000 -2.887799e-001 159 131 91
8.974131e+000 -4.105219e+000 -4.022292e-001 162 142 91
5.927156e+000 -2.473184e+000 -1.891545e-001 37 21 32
7.284334e+000 -2.426224e+000 -8.663522e-001 72 64 62
7.342179e+000 -2.444471e+000 -8.343993e-001 65 58 50
8.844868e+000 -2.414719e+000 -9.557580e-001 168 151 97
7.040518e+000 -2.473818e+000 -1.038845e+000 167 145 108
7.040518e+000 -2.473818e+000 -1.038845e+000 167 145 108
7.405156e+000 -2.483420e+000 -8.263012e-001 77 65 53
7.487139e+000 -2.511106e+000 -8.221147e-001 97 83 70
8.698169e+000 -2.446497e+000 -1.230920e+000 152 136 85
8.875135e+000 -2.508323e+000 -7.452526e-001 147 134 82
6.420815e+000 -2.634242e+000 -3.509370e-001 78 65 60
6.916850e+000 -2.526174e+000 -9.672958e-001 67 39 35
8.676088e+000 -2.472913e+000 -1.261564e+000 152 135 84
6.367761e+000 -2.777501e+000 -2.409632e-001 83 73 63
6.531368e+000 -2.773093e+000 -2.162190e-001 140 145 125
6.531368e+000 -2.773093e+000 -2.162190e-001 140 145 125
7.202509e+000 -2.583834e+000 -1.441614e+000 166 138 112
6.236965e+000 -2.786479e+000 -2.669519e-001 109 105 96
6.213933e+000 -2.826152e+000 -2.696605e-001 130 132 121
6.267374e+000 -2.788139e+000 -2.833753e-001 80 70 68
7.390907e+000 -2.719393e+000 -6.595031e-001 75 59 46
6.134666e+000 -2.983775e+000 -1.610637e-001 148 144 132
6.134666e+000 -2.983775e+000 -1.610637e-001 148 144 132
6.269162e+000 -2.955755e+000 -4.469493e-002 90 87 73
6.248209e+000 -2.980360e+000 -6.122968e-002 91 85 73
6.334740e+000 -2.994376e+000 1.250337e-002 153 146 130
6.480674e+000 -2.983080e+000 -4.928743e-003 106 97 84
6.560873e+000 -2.991531e+000 -2.464805e-002 80 66 56
6.622668e+000 -2.947547e+000 -7.874552e-002 86 74 61
7.311981e+000 -2.901544e+000 -5.827957e-001 83 68 63
7.371217e+000 -2.936785e+000 -5.844931e-001 83 68 61
8.929873e+000 -2.954680e+000 -7.436810e-001 152 136 84
6.081377e+000 -3.013680e+000 -1.918477e-001 71 65 53
6.206855e+000 -3.017616e+000 -4.331001e-002 98 91 80
6.196347e+000 -3.058472e+000 -4.828735e-002 161 157 136
6.237886e+000 -3.045220e+000 -3.441557e-002 70 67 52
6.237886e+000 -3.045220e+000 -3.441557e-002 70 67 52
6.262284e+000 -3.064095e+000 -3.593425e-002 144 140 125
6.454893e+000 -3.077326e+000 -2.601525e-003 130 125 114
6.481406e+000 -3.060199e+000 -2.337843e-003 95 86 77
6.533822e+000 -3.020698e+000 -5.997272e-003 90 76 68
6.563476e+000 -3.026193e+000 -3.753014e-003 58 44 35
6.679199e+000 -3.029315e+000 -2.647816e-002 84 70 62
6.679199e+000 -3.029315e+000 -2.647816e-002 84 70 62
6.870168e+000 -2.988982e+000 -4.658327e-001 72 52 38
7.286626e+000 -3.031568e+000 -6.746253e-001 32 22 20
7.360155e+000 -2.972527e+000 -6.064648e-001 51 36 31
6.045425e+000 -3.118814e+000 -1.225498e-001 145 141 135
6.147238e+000 -3.114356e+000 -7.040800e-002 148 144 132
6.369574e+000 -3.127882e+000 2.624219e-003 128 127 107
6.426635e+000 -3.145046e+000 7.350316e-003 141 139 127
6.494000e+000 -3.102583e+000 -3.475567e-003 102 101 89
6.529659e+000 -3.127420e+000 -1.381702e-002 108 101 88
6.530603e+000 -3.127663e+000 -7.582957e-003 108 101 88
6.816936e+000 -3.101110e+000 -8.280158e-002 81 64 48
7.534234e+000 -3.045030e+000 -6.045188e-001 68 53 46
7.693990e+000 -3.068387e+000 -5.619362e-001 67 52 45
7.788308e+000 -3.103475e+000 -6.260580e-001 82 67 55
8.879961e+000 -3.090342e+000 -7.643951e-001 162 148 111
5.761853e+000 -3.117847e+000 -4.594531e-001 77 70 63
6.540983e+000 -3.165789e+000 2.793986e-002 145 146 133
6.656925e+000 -3.159652e+000 -6.336189e-003 79 64 57
6.656925e+000 -3.159652e+000 -6.336189e-003 79 64 57
6.702416e+000 -3.161599e+000 1.698151e-003 36 26 17
7.490159e+000 -3.152036e+000 -3.205414e-001 75 60 53
7.546041e+000 -3.142889e+000 -5.249388e-001 62 44 42
7.564210e+000 -3.183939e+000 -5.736382e-001 61 46 41
6.133081e+000 -3.226286e+000 -4.382624e-002 76 67 62
6.256705e+000 -3.229228e+000 -2.482817e-002 137 138 125
6.435313e+000 -3.269760e+000 3.586811e-002 69 52 44
6.486655e+000 -3.240065e+000 6.580156e-002 62 55 45
6.494958e+000 -3.264194e+000 4.366103e-002 100 93 83
6.628182e+000 -3.212656e+000 3.771107e-002 42 32 32
6.738588e+000 -3.237690e+000 7.139437e-003 81 64 54
6.869504e+000 -3.255642e+000 -5.692478e-002 76 62 53
7.595626e+000 -3.263634e+000 -6.888311e-001 76 58 55
7.887636e+000 -3.222766e+000 -6.489986e-001 165 173 169
7.980815e+000 -3.228320e+000 -2.618850e-001 122 103 97
8.038582e+000 -3.262670e+000 -2.430508e-001 179 184 184
8.167787e+000 -3.228236e+000 -3.271031e-001 93 75 53
6.235437e+000 -3.298788e+000 -3.563914e-002 121 118 110
6.534789e+000 -3.323656e+000 8.359439e-002 37 25 19
6.534789e+000 -3.323656e+000 8.359439e-002 37 25 19
6.688806e+000 -3.326180e+000 1.033367e-002 72 58 49
7.311423e+000 -3.301942e+000 -6.887196e-001 68 53 48
7.370169e+000 -3.297944e+000 -7.191024e-001 60 46 43
7.540832e+000 -3.278912e+000 -6.691477e-001 40 25 22
7.575193e+000 -3.316830e+000 -6.255679e-001 46 31 30
7.713270e+000 -3.303466e+000 -6.324798e-001 57 43 40
8.040966e+000 -3.285482e+000 -2.212086e-001 110 102 100
6.481150e+000 -3.354079e+000 6.079117e-002 67 51 45
6.490549e+000 -3.377249e+000 7.570983e-002 107 96 90
6.561448e+000 -3.383386e+000 6.583886e-002 108 101 95
6.744139e+000 -3.366214e+000 5.128742e-002 46 27 28
7.872579e+000 -3.378454e+000 -6.766889e-001 65 53 47
7.897198e+000 -3.365519e+000 -4.865202e-001 178 203 207
7.893007e+000 -3.506545e+000 -7.363062e-001 101 100 96
7.887957e+000 -3.433061e+000 -4.663323e-001 185 201 201
7.903621e+000 -3.435715e+000 -3.183143e-001 162 176 177
7.903621e+000 -3.435715e+000 -3.183143e-001 162 176 177
7.927774e+000 -3.450908e+000 -3.278893e-001 113 103 100
6.758749e+000 -3.497872e+000 -1.127932e-002 25 17 20
7.834615e+000 -3.540620e+000 -7.560884e-001 47 33 28
7.826490e+000 -3.556350e+000 -6.718907e-001 80 66 65
7.821557e+000 -3.554596e+000 -6.492955e-001 80 66 65
7.886115e+000 -3.507233e+000 -3.738482e-001 105 94 83
7.926607e+000 -3.527966e+000 -3.251850e-001 105 93 81
7.972995e+000 -3.597613e+000 -3.431366e-001 84 71 62
8.048383e+000 -3.615031e+000 -3.120796e-001 123 105 90
6.014839e+000 -3.628622e+000 3.630175e-001 55 48 56
7.305030e+000 -3.731521e+000 -8.681720e-001 95 71 61
8.007621e+000 -3.686358e+000 -4.006817e-001 121 105 88
8.029639e+000 -3.684292e+000 -3.689406e-001 93 75 61
7.352394e+000 -3.785412e+000 -7.878928e-001 92 65 51
7.879449e+000 -3.765573e+000 -4.805885e-001 75 65 53
7.933975e+000 -3.721188e+000 -4.026586e-001 122 111 97
7.997605e+000 -3.817959e+000 -4.837044e-001 115 96 79
5.838980e+000 -3.893323e+000 3.182072e-001 77 66 74
5.838980e+000 -3.893323e+000 3.182072e-001 77 66 74
6.877042e+000 -4.194408e+000 -4.308739e-002 163 136 90
6.877042e+000 -4.194408e+000 -4.308739e-002 163 136 90
6.903027e+000 -4.214892e+000 3.904797e-002 173 146 96
7.558751e+000 -5.079175e+000 -3.072569e+000 148 126 69
8.377290e+000 -4.775112e+000 -1.554345e+000 152 128 82
6.566504e+000 -2.198747e+000 -7.366053e-001 75 49 38
8.920955e+000 -2.170306e+000 -7.930648e-001 157 144 91
8.970692e+000 -2.159524e+000 -7.459842e-001 175 166 109
8.970692e+000 -2.159524e+000 -7.459842e-001 175 166 109
7.352094e+000 -2.236001e+000 -9.866233e-001 159 179 178
7.352094e+000 -2.236001e+000 -9.866233e-001 159 179 178
7.407733e+000 -2.213031e+000 -9.865185e-001 119 114 107
7.314746e+000 -2.249041e+000 -9.752994e-001 93 82 84
6.238420e+000 -2.488169e+000 -3.246309e-001 46 35 41
8.855128e+000 -2.393038e+000 -9.034837e-001 169 152 100
8.931940e+000 -2.448272e+000 -7.020306e-001 154 137 85
7.349776e+000 -2.517663e+000 -8.011447e-001 106 99 91
6.420231e+000 -2.696004e+000 -2.957951e-001 126 120 108
6.385551e+000 -2.715289e+000 -3.319455e-001 71 62 53
6.563210e+000 -2.743330e+000 -2.578152e-001 50 41 31
7.233704e+000 -2.563204e+000 -1.447245e+000 64 45 41
6.128512e+000 -2.810915e+000 -3.091527e-001 51 41 43
7.303673e+000 -2.727482e+000 -6.496555e-001 80 67 60
6.071446e+000 -2.985447e+000 -1.989567e-001 144 142 128
6.405029e+000 -2.993478e+000 6.046276e-002 108 95 86
6.405029e+000 -2.993478e+000 6.046276e-002 108 95 86
6.517763e+000 -2.997597e+000 -3.397024e-003 48 32 25
6.589642e+000 -2.949401e+000 -4.669998e-002 50 35 28
5.913290e+000 -3.046947e+000 -2.997277e-001 89 80 78
5.988331e+000 -3.057159e+000 -2.402509e-001 78 71 61
6.238820e+000 -3.013470e+000 -5.806031e-002 155 152 137
6.355418e+000 -3.059342e+000 1.685782e-002 76 69 59
5.847880e+000 -3.057753e+000 -3.558320e-001 99 85 79
6.183151e+000 -3.084305e+000 -4.686206e-002 107 95 79
6.207091e+000 -3.128900e+000 -4.012672e-002 73 66 58
6.286446e+000 -3.088269e+000 -3.253585e-003 50 41 36
6.286446e+000 -3.088269e+000 -3.253585e-003 50 41 36
6.342410e+000 -3.091417e+000 1.698115e-003 147 149 135
6.577347e+000 -3.122550e+000 1.653611e-002 43 34 28
6.631937e+000 -3.146274e+000 4.629250e-003 49 35 27
6.109932e+000 -3.205126e+000 -6.720062e-002 158 158 146
6.162947e+000 -3.195680e+000 -5.311196e-002 90 77 61
6.357159e+000 -3.154119e+000 7.694167e-004 56 52 41
6.334954e+000 -3.185244e+000 2.737726e-003 160 162 148
6.334954e+000 -3.185244e+000 2.737726e-003 160 162 148
6.511525e+000 -3.172398e+000 3.160581e-002 37 27 18
6.759871e+000 -3.178741e+000 -4.911753e-002 47 32 32
7.602281e+000 -3.126390e+000 -5.522628e-001 73 58 53
7.732923e+000 -3.122131e+000 -5.992414e-001 94 80 70
8.077408e+000 -3.166326e+000 -2.482865e-001 124 113 97
6.152753e+000 -3.232422e+000 -7.773705e-002 138 134 122
6.425319e+000 -3.214113e+000 1.804676e-002 52 50 39
6.425319e+000 -3.214113e+000 1.804676e-002 52 50 39
6.762046e+000 -3.243913e+000 9.800641e-003 48 31 26
7.563090e+000 -3.222457e+000 -6.142869e-001 75 58 55
7.563090e+000 -3.222457e+000 -6.142869e-001 75 58 55
6.264379e+000 -3.304921e+000 -4.894050e-002 64 56 53
6.618507e+000 -3.340454e+000 5.907211e-002 34 26 24
6.683582e+000 -3.297054e+000 3.158319e-002 45 30 24
6.748843e+000 -3.311863e+000 9.135422e-004 44 29 23
6.749162e+000 -3.311404e+000 1.729909e-002 44 29 23
6.776708e+000 -3.324263e+000 -1.227750e-003 75 57 47
6.776708e+000 -3.324263e+000 -1.227750e-003 75 57 47
6.809242e+000 -3.340339e+000 -2.288837e-002 40 25 20
6.879798e+000 -3.336962e+000 -6.193869e-002 42 23 17
7.554827e+000 -3.288435e+000 -6.020634e-001 73 55 51
7.642941e+000 -3.309112e+000 -6.007686e-001 55 37 34
7.898714e+000 -3.308814e+000 -5.190195e-001 187 204 203
6.451958e+000 -3.343196e+000 5.761263e-002 140 149 129
6.451970e+000 -3.343151e+000 5.843069e-002 140 149 129
6.521165e+000 -3.383434e+000 6.800441e-002 33 23 21
6.597004e+000 -3.394875e+000 8.202788e-002 43 30 24
6.722777e+000 -3.402814e+000 1.846943e-002 43 25 23
7.426262e+000 -3.383126e+000 -6.250589e-001 64 49 42
7.900775e+000 -3.409111e+000 -7.075195e-001 115 118 111
6.185113e+000 -3.456406e+000 2.230666e-001 53 40 45
6.403651e+000 -3.412793e+000 5.917670e-002 96 87 80
6.491935e+000 -3.416677e+000 7.363438e-002 101 95 89
6.491935e+000 -3.416677e+000 7.363438e-002 101 95 89
6.546940e+000 -3.447730e+000 9.219046e-002 66 49 41
7.879205e+000 -3.449412e+000 -6.578238e-001 73 63 61
6.731197e+000 -3.491993e+000 -1.471248e-002 70 52 42
7.864724e+000 -3.504820e+000 -4.236334e-001 167 176 182
7.884380e+000 -3.551158e+000 -3.900560e-001 145 145 135
6.254687e+000 -3.537934e+000 2.686462e-001 75 66 71
7.977568e+000 -3.631882e+000 -3.607997e-001 123 111 99
7.977568e+000 -3.631882e+000 -3.607997e-001 123 111 99
8.101859e+000 -3.609997e+000 -3.433219e-001 91 72 58
5.766273e+000 -3.624662e+000 2.800656e-001 62 47 54
5.779133e+000 -3.638852e+000 2.418518e-001 105 91 104
5.767475e+000 -3.642875e+000 2.104824e-001 105 91 104
7.300310e+000 -3.744755e+000 -6.776936e-001 96 73 57
6.850369e+000 -3.713915e+000 1.975997e-002 41 24 17
7.828852e+000 -3.828593e+000 -6.437503e-001 48 34 31
8.770290e+000 -3.937197e+000 -8.774900e-001 118 100 62
5.812915e+000 -3.917256e+000 2.920276e-001 42 26 36
7.527259e+000 -4.178023e+000 -1.199151e+000 175 159 101
8.821194e+000 -4.247855e+000 -7.392518e-001 154 133 83
7.597677e+000 -5.208686e+000 -3.026698e+000 158 133 79
8.385955e+000 -4.776628e+000 -1.459193e+000 152 128 84
9.002083e+000 -2.315356e+000 -5.502462e-001 184 169 111
9.048596e+000 -2.332249e+000 -5.909982e-001 145 125 79
7.305966e+000 -2.335465e+000 -9.389563e-001 55 46 39
6.913977e+000 -2.372687e+000 -9.135219e-001 99 76 62
8.742458e+000 -2.383100e+000 -1.096880e+000 159 143 94
8.742458e+000 -2.383100e+000 -1.096880e+000 159 143 94
6.951293e+000 -2.520649e+000 -1.043775e+000 168 143 113
6.300607e+000 -2.720089e+000 -2.941974e-001 56 42 39
6.489608e+000 -2.737677e+000 -2.673500e-001 73 56 48
7.140246e+000 -2.599809e+000 -1.508503e+000 99 81 83
7.350172e+000 -2.732627e+000 -6.392825e-001 96 86 71
8.096199e+000 -2.718014e+000 -9.921018e-001 155 161 157
6.441941e+000 -2.903031e+000 -1.731242e-002 71 57 46
6.366263e+000 -2.982783e+000 1.564097e-002 58 48 39
6.445969e+000 -2.984441e+000 1.224747e-003 46 37 28
6.375264e+000 -3.025775e+000 -3.641722e-002 119 113 101
6.375264e+000 -3.025775e+000 -3.641722e-002 119 113 101
6.514920e+000 -3.059069e+000 -1.126818e-002 40 29 25
6.743488e+000 -3.004945e+000 -1.037723e-001 81 59 41
6.718002e+000 -3.058955e+000 -5.327350e-002 48 36 33
5.938770e+000 -3.091568e+000 -2.615968e-001 148 144 134
5.848822e+000 -3.128319e+000 -3.260355e-001 159 155 146
6.129327e+000 -3.156269e+000 -8.018365e-002 55 44 44
6.129327e+000 -3.156269e+000 -8.018365e-002 55 44 44
6.182030e+000 -3.156117e+000 -3.885743e-002 164 166 153
6.280449e+000 -3.190819e+000 -3.389753e-002 40 35 29
6.280449e+000 -3.190819e+000 -3.389753e-002 40 35 29
6.464957e+000 -3.212837e+000 3.361237e-002 145 145 133
6.575266e+000 -3.184686e+000 8.170122e-002 61 51 42
6.769014e+000 -3.157488e+000 -1.608038e-002 42 33 28
6.203288e+000 -3.236928e+000 -4.312273e-002 39 34 28
6.402317e+000 -3.249952e+000 2.514366e-002 138 135 128
6.403825e+000 -3.249893e+000 3.548668e-002 138 135 128
6.548605e+000 -3.265517e+000 4.914523e-002 43 32 30
6.680515e+000 -3.234380e+000 3.517856e-002 47 34 26
6.474801e+000 -3.303614e+000 5.041335e-002 49 40 33
6.671566e+000 -3.363195e+000 3.926189e-002 34 22 15
6.671566e+000 -3.363195e+000 3.926189e-002 34 22 15
6.706689e+000 -3.373790e+000 4.345768e-002 73 63 54
6.706689e+000 -3.373790e+000 4.345768e-002 73 63 54
7.948332e+000 -3.562647e+000 -3.514507e-001 143 137 125
5.733401e+000 -3.573379e+000 2.330601e-001 48 32 45
5.733401e+000 -3.573379e+000 2.330601e-001 48 32 45
6.687110e+000 -3.572168e+000 1.731406e-001 68 54 35
8.005119e+000 -3.706174e+000 -4.251981e-001 122 106 90
6.856326e+000 -3.777743e+000 1.058416e-001 132 127 89
7.598481e+000 -4.046476e+000 -1.241288e+000 174 151 103
7.598481e+000 -4.046476e+000 -1.241288e+000 174 151 103
6.156370e+000 -3.929333e+000 4.112342e-001 33 22 28
8.733590e+000 -4.360348e+000 -8.647291e-001 133 116 72
8.759104e+000 -4.621883e+000 -7.629642e-001 160 141 96
5.926827e+000 -2.480062e+000 -2.014659e-001 32 19 29
7.718282e+000 -2.428432e+000 -9.332186e-001 90 70 53
6.622325e+000 -2.825297e+000 -2.194145e-001 76 55 38
8.855009e+000 -3.000049e+000 -7.518411e-001 161 144 93
6.446226e+000 -3.112804e+000 -9.714527e-003 53 44 37
6.002726e+000 -3.184011e+000 -1.661401e-001 114 109 103
6.898299e+000 -3.166499e+000 -1.480252e-001 47 32 31
6.898299e+000 -3.166499e+000 -1.480252e-001 47 32 31
7.611981e+000 -3.176683e+000 -5.830948e-001 86 72 63
6.829658e+000 -3.255660e+000 -5.204433e-002 36 23 17
6.829658e+000 -3.255660e+000 -5.204433e-002 36 23 17
7.621024e+000 -3.235828e+000 -6.262164e-001 46 32 31
8.382647e+000 -3.246614e+000 -3.408969e-001 127 111 94
7.418196e+000 -3.338821e+000 -7.028637e-001 32 20 20
7.761826e+000 -3.326010e+000 -6.666688e-001 101 100 95
8.891235e+000 -3.336237e+000 -6.436467e-001 138 120 84
6.399425e+000 -3.343659e+000 4.146622e-002 26 17 18
6.664466e+000 -3.433032e+000 4.540757e-002 35 24 22
7.863052e+000 -3.579286e+000 -6.370277e-001 55 44 41
7.845874e+000 -3.728718e+000 -4.624724e-001 110 105 99
9.019828e+000 -3.922613e+000 -4.050947e-001 161 147 110
8.568776e+000 -4.386294e+000 -1.142095e+000 115 93 69
6.931348e+000 -2.935425e+000 -8.020087e-001 51 33 31
7.410099e+000 -2.951575e+000 -5.983409e-001 84 71 65
6.862977e+000 -3.087936e+000 -1.357095e-001 40 26 23
8.885487e+000 -3.045926e+000 -7.059338e-001 164 152 119
6.063465e+000 -3.147532e+000 -1.047543e-001 144 144 135
6.283814e+000 -3.244720e+000 -2.281267e-002 126 122 111
7.857723e+000 -3.267117e+000 -6.875509e-001 63 45 46
7.887724e+000 -3.297368e+000 -5.310024e-001 184 202 204
8.345532e+000 -3.283273e+000 -3.751934e-001 58 38 29
6.760094e+000 -3.436056e+000 -1.066862e-002 66 48 35
6.578577e+000 -3.472484e+000 1.100202e-001 39 25 26
5.969461e+000 -3.606042e+000 3.171746e-001 23 12 20
5.836493e+000 -3.672616e+000 2.622436e-001 34 21 28
7.471517e+000 -4.090111e+000 -1.021065e+000 98 71 57
7.471517e+000 -4.090111e+000 -1.021065e+000 98 71 57
6.929865e+000 -4.176422e+000 4.764947e-002 77 49 38
7.800539e+000 -4.921617e+000 -2.780774e+000 151 125 88
7.800539e+000 -4.921617e+000 -2.780774e+000 151 125 88
5.834954e+000 -2.904483e+000 -4.132752e-001 59 40 46
6.612660e+000 -3.003684e+000 -3.253801e-002 55 40 35
6.657606e+000 -2.942301e+000 -8.871102e-002 78 58 49
8.078168e+000 -2.974157e+000 -8.638604e-001 54 40 34
7.951255e+000 -3.274656e+000 -4.538257e-001 106 92 83
7.325960e+000 -3.655574e+000 -7.042747e-001 86 64 50
7.325960e+000 -3.655574e+000 -7.042747e-001 86 64 50
7.582938e+000 -3.789194e+000 -7.574013e-001 73 56 48
6.819063e+000 -4.205199e+000 -2.166720e-002 54 31 23
7.470414e+000 -2.251909e+000 -9.963122e-001 111 98 90
7.664287e+000 -2.402841e+000 -9.518164e-001 78 63 45
7.662273e+000 -3.125339e+000 -5.800654e-001 89 74 65
6.812918e+000 -3.475920e+000 1.989730e-002 30 19 17
7.914848e+000 -3.625046e+000 -3.112756e-001 100 83 75
7.856053e+000 -3.767375e+000 -4.763466e-001 111 102 95
7.211126e+000 -2.679523e+000 -1.200602e+000 48 32 33
7.808926e+000 -2.723153e+000 -8.229073e-001 63 45 33
7.618053e+000 -2.977100e+000 -6.061766e-001 74 57 47
7.618053e+000 -2.977100e+000 -6.061766e-001 74 57 47
6.757849e+000 -3.534327e+000 1.152932e-001 29 18 15
7.929459e+000 -3.887223e+000 -4.746813e-001 83 63 54
7.584319e+000 -2.777632e+000 -6.949373e-001 87 74 57
7.584319e+000 -2.777632e+000 -6.949373e-001 87 74 57
7.444185e+000 -3.019744e+000 -5.710051e-001 86 72 69
7.787703e+000 -3.190684e+000 -6.014675e-001 38 28 27
7.357447e+000 -3.502366e+000 -6.233706e-001 81 61 54
7.808481e+000 -3.630174e+000 -6.495306e-001 46 36 27
6.473252e+000 -2.978111e+000 -9.413773e-002 97 86 74
8.824970e+000 -2.971191e+000 -1.021571e+000 174 161 106
7.427328e+000 -3.262183e+000 -5.953789e-001 36 24 27
6.736671e+000 -2.432419e+000 -8.361958e-001 38 24 24
8.020960e+000 -3.373572e+000 -4.358407e-001 183 197 200
8.676218e+000 -3.530967e+000 -8.816968e-001 67 48 34
7.705105e+000 -2.420902e+000 -9.356783e-001 80 61 46
8.126074e+000 -2.769753e+000 -9.269565e-001 132 125 108
6.111391e+000 -2.993372e+000 -1.446136e-001 87 77 71
6.433315e+000 -3.005198e+000 3.086059e-002 51 41 32
6.091792e+000 -3.142610e+000 -1.026990e-001 108 104 91
6.503237e+000 -3.203554e+000 4.076155e-002 70 57 48
6.199062e+000 -3.273958e+000 -3.662376e-002 100 89 83
6.520407e+000 -3.309724e+000 6.902276e-002 100 90 81
8.950345e+000 -2.212300e+000 -6.896623e-001 154 138 85
8.950345e+000 -2.212300e+000 -6.896623e-001 154 138 85
7.648434e+000 -2.369702e+000 -9.383123e-001 75 59 44
7.570457e+000 -2.461802e+000 -8.616033e-001 78 60 45
7.945469e+000 -2.631607e+000 -9.827637e-001 66 47 30
7.849101e+000 -2.809649e+000 -8.044679e-001 92 75 59
6.140948e+000 -2.930077e+000 -1.896663e-001 130 129 114
7.660404e+000 -2.886564e+000 -6.721711e-001 93 76 60
6.660172e+000 -3.351422e+000 4.410002e-002 54 41 33
7.260864e+000 -3.407909e+000 -6.470153e-001 42 27 24
7.494689e+000 -4.194532e+000 -1.139005e+000 178 158 99
7.467933e+000 -2.461237e+000 -8.077877e-001 93 79 66
7.645817e+000 -2.465891e+000 -8.860717e-001 98 81 65
7.645817e+000 -2.465891e+000 -8.860717e-001 98 81 65
6.491321e+000 -2.699079e+000 -3.100385e-001 95 88 78
7.039566e+000 -2.883519e+000 -9.843339e-001 71 56 48
7.852896e+000 -3.067510e+000 -6.194989e-001 56 42 26
6.266394e+000 -3.251749e+000 -3.034337e-002 86 82 73
7.587159e+000 -3.264496e+000 -6.394061e-001 76 58 55
7.477349e+000 -3.467474e+000 -6.242216e-001 71 55 54
8.013668e+000 -3.679988e+000 -4.062246e-001 121 107 94
8.024335e+000 -3.833181e+000 -4.788203e-001 81 61 47
8.910173e+000 -4.071897e+000 -5.723397e-001 155 135 84
8.910173e+000 -4.071897e+000 -5.723397e-001 155 135 84
8.949212e+000 -2.131383e+000 -7.341523e-001 159 143 92
8.788766e+000 -2.319951e+000 -9.648949e-001 160 144 92
7.345480e+000 -2.382280e+000 -8.565498e-001 116 112 103
7.905598e+000 -2.712325e+000 -9.215385e-001 98 77 53
6.045262e+000 -2.936247e+000 -2.257355e-001 154 155 139
6.493878e+000 -3.102537e+000 -3.430940e-003 102 101 89
6.447623e+000 -3.158951e+000 2.942538e-002 77 69 58
6.447623e+000 -3.158951e+000 2.942538e-002 77 69 58
7.549551e+000 -3.257179e+000 -6.067458e-001 37 19 19
7.642604e+000 -3.280610e+000 -6.658282e-001 71 54 49
7.864009e+000 -3.307857e+000 -6.566766e-001 64 49 49
7.261486e+000 -3.450008e+000 -6.335184e-001 85 62 56
7.261486e+000 -3.450008e+000 -6.335184e-001 85 62 56
8.061821e+000 -3.685130e+000 -3.613007e-001 117 101 86
7.935172e+000 -3.720621e+000 -4.045047e-001 122 111 97
7.853095e+000 -3.921750e+000 -5.865267e-001 74 54 43
7.853095e+000 -3.921750e+000 -5.865267e-001 74 54 43
7.314997e+000 -2.248340e+000 -9.754884e-001 93 82 84
7.372923e+000 -2.289191e+000 -8.953832e-001 102 93 84
8.828575e+000 -2.588792e+000 -9.185917e-001 151 135 85
7.988638e+000 -2.611795e+000 -1.012218e+000 102 82 68
6.431210e+000 -3.115384e+000 1.192610e-002 51 42 38
8.898762e+000 -3.056846e+000 -7.094780e-001 169 156 121
8.898762e+000 -3.056846e+000 -7.094780e-001 169 156 121
6.346013e+000 -3.251389e+000 1.115758e-003 52 47 44
6.222323e+000 -3.807397e+000 3.683814e-001 74 63 69
8.963465e+000 -2.360195e+000 -6.884675e-001 187 172 115
8.141063e+000 -3.629862e+000 -3.332235e-001 121 102 88
6.211664e+000 -3.287415e+000 -3.099708e-002 101 97 88
7.365551e+000 -4.035104e+000 -9.527054e-001 175 149 99
7.275167e+000 -2.523972e+000 -1.335172e+000 113 104 109
5.878077e+000 -2.758073e+000 -1.974431e-001 96 80 83
7.231409e+000 -2.805655e+000 -1.082626e+000 68 56 56
7.231409e+000 -2.805655e+000 -1.082626e+000 68 56 56
6.143277e+000 -3.002929e+000 -9.393825e-002 101 99 86
6.282352e+000 -2.939567e+000 -3.166737e-002 143 141 126
8.012460e+000 -2.863722e+000 -1.010497e+000 95 79 64
6.061533e+000 -3.027603e+000 -1.891848e-001 140 138 123
6.347646e+000 -3.051091e+000 6.469158e-002 113 107 95
6.525074e+000 -3.009477e+000 3.760622e-002 48 38 29
5.607854e+000 -3.245246e+000 -6.830391e-001 85 81 69
6.170158e+000 -3.172900e+000 -1.827970e-002 103 94 85
6.248464e+000 -3.192165e+000 -2.454561e-002 124 122 108
6.323686e+000 -3.162974e+000 -1.412868e-003 88 88 77
6.384457e+000 -3.137779e+000 -1.289718e-002 82 78 67
6.453449e+000 -3.125481e+000 3.387160e-002 84 73 67
6.206503e+000 -3.215648e+000 -1.981332e-002 80 71 69
6.286061e+000 -3.227828e+000 -6.108125e-003 96 90 78
6.402253e+000 -3.214292e+000 1.664581e-002 119 116 109
8.907840e+000 -3.110159e+000 -7.713717e-001 128 120 88
8.083263e+000 -3.264990e+000 -2.183925e-001 163 173 172
9.125654e+000 -3.218718e+000 -3.182794e-001 159 139 88
6.755239e+000 -3.407191e+000 4.255555e-002 61 41 30
7.881188e+000 -3.405717e+000 -4.285960e-001 115 117 117
6.670200e+000 -3.559401e+000 2.014933e-001 65 49 34
5.555430e+000 -2.556319e+000 -5.115494e-001 65 49 62
6.514590e+000 -2.695481e+000 -2.971051e-001 66 53 47
7.033770e+000 -2.546611e+000 -9.373940e-001 172 136 114
7.289078e+000 -2.503613e+000 -1.357872e+000 70 59 60
7.741111e+000 -2.638564e+000 -8.584087e-001 65 43 30
7.741111e+000 -2.638564e+000 -8.584087e-001 65 43 30
6.369578e+000 -2.800761e+000 -2.437785e-001 107 99 87
6.368654e+000 -2.843087e+000 -1.418227e-001 72 65 60
6.439672e+000 -2.836157e+000 -1.057195e-001 98 85 70
8.056607e+000 -2.654509e+000 -1.030490e+000 134 128 110
6.159435e+000 -2.887885e+000 -2.321990e-001 132 125 115
6.216684e+000 -2.926504e+000 -7.461527e-002 89 80 71
6.336791e+000 -2.896688e+000 -7.154102e-002 74 68 68
6.416296e+000 -2.935900e+000 -1.284180e-002 68 53 46
6.008272e+000 -3.031723e+000 -2.263048e-001 141 134 126
8.109345e+000 -2.889234e+000 -9.360837e-001 85 75 64
8.067793e+000 -2.894460e+000 -6.527458e-001 79 71 60
6.202870e+000 -3.099005e+000 -1.721470e-003 130 128 115
6.369507e+000 -3.105948e+000 2.902462e-002 85 79 65
5.646946e+000 -3.219740e+000 -5.950201e-001 154 150 141
6.162863e+000 -3.159580e+000 -4.152440e-002 156 157 146
6.146428e+000 -3.235355e+000 -5.353350e-002 146 147 132
6.286463e+000 -3.242763e+000 -1.294183e-002 125 123 110
6.529206e+000 -3.201271e+000 2.308824e-002 97 91 81
6.513870e+000 -3.273238e+000 7.029033e-002 66 57 50
7.888291e+000 -3.282959e+000 -6.748158e-001 135 140 138
8.358444e+000 -3.210327e+000 -3.386919e-001 128 110 95
8.358444e+000 -3.210327e+000 -3.386919e-001 128 110 95
8.368790e+000 -3.209822e+000 -3.066176e-001 58 44 31
6.394090e+000 -3.329487e+000 3.463848e-002 32 25 19
6.394090e+000 -3.329487e+000 3.463848e-002 32 25 19
8.041714e+000 -3.308096e+000 -2.282712e-001 183 196 196
6.856279e+000 -3.377642e+000 1.194619e-002 58 39 25
7.432260e+000 -3.409329e+000 -5.686086e-001 50 35 29
7.798135e+000 -3.563715e+000 -7.181157e-001 43 30 21
7.851212e+000 -3.563099e+000 -4.352271e-001 136 141 131
7.857306e+000 -3.574876e+000 -4.044409e-001 90 81 72
5.922588e+000 -3.572009e+000 2.772967e-001 62 56 64
7.653156e+000 -3.711687e+000 -8.002965e-001 73 60 52
5.889201e+000 -3.659634e+000 3.383198e-001 29 18 24
6.947385e+000 -3.757219e+000 -4.173085e-001 58 35 21
7.629945e+000 -3.728293e+000 -7.146767e-001 50 35 30
6.231024e+000 -3.681076e+000 3.315586e-001 34 24 32
6.166333e+000 -3.779926e+000 3.650963e-001 27 20 28
7.668078e+000 -2.455138e+000 -7.924146e-001 100 81 66
7.015619e+000 -2.521870e+000 -1.036445e+000 114 78 64
6.356145e+000 -2.856975e+000 -1.429503e-001 97 93 80
6.399329e+000 -2.789757e+000 -2.063062e-001 76 67 52
6.668129e+000 -2.774030e+000 -3.065318e-001 28 18 17
7.717636e+000 -2.686593e+000 -7.632626e-001 89 70 55
6.066609e+000 -2.894811e+000 -2.632697e-001 138 131 123
6.142360e+000 -2.912665e+000 -1.936666e-001 85 78 70
6.177528e+000 -2.916906e+000 -1.782594e-001 142 140 128
6.177528e+000 -2.916906e+000 -1.782594e-001 142 140 128
6.201754e+000 -2.867701e+000 -1.949436e-001 93 84 76
6.294293e+000 -2.916889e+000 -2.740214e-002 143 148 131
6.431980e+000 -2.861266e+000 -3.485395e-002 98 88 75
6.457843e+000 -2.880690e+000 -4.316510e-002 137 141 124
6.457843e+000 -2.880690e+000 -4.316510e-002 137 141 124
7.755321e+000 -2.798196e+000 -7.514538e-001 65 47 33
6.309162e+000 -2.983228e+000 1.378371e-002 97 90 80
6.400392e+000 -2.929257e+000 -2.001975e-002 84 76 65
6.400392e+000 -2.929257e+000 -2.001975e-002 84 76 65
7.281565e+000 -2.889722e+000 -5.813342e-001 62 44 42
5.958327e+000 -3.049762e+000 -2.418609e-001 142 142 130
6.144654e+000 -3.030053e+000 -8.784379e-002 107 104 88
6.299926e+000 -3.043093e+000 -1.769739e-002 97 94 79
6.492071e+000 -3.001130e+000 5.385172e-003 55 45 35
6.874486e+000 -3.021224e+000 -3.400829e-001 40 20 16
6.898755e+000 -3.024956e+000 -4.000258e-001 73 46 35
7.222127e+000 -2.954005e+000 -7.556494e-001 38 24 23
7.690432e+000 -2.935361e+000 -6.099084e-001 66 49 38
8.175072e+000 -2.956318e+000 -1.012045e+000 60 42 34
5.753668e+000 -3.133994e+000 -4.277516e-001 131 125 119
6.363528e+000 -3.091309e+000 1.403392e-002 151 149 136
6.278551e+000 -3.143843e+000 -3.518038e-002 104 98 85
6.401193e+000 -3.145656e+000 2.051670e-002 143 143 134
6.401193e+000 -3.145656e+000 2.051670e-002 143 143 134
6.432628e+000 -3.184852e+000 4.926764e-003 138 136 124
8.315471e+000 -3.121213e+000 -1.062589e+000 58 41 30
5.819117e+000 -3.263007e+000 -3.639736e-001 238 255 254
5.819117e+000 -3.263007e+000 -3.639736e-001 238 255 254
6.535552e+000 -3.237617e+000 6.892348e-002 81 73 60
6.696430e+000 -3.233059e+000 2.998840e-002 46 28 26
6.214833e+000 -3.276091e+000 -3.518239e-002 137 138 122
6.246743e+000 -3.268129e+000 -1.312940e-002 91 87 75
6.257575e+000 -3.307740e+000 -1.411404e-002 56 51 48
6.408596e+000 -3.279271e+000 4.311067e-002 67 58 49
6.448841e+000 -3.367348e+000 6.871243e-002 66 57 49
6.638037e+000 -3.313188e+000 3.622007e-002 114 105 97
6.648652e+000 -3.340189e+000 6.793205e-002 118 111 105
6.648652e+000 -3.340189e+000 6.793205e-002 118 111 105
7.272253e+000 -3.367125e+000 -6.601133e-001 47 32 29
7.530655e+000 -3.355743e+000 -6.677617e-001 51 33 29
7.880339e+000 -3.312022e+000 -6.330201e-001 131 136 132
7.940267e+000 -3.309101e+000 -3.312209e-001 117 113 101
6.400717e+000 -3.386237e+000 9.861613e-002 56 46 43
6.379979e+000 -3.401911e+000 7.643858e-002 43 33 31
6.575572e+000 -3.434878e+000 3.249659e-002 75 60 55
6.843742e+000 -3.371847e+000 -3.054557e-002 87 64 49
6.843742e+000 -3.371847e+000 -3.054557e-002 87 64 49
7.851066e+000 -3.507565e+000 -7.885043e-001 80 67 61
7.279325e+000 -3.639205e+000 -7.213079e-001 82 66 55
7.452545e+000 -3.752330e+000 -8.978903e-001 78 57 52
7.590015e+000 -3.687163e+000 -6.618773e-001 42 29 23
7.581270e+000 -3.736160e+000 -7.957434e-001 46 31 27
7.645754e+000 -3.700512e+000 -6.692265e-001 46 33 27
6.172512e+000 -3.642579e+000 2.754076e-001 38 28 29
7.861053e+000 -3.749428e+000 -6.820034e-001 38 27 25
5.965991e+000 -3.733448e+000 3.042867e-001 32 19 26
6.198433e+000 -3.703906e+000 3.046019e-001 26 16 23
7.656145e+000 -3.909218e+000 -8.276364e-001 52 37 32
6.185128e+000 -3.720680e+000 3.655521e-001 31 21 26
6.232296e+000 -3.769622e+000 3.157748e-001 66 54 58
7.533812e+000 -3.969071e+000 -9.725712e-001 82 60 36
6.200202e+000 -3.842285e+000 3.766500e-001 77 67 75
6.200202e+000 -3.842285e+000 3.766500e-001 77 67 75
6.183017e+000 -3.916515e+000 3.904189e-001 41 28 35
6.111354e+000 -4.054012e+000 3.697993e-001 81 69 70
6.111354e+000 -4.054012e+000 3.697993e-001 81 69 70
6.870038e+000 -4.188991e+000 1.194567e-001 161 143 98
8.986786e+000 -2.186920e+000 -7.258759e-001 158 141 89
7.334756e+000 -2.345045e+000 -8.556463e-001 111 106 100
7.716667e+000 -2.441976e+000 -9.321119e-001 73 51 37
7.280682e+000 -2.555924e+000 -1.301913e+000 56 47 52
6.158278e+000 -2.771059e+000 -3.226763e-001 45 36 37
6.469164e+000 -2.776230e+000 -2.094942e-001 130 124 112
7.776945e+000 -2.631308e+000 -9.157295e-001 95 74 56
6.206299e+000 -2.797211e+000 -2.752513e-001 87 81 73
6.384287e+000 -2.825843e+000 -1.777438e-001 76 72 61
6.423639e+000 -2.834870e+000 -8.438649e-002 124 121 106
7.278125e+000 -2.735762e+000 -6.919332e-001 155 170 164
7.278125e+000 -2.735762e+000 -6.919332e-001 155 170 164
6.262946e+000 -2.904860e+000 -6.029416e-002 73 70 58
6.413147e+000 -2.877198e+000 -3.965043e-002 124 118 102
7.467383e+000 -2.795168e+000 -6.301125e-001 69 55 46
6.025994e+000 -2.961528e+000 -2.162181e-001 95 89 77
6.119645e+000 -2.964095e+000 -1.767086e-001 85 79 65
6.197317e+000 -2.963092e+000 -1.051765e-001 136 131 119
6.704999e+000 -2.954351e+000 -1.314904e-001 76 57 47
7.472423e+000 -2.863201e+000 -6.614917e-001 87 75 63
7.640327e+000 -2.881482e+000 -6.941449e-001 67 49 35
6.081134e+000 -3.013882e+000 -1.947055e-001 81 78 63
6.170553e+000 -3.016051e+000 -8.141735e-002 143 144 130
6.211487e+000 -3.016911e+000 -2.552902e-002 98 88 78
6.192717e+000 -3.058575e+000 -6.380474e-002 158 155 145
6.421565e+000 -3.051135e+000 1.488944e-002 125 119 107
6.460612e+000 -3.047177e+000 2.471122e-003 64 50 43
6.533389e+000 -3.020811e+000 -8.707946e-003 88 77 71
6.649779e+000 -3.004680e+000 -3.845158e-002 41 31 24
6.786478e+000 -3.036008e+000 -1.533676e-001 51 34 28
7.524890e+000 -2.958771e+000 -6.678799e-001 67 50 43
8.060801e+000 -2.923497e+000 -8.771211e-001 89 75 62
8.115227e+000 -2.930430e+000 -9.505988e-001 51 34 30
5.672666e+000 -3.145502e+000 -5.824082e-001 101 93 88
5.806670e+000 -3.089056e+000 -4.214697e-001 96 82 72
6.061952e+000 -3.094733e+000 -1.239876e-001 142 133 124
6.389113e+000 -3.062093e+000 -1.109065e-002 73 60 54
6.454056e+000 -3.077669e+000 -7.975602e-003 126 121 112
6.010124e+000 -3.161872e+000 -1.297941e-001 141 138 130
6.223037e+000 -3.194101e+000 -2.322549e-002 147 144 129
7.490002e+000 -3.106442e+000 -5.614283e-001 60 43 36
7.524479e+000 -3.112571e+000 -5.899398e-001 89 72 65
7.590366e+000 -3.129663e+000 -6.695509e-001 86 71 64
8.291529e+000 -3.103587e+000 -1.056527e+000 82 66 50
6.509873e+000 -3.234209e+000 4.763772e-002 72 59 51
7.961257e+000 -3.181930e+000 -3.948990e-001 106 93 77
6.177637e+000 -3.273543e+000 -6.218637e-002 135 130 123
6.710963e+000 -3.251132e+000 2.628323e-002 84 65 58
6.381140e+000 -3.377857e+000 7.944624e-002 79 68 66
7.922226e+000 -3.301655e+000 -3.490415e-001 160 164 160
8.047064e+000 -3.286876e+000 -2.404799e-001 112 108 109
7.890314e+000 -3.362550e+000 -4.440586e-001 183 203 202
7.925337e+000 -3.377931e+000 -3.101616e-001 122 113 111
7.897815e+000 -3.525871e+000 -6.851829e-001 70 63 57
7.617877e+000 -3.621171e+000 -6.774612e-001 48 33 28
7.863460e+000 -3.531327e+000 -3.843729e-001 108 91 81
7.863460e+000 -3.531327e+000 -3.843729e-001 108 91 81
8.015652e+000 -3.642895e+000 -3.861977e-001 88 69 54
7.948253e+000 -3.755690e+000 -4.432951e-001 80 64 49
7.839571e+000 -3.978276e+000 -6.935278e-001 62 44 38
6.906812e+000 -4.147268e+000 -1.794982e-002 87 55 46
6.444031e+000 -4.208662e+000 2.455340e-001 36 22 24
6.390637e+000 -2.653916e+000 -3.710440e-001 55 45 43
6.554413e+000 -2.658610e+000 -3.392340e-001 59 41 39
7.340089e+000 -2.574020e+000 -8.383216e-001 109 106 97
6.433039e+000 -2.757972e+000 -2.386223e-001 59 46 37
6.640921e+000 -2.751168e+000 -2.688036e-001 88 71 55
6.120321e+000 -2.935558e+000 -1.879237e-001 154 149 135
6.659014e+000 -2.901819e+000 -1.310686e-001 79 57 44
8.723414e+000 -2.718619e+000 -1.128909e+000 141 123 73
6.039243e+000 -3.038097e+000 -1.815610e-001 152 144 135
6.239876e+000 -3.013396e+000 -5.490621e-002 152 152 140
6.339377e+000 -3.118524e+000 1.947301e-002 81 73 62
6.559647e+000 -3.052814e+000 -6.723575e-003 84 73 67
6.559647e+000 -3.052814e+000 -6.723575e-003 84 73 67
6.549283e+000 -3.080586e+000 -2.376189e-002 62 52 43
6.064265e+000 -3.208108e+000 -8.896133e-002 79 68 63
6.609339e+000 -3.120398e+000 -2.021800e-003 101 93 82
6.603244e+000 -3.197955e+000 2.546988e-002 87 80 74
6.310133e+000 -3.298315e+000 -2.694203e-002 94 85 76
6.671627e+000 -3.269048e+000 9.943629e-002 74 59 52
7.272746e+000 -3.257412e+000 -7.785840e-001 37 24 18
7.272746e+000 -3.257412e+000 -7.785840e-001 37 24 18
7.892283e+000 -3.305410e+000 -4.869326e-001 184 205 203
7.215154e+000 -3.655532e+000 -8.021230e-001 86 62 50
9.133247e+000 -3.649664e+000 -3.727613e-001 153 135 87
6.191005e+000 -3.713315e+000 3.327252e-001 58 49 53
5.975574e+000 -3.838889e+000 3.652574e-001 46 31 38
5.975630e+000 -3.880857e+000 2.940470e-001 77 64 69
6.977916e+000 -4.001530e+000 -3.134541e-001 157 130 84
6.743598e+000 -4.196291e+000 -2.728248e-001 74 50 37
6.979392e+000 -4.163181e+000 6.085729e-002 166 143 93
8.772062e+000 -2.347710e+000 -1.017467e+000 157 137 87
7.927261e+000 -2.567959e+000 -9.879365e-001 99 81 61
7.927261e+000 -2.567959e+000 -9.879365e-001 99 81 61
8.863276e+000 -2.523437e+000 -9.522572e-001 176 161 101
6.434961e+000 -2.787895e+000 -1.997778e-001 67 57 45
5.617277e+000 -3.091951e+000 -6.462438e-001 77 64 90
5.993906e+000 -3.011413e+000 -2.312797e-001 83 74 67
6.244413e+000 -3.080366e+000 -4.436764e-003 143 142 133
6.260271e+000 -3.129914e+000 2.986126e-004 158 159 145
6.260271e+000 -3.129914e+000 2.986126e-004 158 159 145
6.343572e+000 -3.090504e+000 1.271536e-002 142 141 129
6.518510e+000 -3.057778e+000 1.212548e-002 42 31 29
8.175019e+000 -3.077236e+000 -9.013542e-001 108 90 70
6.063288e+000 -3.244390e+000 -5.684086e-002 144 140 131
6.203575e+000 -3.236741e+000 -4.154375e-002 39 33 27
6.467571e+000 -3.211792e+000 4.503945e-002 149 146 134
6.157292e+000 -3.272062e+000 -1.823809e-002 57 48 45
6.157292e+000 -3.272062e+000 -1.823809e-002 57 48 45
6.549343e+000 -3.265065e+000 5.319055e-002 45 39 34
8.305607e+000 -3.233954e+000 -3.250021e-001 108 87 60
6.450608e+000 -3.421623e+000 6.426196e-002 43 32 36
6.523453e+000 -3.381541e+000 8.061385e-002 43 34 29
6.395781e+000 -3.439348e+000 1.422112e-001 40 28 27
6.986482e+000 -3.488265e+000 -3.049926e-001 90 59 37
7.192498e+000 -3.692864e+000 -6.328870e-001 91 66 51
7.725373e+000 -3.850374e+000 -6.957764e-001 76 62 55
6.948004e+000 -3.831556e+000 -2.519797e-001 58 30 26
8.155510e+000 -3.851168e+000 -5.520098e-001 109 88 64
6.168140e+000 -3.831915e+000 2.991377e-001 39 26 35
8.128696e+000 -4.937081e+000 -2.010942e+000 156 129 86
8.128696e+000 -4.937081e+000 -2.010942e+000 156 129 86
5.715851e+000 -2.488411e+000 -3.134867e-001 55 37 49
6.024275e+000 -2.484948e+000 -1.251589e-001 45 29 39
6.355944e+000 -2.647415e+000 -3.896843e-001 46 35 31
7.991220e+000 -3.080167e+000 -7.420979e-001 45 33 32
8.385790e+000 -3.247484e+000 -3.507565e-001 128 118 100
6.328797e+000 -3.506254e+000 2.513067e-001 43 28 33
6.788827e+000 -3.625582e+000 9.317186e-002 33 20 14
6.892214e+000 -2.284776e+000 -1.043986e+000 140 121 88
5.813636e+000 -2.608778e+000 -1.807211e-001 53 36 44
7.258189e+000 -2.541023e+000 -1.329255e+000 62 51 57
7.258189e+000 -2.541023e+000 -1.329255e+000 62 51 57
6.333721e+000 -2.880748e+000 -5.767298e-002 36 32 29
6.309398e+000 -2.942709e+000 -3.360682e-002 133 134 120
5.935353e+000 -3.147965e+000 -2.751654e-001 41 31 39
5.952345e+000 -3.223383e+000 -1.869114e-001 126 126 118
6.069655e+000 -3.312221e+000 -3.912265e-002 47 33 33
8.095510e+000 -3.255769e+000 -2.457876e-001 185 196 197
9.078180e+000 -3.679317e+000 -3.736154e-001 153 137 88
6.762108e+000 -4.185722e+000 -1.257979e-001 143 118 77
6.800078e+000 -2.738822e+000 -5.374671e-001 134 110 84
6.778924e+000 -3.081214e+000 -5.434645e-002 79 60 44
6.832259e+000 -3.171358e+000 -4.183432e-003 80 58 42
7.990460e+000 -3.560074e+000 -3.723774e-001 135 128 118
7.591766e+000 -3.799200e+000 -8.106935e-001 82 59 51
8.055847e+000 -3.627786e+000 -3.095360e-001 92 74 59
5.977469e+000 -3.965937e+000 1.271735e-001 72 55 64
5.934016e+000 -3.945139e+000 2.903053e-001 40 25 32
7.833633e+000 -3.398244e+000 -6.149923e-001 64 51 42
6.806221e+000 -3.487077e+000 -6.788759e-002 32 21 19
8.154141e+000 -3.736530e+000 -4.364973e-001 118 98 73
8.764437e+000 -4.019377e+000 -1.059785e+000 129 111 73
7.382299e+000 -2.813284e+000 -6.351933e-001 72 59 49
5.893065e+000 -3.609961e+000 2.902132e-001 37 26 32
7.236446e+000 -3.720435e+000 -8.546863e-001 59 38 33
6.430057e+000 -3.212059e+000 4.256733e-002 49 46 41
7.948889e+000 -3.115568e+000 -5.570123e-001 62 51 45
6.006548e+000 -3.819645e+000 7.511532e-002 38 23 28
7.469693e+000 -3.849300e+000 -9.357305e-001 45 30 28
7.452367e+000 -2.354365e+000 -1.019386e+000 91 78 64
7.452367e+000 -2.354365e+000 -1.019386e+000 91 78 64
9.012108e+000 -3.238585e+000 -5.707358e-001 179 166 111
8.342696e+000 -2.938533e+000 -8.328299e-001 53 33 24
6.892840e+000 -3.329438e+000 3.336651e+000 0 255 0
6.892950e+000 -3.329538e+000 3.286651e+000 255 255 0
6.959217e+000 -3.032003e+000 3.337148e+000 255 0 0
6.960439e+000 -3.036679e+000 3.287382e+000 255 255 0
7.000311e+000 -2.776131e+000 3.333504e+000 0 255 0
7.001535e+000 -2.784723e+000 3.284263e+000 255 255 0
