ply
format ascii 1.0
element face 0
property list uchar int vertex_indices
element vertex 635
property float x
property float y
property float z
property uchar diffuse_red
property uchar diffuse_green
property uchar diffuse_blue
end_header
4.818507e-001 -1.072210e+000 -7.795152e+000 82 70 46
4.818507e-001 -1.072210e+000 -7.795152e+000 82 70 46
5.269878e-001 -1.210962e+000 -8.020250e+000 134 116 66
-1.534409e+000 -8.756236e-001 -6.369482e+000 70 62 53
-1.344315e+000 -7.735063e-001 -6.356480e+000 134 114 106
3.845117e-004 -7.936882e-001 -7.278882e+000 82 65 35
-1.304917e+000 -1.055777e+000 -6.664242e+000 136 118 110
-1.496673e+000 -9.447266e-001 -6.463795e+000 135 114 103
8.588536e-001 -6.960896e-001 -7.609379e+000 74 67 43
3.908062e-002 -5.362067e-001 -7.001933e+000 124 109 71
-1.431230e+000 -1.015974e+000 -6.570553e+000 125 115 106
4.298294e-001 -6.227344e-001 -7.332047e+000 128 113 74
-1.250922e+000 -7.485450e-001 -6.376465e+000 139 116 108
-1.402352e+000 -1.041336e+000 -6.600641e+000 72 65 61
2.513615e-001 -7.467379e-001 -7.340363e+000 142 122 71
-7.109402e-002 -4.218463e-001 -6.785782e+000 118 102 51
-1.527341e+000 -8.024827e-001 -6.305322e+000 71 65 54
-1.268651e+000 -8.655054e-001 -6.496715e+000 73 62 56
-7.976612e-002 -5.548387e-001 -6.927936e+000 82 67 35
9.094165e-001 -7.427666e-001 -7.727805e+000 117 108 63
7.024398e-001 -1.338894e+000 -8.193706e+000 129 115 77
-1.028381e+000 -1.796221e+000 -7.707205e+000 126 116 81
3.275576e-001 -1.248362e+000 -7.882427e+000 143 122 77
-1.538734e-001 -9.115003e-001 -7.272563e+000 130 114 81
-1.209774e-001 -7.055999e-001 -7.087599e+000 94 80 53
-5.107930e-001 -1.069211e+000 -7.214626e+000 89 75 58
4.475559e-002 -3.891078e-001 -6.840267e+000 84 76 47
-1.363000e+000 -8.136945e-001 -6.378906e+000 72 64 55
4.236944e-001 -7.498262e-001 -7.405189e+000 90 74 48
3.303818e-001 -8.079481e-001 -7.436714e+000 77 61 36
-5.809350e-001 -1.167980e+000 -7.297607e+000 140 124 99
4.475559e-002 -3.891078e-001 -6.840267e+000 84 76 47
-1.075436e+000 -2.129467e+000 -8.224092e+000 60 54 51
-1.158681e+000 -1.123074e+000 -6.783191e+000 70 65 59
-3.913513e-001 -4.471314e-001 -6.678376e+000 122 106 64
1.036282e+000 -2.842160e-001 -7.304705e+000 93 94 63
-4.577478e-001 -9.052477e-001 -7.068426e+000 80 64 38
-1.675909e-001 -1.140927e+000 -7.463360e+000 134 119 87
-5.316141e-001 -1.023947e+000 -7.140623e+000 136 121 91
-5.316141e-001 -1.023947e+000 -7.140623e+000 136 121 91
3.094213e-001 -3.941307e-001 -6.971984e+000 68 56 29
-2.514231e-001 -9.605547e-001 -7.213953e+000 145 125 93
-1.304917e+000 -1.055777e+000 -6.664242e+000 136 118 110
2.085303e+000 -9.274450e-001 -8.743990e+000 58 49 42
-1.358619e+000 -9.305931e-001 -6.511311e+000 67 64 57
-5.446093e-001 -1.169447e+000 -7.259938e+000 101 84 70
-1.218777e+000 -1.017909e+000 -6.673935e+000 135 119 109
-1.408867e+000 -7.199829e-001 -6.280372e+000 73 65 55
4.009895e-001 -5.948072e-001 -7.275312e+000 82 68 39
-2.854811e-001 -3.608126e-001 -6.635917e+000 72 63 34
7.024398e-001 -1.338894e+000 -8.193706e+000 129 115 77
7.516195e-001 -1.311115e+000 -8.198266e+000 83 66 44
-8.192764e-001 -8.283444e-001 -6.694574e+000 91 81 56
1.689034e+000 -3.852981e-001 -7.835131e+000 79 85 59
6.433443e-001 -7.840811e-001 -7.542609e+000 137 116 65
-2.311298e+002 8.788985e+001 -5.166524e+002 162 153 174
-4.592559e-001 -3.707419e-001 -6.511649e+000 56 49 43
-8.424707e+001 2.215625e+001 -1.842497e+002 67 52 111
-8.628108e+001 2.142144e+001 -1.762310e+002 241 39 87
-1.561931e+000 1.397650e+000 -7.715460e+000 167 78 82
1.861120e+000 2.972707e-001 -8.165781e+000 164 178 153
1.298619e+000 1.293403e-001 -7.701403e+000 184 179 160
-5.004723e-001 -1.118969e+000 -7.251347e+000 136 120 97
-1.501028e+000 1.328885e+000 -7.639241e+000 204 185 186
9.031214e-001 -6.262939e-001 -7.608336e+000 66 60 28
-3.489804e-001 2.147332e+000 -9.424527e+000 132 90 74
2.412307e-001 1.990562e+000 -9.551989e+000 112 125 95
2.412307e-001 1.990562e+000 -9.551989e+000 112 125 95
1.724728e+000 1.215301e+000 -9.292509e+000 163 168 159
9.236367e-001 -5.632149e-001 -7.554863e+000 71 65 41
-1.462888e+000 -9.071233e-001 -6.426045e+000 131 113 99
-1.338100e+000 -1.025007e+000 -6.625705e+000 75 69 62
5.683384e-001 -8.848685e-001 -7.693963e+000 93 78 55
-1.033193e+000 -1.691826e+000 -7.553312e+000 96 81 57
-1.518229e+000 -1.892357e+000 -7.513264e+000 79 66 47
2.018040e+000 7.660190e-002 -7.986337e+000 140 147 129
-5.375542e+001 3.697753e+000 -1.287617e+002 222 43 76
-4.470185e+001 -3.204430e+000 -1.140068e+002 254 188 117
8.904273e-001 1.796073e-001 -7.548216e+000 166 163 103
1.696325e+000 2.632947e-001 -8.048010e+000 76 82 69
-1.073093e+002 3.144896e+001 -2.426437e+002 209 196 210
-5.985682e+001 8.368997e+000 -1.380232e+002 65 39 82
-5.654662e+001 6.750342e+000 -1.342949e+002 238 42 84
-6.044693e+001 4.715253e+000 -1.196554e+002 221 42 80
-6.167638e+001 4.312696e+000 -1.300953e+002 129 162 218
-5.876036e+001 5.208088e+000 -1.261126e+002 60 44 89
-5.899714e+001 3.836538e+000 -1.189088e+002 133 164 219
-5.899714e+001 3.836538e+000 -1.189088e+002 133 164 219
-4.592559e-001 -3.707419e-001 -6.511649e+000 56 49 43
-7.971236e+001 2.051011e+001 -1.560897e+002 253 55 103
-5.324574e+001 1.115306e+000 -1.028823e+002 245 49 95
-4.929419e+001 -7.138266e-001 -1.124714e+002 254 204 99
-4.929419e+001 -7.138266e-001 -1.124714e+002 254 204 99
-4.719422e+001 -1.720520e+000 -1.191096e+002 246 55 91
-4.719422e+001 -1.720520e+000 -1.191096e+002 246 55 91
-4.754811e+001 4.915100e-001 -1.123773e+002 71 38 83
-5.964704e+001 5.899695e+000 -1.233132e+002 142 204 252
-5.964704e+001 5.899695e+000 -1.233132e+002 142 204 252
-1.382922e+000 1.082516e+000 -7.380425e+000 159 72 72
6.929045e-001 1.503236e+000 -9.110645e+000 102 96 84
1.134754e+000 1.307323e+000 -9.081719e+000 154 153 148
7.567846e-002 2.035574e-001 -7.211815e+000 72 86 70
3.275541e-001 6.936057e-002 -7.170592e+000 179 163 113
4.440369e-001 2.558606e-002 -7.154105e+000 144 95 75
7.866071e-001 1.061313e-001 -7.408864e+000 141 86 66
-1.131383e+000 1.158045e+000 -7.575852e+000 198 199 192
7.729668e-001 1.695441e+000 -9.423053e+000 128 122 110
1.050460e+000 1.085681e+000 -8.735074e+000 87 83 82
1.272979e+000 1.228686e+000 -9.057488e+000 92 92 89
2.085756e+000 4.800614e-002 -7.949736e+000 175 182 169
2.085756e+000 4.800614e-002 -7.949736e+000 175 182 169
1.069952e+000 -3.157095e-001 -7.355099e+000 65 65 39
1.304042e+000 -8.035722e-001 -7.989331e+000 94 93 65
-1.309261e+000 9.063876e-001 -7.203901e+000 202 189 191
1.061081e+000 1.399934e+000 -9.239422e+000 107 106 103
1.486750e-001 7.878286e-002 -7.111366e+000 69 83 61
8.147455e-001 -3.296320e-001 -7.221706e+000 105 101 63
7.917443e-001 -4.107805e-001 -7.328613e+000 107 101 65
1.006250e+000 -5.370330e-001 -7.540460e+000 76 71 46
5.903681e-001 -1.298978e+000 -8.087422e+000 86 74 48
-1.313343e+000 -1.675979e+000 -7.387235e+000 125 109 83
-1.791034e+000 -2.068449e+000 -7.578454e+000 109 98 70
-2.762836e+000 2.460270e+000 -8.588320e+000 181 173 137
-3.489804e-001 2.147332e+000 -9.424527e+000 132 90 74
-2.867639e+000 -1.606717e-001 -8.299680e+000 195 93 113
-1.303308e+000 8.181078e-001 -7.092140e+000 166 63 67
8.527886e-001 1.418731e+000 -9.098503e+000 101 98 93
7.624959e-002 -5.103556e-001 -6.936029e+000 101 87 58
-1.409031e+000 9.558706e-001 -7.309670e+000 171 66 70
6.976380e-001 3.049938e-001 -7.563866e+000 171 151 102
6.976380e-001 3.049938e-001 -7.563866e+000 171 151 102
-6.067844e+001 1.472250e+001 -1.418430e+002 240 60 99
-5.190630e-001 -8.759458e-001 -7.071439e+000 127 109 73
-1.261733e+000 -9.755260e-001 -6.608003e+000 70 65 59
3.275576e-001 -1.248362e+000 -7.882427e+000 143 122 77
-3.566466e+001 -7.131235e+000 -8.015030e+001 87 65 137
-3.566908e+001 -1.101650e+001 -9.249157e+001 230 42 80
-5.140488e+001 4.295655e+000 -9.629897e+001 246 42 93
-4.737175e+001 -4.881530e+000 -1.083572e+002 229 159 79
-7.762061e-001 6.617823e-001 -7.205607e+000 147 120 78
-4.133076e+001 -4.285305e+000 -1.054967e+002 243 50 85
-4.133076e+001 -4.285305e+000 -1.054967e+002 243 50 85
-4.536838e+001 -5.266515e+000 -1.072395e+002 67 37 65
-7.309736e+001 1.696341e+001 -1.366339e+002 77 62 131
-4.944038e+001 -2.695115e+000 -1.104882e+002 70 40 66
-1.909433e-001 -3.151557e-001 -6.618795e+000 112 99 54
-4.923698e+001 -4.533149e+000 -9.840702e+001 246 49 95
-4.659560e+001 -2.689307e+000 -1.108055e+002 253 204 91
-5.931504e+001 4.294054e+000 -1.364873e+002 59 39 75
-3.123778e+000 2.618291e+000 -8.665551e+000 147 144 99
-2.802903e+000 2.322427e+000 -8.370007e+000 175 172 137
-2.622655e+000 2.166014e+000 -8.265940e+000 185 177 139
-2.076233e+000 2.124162e+000 -8.414794e+000 172 137 111
-1.646323e+000 1.675204e+000 -8.021669e+000 131 68 69
1.751831e-001 2.009734e+000 -9.497491e+000 174 166 127
1.547175e-001 1.714227e+000 -9.130738e+000 190 181 141
6.722251e-001 1.908982e+000 -9.610670e+000 187 172 134
4.167044e-001 1.686514e+000 -9.207829e+000 172 154 107
6.466222e-001 1.536023e+000 -9.106649e+000 158 154 127
9.227380e-001 1.668507e+000 -9.448256e+000 113 108 102
1.046042e+000 1.689140e+000 -9.560608e+000 77 88 73
9.152643e-001 1.394352e+000 -9.090153e+000 101 94 89
8.951277e-001 1.297760e+000 -8.960854e+000 163 160 148
-1.187134e+000 1.030077e+000 -7.392336e+000 165 76 77
9.484928e-001 1.239108e+000 -8.906439e+000 94 90 84
-9.170786e-001 8.219650e-001 -7.257168e+000 155 73 63
-2.982927e-001 9.105081e-001 -7.903243e+000 82 75 57
-2.226099e-001 9.487099e-001 -8.005636e+000 200 188 168
-1.844928e-001 8.763744e-001 -7.920191e+000 179 166 143
-2.266137e-001 8.322075e-001 -7.861549e+000 186 174 152
-1.403433e-001 8.709995e-001 -7.960540e+000 79 77 62
-8.283923e-002 7.921174e-001 -7.868409e+000 196 186 158
-2.429671e-001 6.969944e-001 -7.687623e+000 83 78 64
-2.429671e-001 6.969944e-001 -7.687623e+000 83 78 64
-5.256703e-003 6.732618e-001 -7.753200e+000 91 77 58
-5.256703e-003 6.732618e-001 -7.753200e+000 91 77 58
9.019973e-001 7.390922e-001 -8.231327e+000 163 149 98
1.328774e+000 8.498703e-001 -8.581100e+000 154 162 140
1.213315e+000 6.920236e-001 -8.404208e+000 102 114 75
-1.174140e-002 4.322493e-001 -7.446107e+000 173 158 118
-1.174140e-002 4.322493e-001 -7.446107e+000 173 158 118
6.006058e-001 4.450223e-001 -7.747381e+000 170 162 90
6.370225e-001 5.309411e-001 -7.843418e+000 143 99 70
6.370225e-001 5.309411e-001 -7.843418e+000 143 99 70
1.415328e-001 3.382767e-001 -7.396995e+000 72 77 62
4.670105e-001 3.261072e-001 -7.524083e+000 139 103 64
4.670105e-001 3.261072e-001 -7.524083e+000 139 103 64
5.038654e-001 2.535276e-001 -7.447708e+000 131 100 53
6.353511e-001 4.265958e-001 -7.728737e+000 180 163 102
7.293022e-001 3.195031e-001 -7.637753e+000 175 166 106
7.131154e-001 2.891302e-001 -7.578811e+000 139 94 64
1.851771e+000 4.059358e-001 -8.290877e+000 106 120 94
1.909948e+000 3.158927e-001 -8.199577e+000 105 119 93
1.534065e-001 1.267771e-001 -7.149599e+000 177 162 108
1.534065e-001 1.267771e-001 -7.149599e+000 177 162 108
4.546938e-001 1.770591e-001 -7.342031e+000 180 161 102
5.237920e-001 1.586818e-001 -7.338457e+000 181 169 106
5.555305e-001 1.597689e-001 -7.360926e+000 126 82 51
8.213202e-001 1.736203e-001 -7.501149e+000 145 84 70
8.213202e-001 1.736203e-001 -7.501149e+000 145 84 70
1.952529e+000 3.007047e-001 -8.203322e+000 159 173 148
4.440369e-001 2.558606e-002 -7.154105e+000 144 95 75
1.969196e+000 5.915748e-002 -7.908309e+000 174 182 169
2.084187e+000 -3.305781e-001 -8.005190e+000 56 57 40
1.160740e+000 -4.331850e-001 -7.524209e+000 93 94 66
1.073912e+000 -7.297981e-001 -7.778478e+000 108 103 71
1.123630e+000 -5.717488e-001 -7.655635e+000 99 97 66
1.123630e+000 -5.717488e-001 -7.655635e+000 99 97 66
1.405311e+000 -7.398259e-001 -7.977189e+000 87 88 65
-1.447725e+000 -7.424972e-001 -6.270963e+000 74 66 57
-1.623472e-001 -7.154396e-001 -7.068474e+000 127 112 77
-1.623472e-001 -7.154396e-001 -7.068474e+000 127 112 77
3.416313e-001 -8.983177e-001 -7.553709e+000 136 118 80
1.100982e+000 -8.768072e-001 -7.902039e+000 114 106 73
1.189113e+000 -7.821134e-001 -7.900105e+000 66 62 34
-1.544150e+000 -9.176089e-001 -6.379886e+000 76 67 60
-1.833844e-001 -9.873553e-001 -7.306142e+000 139 122 92
1.314468e+000 -1.066480e+000 -8.321561e+000 94 91 64
-5.809350e-001 -1.167980e+000 -7.297607e+000 140 124 99
-5.004723e-001 -1.118969e+000 -7.251347e+000 136 120 97
-3.190926e-001 -1.171000e+000 -7.435643e+000 135 118 90
-3.190926e-001 -1.171000e+000 -7.435643e+000 135 118 90
5.602356e-002 -1.223644e+000 -7.690042e+000 138 122 86
5.602356e-002 -1.223644e+000 -7.690042e+000 138 122 86
6.751358e-001 -1.308775e+000 -8.157491e+000 78 66 40
1.387805e+000 -1.224268e+000 -8.526309e+000 65 63 38
-3.164716e-001 -1.367199e+000 -7.633307e+000 131 115 81
1.829956e-002 -1.345002e+000 -7.851704e+000 137 121 89
-5.164003e-003 -1.401109e+000 -7.877703e+000 126 112 77
1.848683e-001 -1.452649e+000 -8.020120e+000 87 71 46
1.848683e-001 -1.452649e+000 -8.020120e+000 87 71 46
6.988878e-001 -1.479780e+000 -8.397978e+000 79 65 38
6.988878e-001 -1.479780e+000 -8.397978e+000 79 65 38
-8.145620e-001 -1.545850e+000 -7.530066e+000 57 47 38
-6.788891e-001 -1.535396e+000 -7.625261e+000 82 67 44
-5.953774e-002 -1.554460e+000 -8.043123e+000 115 101 72
1.344852e-001 -1.595427e+000 -8.164570e+000 92 76 51
1.822684e-001 -1.659692e+000 -8.254938e+000 88 72 46
1.822684e-001 -1.659692e+000 -8.254938e+000 88 72 46
5.864663e-001 -1.549213e+000 -8.372579e+000 88 74 50
5.502619e-001 -1.643711e+000 -8.424970e+000 95 81 54
1.022649e+000 -1.727459e+000 -8.850612e+000 74 65 42
-1.592654e+000 -1.960407e+000 -7.587413e+000 114 98 72
2.655780e+000 -2.026650e+000 -7.486280e+000 187 180 172
-2.789256e+000 2.279552e+000 -8.345769e+000 180 174 137
-1.992386e+000 2.683441e+000 -9.399801e+000 241 216 207
-1.949739e+000 2.604397e+000 -9.264424e+000 162 150 104
-2.773944e+000 2.159049e+000 -8.225602e+000 138 139 102
-2.699099e+000 2.128030e+000 -8.208004e+000 187 178 135
-2.416137e+000 2.265879e+000 -8.474130e+000 180 177 145
-2.419066e+000 2.272081e+000 -8.499116e+000 180 177 145
-9.836756e-001 2.622726e+000 -9.807367e+000 188 170 134
-3.711958e-002 2.669410e+000 -1.034106e+001 166 133 122
-1.533291e+000 1.727960e+000 -8.127411e+000 194 189 186
-1.534011e+000 1.729052e+000 -8.132780e+000 194 189 186
1.936340e-001 2.243379e+000 -9.854781e+000 144 103 83
1.936340e-001 2.243379e+000 -9.854781e+000 144 103 83
7.366707e-001 2.212544e+000 -1.001558e+001 83 81 79
-1.545144e+000 1.497313e+000 -7.836373e+000 146 67 73
-1.538135e+000 1.321300e+000 -7.620817e+000 208 193 201
7.575553e-001 1.613897e+000 -9.297815e+000 165 155 119
7.145724e-001 1.558299e+000 -9.190023e+000 161 153 117
1.044103e+000 1.589657e+000 -9.416951e+000 139 138 127
1.140694e+000 1.591564e+000 -9.468409e+000 151 134 92
-1.273373e+000 1.192733e+000 -7.568844e+000 160 66 68
-1.273373e+000 1.192733e+000 -7.568844e+000 160 66 68
-1.382922e+000 1.082516e+000 -7.380425e+000 159 72 72
-1.335018e+000 1.055810e+000 -7.375575e+000 200 190 186
6.929045e-001 1.503236e+000 -9.110645e+000 102 96 84
6.988976e-001 1.317019e+000 -8.888127e+000 171 170 137
-8.532415e-001 8.857143e-001 -7.363892e+000 206 183 128
9.673204e-001 1.144842e+000 -8.804997e+000 88 82 81
1.337341e+000 1.292303e+000 -9.180932e+000 155 162 151
-1.782506e-001 7.929080e-001 -7.828749e+000 82 85 71
-1.553413e-001 8.308120e-001 -7.877631e+000 190 179 156
-1.553413e-001 8.308120e-001 -7.877631e+000 190 179 156
-1.897044e-002 7.091337e-001 -7.766436e+000 196 186 156
-1.897044e-002 7.091337e-001 -7.766436e+000 196 186 156
5.206785e-001 6.280351e-001 -7.931480e+000 188 163 105
9.533154e-001 7.837947e-001 -8.325211e+000 179 175 145
1.138875e+000 6.564346e-001 -8.211127e+000 148 149 91
-6.125686e-002 5.599653e-001 -7.589602e+000 193 181 144
7.574730e-002 4.661410e-001 -7.546504e+000 80 71 54
6.058077e-002 4.287481e-001 -7.490548e+000 177 163 125
6.058077e-002 4.287481e-001 -7.490548e+000 177 163 125
2.466350e-001 5.972439e-001 -7.767656e+000 189 172 118
2.414905e-001 5.532620e-001 -7.732394e+000 146 97 69
5.411957e-001 5.121183e-001 -7.794206e+000 148 101 74
1.049020e+000 4.795193e-001 -8.002932e+000 186 179 151
1.724880e+000 5.327924e-001 -8.386336e+000 155 170 146
4.364025e-002 2.393841e-001 -7.230165e+000 177 162 116
9.637642e-002 3.563679e-001 -7.394566e+000 185 171 123
1.308050e-001 2.940544e-001 -7.328161e+000 181 168 126
3.729496e-001 3.592608e-001 -7.531579e+000 191 170 117
3.729496e-001 3.592608e-001 -7.531579e+000 191 170 117
6.008224e-001 4.050018e-001 -7.695236e+000 139 96 68
6.008224e-001 4.050018e-001 -7.695236e+000 139 96 68
1.922392e+000 3.576022e-001 -8.246044e+000 145 159 134
-3.049471e+000 1.507927e-001 -8.623891e+000 183 78 92
2.342248e-001 1.629523e-001 -7.221965e+000 72 81 71
4.019412e-001 2.455683e-001 -7.411015e+000 149 100 72
4.909872e-001 2.219122e-001 -7.403297e+000 177 170 102
4.909872e-001 2.219122e-001 -7.403297e+000 177 170 102
7.921197e-001 2.301603e-001 -7.575094e+000 145 95 70
3.777804e-001 3.453769e-002 -7.108188e+000 72 76 68
3.777804e-001 3.453769e-002 -7.108188e+000 72 76 68
4.100314e-001 4.988803e-002 -7.135998e+000 177 163 96
8.755476e-001 5.021713e-002 -7.384613e+000 141 99 66
-2.854811e-001 -3.608126e-001 -6.635917e+000 72 63 34
5.837063e-001 -3.428990e-001 -7.130960e+000 107 102 59
8.147455e-001 -3.296320e-001 -7.221706e+000 105 101 63
1.002235e+000 -2.546482e-001 -7.264358e+000 65 65 39
1.002235e+000 -2.546482e-001 -7.264358e+000 65 65 39
1.058648e+000 -3.704729e-001 -7.418980e+000 63 62 39
1.093260e+000 -2.538497e-001 -7.349000e+000 64 64 40
1.069952e+000 -3.157095e-001 -7.355099e+000 65 65 39
1.209685e+000 -3.927736e-001 -7.493710e+000 65 64 44
1.439865e+000 -3.802157e-001 -7.692882e+000 86 89 64
1.645547e+000 -3.942546e-001 -7.822975e+000 58 61 41
-3.046229e-001 -4.055050e-001 -6.650394e+000 73 62 40
4.115998e-001 -5.431363e-001 -7.210275e+000 87 77 49
9.909356e-001 -4.561606e-001 -7.465890e+000 99 96 63
9.359930e-001 -5.210561e-001 -7.495624e+000 64 60 31
1.050725e+000 -4.973304e-001 -7.494420e+000 95 95 61
1.085140e+000 -5.365706e-001 -7.565947e+000 64 59 34
1.092004e+000 -4.001016e-001 -7.480699e+000 96 95 64
1.131954e+000 -5.171777e-001 -7.575722e+000 96 97 64
1.131954e+000 -5.171777e-001 -7.575722e+000 96 97 64
1.301724e+000 -4.453000e-001 -7.715387e+000 58 59 40
1.371436e+000 -4.842377e-001 -7.782922e+000 63 61 41
1.635107e+000 -5.409371e-001 -7.935833e+000 83 85 63
-1.108720e+000 -6.391735e-001 -6.378002e+000 72 69 60
-1.058351e+000 -6.651461e-001 -6.433237e+000 73 68 57
-7.976612e-002 -5.548387e-001 -6.927936e+000 82 67 35
-1.913565e-001 -6.908493e-001 -6.995878e+000 85 69 42
-4.906042e-002 -5.809164e-001 -7.016921e+000 120 106 69
-4.906042e-002 -5.809164e-001 -7.016921e+000 120 106 69
9.094165e-001 -7.427666e-001 -7.727805e+000 117 108 63
9.427917e-001 -7.363212e-001 -7.692954e+000 76 65 51
9.498707e-001 -6.107084e-001 -7.627387e+000 109 106 65
1.080200e+000 -5.764109e-001 -7.623865e+000 68 66 41
1.155762e+000 -7.530097e-001 -7.875347e+000 98 98 64
1.285452e+000 -7.191075e-001 -7.891608e+000 62 61 40
-1.351321e+000 -6.961191e-001 -6.278114e+000 76 69 63
-1.372572e+000 -7.754605e-001 -6.343365e+000 133 116 106
-1.320321e+000 -7.560240e-001 -6.367672e+000 135 118 111
-1.204233e+000 -6.914060e-001 -6.353868e+000 112 105 94
-3.381969e-001 -8.527346e-001 -7.071218e+000 80 66 37
-1.856201e-001 -7.825537e-001 -7.091686e+000 134 119 79
1.328183e-001 -8.754339e-001 -7.365664e+000 99 85 64
1.786961e-001 -8.683588e-001 -7.412689e+000 137 119 86
1.786961e-001 -8.683588e-001 -7.412689e+000 137 119 86
2.097617e-001 -8.933348e-001 -7.452739e+000 85 70 47
3.622694e-001 -8.396134e-001 -7.512816e+000 136 117 75
3.802577e-001 -8.880768e-001 -7.534827e+000 81 65 37
9.516087e-001 -8.348395e-001 -7.784170e+000 116 104 68
9.071126e-001 -8.515204e-001 -7.808426e+000 92 81 53
9.071126e-001 -8.515204e-001 -7.808426e+000 92 81 53
1.009572e+000 -8.204675e-001 -7.851329e+000 76 66 38
1.084669e+000 -8.194810e-001 -7.874251e+000 78 72 45
-1.612871e+000 -8.317427e-001 -6.271250e+000 68 61 51
-1.528962e+000 -8.309930e-001 -6.314876e+000 109 105 93
-1.446380e+000 -9.470013e-001 -6.504733e+000 74 63 60
-1.202282e+000 -9.354754e-001 -6.604015e+000 73 64 57
-1.202282e+000 -9.354754e-001 -6.604015e+000 73 64 57
-1.119473e+000 -9.845837e-001 -6.679097e+000 111 102 93
-4.743633e-001 -9.455860e-001 -7.100400e+000 84 68 45
-3.608445e-001 -9.281861e-001 -7.142364e+000 90 74 48
-2.385755e-001 -9.472118e-001 -7.269060e+000 141 122 92
-3.070485e-001 -1.042041e+000 -7.313103e+000 103 85 63
-1.772989e-001 -9.527556e-001 -7.211790e+000 134 118 84
-1.521776e-001 -9.972347e-001 -7.373975e+000 85 69 44
-1.191606e-001 -1.023125e+000 -7.406898e+000 139 123 94
-1.191606e-001 -1.023125e+000 -7.406898e+000 139 123 94
7.194717e-002 -1.069967e+000 -7.553087e+000 87 72 50
7.825576e-001 -1.098258e+000 -7.977493e+000 122 111 65
9.025630e-001 -9.857319e-001 -7.919057e+000 117 108 69
9.025630e-001 -9.857319e-001 -7.919057e+000 117 108 69
9.895950e-001 -1.109513e+000 -8.117919e+000 74 64 37
1.190924e+000 -9.826174e-001 -8.078348e+000 75 68 43
1.190924e+000 -9.826174e-001 -8.078348e+000 75 68 43
1.351628e+000 -1.046721e+000 -8.279653e+000 64 62 41
-1.219905e+000 -1.164821e+000 -6.806854e+000 70 67 56
-7.351508e-001 -1.168938e+000 -7.200787e+000 71 52 45
-6.497767e-001 -1.084548e+000 -7.102646e+000 58 44 36
-4.567315e-001 -1.205194e+000 -7.380866e+000 84 69 47
-3.415802e-001 -1.234181e+000 -7.487185e+000 135 120 89
-1.275925e-001 -1.157374e+000 -7.551512e+000 93 78 52
-1.662897e-001 -1.252330e+000 -7.585005e+000 100 84 61
4.644202e-002 -1.133051e+000 -7.593994e+000 90 76 49
1.901609e-001 -1.224697e+000 -7.782255e+000 83 67 45
4.604677e-001 -1.181329e+000 -7.904151e+000 81 64 40
7.931598e-001 -1.194225e+000 -8.091916e+000 86 74 42
7.516195e-001 -1.311115e+000 -8.198266e+000 83 66 44
-1.293819e+000 -1.192297e+000 -6.787898e+000 71 67 61
-1.293819e+000 -1.192297e+000 -6.787898e+000 71 67 61
-7.037852e-001 -1.232717e+000 -7.259262e+000 55 45 37
-6.263668e-001 -1.294706e+000 -7.394431e+000 134 118 94
-4.065854e-001 -1.329573e+000 -7.575135e+000 94 79 58
-5.084491e-001 -1.345008e+000 -7.504530e+000 90 74 55
-4.411138e-001 -1.422782e+000 -7.684784e+000 97 81 57
-4.411138e-001 -1.422782e+000 -7.684784e+000 97 81 57
-3.352916e-001 -1.330014e+000 -7.597153e+000 98 83 57
-3.064320e-001 -1.439606e+000 -7.730541e+000 89 74 44
-2.042501e-001 -1.256697e+000 -7.576633e+000 136 122 90
-7.297291e-003 -1.297200e+000 -7.722690e+000 92 77 53
2.867274e-001 -1.375121e+000 -7.989698e+000 89 74 49
2.867274e-001 -1.375121e+000 -7.989698e+000 89 74 49
2.695145e-001 -1.426747e+000 -8.063368e+000 93 77 51
2.224013e-001 -1.438792e+000 -8.016387e+000 130 116 81
-7.326398e-001 -1.491190e+000 -7.545253e+000 93 77 58
-5.412822e-001 -1.444210e+000 -7.571023e+000 84 69 48
-2.419816e-001 -1.657113e+000 -7.986175e+000 97 82 55
-8.803490e-002 -1.521722e+000 -7.963203e+000 88 78 50
-2.151058e-002 -1.530459e+000 -7.968935e+000 89 77 54
-4.291436e-002 -1.597743e+000 -8.080112e+000 87 73 46
-1.204631e+000 -1.614101e+000 -7.379205e+000 123 107 82
-1.274993e+000 -1.691356e+000 -7.439256e+000 90 75 49
-8.028231e-001 -1.772065e+000 -7.836801e+000 127 113 86
-3.087259e-001 -1.841405e+000 -8.184648e+000 93 77 51
-1.332628e+000 -1.937909e+000 -7.670100e+000 112 99 71
-1.187443e+000 -1.862714e+000 -7.709120e+000 73 60 41
-9.221841e-001 -2.001931e+000 -8.027253e+000 94 80 59
-9.221841e-001 -2.001931e+000 -8.027253e+000 94 80 59
-6.992438e-001 -1.862529e+000 -7.981633e+000 93 79 53
-5.454117e-001 -1.885342e+000 -8.096036e+000 97 82 55
-1.837958e+000 -1.982756e+000 -7.425580e+000 121 108 72
-1.791034e+000 -2.068449e+000 -7.578454e+000 109 98 70
-1.639427e+000 -2.065538e+000 -7.659655e+000 111 96 68
-1.261904e+000 -1.971089e+000 -7.750281e+000 108 97 71
-1.193214e+000 -2.012931e+000 -7.866530e+000 117 106 76
2.627834e+000 -1.992221e+000 -7.526106e+000 188 181 174
-2.613190e+000 2.448634e+000 -8.675643e+000 105 114 85
-2.658975e+000 2.219879e+000 -8.349004e+000 185 177 141
-4.121628e-001 2.426379e+000 -9.811202e+000 136 94 80
6.012775e-002 2.338997e+000 -9.839046e+000 171 135 93
-1.517934e+000 1.888449e+000 -8.328288e+000 205 185 133
-4.107763e-001 2.150355e+000 -9.425820e+000 185 152 94
-2.250768e-001 1.946450e+000 -9.267881e+000 193 184 172
-2.250768e-001 1.946450e+000 -9.267881e+000 193 184 172
-1.444882e+000 1.492471e+000 -7.865944e+000 151 64 70
2.846806e-001 1.900577e+000 -9.424728e+000 184 177 143
-1.467538e+000 1.380074e+000 -7.715413e+000 153 71 68
-1.397956e+000 1.387199e+000 -7.743765e+000 150 71 75
1.153321e+000 1.745096e+000 -9.657490e+000 80 91 75
1.120072e+000 1.669604e+000 -9.554124e+000 168 146 105
-7.913035e+001 1.982448e+001 -1.355606e+002 229 85 124
-1.409383e+000 1.048209e+000 -7.332466e+000 199 186 183
-1.409383e+000 1.048209e+000 -7.332466e+000 199 186 183
-1.370937e+000 1.137757e+000 -7.459501e+000 201 185 183
-1.370937e+000 1.137757e+000 -7.459501e+000 201 185 183
-1.222127e+000 1.155826e+000 -7.537258e+000 202 192 190
-1.131383e+000 1.158045e+000 -7.575852e+000 198 199 192
-1.130930e+000 1.002261e+000 -7.402224e+000 198 192 191
-2.653816e-001 9.821600e-001 -8.037700e+000 88 82 69
-1.709638e-001 9.329176e-001 -8.015646e+000 87 86 66
1.326637e+000 9.043317e-001 -8.637332e+000 72 80 67
-1.603616e-001 7.452637e-001 -7.781712e+000 199 188 166
-1.603616e-001 7.452637e-001 -7.781712e+000 199 188 166
5.088552e-002 6.162218e-001 -7.680796e+000 95 82 65
1.263208e+000 8.332753e-001 -8.572386e+000 85 98 66
1.253305e+000 7.067457e-001 -8.361224e+000 168 174 140
-7.855105e-002 5.145967e-001 -7.519817e+000 71 93 73
-4.731747e-002 4.392608e-001 -7.444383e+000 75 84 75
3.349808e-002 3.930831e-001 -7.400163e+000 73 86 69
3.704670e-001 3.123602e-001 -7.482984e+000 140 94 61
1.672640e+000 4.341506e-001 -8.182090e+000 119 133 80
-3.082055e+000 2.346256e-001 -8.618446e+000 189 82 94
-3.082055e+000 2.346256e-001 -8.618446e+000 189 82 94
2.731418e-001 9.789992e-002 -7.153112e+000 66 80 65
7.192787e-001 2.015696e-001 -7.495924e+000 180 165 109
6.025577e-001 4.173974e-002 -7.236425e+000 143 97 64
6.025577e-001 4.173974e-002 -7.236425e+000 143 97 64
1.517176e+000 9.356275e-002 -7.704581e+000 169 150 94
2.123717e+000 -1.976602e-001 -7.910574e+000 58 63 43
8.771241e-001 -4.011117e-001 -7.342512e+000 106 102 65
2.325507e-001 -5.883998e-001 -7.161453e+000 81 65 46
2.152787e-001 -6.324498e-001 -7.165158e+000 89 72 51
1.976598e-001 -6.841000e-001 -7.201711e+000 79 64 43
3.670654e-001 -6.912009e-001 -7.327810e+000 80 69 41
-1.134784e+000 -7.909409e-001 -6.485176e+000 130 115 104
-5.663624e-001 -8.293230e-001 -6.933747e+000 57 45 38
1.823690e-001 -7.442791e-001 -7.276464e+000 75 64 36
-4.885232e-001 -1.003418e+000 -7.118206e+000 86 69 50
-1.953232e-001 -9.088000e-001 -7.220238e+000 82 65 40
-1.953232e-001 -9.088000e-001 -7.220238e+000 82 65 40
-4.565807e-002 -9.115141e-001 -7.334166e+000 81 68 42
1.142180e-001 -9.400531e-001 -7.424331e+000 78 66 41
3.603828e-001 -9.498218e-001 -7.591989e+000 86 73 46
-1.096279e+000 -1.100862e+000 -6.822763e+000 73 66 62
-5.107930e-001 -1.069211e+000 -7.214626e+000 89 75 58
4.539394e-001 -1.539828e+000 -8.270228e+000 132 118 85
-9.454413e-001 -1.579298e+000 -7.472794e+000 135 116 83
-1.033193e+000 -1.691826e+000 -7.553312e+000 96 81 57
-1.611920e+000 -1.724374e+000 -7.193135e+000 79 63 47
-1.597477e+000 -1.786082e+000 -7.318023e+000 115 100 71
-1.144723e+000 -1.958937e+000 -7.830527e+000 75 63 41
-1.908202e+000 -2.043607e+000 -7.460883e+000 87 70 53
-9.643902e-001 -2.124553e+000 -8.123962e+000 100 89 64
-2.854000e+000 2.462745e+000 -8.594970e+000 153 153 115
-2.264423e+000 2.365630e+000 -8.621121e+000 196 177 133
-1.984045e+000 2.698922e+000 -9.421452e+000 243 215 207
-2.616293e+000 2.086494e+000 -8.122623e+000 132 128 87
-2.616293e+000 2.086494e+000 -8.122623e+000 132 128 87
-2.584064e+000 2.193147e+000 -8.303336e+000 154 150 113
-2.278405e+000 2.265323e+000 -8.510461e+000 93 118 90
-1.693578e+000 1.695581e+000 -8.030016e+000 202 188 188
-1.693578e+000 1.695581e+000 -8.030016e+000 202 188 188
1.538746e-001 2.015816e+000 -9.544883e+000 182 166 123
-1.592175e+000 1.506890e+000 -7.840049e+000 200 188 187
9.032374e-001 1.989799e+000 -9.879421e+000 163 132 84
-1.561931e+000 1.397650e+000 -7.715460e+000 167 78 82
1.075000e+000 1.748970e+000 -9.632371e+000 165 150 100
9.788844e-001 1.319333e+000 -9.023702e+000 169 162 148
-1.309261e+000 9.063876e-001 -7.203901e+000 202 189 191
1.347283e+000 1.166798e+000 -9.150649e+000 103 103 94
1.194381e+000 9.171013e-001 -8.604858e+000 153 157 135
-6.026058e+001 1.273985e+001 -1.409804e+002 243 49 89
-6.586636e-002 7.294700e-001 -7.801345e+000 75 87 72
1.023946e+000 7.759992e-001 -8.355164e+000 178 173 144
-6.742454e+001 8.510814e+000 -1.431109e+002 83 74 139
-1.129029e-001 5.815746e-001 -7.608847e+000 74 89 71
-1.129029e-001 5.815746e-001 -7.608847e+000 74 89 71
1.345074e-001 2.067280e-001 -7.226102e+000 185 169 113
1.345074e-001 2.067280e-001 -7.226102e+000 185 169 113
2.312975e-001 5.738061e-002 -7.087214e+000 177 166 103
2.312975e-001 5.738061e-002 -7.087214e+000 177 166 103
5.351090e-001 7.854373e-002 -7.250961e+000 174 164 96
5.351090e-001 7.854373e-002 -7.250961e+000 174 164 96
3.094213e-001 -3.941307e-001 -6.971984e+000 68 56 29
-5.121279e+001 -8.730423e+000 -9.232677e+001 216 210 254
-9.825357e-001 -7.150391e-001 -6.501796e+000 68 67 55
-9.825357e-001 -7.150391e-001 -6.501796e+000 68 67 55
-3.845064e-001 -7.296457e-001 -6.936090e+000 128 111 69
1.554945e-001 -1.168377e+000 -7.697777e+000 82 68 34
5.557216e-002 -1.471827e+000 -8.027403e+000 85 72 40
1.644410e+000 -2.033968e+000 -9.590177e+000 83 65 50
-1.982966e+000 -2.008634e+000 -7.439482e+000 91 77 50
-3.048956e+001 -2.374096e+001 -7.578530e+001 74 47 105
-2.762836e+000 2.460270e+000 -8.588320e+000 181 173 137
-2.066583e+000 2.689121e+000 -9.311187e+000 179 166 113
1.686419e-001 2.500736e+000 -1.021099e+001 176 147 116
1.686419e-001 2.500736e+000 -1.021099e+001 176 147 116
8.996477e-001 1.877648e+000 -9.739452e+000 87 90 75
-1.198301e+000 9.904426e-001 -7.338007e+000 166 72 73
-1.198301e+000 9.904426e-001 -7.338007e+000 166 72 73
1.168446e+000 7.193505e-001 -8.324982e+000 83 96 68
1.382247e+000 6.234449e-001 -8.348876e+000 99 115 76
4.329754e-001 8.489348e-002 -7.229925e+000 175 166 95
-5.817882e+001 -6.684663e+000 -1.016681e+002 76 51 115
-5.429789e+001 -6.880989e+000 -9.582325e+001 194 183 239
-4.890611e+001 -7.936222e+000 -1.102557e+002 82 60 132
-4.606335e+001 -8.731117e+000 -7.845280e+001 107 69 122
2.490924e-002 -9.171263e-001 -7.432697e+000 136 116 74
2.490924e-002 -9.171263e-001 -7.432697e+000 136 116 74
1.472389e+000 -2.005774e+000 -9.477010e+000 69 62 44
-3.893615e+001 -1.615779e+001 -7.469737e+001 225 43 84
-3.117375e+001 -1.798186e+001 -8.558906e+001 222 49 82
-9.593692e-001 2.469709e+000 -9.574929e+000 183 166 142
5.917222e-001 1.863917e+000 -9.551891e+000 170 148 101
-1.103672e+000 9.389711e-001 -7.296880e+000 202 185 185
-1.103672e+000 9.389711e-001 -7.296880e+000 202 185 185
-8.807245e-001 8.866351e-001 -7.322550e+000 204 178 118
1.004096e+000 8.658357e-001 -8.443217e+000 142 148 89
2.919629e-001 5.262014e-001 -7.739239e+000 148 109 72
1.565303e+000 3.945879e-001 -8.193099e+000 176 169 148
1.813607e+000 4.506666e-001 -8.328689e+000 129 143 117
-6.046278e+001 -2.258473e+000 -1.048150e+002 233 68 122
-5.695414e+001 -4.201366e+000 -9.995699e+001 74 52 114
-1.040401e+000 -8.853150e-001 -6.628436e+000 76 69 61
-8.684755e-001 -9.872197e-001 -6.882534e+000 108 96 74
-3.992507e+001 -1.557124e+001 -1.012857e+002 59 34 64
-3.417455e+001 -1.252151e+001 -8.856774e+001 226 44 85
-3.300444e+001 -1.350495e+001 -9.026309e+001 174 54 73
-4.140944e+001 -1.530120e+001 -9.168467e+001 197 26 70
-3.456237e+001 -1.386458e+001 -7.815175e+001 62 40 96
-3.546749e+001 -1.478736e+001 -9.181388e+001 205 35 66
-3.658393e+001 -1.638912e+001 -8.215655e+001 71 51 115
-3.205124e+001 -1.633229e+001 -8.376003e+001 226 42 76
-3.427291e+001 -2.071749e+001 -9.349976e+001 208 34 64
-2.130542e+000 -2.161835e+000 -7.481454e+000 76 63 44
-1.512481e+000 1.801694e+000 -8.377658e+000 131 72 74
-5.840882e+002 2.320336e+002 -1.379161e+003 169 161 178
-7.254430e+001 1.959043e+001 -1.675939e+002 70 46 94
3.350564e-001 7.262184e-001 -7.998080e+000 187 167 114
1.273455e-001 5.408528e-001 -7.613658e+000 191 173 133
5.904492e-001 5.163920e-001 -7.791094e+000 145 101 72
1.878291e+000 3.369020e-001 -8.254039e+000 140 155 132
-6.014904e+001 3.064792e+000 -1.237234e+002 210 25 67
-5.500147e+001 -4.124063e+000 -9.461952e+001 253 201 233
-6.240657e+001 -3.189174e+000 -1.126181e+002 90 70 155
-5.896639e-001 -1.122249e+000 -7.179736e+000 103 89 63
-3.350983e+001 -1.695518e+001 -7.421810e+001 66 45 107
-3.539520e+001 -1.914283e+001 -7.629740e+001 206 31 70
-3.276698e+001 -2.227155e+001 -7.203114e+001 49 35 69
-2.381799e+000 2.329815e+000 -8.611787e+000 94 119 90
-1.824832e+000 1.758140e+000 -8.143284e+000 135 71 66
-1.592460e+000 1.606975e+000 -8.006679e+000 176 136 141
-8.593287e+001 2.082629e+001 -1.487163e+002 254 67 123
-1.043669e+000 1.062560e+000 -7.441244e+000 160 68 69
-8.029554e+001 1.724988e+001 -1.409564e+002 82 62 125
-8.382234e+001 2.194885e+001 -1.760727e+002 230 42 84
-9.943195e-001 8.633870e-001 -7.234805e+000 157 66 67
-2.471191e-001 9.484015e-001 -8.108419e+000 84 81 62
-2.471191e-001 9.484015e-001 -8.108419e+000 84 81 62
-6.342147e-001 7.166058e-001 -7.537411e+000 193 183 181
1.033281e+000 5.404604e-001 -8.067014e+000 172 157 108
1.999898e-001 4.090429e-001 -7.429136e+000 188 173 126
2.742543e-001 2.396092e-001 -7.280302e+000 184 169 108
-3.248509e-001 -1.555641e-001 -6.574254e+000 165 151 86
-4.861723e+001 -8.792943e+000 -8.812491e+001 173 163 216
-4.014180e+001 -1.275927e+001 -8.832401e+001 201 27 62
-3.781183e+001 -1.554146e+001 -8.290273e+001 242 50 95
-3.580627e+001 -1.690144e+001 -7.729910e+001 250 56 101
8.007052e-001 1.448004e+000 -9.111977e+000 114 108 100
5.038763e-002 -2.846473e-001 -6.758925e+000 76 64 22
-3.522641e+001 -1.653061e+001 -8.500152e+001 67 54 124
-3.041268e+001 -1.648200e+001 -7.689494e+001 58 36 74
-1.187709e+000 1.360694e+000 -7.754671e+000 156 70 71
6.705701e-001 1.145407e+000 -8.607511e+000 177 171 135
-6.367845e+001 5.628581e+000 -1.149988e+002 73 53 112
-6.118489e+001 -4.470345e-001 -1.071601e+002 62 37 67
-4.806155e+001 -8.643180e+000 -9.529348e+001 255 62 110
9.648120e-001 -2.374883e-002 -7.312141e+000 146 148 83
6.675303e-001 -6.235935e-001 -7.401970e+000 129 111 63
-5.678737e+001 -6.071063e+000 -1.033224e+002 69 47 109
1.616907e+000 2.031406e+000 -9.989773e+000 193 197 185
1.278824e+000 1.792519e-001 -7.862325e+000 169 156 115
-4.504875e+001 -7.679429e+000 -9.412477e+001 251 53 99
-1.212452e+000 5.082577e-001 -7.022312e+000 194 179 137
-7.303037e+001 2.658072e+000 -1.280383e+002 77 65 136
-1.007172e-001 -1.257207e-001 9.080871e-001 0 255 0
-1.005662e-001 -1.253436e-001 8.580888e-001 255 255 0
3.541155e-002 9.499807e-001 1.215609e+000 255 0 0
3.576320e-002 9.454740e-001 1.165814e+000 255 255 0
