ply
format ascii 1.0
element face 0
property list uchar int vertex_indices
element vertex 888
property float x
property float y
property float z
property uchar diffuse_red
property uchar diffuse_green
property uchar diffuse_blue
end_header
4.562650e-001 -8.780423e-001 -7.064378e+000 82 70 46
4.562650e-001 -8.780423e-001 -7.064378e+000 82 70 46
4.893765e-001 -9.895091e-001 -7.214962e+000 134 116 66
-1.244468e+000 -7.011224e-001 -5.897834e+000 70 62 53
-1.082112e+000 -6.167472e-001 -5.899792e+000 134 114 106
5.782217e-002 -6.417737e-001 -6.655023e+000 82 65 35
-1.051306e+000 -8.566804e-001 -6.146889e+000 136 118 110
-1.214708e+000 -7.615692e-001 -5.984575e+000 135 114 103
7.794913e-001 -5.656784e-001 -6.933378e+000 74 67 43
9.511912e-002 -4.242047e-001 -6.435519e+000 124 109 71
-1.156754e+000 -8.206154e-001 -6.060410e+000 125 115 106
4.224161e-001 -5.001775e-001 -6.703537e+000 128 113 74
-1.006116e+000 -5.969801e-001 -5.920209e+000 139 116 108
-1.132263e+000 -8.422806e-001 -6.084825e+000 72 65 61
2.712715e-001 -6.045932e-001 -6.715179e+000 142 122 71
4.158044e-003 -3.261774e-001 -6.261110e+000 118 102 51
-1.238354e+000 -6.391087e-001 -5.847090e+000 71 65 54
-1.021468e+000 -6.977784e-001 -6.029201e+000 73 62 56
-5.409468e-003 -4.391994e-001 -6.374595e+000 82 67 35
8.212057e-001 -6.043711e-001 -7.022281e+000 117 108 63
6.350181e-001 -1.101496e+000 -7.380719e+000 129 115 77
-8.175081e-001 -1.468689e+000 -6.940817e+000 126 116 81
3.227439e-001 -1.024225e+000 -7.127439e+000 143 122 77
-7.325735e-002 -7.398118e-001 -6.643639e+000 130 114 81
-4.284964e-002 -5.666601e-001 -6.501208e+000 94 80 53
-3.772280e-001 -8.716878e-001 -6.597989e+000 89 75 58
1.027027e-001 -3.003508e-001 -6.321479e+000 84 76 47
-1.098191e+000 -6.499378e-001 -5.909494e+000 72 64 55
4.153293e-001 -6.075602e-001 -6.760884e+000 90 74 48
3.355348e-001 -6.559212e-001 -6.784579e+000 77 61 36
-4.372102e-001 -9.533376e-001 -6.657228e+000 140 124 99
1.025673e-001 -2.991835e-001 -6.306330e+000 84 76 47
-8.595821e-001 -1.743438e+000 -7.356720e+000 60 54 51
-9.298083e-001 -9.161904e-001 -6.252880e+000 70 65 59
-2.678066e-001 -3.448268e-001 -6.166229e+000 122 106 64
9.391232e-001 -2.179325e-001 -6.689608e+000 93 94 63
-3.300202e-001 -7.333094e-001 -6.479424e+000 80 64 38
-8.842514e-002 -9.330683e-001 -6.795754e+000 134 119 87
-3.938214e-001 -8.328863e-001 -6.534607e+000 136 121 91
-3.947410e-001 -8.343254e-001 -6.543905e+000 136 121 91
3.263039e-001 -3.055330e-001 -6.415221e+000 68 56 29
-1.577318e-001 -7.822851e-001 -6.604199e+000 145 125 93
-1.051306e+000 -8.566804e-001 -6.146889e+000 136 118 110
1.777285e+000 -7.588945e-001 -7.784242e+000 58 49 42
-1.094795e+000 -7.490326e-001 -6.015330e+000 67 64 57
-4.084278e-001 -9.591667e-001 -6.651654e+000 101 84 70
-9.777688e-001 -8.267462e-001 -6.167751e+000 135 119 109
-1.137029e+000 -5.698919e-001 -5.830000e+000 73 65 55
3.988940e-001 -4.763896e-001 -6.658120e+000 82 68 39
-1.769503e-001 -2.724064e-001 -6.137650e+000 72 63 34
6.350181e-001 -1.101496e+000 -7.380719e+000 129 115 77
6.764670e-001 -1.078577e+000 -7.385270e+000 83 66 44
-6.360079e-001 -6.675945e-001 -6.184319e+000 91 81 56
1.479097e+000 -3.086212e-001 -7.117416e+000 79 85 59
5.990272e-001 -6.378002e-001 -6.872351e+000 137 116 65
-3.252433e-001 -2.788295e-001 -6.024681e+000 56 49 43
-1.246165e+000 1.219876e+000 -6.994246e+000 167 78 82
1.618060e+000 2.635616e-001 -7.367210e+000 164 178 153
1.155731e+000 1.294047e-001 -6.988827e+000 184 179 160
-3.685914e-001 -9.129246e-001 -6.622257e+000 136 120 97
-1.195841e+000 1.162980e+000 -6.936857e+000 204 185 186
8.187526e-001 -5.062788e-001 -6.928302e+000 66 60 28
-2.289398e-001 1.809658e+000 -8.351881e+000 132 90 74
2.595318e-001 1.669364e+000 -8.431505e+000 112 125 95
2.595318e-001 1.669364e+000 -8.431505e+000 112 125 95
1.488541e+000 1.021955e+000 -8.267441e+000 163 168 159
8.374527e-001 -4.532168e-001 -6.886454e+000 71 65 41
-1.183572e+000 -7.284001e-001 -5.944543e+000 131 113 99
-1.077558e+000 -8.289141e-001 -6.106566e+000 75 69 62
5.327954e-001 -7.217709e-001 -6.990775e+000 93 78 55
-8.221709e-001 -1.387243e+000 -6.841052e+000 96 81 57
-1.230214e+000 -1.549769e+000 -6.792577e+000 79 66 47
1.750386e+000 7.831289e-002 -7.214295e+000 140 147 129
-2.068736e+001 1.426348e+000 -4.951994e+001 222 43 76
-1.857099e+001 -1.279307e+000 -4.726940e+001 254 188 117
8.149733e-001 1.751824e-001 -6.882810e+000 166 163 103
1.482553e+000 2.371456e-001 -7.265919e+000 76 82 69
-2.203395e+001 3.064103e+000 -5.084850e+001 65 39 82
-2.148250e+001 2.547973e+000 -5.104878e+001 238 42 84
-2.468026e+001 1.962299e+000 -4.900356e+001 221 42 80
-2.341496e+001 1.669096e+000 -4.947323e+001 129 162 218
-2.323492e+001 2.074440e+000 -4.996034e+001 60 44 89
-2.418485e+001 1.610581e+000 -4.887664e+001 133 164 219
-2.418485e+001 1.610581e+000 -4.887664e+001 133 164 219
-3.252433e-001 -2.788295e-001 -6.024681e+000 56 49 43
-2.441599e+001 5.674645e-001 -4.734139e+001 245 49 95
-2.066752e+001 -2.523620e-001 -4.717717e+001 254 204 99
-2.066752e+001 -2.523620e-001 -4.717717e+001 254 204 99
-1.898016e+001 -6.514137e-001 -4.781760e+001 246 55 91
-1.898016e+001 -6.514137e-001 -4.781760e+001 246 55 91
-1.955123e+001 2.387122e-001 -4.622999e+001 71 38 83
-2.396792e+001 2.389373e+000 -4.968045e+001 142 204 252
-2.396792e+001 2.389373e+000 -4.968045e+001 142 204 252
-1.100011e+000 9.577647e-001 -6.734799e+000 159 72 72
6.346846e-001 1.270300e+000 -8.102676e+000 102 96 84
9.993192e-001 1.103856e+000 -8.080053e+000 154 153 148
1.298273e-001 2.034280e-001 -6.598859e+000 72 86 70
3.424202e-001 8.785926e-002 -6.569845e+000 179 163 113
4.418094e-001 4.984179e-002 -6.562594e+000 144 95 75
7.286991e-001 1.144547e-001 -6.769508e+000 141 86 66
-8.876580e-001 1.016999e+000 -6.891484e+000 198 199 192
6.915600e-001 1.417641e+000 -8.297417e+000 128 122 110
9.363147e-001 9.246761e-001 -7.809929e+000 87 83 82
1.119129e+000 1.039691e+000 -8.079813e+000 92 92 89
1.810524e+000 5.368567e-002 -7.197575e+000 175 182 169
1.810524e+000 5.368567e-002 -7.197575e+000 175 182 169
9.666268e-001 -2.453673e-001 -6.735768e+000 65 65 39
1.148476e+000 -6.577457e-001 -7.232391e+000 94 93 65
-1.037047e+000 8.102115e-001 -6.591752e+000 202 189 191
9.290499e-001 1.169702e+000 -8.110587e+000 107 106 103
1.918522e-001 9.735014e-002 -6.528105e+000 69 83 61
7.522766e-001 -2.553200e-001 -6.628474e+000 105 101 63
7.305734e-001 -3.228887e-001 -6.700286e+000 107 101 65
9.077106e-001 -4.317227e-001 -6.875987e+000 76 71 46
5.427020e-001 -1.067969e+000 -7.296554e+000 86 74 48
-1.057870e+000 -1.372609e+000 -6.703535e+000 125 109 83
-1.462893e+000 -1.697564e+000 -6.852044e+000 109 98 70
-2.238077e+000 2.103654e+000 -7.677228e+000 181 173 137
-2.289398e-001 1.809658e+000 -8.351881e+000 132 90 74
-2.348452e+000 -8.517732e-002 -7.432120e+000 195 93 113
-1.031640e+000 7.367227e-001 -6.502738e+000 166 63 67
7.671060e-001 1.198675e+000 -8.091406e+000 101 98 93
1.274272e-001 -4.060302e-001 -6.420189e+000 101 87 58
-1.118078e+000 8.495172e-001 -6.651799e+000 171 66 70
6.533076e-001 2.826752e-001 -6.886990e+000 171 151 102
6.533076e-001 2.826752e-001 -6.886990e+000 171 151 102
-2.230948e+001 5.351386e+000 -5.225113e+001 240 60 99
-3.794694e-001 -7.037651e-001 -6.450549e+000 127 109 73
-1.013789e+000 -7.898572e-001 -6.109455e+000 70 65 59
3.245862e-001 -1.024894e+000 -7.132831e+000 143 122 77
-1.908126e+001 -3.710680e+000 -4.299815e+001 87 65 137
-1.634761e+001 -4.903703e+000 -4.225719e+001 230 42 80
-2.545211e+001 2.159234e+000 -4.795860e+001 246 42 93
-2.026072e+001 -2.004646e+000 -4.633740e+001 229 159 79
-5.895742e-001 5.987782e-001 -6.600836e+000 147 120 78
-1.862176e+001 -1.873770e+000 -4.745206e+001 243 50 85
-1.862176e+001 -1.873770e+000 -4.745206e+001 243 50 85
-1.968068e+001 -2.203536e+000 -4.647764e+001 67 37 65
-2.063933e+001 -1.054927e+000 -4.614959e+001 70 40 66
-9.975332e-002 -2.362430e-001 -6.148386e+000 112 99 54
-2.208584e+001 -1.930490e+000 -4.425602e+001 246 49 95
-1.952019e+001 -1.066950e+000 -4.640856e+001 253 204 91
-2.229753e+001 1.622260e+000 -5.133028e+001 59 39 75
-2.537659e+000 2.236800e+000 -7.736666e+000 147 144 99
-2.289555e+000 2.003424e+000 -7.551540e+000 175 172 137
-2.133338e+000 1.867907e+000 -7.446684e+000 185 177 139
-1.669401e+000 1.822641e+000 -7.551275e+000 172 137 111
-1.313463e+000 1.448937e+000 -7.235530e+000 131 68 69
2.041505e-001 1.686405e+000 -8.388378e+000 174 166 127
1.886404e-001 1.447561e+000 -8.100330e+000 190 181 141
6.146373e-001 1.605478e+000 -8.535388e+000 187 172 134
4.050345e-001 1.424263e+000 -8.184468e+000 172 154 107
5.947548e-001 1.296262e+000 -8.086280e+000 158 154 127
8.200035e-001 1.398911e+000 -8.354299e+000 113 108 102
9.202557e-001 1.412805e+000 -8.438242e+000 77 88 73
8.190127e-001 1.178080e+000 -8.085746e+000 101 94 89
8.025299e-001 1.098605e+000 -7.974847e+000 163 160 148
-9.335853e-001 9.112567e-001 -6.739304e+000 165 76 77
8.480270e-001 1.048516e+000 -7.912763e+000 94 90 84
-7.067491e-001 7.346740e-001 -6.633261e+000 155 73 63
-1.856665e-001 7.980579e-001 -7.151919e+000 82 75 57
-1.226631e-001 8.281113e-001 -7.228940e+000 200 188 168
-9.074061e-002 7.681473e-001 -7.165038e+000 179 166 143
-1.261182e-001 7.319160e-001 -7.118560e+000 186 174 152
-5.394830e-002 7.628720e-001 -7.197336e+000 79 77 62
-5.633173e-003 6.964110e-001 -7.115798e+000 196 186 158
-1.391752e-001 6.195752e-001 -6.975611e+000 83 78 64
-1.397518e-001 6.198033e-001 -6.981198e+000 83 78 64
6.048080e-002 5.972202e-001 -7.030241e+000 91 77 58
6.048080e-002 5.972202e-001 -7.030241e+000 91 77 58
8.183396e-001 6.420447e-001 -7.432706e+000 163 149 98
1.168700e+000 7.274544e-001 -7.697912e+000 154 162 140
1.069591e+000 5.959137e-001 -7.509582e+000 102 114 75
5.549747e-002 3.962961e-001 -6.787924e+000 173 158 118
5.539461e-002 3.963745e-001 -6.792103e+000 173 158 118
5.685841e-001 4.000974e-001 -7.022230e+000 170 162 90
5.991619e-001 4.718194e-001 -7.113547e+000 143 99 70
5.991619e-001 4.718194e-001 -7.113547e+000 143 99 70
1.848376e-001 3.159749e-001 -6.751031e+000 72 77 62
4.579739e-001 3.023599e-001 -6.856605e+000 139 103 64
4.579739e-001 3.023599e-001 -6.856605e+000 139 103 64
4.895737e-001 2.411277e-001 -6.798253e+000 131 100 53
5.985776e-001 3.846691e-001 -7.021269e+000 180 163 102
6.774384e-001 2.940496e-001 -6.943236e+000 175 166 106
6.654483e-001 2.689395e-001 -6.909539e+000 139 94 64
1.610322e+000 3.541764e-001 -7.472221e+000 106 120 94
1.660869e+000 2.787212e-001 -7.405117e+000 105 119 93
1.965445e-001 1.381079e-001 -6.552340e+000 177 162 108
1.965445e-001 1.381079e-001 -6.552340e+000 177 162 108
4.493564e-001 1.773703e-001 -6.714122e+000 180 161 102
5.073065e-001 1.613158e-001 -6.706903e+000 181 169 106
5.343633e-001 1.618578e-001 -6.730234e+000 126 82 51
7.555065e-001 1.706926e-001 -6.842749e+000 145 84 70
7.555065e-001 1.706926e-001 -6.842749e+000 145 84 70
1.695300e+000 2.655920e-001 -7.403416e+000 159 173 148
4.418094e-001 4.984179e-002 -6.562594e+000 144 95 75
1.716593e+000 6.365540e-002 -7.180350e+000 174 182 169
1.808014e+000 -2.656005e-001 -7.256416e+000 56 57 40
1.039364e+000 -3.450875e-001 -6.865184e+000 93 94 66
9.591700e-001 -5.945263e-001 -7.064136e+000 108 103 71
1.004554e+000 -4.617972e-001 -6.968443e+000 99 97 66
1.004554e+000 -4.617972e-001 -6.968443e+000 99 97 66
1.234414e+000 -6.048970e-001 -7.224291e+000 87 88 65
-1.170314e+000 -5.887793e-001 -5.821395e+000 74 66 57
-7.789895e-002 -5.747260e-001 -6.485270e+000 127 112 77
-7.789895e-002 -5.747260e-001 -6.485270e+000 127 112 77
3.429873e-001 -7.319341e-001 -6.876862e+000 136 118 80
9.786028e-001 -7.181662e-001 -7.160833e+000 114 106 73
1.053616e+000 -6.391140e-001 -7.161024e+000 66 62 34
-1.252912e+000 -7.367304e-001 -5.905380e+000 76 67 60
-9.951320e-002 -8.040761e-001 -6.672363e+000 139 122 92
1.148595e+000 -8.770582e-001 -7.490772e+000 94 91 64
-4.372102e-001 -9.533376e-001 -6.657228e+000 140 124 99
-3.685914e-001 -9.129246e-001 -6.622257e+000 136 120 97
-2.165184e-001 -9.573331e-001 -6.771199e+000 135 118 90
-2.165184e-001 -9.573331e-001 -6.771199e+000 135 118 90
9.790499e-002 -1.003202e+000 -6.977578e+000 138 122 86
9.790499e-002 -1.003202e+000 -6.977578e+000 138 122 86
6.128636e-001 -1.076332e+000 -7.352462e+000 78 66 40
1.204634e+000 -1.008363e+000 -7.649565e+000 65 63 38
-2.168805e-001 -1.121184e+000 -6.924942e+000 131 115 81
6.374136e-002 -1.103758e+000 -7.103098e+000 137 121 89
4.334367e-002 -1.150429e+000 -7.122252e+000 126 112 77
2.014527e-001 -1.194051e+000 -7.236164e+000 87 71 46
2.014527e-001 -1.194051e+000 -7.236164e+000 87 71 46
6.279353e-001 -1.217623e+000 -7.538400e+000 79 65 38
6.279353e-001 -1.217623e+000 -7.538400e+000 79 65 38
-6.374062e-001 -1.267400e+000 -6.830658e+000 57 47 38
-5.233400e-001 -1.259133e+000 -6.909088e+000 82 67 44
-4.894703e-003 -1.277023e+000 -7.249009e+000 115 101 72
1.566040e-001 -1.311769e+000 -7.346252e+000 92 76 51
1.952905e-001 -1.364949e+000 -7.416460e+000 88 72 46
1.952905e-001 -1.364949e+000 -7.416460e+000 88 72 46
5.335271e-001 -1.274915e+000 -7.515905e+000 88 74 50
5.017232e-001 -1.352929e+000 -7.554508e+000 95 81 54
8.892654e-001 -1.421931e+000 -7.889490e+000 74 65 42
-1.292468e+000 -1.604764e+000 -6.847592e+000 114 98 72
2.289061e+000 -1.701900e+000 -6.838267e+000 187 180 172
-2.272468e+000 1.963845e+000 -7.513457e+000 180 174 137
-1.587457e+000 2.260569e+000 -8.296418e+000 241 216 207
-1.578344e+000 2.224345e+000 -8.311968e+000 162 150 104
-2.259383e+000 1.863649e+000 -7.411330e+000 138 139 102
-2.197116e+000 1.837662e+000 -7.399137e+000 187 178 135
-1.950894e+000 1.941005e+000 -7.588924e+000 180 177 145
-1.958500e+000 1.949634e+000 -7.627899e+000 180 177 145
-7.561819e-001 2.199750e+000 -8.644761e+000 188 170 134
2.691430e-002 2.216925e+000 -9.046909e+000 166 133 122
-1.220717e+000 1.492226e+000 -7.331109e+000 194 189 186
-1.220657e+000 1.492413e+000 -7.331292e+000 194 189 186
2.170643e-001 1.851337e+000 -8.543219e+000 144 103 83
2.174765e-001 1.871633e+000 -8.659309e+000 144 103 83
6.647666e-001 1.842731e+000 -8.808226e+000 83 81 79
-1.230624e+000 1.301729e+000 -7.089617e+000 146 67 73
-1.227093e+000 1.156735e+000 -6.919183e+000 208 193 201
6.860538e-001 1.357744e+000 -8.239317e+000 165 155 119
6.518332e-001 1.314139e+000 -8.159769e+000 161 153 117
9.218085e-001 1.334064e+000 -8.337269e+000 139 138 127
9.993318e-001 1.331925e+000 -8.359635e+000 151 134 92
-1.002971e+000 1.046281e+000 -6.871424e+000 160 66 68
-1.004860e+000 1.047031e+000 -6.879279e+000 160 66 68
-1.098752e+000 9.571950e-001 -6.728634e+000 159 72 72
-1.057815e+000 9.348915e-001 -6.729183e+000 200 190 186
6.346846e-001 1.270300e+000 -8.102676e+000 102 96 84
6.415254e-001 1.118301e+000 -7.928085e+000 171 170 137
-6.523449e-001 7.870160e-001 -6.718834e+000 206 183 128
8.634237e-001 9.733193e-001 -7.861851e+000 88 82 81
1.165843e+000 1.087929e+000 -8.151580e+000 155 162 151
-8.452461e-002 6.981108e-001 -7.080320e+000 82 85 71
-6.628314e-002 7.301772e-001 -7.134045e+000 190 179 156
-6.628314e-002 7.301772e-001 -7.134045e+000 190 179 156
4.836419e-002 6.275833e-001 -7.045486e+000 196 186 156
4.836419e-002 6.275833e-001 -7.045486e+000 196 186 156
5.006836e-001 5.537508e-001 -7.181382e+000 188 163 105
8.592597e-001 6.776755e-001 -7.494948e+000 179 175 145
1.016037e+000 5.704896e-001 -7.408206e+000 148 149 91
1.377631e-002 5.034912e-001 -6.900101e+000 193 181 144
1.279619e-001 4.235530e-001 -6.872661e+000 80 71 54
1.161175e-001 3.925524e-001 -6.828201e+000 177 163 125
1.161175e-001 3.925524e-001 -6.828201e+000 177 163 125
2.716232e-001 5.312848e-001 -7.049481e+000 189 172 118
2.673457e-001 4.945246e-001 -7.021571e+000 146 97 69
5.189615e-001 4.570662e-001 -7.073645e+000 148 101 74
9.428377e-001 4.242637e-001 -7.255940e+000 186 179 151
1.501336e+000 4.605787e-001 -7.540396e+000 155 170 146
1.027754e-001 2.339261e-001 -6.620567e+000 177 162 116
1.467654e-001 3.316795e-001 -6.752229e+000 185 171 123
1.762658e-001 2.790500e-001 -6.694350e+000 181 168 126
3.805351e-001 3.312413e-001 -6.854517e+000 191 170 117
3.805351e-001 3.312413e-001 -6.854517e+000 191 170 117
5.704575e-001 3.670754e-001 -6.999578e+000 139 96 68
5.704575e-001 3.670754e-001 -6.999578e+000 139 96 68
1.669726e+000 3.133778e-001 -7.434056e+000 145 159 134
-2.493809e+000 1.755152e-001 -7.687257e+000 183 78 92
2.630389e-001 1.676087e-001 -6.613354e+000 72 81 71
4.050188e-001 2.355612e-001 -6.763116e+000 149 100 72
4.797149e-001 2.146799e-001 -6.773970e+000 177 170 102
4.796204e-001 2.147730e-001 -6.763337e+000 177 170 102
7.318478e-001 2.185393e-001 -6.903110e+000 145 95 70
3.860450e-001 5.790220e-002 -6.531503e+000 72 76 68
3.859946e-001 5.805491e-002 -6.526292e+000 72 76 68
4.151269e-001 7.004946e-002 -6.581163e+000 177 163 96
8.035173e-001 6.661326e-002 -6.747049e+000 141 99 66
-1.769503e-001 -2.724064e-001 -6.137650e+000 72 63 34
5.576691e-001 -2.641449e-001 -6.545826e+000 107 102 59
7.522766e-001 -2.553200e-001 -6.628474e+000 105 101 63
9.112022e-001 -1.925622e-001 -6.657158e+000 65 65 39
9.113927e-001 -1.931619e-001 -6.665639e+000 65 65 39
9.554063e-001 -2.912497e-001 -6.780676e+000 63 62 39
9.861583e-001 -1.925374e-001 -6.722633e+000 64 64 40
9.666268e-001 -2.453673e-001 -6.735768e+000 65 65 39
1.083537e+000 -3.128034e-001 -6.861103e+000 65 64 44
1.272157e+000 -3.024255e-001 -7.002179e+000 86 89 64
1.442680e+000 -3.158504e-001 -7.107369e+000 58 61 41
-1.937094e-001 -3.103902e-001 -6.148976e+000 73 62 40
4.090853e-001 -4.327500e-001 -6.606577e+000 87 77 49
8.966587e-001 -3.632580e-001 -6.816921e+000 99 96 63
8.492019e-001 -4.177295e-001 -6.839720e+000 64 60 31
9.464059e-001 -3.985234e-001 -6.840016e+000 95 95 61
9.739268e-001 -4.318956e-001 -6.897024e+000 64 59 34
9.822942e-001 -3.165828e-001 -6.829983e+000 96 95 64
1.013448e+000 -4.158465e-001 -6.905367e+000 96 97 64
1.013448e+000 -4.158465e-001 -6.905367e+000 96 97 64
1.154678e+000 -3.563206e-001 -7.018248e+000 58 59 40
1.211834e+000 -3.896712e-001 -7.072289e+000 63 61 41
1.430230e+000 -4.392890e-001 -7.195454e+000 83 85 63
-8.797982e-001 -5.033588e-001 -5.915936e+000 72 69 60
-8.365590e-001 -5.249874e-001 -5.953050e+000 73 68 57
-5.409468e-003 -4.391994e-001 -6.374595e+000 82 67 35
-1.018170e-001 -5.537905e-001 -6.426850e+000 85 69 42
1.974979e-002 -4.614854e-001 -6.446252e+000 120 106 69
1.974979e-002 -4.614854e-001 -6.446252e+000 120 106 69
8.212057e-001 -6.043711e-001 -7.022281e+000 117 108 63
8.510950e-001 -6.010561e-001 -7.010599e+000 76 65 51
8.580428e-001 -4.934345e-001 -6.944016e+000 109 106 65
9.684152e-001 -4.654464e-001 -6.942716e+000 68 66 41
1.026221e+000 -6.144299e-001 -7.141367e+000 98 98 64
1.137293e+000 -5.879169e-001 -7.166740e+000 62 61 40
-1.087830e+000 -5.500506e-001 -5.829464e+000 76 69 63
-1.106241e+000 -6.173825e-001 -5.881109e+000 133 116 106
-1.061545e+000 -6.012094e-001 -5.901982e+000 135 118 111
-9.622385e-001 -5.471767e-001 -5.893605e+000 112 105 94
-2.282057e-001 -6.897626e-001 -6.483828e+000 80 66 37
-9.833077e-002 -6.314310e-001 -6.503035e+000 134 119 79
1.685582e-001 -7.117083e-001 -6.725049e+000 99 85 64
2.069713e-001 -7.059043e-001 -6.763132e+000 137 119 86
2.069713e-001 -7.059043e-001 -6.763132e+000 137 119 86
2.326462e-001 -7.271055e-001 -6.795131e+000 85 70 47
3.613701e-001 -6.826675e-001 -6.845174e+000 136 117 75
3.759371e-001 -7.236675e-001 -6.862423e+000 81 65 37
8.551233e-001 -6.821450e-001 -7.066586e+000 116 104 68
8.170810e-001 -6.957753e-001 -7.085142e+000 92 81 53
8.170810e-001 -6.957753e-001 -7.085142e+000 92 81 53
9.029569e-001 -6.702298e-001 -7.120359e+000 76 66 38
9.658211e-001 -6.698766e-001 -7.139196e+000 78 72 45
-1.311477e+000 -6.633571e-001 -5.817349e+000 68 61 51
-1.239839e+000 -6.633624e-001 -5.854370e+000 109 105 93
-1.169514e+000 -7.621815e-001 -6.008159e+000 74 63 60
-9.633224e-001 -7.548248e-001 -6.095839e+000 73 64 57
-9.633224e-001 -7.548248e-001 -6.095839e+000 73 64 57
-8.915291e-001 -7.963822e-001 -6.154149e+000 111 102 93
-3.445580e-001 -7.672209e-001 -6.504334e+000 84 68 45
-2.492534e-001 -7.539404e-001 -6.544043e+000 90 74 48
-1.457017e-001 -7.698339e-001 -6.642525e+000 141 122 92
-2.043631e-001 -8.483991e-001 -6.669975e+000 103 85 63
-9.341056e-002 -7.752761e-001 -6.597401e+000 134 118 84
-7.367311e-002 -8.123704e-001 -6.726833e+000 85 69 44
-4.617940e-002 -8.343496e-001 -6.753142e+000 139 123 94
-4.617940e-002 -8.343496e-001 -6.753142e+000 139 123 94
1.137836e-001 -8.746850e-001 -6.871302e+000 87 72 50
7.075332e-001 -9.016744e-001 -7.214807e+000 122 111 65
8.103699e-001 -8.082716e-001 -7.171214e+000 117 108 69
8.103699e-001 -8.082716e-001 -7.171214e+000 117 108 69
8.792669e-001 -9.118733e-001 -7.327309e+000 74 64 37
1.050187e+000 -8.070275e-001 -7.299545e+000 75 68 43
1.050187e+000 -8.070275e-001 -7.299545e+000 75 68 43
1.180735e+000 -8.609978e-001 -7.458529e+000 64 62 41
-9.788466e-001 -9.493077e-001 -6.262394e+000 70 67 56
-5.673644e-001 -9.533326e-001 -6.577283e+000 71 52 45
-4.942123e-001 -8.833136e-001 -6.501371e+000 58 44 36
-3.327967e-001 -9.853116e-001 -6.724902e+000 84 69 47
-2.362702e-001 -1.010062e+000 -6.810825e+000 135 120 89
-5.558151e-002 -9.477344e-001 -6.872355e+000 93 78 52
-8.903336e-002 -1.026198e+000 -6.890805e+000 100 84 61
9.138371e-002 -9.274356e-001 -6.902622e+000 90 76 49
2.101043e-001 -1.004577e+000 -7.052336e+000 83 67 45
4.371317e-001 -9.690463e-001 -7.150160e+000 81 64 40
7.139253e-001 -9.816474e-001 -7.303832e+000 86 74 42
6.764670e-001 -1.078577e+000 -7.385270e+000 83 66 44
-1.043464e+000 -9.734459e-001 -6.253061e+000 71 67 61
-1.040442e+000 -9.702300e-001 -6.234965e+000 71 67 61
-5.413937e-001 -1.007098e+000 -6.623439e+000 55 45 37
-4.767960e-001 -1.059157e+000 -6.731481e+000 134 118 94
-2.923003e-001 -1.089192e+000 -6.878127e+000 94 79 58
-3.780012e-001 -1.101774e+000 -6.820049e+000 90 74 55
-3.226093e-001 -1.166369e+000 -6.962812e+000 97 81 57
-3.211952e-001 -1.163352e+000 -6.947026e+000 97 81 57
-2.326031e-001 -1.090541e+000 -6.899403e+000 98 83 57
-2.095150e-001 -1.181313e+000 -7.000752e+000 89 74 44
-1.210467e-001 -1.029603e+000 -6.883518e+000 136 122 90
4.366115e-002 -1.064328e+000 -7.001455e+000 92 77 53
2.880217e-001 -1.130152e+000 -7.214840e+000 89 74 49
2.880217e-001 -1.130152e+000 -7.214840e+000 89 74 49
2.723406e-001 -1.172688e+000 -7.271755e+000 93 77 51
2.331485e-001 -1.182773e+000 -7.233916e+000 130 116 81
-5.681234e-001 -1.222213e+000 -6.845581e+000 93 77 58
-4.066274e-001 -1.184355e+000 -6.870367e+000 84 69 48
-1.584363e-001 -1.361733e+000 -7.198963e+000 97 82 55
-2.795888e-002 -1.250091e+000 -7.186269e+000 88 78 50
2.785490e-002 -1.257911e+000 -7.191481e+000 89 77 54
8.446191e-003 -1.312998e+000 -7.277378e+000 87 73 46
-9.661616e-001 -1.322007e+000 -6.701148e+000 123 107 82
-1.025599e+000 -1.385417e+000 -6.745460e+000 90 75 49
-6.294099e-001 -1.453856e+000 -7.068333e+000 127 113 86
-2.169274e-001 -1.512740e+000 -7.349396e+000 93 77 51
-1.074368e+000 -1.588131e+000 -6.919983e+000 112 99 71
-9.535117e-001 -1.527559e+000 -6.959857e+000 73 60 41
-7.308634e-001 -1.641824e+000 -7.209338e+000 94 80 59
-7.308634e-001 -1.641824e+000 -7.209338e+000 94 80 59
-5.433786e-001 -1.528757e+000 -7.182058e+000 93 79 53
-4.150182e-001 -1.548020e+000 -7.274417e+000 97 82 55
-1.498614e+000 -1.622235e+000 -6.712062e+000 121 108 72
-1.462893e+000 -1.697564e+000 -6.852044e+000 109 98 70
-1.331439e+000 -1.690703e+000 -6.899970e+000 111 96 68
-1.015085e+000 -1.615614e+000 -6.983963e+000 108 97 71
-9.576176e-001 -1.649838e+000 -7.076188e+000 117 106 76
2.266507e+000 -1.674236e+000 -6.877938e+000 188 181 174
-2.114456e+000 2.092244e+000 -7.753093e+000 105 114 85
-2.156405e+000 1.907318e+000 -7.490775e+000 185 177 141
-2.802699e-001 2.027776e+000 -8.621363e+000 136 94 80
1.081587e-001 1.959713e+000 -8.689792e+000 171 135 93
-1.202639e+000 1.621105e+000 -7.476670e+000 205 185 133
-2.792162e-001 1.808448e+000 -8.328704e+000 185 152 94
-1.243610e-001 1.640497e+000 -8.202250e+000 193 184 172
-1.243610e-001 1.640497e+000 -8.202250e+000 193 184 172
-1.146169e+000 1.296435e+000 -7.113506e+000 151 64 70
2.943310e-001 1.597630e+000 -8.340343e+000 184 177 143
-1.166654e+000 1.204309e+000 -6.994184e+000 153 71 68
-1.107908e+000 1.209391e+000 -7.017267e+000 150 71 75
1.008991e+000 1.457738e+000 -8.521450e+000 80 91 75
9.814472e-001 1.395608e+000 -8.428792e+000 168 146 105
-1.122504e+000 9.296342e-001 -6.696951e+000 199 186 183
-1.122504e+000 9.296342e-001 -6.696951e+000 199 186 183
-1.087119e+000 1.003052e+000 -6.792946e+000 201 185 183
-1.087930e+000 1.002773e+000 -6.791582e+000 201 185 183
-9.627526e-001 1.015341e+000 -6.850610e+000 202 192 190
-8.876580e-001 1.016999e+000 -6.891484e+000 198 199 192
-8.862780e-001 8.872037e-001 -6.747491e+000 198 192 191
-1.604853e-001 8.560571e-001 -7.255459e+000 88 82 69
-7.945370e-002 8.138064e-001 -7.230187e+000 87 86 66
1.168315e+000 7.732656e-001 -7.754126e+000 72 80 67
-7.040662e-002 6.589868e-001 -7.056200e+000 199 188 166
-7.040662e-002 6.589868e-001 -7.056200e+000 199 188 166
1.075665e-001 5.495069e-001 -6.978777e+000 95 82 65
1.109046e+000 7.111345e-001 -7.632664e+000 85 98 66
1.109536e+000 6.104775e-001 -7.526882e+000 168 174 140
-6.064770e-004 4.660627e-001 -6.850845e+000 71 93 73
2.496345e-002 4.025789e-001 -6.792247e+000 75 84 75
9.366616e-002 3.630728e-001 -6.749150e+000 73 86 69
3.779615e-001 2.918800e-001 -6.826341e+000 140 94 61
1.464608e+000 3.801217e-001 -7.399611e+000 119 133 80
-2.520553e+000 2.458089e-001 -7.683481e+000 189 82 94
-2.520553e+000 2.458089e-001 -7.683481e+000 189 82 94
2.963006e-001 1.122581e-001 -6.566890e+000 66 80 65
6.722206e-001 1.956069e-001 -6.829248e+000 180 165 109
5.748702e-001 6.204244e-002 -6.628214e+000 143 97 64
5.748702e-001 6.204244e-002 -6.628214e+000 143 97 64
1.340592e+000 9.695822e-002 -7.013867e+000 169 150 94
1.838993e+000 -1.527296e-001 -7.159036e+000 58 63 43
8.028083e-001 -3.158072e-001 -6.717668e+000 106 102 65
2.566693e-001 -4.689691e-001 -6.555901e+000 81 65 46
2.423780e-001 -5.070699e-001 -6.567785e+000 89 72 51
2.266478e-001 -5.506634e-001 -6.596460e+000 79 64 43
3.693365e-001 -5.587859e-001 -6.709169e+000 80 69 41
-9.035353e-001 -6.334745e-001 -6.010395e+000 130 115 104
-4.210771e-001 -6.684754e-001 -6.370586e+000 57 45 38
2.119177e-001 -6.018144e-001 -6.658862e+000 75 64 36
-3.591111e-001 -8.210049e-001 -6.551337e+000 86 69 50
-1.084281e-001 -7.378856e-001 -6.604511e+000 82 65 40
-1.084281e-001 -7.378856e-001 -6.604511e+000 82 65 40
1.824634e-002 -7.418923e-001 -6.705364e+000 81 68 42
1.520093e-001 -7.680247e-001 -6.786148e+000 78 66 41
3.579832e-001 -7.754096e-001 -6.907038e+000 86 73 46
-8.724576e-001 -8.945339e-001 -6.268608e+000 73 66 62
-3.768228e-001 -8.709769e-001 -6.593493e+000 89 75 58
4.238507e-001 -1.266987e+000 -7.434482e+000 132 118 85
-7.477355e-001 -1.294661e+000 -6.781807e+000 135 116 83
-8.252011e-001 -1.389716e+000 -6.851270e+000 96 81 57
-1.309664e+000 -1.411618e+000 -6.540155e+000 79 63 47
-1.297178e+000 -1.462181e+000 -6.638479e+000 115 100 71
-9.168817e-001 -1.605971e+000 -7.050744e+000 75 63 41
-1.557194e+000 -1.671557e+000 -6.736200e+000 87 70 53
-7.702345e-001 -1.753324e+000 -7.326681e+000 100 89 64
-2.314408e+000 2.106435e+000 -7.682640e+000 153 153 115
-1.824593e+000 2.025136e+000 -7.727424e+000 196 177 133
-1.578111e+000 2.274755e+000 -8.319739e+000 243 215 207
-2.138585e+000 1.809369e+000 -7.361304e+000 132 128 87
-2.138585e+000 1.809369e+000 -7.361304e+000 132 128 87
-2.101718e+000 1.890261e+000 -7.479946e+000 154 150 113
-1.835163e+000 1.938584e+000 -7.617456e+000 93 118 90
-1.355299e+000 1.468796e+000 -7.257632e+000 202 188 188
-1.355299e+000 1.468796e+000 -7.257632e+000 202 188 188
1.863693e-001 1.690034e+000 -8.420041e+000 182 166 123
-1.274121e+000 1.313310e+000 -7.115419e+000 200 188 187
7.993029e-001 1.656516e+000 -8.681912e+000 163 132 84
-1.246165e+000 1.219876e+000 -6.994246e+000 167 78 82
9.423928e-001 1.458477e+000 -8.475459e+000 165 150 100
8.703916e-001 1.114818e+000 -8.023072e+000 169 162 148
-1.037047e+000 8.102115e-001 -6.591752e+000 202 189 191
1.155915e+000 9.714784e-001 -7.979601e+000 103 103 94
1.057006e+000 7.845397e-001 -7.715511e+000 153 157 135
-2.225185e+001 4.652680e+000 -5.213418e+001 243 49 89
8.935413e-003 6.447832e-001 -7.072694e+000 75 87 72
9.178790e-001 6.703095e-001 -7.519006e+000 178 173 144
-3.030636e-002 5.221059e-001 -6.920188e+000 74 89 71
-3.030636e-002 5.221059e-001 -6.920188e+000 74 89 71
1.796006e-001 2.055553e-001 -6.618243e+000 185 169 113
1.810681e-001 2.057783e-001 -6.612315e+000 185 169 113
2.620502e-001 7.866028e-002 -6.508055e+000 177 166 103
2.609281e-001 7.843500e-002 -6.511302e+000 177 166 103
5.179542e-001 9.364277e-002 -6.642271e+000 174 164 96
5.165119e-001 9.347788e-002 -6.641665e+000 174 164 96
3.263039e-001 -3.055330e-001 -6.415221e+000 68 56 29
-2.322952e+001 -3.804868e+000 -4.197903e+001 216 210 254
-7.755983e-001 -5.699563e-001 -6.023840e+000 68 67 55
-7.733526e-001 -5.689260e-001 -6.016841e+000 68 67 55
-2.658506e-001 -5.853237e-001 -6.375973e+000 128 111 69
1.817403e-001 -9.562527e-001 -6.978011e+000 82 68 34
9.256657e-002 -1.208974e+000 -7.239819e+000 85 72 40
1.388424e+000 -1.671191e+000 -8.458173e+000 83 65 50
-1.619948e+000 -1.641879e+000 -6.718867e+000 91 77 50
-1.503682e+001 -1.137291e+001 -3.717659e+001 74 47 105
-2.238077e+000 2.103654e+000 -7.677228e+000 181 173 137
-1.650395e+000 2.274216e+000 -8.252821e+000 179 166 113
1.952075e-001 2.075338e+000 -8.927434e+000 176 147 116
1.952075e-001 2.075338e+000 -8.927434e+000 176 147 116
7.977166e-001 1.564010e+000 -8.555556e+000 87 90 75
-9.474725e-001 8.790238e-001 -6.706224e+000 166 72 73
-9.474725e-001 8.790238e-001 -6.706224e+000 166 72 73
1.037822e+000 6.218513e-001 -7.497496e+000 83 96 68
1.212848e+000 5.384688e-001 -7.480922e+000 99 115 76
4.327716e-001 1.004582e-001 -6.607584e+000 175 166 95
-2.485988e+001 -2.710750e+000 -4.354314e+001 76 51 115
-2.433350e+001 -2.940283e+000 -4.305418e+001 194 183 239
-2.064897e+001 -3.238165e+000 -4.652051e+001 82 60 132
-2.344174e+001 -4.282336e+000 -4.007631e+001 107 69 122
7.796461e-002 -7.429362e-001 -6.756728e+000 136 116 74
7.796461e-002 -7.429362e-001 -6.756728e+000 136 116 74
1.248712e+000 -1.648152e+000 -8.370509e+000 69 62 44
-1.978561e+001 -7.985658e+000 -3.799640e+001 225 43 84
-1.438349e+001 -8.049191e+000 -3.923480e+001 222 49 82
-7.365187e-001 2.081295e+000 -8.480196e+000 183 166 142
5.471857e-001 1.561290e+000 -8.430222e+000 170 148 101
-8.646526e-001 8.348560e-001 -6.666539e+000 202 185 185
-8.646526e-001 8.348560e-001 -6.666539e+000 202 185 185
-6.749563e-001 7.880672e-001 -6.680585e+000 204 178 118
8.977051e-001 7.445790e-001 -7.589312e+000 142 148 89
3.096914e-001 4.709290e-001 -7.014807e+000 148 109 72
1.372643e+000 3.474986e-001 -7.399623e+000 176 169 148
1.577585e+000 3.916962e-001 -7.499141e+000 129 143 117
-2.663202e+001 -8.834589e-001 -4.632841e+001 233 68 122
-2.524348e+001 -1.737847e+000 -4.445013e+001 74 52 114
-8.237361e-001 -7.129726e-001 -6.116121e+000 76 69 61
-6.731330e-001 -7.930526e-001 -6.276609e+000 108 96 74
-1.714262e+001 -6.494124e+000 -4.330920e+001 59 34 64
-1.596503e+001 -5.683105e+000 -4.124455e+001 226 44 85
-1.546351e+001 -6.149243e+000 -4.208698e+001 174 54 73
-1.892387e+001 -6.793478e+000 -4.183938e+001 197 26 70
-1.772764e+001 -6.920688e+000 -4.008737e+001 62 40 96
-1.615578e+001 -6.542471e+000 -4.164227e+001 205 35 66
-1.758061e+001 -7.654432e+000 -3.941041e+001 71 51 115
-1.546071e+001 -7.656185e+000 -4.023335e+001 226 42 76
-1.445020e+001 -8.466290e+000 -3.912706e+001 208 34 64
-1.764648e+000 -1.793755e+000 -6.842822e+000 76 63 44
-1.198603e+000 1.547561e+000 -7.514902e+000 131 72 74
3.444168e-001 6.371641e-001 -7.231748e+000 187 167 114
1.734994e-001 4.854736e-001 -6.908699e+000 191 173 133
5.608708e-001 4.603572e-001 -7.071635e+000 145 101 72
1.633584e+000 2.962662e-001 -7.451365e+000 140 155 132
-2.439145e+001 1.280689e+000 -5.030269e+001 210 25 67
-2.511952e+001 -1.756720e+000 -4.336641e+001 253 201 233
-2.468524e+001 -1.140782e+000 -4.466419e+001 90 70 155
-4.438338e-001 -9.153414e-001 -6.563673e+000 103 89 63
-1.698128e+001 -8.356634e+000 -3.757191e+001 66 45 107
-1.736822e+001 -9.133403e+000 -3.737251e+001 206 31 70
-1.661052e+001 -1.097864e+001 -3.639922e+001 49 35 69
-1.933005e+000 1.999625e+000 -7.738568e+000 94 119 90
-1.459682e+000 1.516571e+000 -7.322338e+000 135 71 66
-1.261040e+000 1.387820e+000 -7.196110e+000 176 136 141
-8.175393e-001 9.397352e-001 -6.810150e+000 160 68 69
-7.748090e-001 7.709649e-001 -6.623783e+000 157 66 67
-1.445343e-001 8.249833e-001 -7.286019e+000 84 81 62
-1.445343e-001 8.249833e-001 -7.286019e+000 84 81 62
-4.690661e-001 6.406928e-001 -6.858749e+000 193 183 181
9.237509e-001 4.734535e-001 -7.238161e+000 172 157 108
2.359291e-001 3.754273e-001 -6.780361e+000 188 173 126
2.976234e-001 2.321362e-001 -6.648382e+000 184 169 108
-2.089055e-001 -9.641694e-002 -6.077504e+000 165 151 86
-2.278565e+001 -3.966404e+000 -4.140523e+001 173 163 216
-1.876162e+001 -5.788353e+000 -4.124876e+001 201 27 62
-1.807568e+001 -7.219968e+000 -3.959216e+001 242 50 95
-1.778788e+001 -8.165645e+000 -3.837067e+001 250 56 101
7.221892e-001 1.219312e+000 -8.065917e+000 114 108 100
1.089225e-001 -2.101805e-001 -6.241170e+000 76 64 22
-1.694429e+001 -7.726799e+000 -4.073933e+001 67 54 124
-1.528089e+001 -8.048292e+000 -3.850133e+001 58 36 74
-9.240007e-001 1.181036e+000 -6.990247e+000 156 70 71
6.232282e-001 9.779735e-001 -7.692125e+000 177 171 135
-2.632793e+001 2.384802e+000 -4.774219e+001 73 53 112
-2.624444e+001 -9.172034e-002 -4.612665e+001 62 37 67
-2.152642e+001 -3.730482e+000 -4.275124e+001 255 62 110
8.789104e-001 4.683260e-003 -6.663156e+000 146 148 83
6.227289e-001 -5.025642e-001 -6.761558e+000 129 111 63
-2.434689e+001 -2.469920e+000 -4.441417e+001 69 47 109
1.386830e+000 1.684246e+000 -8.778886e+000 193 197 185
1.137701e+000 1.705855e-001 -7.131056e+000 169 156 115
-2.006925e+001 -3.293275e+000 -4.197471e+001 251 53 99
-9.597702e-001 4.729560e-001 -6.442402e+000 194 179 137
-2.222025e+000 1.878914e+000 -7.418568e+000 183 176 139
-7.568413e-002 8.554742e-001 -7.279078e+000 195 186 169
1.472321e+000 1.118876e+000 -8.245089e+000 82 78 74
5.158289e-001 2.234591e-001 -6.789777e+000 178 165 97
5.567948e-001 1.131007e-001 -6.686225e+000 128 92 53
5.567948e-001 1.131007e-001 -6.686225e+000 128 92 53
-1.227727e+000 -1.855569e-001 -5.429418e+000 90 87 49
1.317346e+000 -3.488356e-001 -7.026842e+000 88 90 67
1.849669e+000 -8.095677e-001 -7.734871e+000 114 104 95
-1.307918e+000 1.448813e+000 -7.241103e+000 131 69 69
1.630135e+000 1.647255e+000 -7.881155e+000 194 195 182
-1.731663e+000 1.325611e+000 -6.984665e+000 211 186 130
1.558814e+000 1.442336e+000 -8.032999e+000 185 186 178
3.220728e-001 1.370952e+000 -8.081635e+000 165 156 111
7.424865e-001 1.368859e+000 -8.247644e+000 111 105 97
-1.058249e+000 9.352528e-001 -6.728704e+000 200 190 186
1.135583e+000 8.234342e-001 -7.788872e+000 116 114 110
8.016957e-001 5.446491e-001 -7.306566e+000 171 170 118
1.502177e+000 4.599299e-001 -7.541281e+000 155 170 146
3.841058e-001 -5.173637e-001 -6.681551e+000 74 61 32
3.841058e-001 -5.173637e-001 -6.681551e+000 74 61 32
2.783268e-001 -9.118352e-001 -7.007870e+000 130 113 77
-1.159947e+000 2.237770e+000 -8.509816e+000 191 166 109
-1.309481e+000 1.403651e+000 -7.186271e+000 201 187 186
-1.120196e+000 7.118361e-001 -6.455493e+000 198 171 100
-2.478985e+001 -2.360419e+000 -4.302411e+001 206 56 104
-3.136113e-001 -6.854343e-001 -6.448044e+000 75 61 36
-9.161006e-002 -2.588299e-001 -6.181025e+000 113 100 55
-8.776852e-001 -1.510573e+000 -6.975048e+000 75 63 47
-2.346826e+001 5.828833e-001 -4.704530e+001 251 55 96
-2.204730e+001 2.679695e-001 -4.718146e+001 236 43 83
-1.610181e+000 -6.621314e-001 -6.067324e+000 168 133 103
-3.517664e-001 -6.150674e-001 -6.343416e+000 123 105 66
-5.484862e-001 -9.731387e-001 -6.578054e+000 74 65 54
5.529327e-001 2.407089e-001 -6.725884e+000 168 167 98
5.529327e-001 2.407089e-001 -6.725884e+000 168 167 98
-1.815203e+001 -1.246174e+000 -4.741953e+001 250 200 179
3.149849e-001 -4.562291e-001 -6.557064e+000 130 114 63
-1.237560e+000 1.029935e+000 -6.807066e+000 177 71 76
-1.972743e+001 -4.635202e+000 -4.056717e+001 167 24 54
-1.801390e+001 -3.249629e+000 -4.397533e+001 64 37 89
-3.362276e-001 3.029273e+000 -1.156877e+001 159 148 142
-2.525700e+000 2.128929e+000 -7.696030e+000 186 191 144
-2.139683e+000 1.868845e+000 -7.472289e+000 180 177 139
-1.168786e-001 2.192113e+000 -8.913169e+000 148 161 131
6.332947e-001 2.331102e+000 -9.471617e+000 115 114 100
-3.624099e-001 1.937201e+000 -8.512766e+000 143 87 68
-4.163972e-001 1.753386e+000 -8.276914e+000 193 158 116
-3.837926e-001 1.760507e+000 -8.258482e+000 159 116 74
-3.630983e-001 1.729599e+000 -8.216796e+000 193 168 119
5.412907e-001 1.899593e+000 -8.840781e+000 153 119 81
5.412907e-001 1.899593e+000 -8.840781e+000 153 119 81
-1.312426e+000 1.449801e+000 -7.240516e+000 128 63 64
3.855259e-002 1.629280e+000 -8.239317e+000 191 175 141
6.566923e-001 1.730065e+000 -8.708120e+000 188 177 136
-1.213739e+000 1.200177e+000 -6.987501e+000 200 193 192
-1.213739e+000 1.200177e+000 -6.987501e+000 200 193 192
-1.083766e+000 1.246515e+000 -7.097158e+000 152 61 65
8.126863e-001 1.361709e+000 -8.299677e+000 149 145 133
8.295413e-001 1.280027e+000 -8.195842e+000 96 90 90
1.029901e+000 1.299895e+000 -8.345107e+000 72 84 73
1.029901e+000 1.299895e+000 -8.345107e+000 72 84 73
1.515125e+000 1.257557e+000 -8.121669e+000 87 85 78
-6.728975e-001 1.122886e+000 -6.884357e+000 162 132 62
1.100375e+000 1.146118e+000 -8.173894e+000 114 111 106
-2.129271e-001 7.888507e-001 -7.180881e+000 185 178 162
-1.807636e-001 8.266780e-001 -7.228527e+000 169 152 134
-1.225929e-001 8.284718e-001 -7.225161e+000 191 185 165
-1.454997e-001 7.865928e-001 -7.152317e+000 176 174 150
-1.454997e-001 7.865928e-001 -7.152317e+000 176 174 150
1.097283e+000 8.101589e-001 -7.711078e+000 91 89 85
1.116823e+000 7.551693e-001 -7.738204e+000 132 136 122
-1.363048e-001 6.462500e-001 -6.995091e+000 193 176 157
-1.363048e-001 6.462500e-001 -6.995091e+000 193 176 157
-1.127557e-001 6.557761e-001 -7.040404e+000 82 73 60
-1.126791e-001 5.946700e-001 -6.957538e+000 200 179 159
-4.676935e-002 5.994123e-001 -6.988910e+000 197 185 153
2.061749e-003 6.709221e-001 -7.086267e+000 76 74 54
1.157817e+000 6.420002e-001 -7.590483e+000 93 108 68
7.935140e-002 5.702863e-001 -7.011139e+000 194 177 141
5.760962e-001 5.167052e-001 -7.165355e+000 138 89 62
1.849074e-001 3.165356e-001 -6.747733e+000 70 73 47
4.272726e-001 3.616497e-001 -6.912144e+000 136 91 59
4.272726e-001 3.616497e-001 -6.912144e+000 136 91 59
5.994955e-001 4.328413e-001 -7.064060e+000 184 157 104
5.994955e-001 4.328413e-001 -7.064060e+000 184 157 104
4.886253e-001 2.414946e-001 -6.796313e+000 140 99 65
6.973979e-001 2.430321e-001 -6.846744e+000 168 166 109
5.065427e-001 1.625227e-001 -6.700676e+000 175 163 103
5.458385e-001 7.969501e-002 -6.628383e+000 169 156 91
5.458385e-001 7.969501e-002 -6.628383e+000 169 156 91
7.342016e-001 8.867422e-002 -6.720448e+000 158 153 87
7.342016e-001 8.867422e-002 -6.720448e+000 158 153 87
-4.071028e-001 -1.265349e-001 -5.885488e+000 141 131 74
1.311107e+000 -2.747598e-001 -6.974463e+000 61 62 44
8.640643e-001 -4.558145e-001 -6.871881e+000 108 104 69
2.530917e-001 -6.570473e-001 -6.721208e+000 77 65 33
1.841207e+000 -9.281158e-001 -7.317897e+000 138 132 121
3.039967e-001 -1.094984e+000 -7.201896e+000 88 74 48
-2.799326e-001 -1.122759e+000 -6.901953e+000 134 118 92
-1.003396e-001 -1.222348e+000 -7.123215e+000 96 82 56
-1.785862e+000 -1.588588e+000 -6.555374e+000 78 62 31
-2.212498e+000 1.979442e+000 -7.636193e+000 181 178 140
2.464191e-001 1.707671e+000 -8.466527e+000 93 98 77
7.222620e-001 1.751799e+000 -8.780906e+000 168 143 86
-1.175913e+000 1.409817e+000 -7.264235e+000 189 184 183
2.470115e-001 1.430003e+000 -8.112802e+000 192 182 152
6.224728e-001 1.528612e+000 -8.418486e+000 190 182 163
-1.132277e+000 1.128591e+000 -6.938769e+000 154 59 67
-1.132277e+000 1.128591e+000 -6.938769e+000 154 59 67
6.500214e-001 1.313578e+000 -8.147544e+000 146 133 99
-2.121459e+000 1.046026e+000 -6.914270e+000 202 163 135
1.488020e+000 1.247569e+000 -8.185504e+000 173 173 165
1.462036e+000 1.193219e+000 -8.209893e+000 165 167 158
-9.173024e-001 9.462655e-001 -6.818699e+000 200 188 188
-9.173024e-001 9.462655e-001 -6.818699e+000 200 188 188
3.036496e-001 8.611605e-001 -7.461905e+000 142 92 69
1.159083e+000 8.853369e-001 -7.886462e+000 97 96 91
-1.638258e+000 5.782779e-001 -6.150829e+000 211 206 144
4.337619e-001 7.274030e-001 -7.321259e+000 182 170 105
-1.595037e+000 4.844022e-001 -6.086328e+000 198 199 130
1.028418e-001 4.734504e-001 -6.903002e+000 67 69 52
8.709661e-002 4.439162e-001 -6.866225e+000 189 167 134
4.914038e-001 5.128471e-001 -7.108337e+000 147 92 76
5.608306e-001 4.646425e-001 -7.095257e+000 138 93 62
6.078352e-001 5.059456e-001 -7.144493e+000 175 164 92
6.774070e-002 4.205812e-001 -6.847329e+000 74 73 51
1.251117e-001 3.124661e-001 -6.722263e+000 71 78 64
3.423485e-001 3.451395e-001 -6.868332e+000 145 88 63
1.255566e+000 4.465183e-001 -7.364693e+000 165 150 97
1.601781e+000 4.297445e-001 -7.518707e+000 132 146 119
1.649537e+000 3.520569e-001 -7.471414e+000 150 166 140
1.763267e-001 2.800994e-001 -6.688404e+000 180 162 117
1.661602e+000 2.787278e-001 -7.404733e+000 98 115 84
1.538576e-001 1.139887e-001 -6.549853e+000 180 162 101
1.741928e+000 1.298939e-001 -7.243825e+000 103 118 89
7.646195e-001 -2.025428e-001 -6.579521e+000 101 103 64
1.625252e+000 -1.666572e-001 -7.065491e+000 65 67 53
8.844283e-001 -2.990414e-001 -6.762569e+000 70 68 45
8.485028e-001 -4.169642e-001 -6.836719e+000 76 72 47
1.084919e+000 -3.171835e-001 -6.878728e+000 67 66 48
8.526533e-001 -6.059260e-001 -7.027774e+000 72 65 44
9.697585e-001 -4.693565e-001 -6.963036e+000 74 71 47
1.085761e+000 -5.262115e-001 -7.066890e+000 70 67 47
-1.181532e+000 -5.471440e-001 -5.804797e+000 72 63 59
-9.883268e-001 -4.874294e-001 -5.841701e+000 78 71 65
-8.789270e-001 -5.040411e-001 -5.918253e+000 75 69 64
-3.932298e-001 -5.972989e-001 -6.333469e+000 58 48 36
7.810306e-002 -5.744670e-001 -6.554114e+000 102 87 58
4.027349e-001 -6.439079e-001 -6.798544e+000 85 69 44
9.698129e-001 -7.591757e-001 -7.232483e+000 116 107 71
-1.516253e-001 -7.007523e-001 -6.557267e+000 98 82 56
-1.687399e-001 -7.468412e-001 -6.588452e+000 99 83 58
-1.285366e-001 -8.065771e-001 -6.675815e+000 95 79 53
-2.586867e-002 -8.784927e-001 -6.820430e+000 97 83 57
3.221232e-001 -8.747271e-001 -6.989842e+000 93 78 53
5.904129e-001 -9.470090e-001 -7.203621e+000 87 72 45
9.034909e-001 -8.522454e-001 -7.294042e+000 83 73 46
-8.746383e-001 -8.992707e-001 -6.287831e+000 74 68 61
-4.970056e-001 -1.028144e+000 -6.706411e+000 91 78 62
-4.222647e-001 -9.903764e-001 -6.682723e+000 91 75 60
-3.070512e-001 -9.086406e-001 -6.673058e+000 87 74 52
7.529388e-002 -9.850798e-001 -6.974463e+000 92 77 53
-1.234688e+000 -9.849775e-001 -6.191359e+000 76 66 64
-1.234688e+000 -9.849775e-001 -6.191359e+000 76 66 64
-3.793104e-001 -1.106801e+000 -6.837930e+000 92 77 58
-2.650260e-001 -1.167978e+000 -6.967585e+000 99 85 59
-1.892521e-001 -1.132702e+000 -6.973513e+000 103 86 67
-2.393805e-001 -1.427277e+000 -7.271450e+000 93 79 55
-6.682014e-001 -1.555057e+000 -7.165048e+000 124 109 84
-1.190491e+000 -1.706520e+000 -7.019081e+000 113 100 72
-1.117886e+000 -1.699208e+000 -7.065194e+000 112 98 72
-2.349148e+000 2.075775e+000 -7.684627e+000 172 170 132
-5.648589e-001 2.261797e+000 -8.808268e+000 90 92 76
-2.263941e+000 1.864459e+000 -7.431691e+000 145 144 110
-2.127874e+000 1.895596e+000 -7.391237e+000 178 171 132
-2.698600e-001 2.161100e+000 -8.839150e+000 129 87 83
-2.228597e-001 2.018300e+000 -8.617386e+000 169 127 104
-1.739076e-001 1.770452e+000 -8.347702e+000 183 157 118
-2.014190e+000 1.033465e+000 -6.763229e+000 229 208 135
9.259168e-001 1.142740e+000 -8.030342e+000 105 102 99
1.071750e+000 1.208251e+000 -8.291826e+000 139 142 131
-2.093111e-001 8.453167e-001 -7.236355e+000 75 82 71
-2.093111e-001 8.453167e-001 -7.236355e+000 75 82 71
-1.588747e-001 7.424378e-001 -7.118190e+000 72 82 69
1.454699e-002 5.040208e-001 -6.896370e+000 194 178 146
-1.524330e+000 4.133953e-001 -6.025049e+000 162 158 91
6.305066e-001 3.414641e-001 -6.962630e+000 175 160 93
6.305066e-001 3.414641e-001 -6.962630e+000 175 160 93
1.021708e+000 3.776152e-001 -7.196917e+000 159 139 89
4.159606e-001 2.717498e-001 -6.795849e+000 186 167 108
4.159606e-001 2.717498e-001 -6.795849e+000 186 167 108
4.895495e-001 1.372559e-001 -6.667353e+000 144 99 68
2.890079e-001 -3.305454e-001 -6.460637e+000 117 104 60
7.777135e-001 -3.841485e-001 -6.753219e+000 118 111 69
2.591161e-001 -4.134789e-001 -6.516766e+000 121 107 63
-1.275121e+000 -6.963670e-001 -5.907817e+000 67 63 56
-1.275121e+000 -6.963670e-001 -5.907817e+000 67 63 56
-1.059141e+000 -6.724115e-001 -5.986133e+000 130 114 106
-9.972317e-001 -7.155594e-001 -6.057325e+000 132 115 105
-9.972317e-001 -7.155594e-001 -6.057325e+000 132 115 105
2.036338e-001 -9.047877e-001 -6.947277e+000 96 82 55
-1.064007e+000 -9.118937e-001 -6.188952e+000 73 68 62
2.188739e-001 -1.432673e+000 -7.543855e+000 106 91 60
-1.363156e+000 -1.609304e+000 -6.812109e+000 111 96 69
-1.179816e+000 -1.769137e+000 -7.109332e+000 81 65 42
-9.943465e-001 -1.646988e+000 -7.080370e+000 81 66 43
-7.235819e-001 2.248355e+000 -8.715468e+000 106 110 83
-2.340237e+000 1.993142e+000 -7.570734e+000 137 143 107
-2.297523e+000 1.925372e+000 -7.471701e+000 121 123 90
-1.908577e+000 2.043526e+000 -7.802365e+000 81 115 83
-5.919776e-001 2.137314e+000 -8.576781e+000 130 93 77
-1.004719e-001 2.214400e+000 -8.983797e+000 139 145 113
-1.004719e-001 2.214400e+000 -8.983797e+000 139 145 113
9.406515e-001 1.458779e+000 -8.451781e+000 171 147 95
-1.049889e+000 1.187779e+000 -7.029440e+000 206 186 192
-7.746927e-001 1.219148e+000 -7.535874e+000 176 150 76
-2.090704e-001 8.443367e-001 -7.237245e+000 75 82 71
-6.101334e-001 6.850913e-001 -6.616001e+000 201 184 160
-1.548025e-001 6.686590e-001 -7.044772e+000 197 184 174
1.634461e-001 1.635787e-001 -6.557398e+000 66 81 56
6.902724e-001 7.015753e-002 -6.688520e+000 140 92 62
6.902724e-001 7.015753e-002 -6.688520e+000 140 92 62
-9.630383e-001 -1.756983e+000 -7.230918e+000 91 76 52
-3.052180e-001 1.792443e+000 -8.273485e+000 186 152 103
-1.112782e+000 1.555627e+000 -7.505114e+000 200 175 118
-1.503770e+000 9.032748e-001 -6.561673e+000 204 186 154
-1.503770e+000 9.032748e-001 -6.561673e+000 204 186 154
-1.482255e+000 8.373836e-001 -6.468578e+000 199 172 95
-6.382257e-001 6.234068e-001 -6.597799e+000 143 112 69
-9.997883e-002 6.210097e-001 -6.999319e+000 54 76 58
-2.928267e-001 -1.266501e-001 -5.998650e+000 111 99 47
-1.596302e-001 -4.816157e-001 -6.327370e+000 131 113 68
-9.963165e-001 -9.069340e-001 -6.210353e+000 74 68 60
-9.963165e-001 -9.069340e-001 -6.210353e+000 74 68 60
-1.044201e+000 2.212356e+000 -8.545000e+000 195 167 113
-1.682345e-001 1.932730e+000 -8.437474e+000 171 139 101
7.500534e-001 6.595617e-001 -7.392525e+000 180 178 152
8.557331e-001 5.949681e-001 -7.376034e+000 136 142 85
1.034650e+000 6.227340e-001 -7.490836e+000 81 90 61
3.721888e-001 3.792705e-001 -6.878974e+000 172 137 99
6.237021e-001 1.483206e+000 -8.357081e+000 188 178 167
4.857919e-001 3.721616e-001 -6.956903e+000 180 163 99
4.131919e-001 -5.058775e-001 -6.746290e+000 120 105 72
1.409635e+000 -1.770353e+000 -8.500069e+000 198 163 149
-1.337445e+000 1.679756e+000 -7.532967e+000 197 190 178
-5.901031e-001 5.971811e-001 -6.612753e+000 148 122 92
1.428198e-001 2.795403e-001 -6.640988e+000 65 80 59
-3.831175e-001 -6.938704e-002 -5.868375e+000 152 146 76
9.633230e-001 9.750880e-001 -7.921427e+000 85 81 79
-1.334848e+000 -1.865414e-001 -5.600397e+000 188 178 125
-4.432470e-002 1.758250e+000 -8.403832e+000 191 168 127
-1.119547e+000 1.151011e+000 -6.927789e+000 202 184 184
-1.119547e+000 1.151011e+000 -6.927789e+000 202 184 184
1.109033e+000 1.336114e+000 -8.262202e+000 86 103 79
-1.380552e+000 2.096368e+000 -8.230015e+000 170 154 94
4.666387e-001 1.829155e+000 -8.771687e+000 181 157 109
1.358452e-001 7.354278e-001 -7.141244e+000 192 178 148
1.237144e+000 2.142920e-001 -7.005051e+000 176 170 145
-4.514250e-001 2.107472e+000 -8.780632e+000 126 86 79
1.732317e+000 9.772779e-001 -8.020842e+000 190 197 190
-1.294568e+000 7.248716e-001 -6.322977e+000 194 184 144
-3.069996e-001 4.230933e-001 -7.147032e+000 194 185 170
-1.368489e+000 2.224816e-001 -6.054653e+000 141 147 75
1.216536e+000 9.204447e-001 -8.019684e+000 72 80 69
5.072114e-002 -5.378589e-002 4.534018e-001 0 255 0
5.035503e-002 -5.356686e-002 4.034036e-001 255 255 0
1.842287e-001 9.414207e-001 7.415285e-001 255 0 0
1.839692e-001 9.363304e-001 6.917890e-001 255 255 0
-7.495828e-002 1.886692e+000 5.935365e-001 0 255 0
-7.520428e-002 1.876735e+000 5.445387e-001 255 255 0
