ply
format ascii 1.0
element face 0
property list uchar int vertex_indices
element vertex 635
property float x
property float y
property float z
property uchar diffuse_red
property uchar diffuse_green
property uchar diffuse_blue
end_header
4.391468e-001 -8.426213e-001 -7.058386e+000 82 70 46
4.391468e-001 -8.426213e-001 -7.058386e+000 82 70 46
4.699291e-001 -9.548058e-001 -7.233701e+000 134 116 66
-1.193236e+000 -6.663718e-001 -5.891432e+000 70 62 53
-1.035502e+000 -5.840395e-001 -5.885517e+000 134 114 106
5.845997e-002 -6.122277e-001 -6.645878e+000 82 65 35
-1.007362e+000 -8.160497e-001 -6.130319e+000 136 118 110
-1.163149e+000 -7.234531e-001 -5.967252e+000 135 114 103
7.539774e-001 -5.403327e-001 -6.922893e+000 74 67 43
9.725013e-002 -4.019022e-001 -6.429410e+000 124 109 71
-1.110394e+000 -7.824125e-001 -6.053368e+000 125 115 106
4.103355e-001 -4.765127e-001 -6.697286e+000 128 113 74
-9.583791e-001 -5.643416e-001 -5.903608e+000 139 116 108
-1.087008e+000 -8.034541e-001 -6.077756e+000 72 65 61
2.630665e-001 -5.761714e-001 -6.699530e+000 142 122 71
1.145218e-002 -3.067592e-001 -6.256311e+000 118 102 51
-1.186504e+000 -6.062396e-001 -5.840664e+000 71 65 54
-9.748017e-001 -6.603493e-001 -5.998698e+000 73 62 56
7.762154e-004 -4.160279e-001 -6.368239e+000 82 67 35
7.919503e-001 -5.787161e-001 -7.016294e+000 117 108 63
6.074067e-001 -1.059320e+000 -7.370846e+000 129 115 77
-7.951838e-001 -1.417115e+000 -6.953564e+000 126 116 81
3.102427e-001 -9.839592e-001 -7.122153e+000 143 122 77
-6.871391e-002 -7.070881e-001 -6.636953e+000 130 114 81
-3.698262e-002 -5.392058e-001 -6.492974e+000 94 80 53
-3.613282e-001 -8.327638e-001 -6.582928e+000 89 75 58
1.060679e-001 -2.810364e-001 -6.302124e+000 84 76 47
-1.051390e+000 -6.169632e-001 -5.902807e+000 72 64 55
4.026441e-001 -5.802666e-001 -6.753837e+000 90 74 48
3.252377e-001 -6.267910e-001 -6.776455e+000 77 61 36
-4.206013e-001 -9.124607e-001 -6.646243e+000 140 124 99
1.060679e-001 -2.810364e-001 -6.302124e+000 84 76 47
-8.404072e-001 -1.681224e+000 -7.351986e+000 60 54 51
-8.885846e-001 -8.723014e-001 -6.227446e+000 70 65 59
-2.505871e-001 -3.243387e-001 -6.164373e+000 122 106 64
9.102546e-001 -2.053712e-001 -6.689242e+000 93 94 63
-3.145312e-001 -6.995458e-001 -6.469657e+000 80 64 38
-8.497078e-002 -8.936741e-001 -6.785089e+000 134 119 87
-3.770344e-001 -7.958005e-001 -6.524383e+000 136 121 91
-3.770344e-001 -7.958005e-001 -6.524383e+000 136 121 91
3.209660e-001 -2.878990e-001 -6.411775e+000 68 56 29
-1.480948e-001 -7.464273e-001 -6.588342e+000 145 125 93
-1.007362e+000 -8.160497e-001 -6.130319e+000 136 118 110
1.714844e+000 -7.373852e-001 -7.823982e+000 58 49 42
-1.049560e+000 -7.130347e-001 -6.008103e+000 67 64 57
-3.904589e-001 -9.141954e-001 -6.617187e+000 101 84 70
-9.362694e-001 -7.857326e-001 -6.140055e+000 135 119 109
-1.087880e+000 -5.393372e-001 -5.823557e+000 73 65 55
3.881458e-001 -4.534107e-001 -6.652186e+000 82 68 39
-1.620435e-001 -2.542458e-001 -6.133100e+000 72 63 34
6.074067e-001 -1.059320e+000 -7.370846e+000 129 115 77
6.474445e-001 -1.037262e+000 -7.375555e+000 83 66 44
-6.062675e-001 -6.337477e-001 -6.165886e+000 91 81 56
1.427318e+000 -2.950045e-001 -7.116584e+000 79 85 59
5.788188e-001 -6.101376e-001 -6.865813e+000 137 116 65
-3.279641e+001 1.202285e+001 -7.324247e+001 162 153 174
-3.035618e-001 -2.605353e-001 -6.030283e+000 56 49 43
-2.617150e+001 6.668312e+000 -5.732811e+001 67 52 111
-2.753615e+001 6.661337e+000 -5.644173e+001 241 39 87
-1.202117e+000 1.189726e+000 -6.979903e+000 167 78 82
1.563456e+000 2.568898e-001 -7.380577e+000 164 178 153
1.118091e+000 1.284151e-001 -7.008318e+000 184 179 160
-3.538001e-001 -8.734034e-001 -6.611705e+000 136 120 97
-1.152708e+000 1.134211e+000 -6.920615e+000 204 185 186
7.907776e-001 -4.838315e-001 -6.923397e+000 66 60 28
-2.297372e-001 1.753073e+000 -8.321012e+000 132 90 74
2.397448e-001 1.619171e+000 -8.425701e+000 112 125 95
2.397448e-001 1.619171e+000 -8.425701e+000 112 125 95
1.427721e+000 9.876787e-001 -8.247683e+000 163 168 159
8.093986e-001 -4.325773e-001 -6.882253e+000 71 65 41
-1.134801e+000 -6.929018e-001 -5.937924e+000 131 113 99
-1.034153e+000 -7.905659e-001 -6.099176e+000 75 69 62
5.134541e-001 -6.912618e-001 -6.982335e+000 93 78 55
-7.969172e-001 -1.333535e+000 -6.833797e+000 96 81 57
-1.193572e+000 -1.492326e+000 -6.790879e+000 79 66 47
1.694471e+000 7.721739e-002 -7.242475e+000 140 147 129
-2.089872e+001 1.394591e+000 -4.998164e+001 222 43 76
-1.864456e+001 -1.273294e+000 -4.733681e+001 254 188 117
7.895561e-001 1.741600e-001 -6.881552e+000 166 163 103
1.433008e+000 2.316245e-001 -7.286236e+000 76 82 69
-2.759511e+001 7.803121e+000 -6.237701e+001 209 196 210
-2.231757e+001 3.023338e+000 -5.146673e+001 65 39 82
-2.144876e+001 2.475041e+000 -5.089283e+001 238 42 84
-2.433272e+001 1.899609e+000 -4.838204e+001 221 42 80
-2.372566e+001 1.646438e+000 -5.015219e+001 129 162 218
-2.302458e+001 2.009769e+000 -4.952282e+001 60 44 89
-2.384332e+001 1.557539e+000 -4.824408e+001 133 164 219
-2.384332e+001 1.557539e+000 -4.824408e+001 133 164 219
-3.035618e-001 -2.605353e-001 -6.030283e+000 56 49 43
-2.744731e+001 6.906139e+000 -5.403641e+001 253 55 103
-2.322059e+001 5.417319e-001 -4.511258e+001 245 49 95
-2.062021e+001 -2.577222e-001 -4.704599e+001 254 204 99
-2.062021e+001 -2.577222e-001 -4.704599e+001 254 204 99
-1.920943e+001 -6.645358e-001 -4.828422e+001 246 55 91
-1.920943e+001 -6.645358e-001 -4.828422e+001 246 55 91
-1.992686e+001 2.191030e-001 -4.706001e+001 71 38 83
-2.364260e+001 2.310395e+000 -4.904776e+001 142 204 252
-2.364260e+001 2.310395e+000 -4.904776e+001 142 204 252
-1.057088e+000 9.354279e-001 -6.717184e+000 159 72 72
6.064277e-001 1.231582e+000 -8.095249e+000 102 96 84
9.605477e-001 1.070214e+000 -8.078970e+000 154 153 148
1.305743e-001 2.035223e-001 -6.602367e+000 72 86 70
3.363841e-001 9.140517e-002 -6.573174e+000 179 163 113
4.317346e-001 5.450396e-002 -6.561843e+000 144 95 75
7.073213e-001 1.158943e-001 -6.769638e+000 141 86 66
-8.521775e-001 9.921249e-001 -6.875884e+000 198 199 192
6.656145e-001 1.379958e+000 -8.334777e+000 128 122 110
8.992180e-001 8.971310e-001 -7.811293e+000 87 83 82
1.071591e+000 1.005971e+000 -8.062218e+000 92 92 89
1.750425e+000 5.350745e-002 -7.214924e+000 175 182 169
1.750425e+000 5.350745e-002 -7.214924e+000 175 182 169
9.362228e-001 -2.315617e-001 -6.729387e+000 65 65 39
1.105846e+000 -6.315251e-001 -7.227344e+000 94 93 65
-9.973051e-001 7.927104e-001 -6.577597e+000 202 189 191
8.983025e-001 1.143028e+000 -8.198403e+000 107 106 103
1.909895e-001 1.011386e-001 -6.523159e+000 69 83 61
7.305062e-001 -2.402677e-001 -6.619381e+000 105 101 63
7.084273e-001 -3.066319e-001 -6.702833e+000 107 101 65
8.774258e-001 -4.119955e-001 -6.872633e+000 76 71 46
5.191539e-001 -1.026488e+000 -7.286466e+000 86 74 48
-1.024026e+000 -1.319264e+000 -6.697862e+000 125 109 83
-1.417420e+000 -1.632168e+000 -6.835000e+000 109 98 70
-2.167185e+000 2.046938e+000 -7.644458e+000 181 173 137
-2.297372e-001 1.753073e+000 -8.321012e+000 132 90 74
-2.275509e+000 -7.062741e-002 -7.398693e+000 195 93 113
-9.925012e-001 7.215539e-001 -6.488414e+000 166 63 67
7.344652e-001 1.162272e+000 -8.088010e+000 101 98 93
1.291340e-001 -3.810206e-001 -6.377944e+000 101 87 58
-1.079186e+000 8.329074e-001 -6.659923e+000 171 66 70
6.330381e-001 2.782637e-001 -6.891384e+000 171 151 102
6.330381e-001 2.782637e-001 -6.891384e+000 171 151 102
-2.227146e+001 5.217762e+000 -5.210653e+001 240 60 99
-3.645479e-001 -6.749338e-001 -6.471144e+000 127 109 73
-9.707901e-001 -7.506779e-001 -6.086934e+000 70 65 59
3.102427e-001 -9.839592e-001 -7.122153e+000 143 122 77
-1.763694e+001 -3.351501e+000 -3.969135e+001 87 65 137
-1.657809e+001 -4.876786e+000 -4.272702e+001 230 42 80
-2.317196e+001 1.956552e+000 -4.373919e+001 246 42 93
-2.021101e+001 -1.970548e+000 -4.618492e+001 229 159 79
-5.628454e-001 5.871370e-001 -6.586195e+000 147 120 78
-1.796616e+001 -1.774216e+000 -4.566530e+001 243 50 85
-1.796616e+001 -1.774216e+000 -4.566530e+001 243 50 85
-1.948765e+001 -2.146958e+000 -4.596982e+001 67 37 65
-2.724540e+001 6.214382e+000 -5.128055e+001 77 62 131
-2.086096e+001 -1.059075e+000 -4.662764e+001 70 40 66
-8.351891e-002 -2.175290e-001 -6.121551e+000 112 99 54
-2.197895e+001 -1.891248e+000 -4.408369e+001 246 49 95
-1.967792e+001 -1.069089e+000 -4.671289e+001 253 204 91
-2.225677e+001 1.571891e+000 -5.117981e+001 59 39 75
-2.457000e+000 2.176241e+000 -7.698585e+000 147 144 99
-2.202049e+000 1.940841e+000 -7.474423e+000 175 172 137
-2.057841e+000 1.814601e+000 -7.396007e+000 185 177 139
-1.615030e+000 1.772261e+000 -7.520260e+000 172 137 111
-1.269514e+000 1.411441e+000 -7.219590e+000 131 68 69
1.879917e-001 1.636248e+000 -8.383611e+000 174 166 127
1.752775e-001 1.406084e+000 -8.103350e+000 190 181 141
5.828117e-001 1.548579e+000 -8.476048e+000 187 172 134
3.841463e-001 1.379948e+000 -8.165928e+000 172 154 107
5.696058e-001 1.258465e+000 -8.091690e+000 158 154 127
7.848178e-001 1.356492e+000 -8.355955e+000 113 108 102
8.810763e-001 1.369906e+000 -8.442849e+000 77 88 73
7.846657e-001 1.142191e+000 -8.082460e+000 101 94 89
7.705927e-001 1.066544e+000 -7.982985e+000 163 160 148
-8.975130e-001 8.905008e-001 -6.729527e+000 165 76 77
8.143031e-001 1.019553e+000 -7.941888e+000 94 90 84
-6.772780e-001 7.191826e-001 -6.625814e+000 155 73 63
-1.790603e-001 7.781584e-001 -7.144487e+000 82 75 57
-1.186483e-001 8.073033e-001 -7.225881e+000 200 188 168
-8.704086e-002 7.491002e-001 -7.159390e+000 179 166 143
-1.208465e-001 7.142068e-001 -7.112599e+000 186 174 152
-5.180138e-002 7.438454e-001 -7.191584e+000 79 77 62
-4.302152e-003 6.801247e-001 -7.120081e+000 196 186 158
-1.328490e-001 6.060137e-001 -6.975247e+000 83 78 64
-1.328490e-001 6.060137e-001 -6.975247e+000 83 78 64
5.964616e-002 5.837544e-001 -7.030475e+000 91 77 58
5.964616e-002 5.837544e-001 -7.030475e+000 91 77 58
7.880556e-001 6.238814e-001 -7.418399e+000 163 149 98
1.125677e+000 7.058353e-001 -7.696053e+000 154 162 140
1.035515e+000 5.810506e-001 -7.556962e+000 102 114 75
5.721281e-002 3.898319e-001 -6.787494e+000 173 158 118
5.721281e-002 3.898319e-001 -6.787494e+000 173 158 118
5.512328e-001 3.920355e-001 -7.034578e+000 170 162 90
5.796290e-001 4.608843e-001 -7.110868e+000 143 99 70
5.796290e-001 4.608843e-001 -7.110868e+000 143 99 70
1.824576e-001 3.119176e-001 -6.750750e+000 72 77 62
4.458244e-001 2.979692e-001 -6.856326e+000 139 103 64
4.458244e-001 2.979692e-001 -6.856326e+000 139 103 64
4.768133e-001 2.388393e-001 -6.796367e+000 131 100 53
5.797705e-001 3.768356e-001 -7.020449e+000 180 163 102
6.573550e-001 2.892883e-001 -6.950021e+000 175 166 106
6.451850e-001 2.650624e-001 -6.903292e+000 139 94 64
1.553000e+000 3.442251e-001 -7.477929e+000 106 120 94
1.602159e+000 2.713138e-001 -7.407643e+000 105 119 93
1.946305e-001 1.402343e-001 -6.553883e+000 177 162 108
1.946305e-001 1.402343e-001 -6.553883e+000 177 162 108
4.380655e-001 1.774336e-001 -6.711674e+000 180 161 102
4.944823e-001 1.617628e-001 -6.709927e+000 181 169 106
5.199760e-001 1.622203e-001 -6.728209e+000 126 82 51
7.341881e-001 1.702022e-001 -6.843343e+000 145 84 70
7.341881e-001 1.702022e-001 -6.843343e+000 145 84 70
1.636417e+000 2.585660e-001 -7.411155e+000 159 173 148
4.317346e-001 5.450396e-002 -6.561843e+000 144 95 75
1.657138e+000 6.387097e-002 -7.180794e+000 174 182 169
1.743773e+000 -2.544697e-001 -7.256241e+000 56 57 40
1.004943e+000 -3.286780e-001 -6.863364e+000 93 94 66
9.248172e-001 -5.696597e-001 -7.059075e+000 108 103 71
9.699543e-001 -4.414432e-001 -6.964916e+000 99 97 66
9.699543e-001 -4.414432e-001 -6.964916e+000 99 97 66
1.189088e+000 -5.807032e-001 -7.220154e+000 87 88 65
-1.120106e+000 -5.575566e-001 -5.815047e+000 74 66 57
-7.068260e-002 -5.468888e-001 -6.476945e+000 127 112 77
-7.068260e-002 -5.468888e-001 -6.476945e+000 127 112 77
3.313097e-001 -7.003918e-001 -6.867924e+000 136 118 80
9.423297e-001 -6.893088e-001 -7.155045e+000 114 106 73
1.014967e+000 -6.131465e-001 -7.155830e+000 66 62 34
-1.201669e+000 -7.008685e-001 -5.899211e+000 76 67 60
-9.406330e-002 -7.687151e-001 -6.662241e+000 139 122 92
1.102900e+000 -8.439108e-001 -7.483566e+000 94 91 64
-4.206013e-001 -9.124607e-001 -6.646243e+000 140 124 99
-3.538001e-001 -8.734034e-001 -6.611705e+000 136 120 97
-2.085216e-001 -9.168552e-001 -6.760092e+000 135 118 90
-2.085216e-001 -9.168552e-001 -6.760092e+000 135 118 90
9.295144e-002 -9.621978e-001 -6.966670e+000 138 122 86
9.295144e-002 -9.621978e-001 -6.966670e+000 138 122 86
5.863398e-001 -1.034856e+000 -7.342456e+000 78 66 40
1.155225e+000 -9.713233e-001 -7.641929e+000 65 63 38
-2.109478e-001 -1.075739e+000 -6.913686e+000 131 115 81
5.840995e-002 -1.059638e+000 -7.091317e+000 137 121 89
3.838358e-002 -1.104836e+000 -7.110658e+000 126 112 77
1.898521e-001 -1.147606e+000 -7.224938e+000 87 71 46
1.898521e-001 -1.147606e+000 -7.224938e+000 87 71 46
5.987373e-001 -1.171983e+000 -7.527755e+000 79 65 38
5.987373e-001 -1.171983e+000 -7.527755e+000 79 65 38
-6.172418e-001 -1.217017e+000 -6.821231e+000 57 47 38
-5.076020e-001 -1.209136e+000 -6.898726e+000 82 67 44
-9.868222e-003 -1.227607e+000 -7.237134e+000 115 101 72
1.451037e-001 -1.261785e+000 -7.334960e+000 92 76 51
1.816389e-001 -1.313553e+000 -7.405424e+000 88 72 46
1.816389e-001 -1.313553e+000 -7.405424e+000 88 72 46
5.076491e-001 -1.227217e+000 -7.505363e+000 88 74 50
4.763814e-001 -1.302842e+000 -7.544347e+000 95 81 54
8.474225e-001 -1.371350e+000 -7.880261e+000 74 65 42
-1.255061e+000 -1.546177e+000 -6.846977e+000 114 98 72
2.212046e+000 -1.644832e+000 -6.852796e+000 187 180 172
-2.191516e+000 1.906505e+000 -7.455673e+000 180 174 137
-1.542851e+000 2.199408e+000 -8.278977e+000 241 216 207
-1.509193e+000 2.138922e+000 -8.176435e+000 162 150 104
-2.180835e+000 1.811263e+000 -7.362083e+000 138 139 102
-2.120472e+000 1.785755e+000 -7.349547e+000 187 178 135
-1.888908e+000 1.888984e+000 -7.561235e+000 180 177 145
-1.891152e+000 1.893463e+000 -7.580484e+000 180 177 145
-7.376628e-001 2.131007e+000 -8.602522e+000 188 170 134
1.059170e-002 2.145972e+000 -9.016218e+000 166 133 122
-1.177614e+000 1.451337e+000 -7.304093e+000 194 189 186
-1.178212e+000 1.452132e+000 -7.308261e+000 194 189 186
1.986075e-001 1.815576e+000 -8.654272e+000 144 103 83
1.986075e-001 1.815576e+000 -8.654272e+000 144 103 83
6.283241e-001 1.782299e+000 -8.782636e+000 83 81 79
-1.188051e+000 1.268856e+000 -7.075461e+000 146 67 73
-1.182975e+000 1.128655e+000 -6.905498e+000 208 193 201
6.552789e-001 1.316819e+000 -8.239166e+000 165 155 119
6.226228e-001 1.274361e+000 -8.156307e+000 161 153 117
8.820951e-001 1.292638e+000 -8.333675e+000 139 138 127
9.582360e-001 1.292392e+000 -8.374084e+000 151 134 92
-9.677365e-001 1.021906e+000 -6.868238e+000 160 66 68
-9.677365e-001 1.021906e+000 -6.868238e+000 160 66 68
-1.057088e+000 9.354279e-001 -6.717184e+000 159 72 72
-1.018114e+000 9.131798e-001 -6.713954e+000 200 190 186
6.064277e-001 1.231582e+000 -8.095249e+000 102 96 84
6.143693e-001 1.084991e+000 -7.924474e+000 171 170 137
-6.254892e-001 7.695450e-001 -6.711674e+000 206 183 128
8.310203e-001 9.447510e-001 -7.864018e+000 88 82 81
1.120638e+000 1.054776e+000 -8.157497e+000 155 162 151
-8.134613e-002 6.821025e-001 -7.087506e+000 82 85 71
-6.309379e-002 7.122164e-001 -7.126341e+000 190 179 156
-6.309379e-002 7.122164e-001 -7.126341e+000 190 179 156
4.858863e-002 6.129906e-001 -7.040855e+000 196 186 156
4.858863e-002 6.129906e-001 -7.040855e+000 196 186 156
4.840167e-001 5.402169e-001 -7.178273e+000 188 163 105
8.278297e-001 6.586658e-001 -7.492230e+000 179 175 145
9.798491e-001 5.547826e-001 -7.406106e+000 148 149 91
1.561282e-002 4.934114e-001 -6.900424e+000 193 181 144
1.272821e-001 4.158748e-001 -6.868252e+000 80 71 54
1.155134e-001 3.859278e-001 -6.823702e+000 177 163 125
1.155134e-001 3.859278e-001 -6.823702e+000 177 163 125
2.638950e-001 5.192725e-001 -7.045516e+000 189 172 118
2.599466e-001 4.837920e-001 -7.017510e+000 146 97 69
5.024833e-001 4.468842e-001 -7.070663e+000 148 101 74
9.104901e-001 4.137984e-001 -7.241819e+000 186 179 151
1.448537e+000 4.474367e-001 -7.550406e+000 155 170 146
1.043575e-001 2.330583e-001 -6.616588e+000 177 162 116
1.457534e-001 3.271596e-001 -6.748191e+000 185 171 123
1.744976e-001 2.763313e-001 -6.695944e+000 181 168 126
3.691898e-001 3.258851e-001 -6.860823e+000 191 170 117
3.691898e-001 3.258851e-001 -6.860823e+000 191 170 117
5.521492e-001 3.598176e-001 -6.993482e+000 139 96 68
5.521492e-001 3.598176e-001 -6.993482e+000 139 96 68
1.611165e+000 3.047036e-001 -7.444064e+000 145 159 134
-2.417994e+000 1.814838e-001 -7.649189e+000 183 78 92
2.598465e-001 1.686911e-001 -6.612869e+000 72 81 71
3.941893e-001 2.335388e-001 -6.765637e+000 149 100 72
4.669087e-001 2.134005e-001 -6.760936e+000 177 170 102
4.669087e-001 2.134005e-001 -6.760936e+000 177 170 102
7.091775e-001 2.161989e-001 -6.901323e+000 145 95 70
3.784410e-001 6.269475e-002 -6.524357e+000 72 76 68
3.784410e-001 6.269475e-002 -6.524357e+000 72 76 68
4.044658e-001 7.483608e-002 -6.547083e+000 177 163 96
7.800578e-001 6.945376e-002 -6.751697e+000 141 99 66
-1.620435e-001 -2.542458e-001 -6.133100e+000 72 63 34
5.431568e-001 -2.487640e-001 -6.543300e+000 107 102 59
7.305062e-001 -2.402677e-001 -6.619381e+000 105 101 63
8.836844e-001 -1.807526e-001 -6.656978e+000 65 65 39
8.836844e-001 -1.807526e-001 -6.656978e+000 65 65 39
9.248459e-001 -2.763424e-001 -6.779168e+000 63 62 39
9.560321e-001 -1.811724e-001 -6.725400e+000 64 64 40
9.362228e-001 -2.315617e-001 -6.729387e+000 65 65 39
1.046089e+000 -2.961063e-001 -6.840529e+000 65 64 44
1.228570e+000 -2.883140e-001 -7.000993e+000 86 89 64
1.392203e+000 -3.018719e-001 -7.106296e+000 58 61 41
-1.784273e-001 -2.908804e-001 -6.143962e+000 73 62 40
3.986211e-001 -4.112225e-001 -6.601392e+000 87 77 49
8.675337e-001 -3.457706e-001 -6.814283e+000 99 96 63
8.213155e-001 -3.982689e-001 -6.836225e+000 64 60 31
9.152609e-001 -3.799872e-001 -6.837525e+000 95 95 61
9.411769e-001 -4.123754e-001 -6.894088e+000 64 59 34
9.502508e-001 -3.009551e-001 -6.828134e+000 96 95 64
9.793126e-001 -3.969984e-001 -6.902742e+000 96 97 64
9.793126e-001 -3.969984e-001 -6.902742e+000 96 97 64
1.114756e+000 -3.400814e-001 -7.015756e+000 58 59 40
1.169331e+000 -3.725169e-001 -7.069601e+000 63 61 41
1.378974e+000 -4.212102e-001 -7.193302e+000 83 85 63
-8.401264e-001 -4.755058e-001 -5.908477e+000 72 69 60
-7.992615e-001 -4.973862e-001 -5.953556e+000 73 68 57
7.762154e-004 -4.160279e-001 -6.368239e+000 82 67 35
-9.312748e-002 -5.265212e-001 -6.418994e+000 85 69 42
2.427972e-002 -4.377254e-001 -6.439294e+000 120 106 69
2.427972e-002 -4.377254e-001 -6.439294e+000 120 106 69
7.919503e-001 -5.787161e-001 -7.016294e+000 117 108 63
8.200408e-001 -5.738340e-001 -6.989672e+000 76 65 51
8.285980e-001 -4.715594e-001 -6.939316e+000 109 106 65
9.353015e-001 -4.448331e-001 -6.939174e+000 68 66 41
9.887556e-001 -5.891947e-001 -7.136095e+000 98 98 64
1.094155e+000 -5.628312e-001 -7.151391e+000 62 61 40
-1.040151e+000 -5.202003e-001 -5.823039e+000 76 69 63
-1.058755e+000 -5.853958e-001 -5.874426e+000 133 116 106
-1.015626e+000 -5.698371e-001 -5.895127e+000 135 118 111
-9.192041e-001 -5.176830e-001 -5.886816e+000 112 105 94
-2.161171e-001 -6.576798e-001 -6.474597e+000 80 66 37
-9.073544e-002 -6.016277e-001 -6.494345e+000 134 119 79
1.644887e-001 -6.801588e-001 -6.716183e+000 99 85 64
2.012030e-001 -6.747109e-001 -6.754166e+000 137 119 86
2.012030e-001 -6.747109e-001 -6.754166e+000 137 119 86
2.256146e-001 -6.953090e-001 -6.786081e+000 85 70 47
3.495004e-001 -6.527946e-001 -6.836662e+000 136 117 75
3.632922e-001 -6.924626e-001 -6.853917e+000 81 65 37
8.240828e-001 -6.540022e-001 -7.060514e+000 116 104 68
7.871173e-001 -6.670969e-001 -7.078510e+000 92 81 53
7.871173e-001 -6.670969e-001 -7.078510e+000 92 81 53
8.697675e-001 -6.427182e-001 -7.114160e+000 76 66 38
9.303083e-001 -6.425885e-001 -7.133454e+000 78 72 45
-1.257208e+000 -6.296142e-001 -5.811349e+000 68 61 51
-1.188125e+000 -6.297316e-001 -5.848052e+000 109 105 93
-1.121944e+000 -7.257034e-001 -6.001024e+000 74 63 60
-9.214977e-001 -7.183259e-001 -6.085248e+000 73 64 57
-9.214977e-001 -7.183259e-001 -6.085248e+000 73 64 57
-8.543620e-001 -7.592929e-001 -6.146360e+000 111 102 93
-3.289270e-001 -7.323365e-001 -6.494329e+000 84 68 45
-2.363528e-001 -7.190778e-001 -6.529890e+000 90 74 48
-1.382713e-001 -7.354730e-001 -6.632256e+000 141 122 92
-1.957710e-001 -8.121747e-001 -6.664881e+000 103 85 63
-8.732907e-002 -7.407770e-001 -6.588113e+000 134 118 84
-6.968532e-002 -7.768678e-001 -6.716263e+000 85 69 44
-4.346293e-002 -7.982202e-001 -6.742609e+000 139 123 94
-4.346293e-002 -7.982202e-001 -6.742609e+000 139 123 94
1.096991e-001 -8.377615e-001 -6.860870e+000 87 72 50
6.795397e-001 -8.659705e-001 -7.206214e+000 122 111 65
7.795131e-001 -7.759114e-001 -7.163802e+000 117 108 69
7.795131e-001 -7.759114e-001 -7.163802e+000 117 108 69
8.442716e-001 -8.765119e-001 -7.319290e+000 74 64 37
1.009901e+000 -7.756233e-001 -7.293248e+000 75 68 43
1.009901e+000 -7.756233e-001 -7.293248e+000 75 68 43
1.134321e+000 -8.284289e-001 -7.451973e+000 64 62 41
-9.393849e-001 -9.058526e-001 -6.244693e+000 70 67 56
-5.456190e-001 -9.121765e-001 -6.566749e+000 71 52 45
-4.738876e-001 -8.443913e-001 -6.491467e+000 58 44 36
-3.204898e-001 -9.436765e-001 -6.713967e+000 84 69 47
-2.281717e-001 -9.679224e-001 -6.799638e+000 135 120 89
-5.384326e-002 -9.070801e-001 -6.855026e+000 93 78 52
-8.678977e-002 -9.839293e-001 -6.879743e+000 100 84 61
8.761362e-002 -8.887680e-001 -6.891959e+000 90 76 49
2.005468e-001 -9.638962e-001 -7.041438e+000 83 67 45
4.185168e-001 -9.306649e-001 -7.142207e+000 81 64 40
6.846447e-001 -9.434595e-001 -7.294707e+000 86 74 42
6.474445e-001 -1.037262e+000 -7.375555e+000 83 66 44
-1.000188e+000 -9.277660e-001 -6.227911e+000 71 67 61
-1.000188e+000 -9.277660e-001 -6.227911e+000 71 67 61
-5.211729e-001 -9.643402e-001 -6.612990e+000 55 45 37
-4.599982e-001 -1.014998e+000 -6.720553e+000 134 118 94
-2.832508e-001 -1.044554e+000 -6.866624e+000 94 79 58
-3.655429e-001 -1.056550e+000 -6.809025e+000 90 74 55
-3.136673e-001 -1.119418e+000 -6.951086e+000 97 81 57
-3.136673e-001 -1.119418e+000 -6.951086e+000 97 81 57
-2.254414e-001 -1.045488e+000 -6.885295e+000 98 83 57
-2.047955e-001 -1.134134e+000 -6.989398e+000 89 74 44
-1.176522e-001 -9.871579e-001 -6.872387e+000 136 122 90
4.015482e-002 -1.021273e+000 -6.990375e+000 92 77 53
2.738477e-001 -1.085891e+000 -7.203905e+000 89 74 49
2.738477e-001 -1.085891e+000 -7.203905e+000 89 74 49
2.580198e-001 -1.127130e+000 -7.260453e+000 93 77 51
2.205223e-001 -1.136758e+000 -7.222882e+000 130 116 81
-5.501346e-001 -1.173190e+000 -6.835289e+000 93 77 58
-3.940309e-001 -1.136641e+000 -6.859715e+000 84 69 48
-1.580330e-001 -1.309517e+000 -7.188276e+000 97 82 55
-3.143989e-002 -1.201368e+000 -7.174647e+000 88 78 50
2.241626e-002 -1.209078e+000 -7.180346e+000 89 77 54
2.630568e-003 -1.262577e+000 -7.265838e+000 87 73 46
-9.347258e-001 -1.269951e+000 -6.694256e+000 123 107 82
-9.931960e-001 -1.331735e+000 -6.739432e+000 90 75 49
-6.127671e-001 -1.398530e+000 -7.059593e+000 127 113 86
-2.166493e-001 -1.456371e+000 -7.339515e+000 93 77 51
-1.043657e+000 -1.529614e+000 -6.917132e+000 112 99 71
-9.251613e-001 -1.469547e+000 -6.951280e+000 73 60 41
-7.134991e-001 -1.581839e+000 -7.203474e+000 94 80 59
-7.134991e-001 -1.581839e+000 -7.203474e+000 94 80 59
-5.309676e-001 -1.471577e+000 -7.173736e+000 93 79 53
-4.077091e-001 -1.490459e+000 -7.265589e+000 97 82 55
-1.454633e+000 -1.563675e+000 -6.714809e+000 121 108 72
-1.417420e+000 -1.632168e+000 -6.835000e+000 109 98 70
-1.294256e+000 -1.630377e+000 -6.901640e+000 111 96 68
-9.869135e-001 -1.556424e+000 -6.980952e+000 108 97 71
-9.322401e-001 -1.589806e+000 -7.072733e+000 117 106 76
2.188012e+000 -1.615939e+000 -6.883667e+000 188 181 174
-2.045956e+000 2.034031e+000 -7.714268e+000 105 114 85
-2.086453e+000 1.856810e+000 -7.460088e+000 185 177 141
-2.828715e-001 1.968545e+000 -8.613246e+000 136 94 80
9.315441e-002 1.893556e+000 -8.640775e+000 171 135 93
-1.164609e+000 1.577670e+000 -7.461244e+000 205 185 133
-2.792815e-001 1.756063e+000 -8.321077e+000 185 152 94
-1.299571e-001 1.593812e+000 -8.203002e+000 193 184 172
-1.299571e-001 1.593812e+000 -8.203002e+000 193 184 172
-1.106600e+000 1.263473e+000 -7.100246e+000 151 64 70
2.760520e-001 1.549104e+000 -8.329646e+000 184 177 143
-1.125300e+000 1.174485e+000 -6.981258e+000 153 71 68
-1.068670e+000 1.179197e+000 -7.004745e+000 150 71 75
9.650120e-001 1.411962e+000 -8.517710e+000 80 91 75
9.403032e-001 1.353663e+000 -8.438924e+000 168 146 105
-2.958334e+001 7.319943e+000 -5.113143e+001 229 85 124
-1.078774e+000 9.082323e-001 -6.678625e+000 199 186 183
-1.078774e+000 9.082323e-001 -6.678625e+000 199 186 183
-1.047245e+000 9.794278e-001 -6.780111e+000 201 185 183
-1.047245e+000 9.794278e-001 -6.780111e+000 201 185 183
-9.260070e-001 9.917095e-001 -6.843980e+000 202 192 190
-8.521775e-001 9.921249e-001 -6.875884e+000 198 199 192
-8.518773e-001 8.670805e-001 -6.738069e+000 198 192 191
-1.535709e-001 8.345159e-001 -7.250379e+000 88 82 69
-7.696695e-002 7.938518e-001 -7.234427e+000 87 86 66
1.122951e+000 7.492402e-001 -7.739572e+000 72 80 67
-6.649906e-002 6.436156e-001 -7.050662e+000 199 188 166
-6.649906e-002 6.436156e-001 -7.050662e+000 199 188 166
1.060927e-001 5.374139e-001 -6.974307e+000 95 82 65
1.072783e+000 6.931339e-001 -7.688250e+000 85 98 66
1.069150e+000 5.930245e-001 -7.524454e+000 168 174 140
2.199370e-003 4.571434e-001 -6.844965e+000 71 93 73
2.823497e-002 3.959148e-001 -6.785581e+000 75 84 75
9.459601e-002 3.577412e-001 -6.751774e+000 73 86 69
3.676766e-001 2.879446e-001 -6.822237e+000 140 94 61
1.411388e+000 3.696313e-001 -7.390867e+000 119 133 80
-2.443702e+000 2.495491e-001 -7.645242e+000 189 82 94
-2.443702e+000 2.495491e-001 -7.645242e+000 189 82 94
2.924079e-001 1.154054e-001 -6.558581e+000 66 80 65
6.512419e-001 1.940339e-001 -6.837642e+000 180 165 109
5.599982e-001 6.583351e-002 -6.629888e+000 143 97 64
5.599982e-001 6.583351e-002 -6.629888e+000 143 97 64
1.295758e+000 9.716662e-002 -7.014296e+000 169 150 94
1.780283e+000 -1.465345e-001 -7.183823e+000 58 63 43
7.780234e-001 -2.995550e-001 -6.715408e+000 106 102 65
2.525039e-001 -4.465635e-001 -6.559074e+000 81 65 46
2.378717e-001 -4.824740e-001 -6.561333e+000 89 72 51
2.222840e-001 -5.245699e-001 -6.589506e+000 79 64 43
3.584428e-001 -5.318965e-001 -6.692237e+000 80 69 41
-8.637779e-001 -6.002550e-001 -5.992634e+000 130 115 104
-4.012035e-001 -6.365499e-001 -6.361319e+000 57 45 38
2.078398e-001 -5.735820e-001 -6.647813e+000 75 64 36
-3.412790e-001 -7.794949e-001 -6.507636e+000 86 69 50
-1.018016e-001 -7.046154e-001 -6.594837e+000 82 65 40
-1.018016e-001 -7.046154e-001 -6.594837e+000 82 65 40
1.879860e-002 -7.079878e-001 -6.687641e+000 81 68 42
1.476510e-001 -7.326051e-001 -6.761511e+000 78 66 41
3.453775e-001 -7.424711e-001 -6.897938e+000 86 73 46
-8.374493e-001 -8.545095e-001 -6.260361e+000 73 66 62
-3.613282e-001 -8.327638e-001 -6.582928e+000 89 75 58
4.025233e-001 -1.219104e+000 -7.423675e+000 132 118 85
-7.237079e-001 -1.243413e+000 -6.773334e+000 135 116 83
-7.969172e-001 -1.333535e+000 -6.833797e+000 96 81 57
-1.267327e+000 -1.357486e+000 -6.538365e+000 79 63 47
-1.256512e+000 -1.406849e+000 -6.636670e+000 115 100 71
-8.921380e-001 -1.546879e+000 -7.046143e+000 75 63 41
-1.512439e+000 -1.612132e+000 -6.740600e+000 87 70 53
-7.496354e-001 -1.679597e+000 -7.276621e+000 100 89 64
-2.240868e+000 2.049661e+000 -7.648133e+000 153 153 115
-1.764975e+000 1.964890e+000 -7.677613e+000 196 177 133
-1.536031e+000 2.211195e+000 -8.295579e+000 243 215 207
-2.053982e+000 1.753056e+000 -7.284336e+000 132 128 87
-2.053982e+000 1.753056e+000 -7.284336e+000 132 128 87
-2.026151e+000 1.835431e+000 -7.425821e+000 154 150 113
-1.777366e+000 1.886411e+000 -7.591597e+000 93 118 90
-1.307770e+000 1.428311e+000 -7.225419e+000 202 188 188
-1.307770e+000 1.428311e+000 -7.225419e+000 202 188 188
1.701514e-001 1.640377e+000 -8.419131e+000 182 166 123
-1.226285e+000 1.277047e+000 -7.077632e+000 200 188 187
7.621679e-001 1.605783e+000 -8.682117e+000 163 132 84
-1.202117e+000 1.189726e+000 -6.979903e+000 167 78 82
9.030416e-001 1.416259e+000 -8.497662e+000 165 150 100
8.367170e-001 1.082206e+000 -8.032394e+000 169 162 148
-9.973051e-001 7.927104e-001 -6.577597e+000 202 189 191
1.128282e+000 9.542164e-001 -8.134057e+000 103 103 94
1.017115e+000 7.611852e-001 -7.712610e+000 153 157 135
-2.220026e+001 4.532621e+000 -5.196113e+001 243 49 89
1.000978e-002 6.296471e-001 -7.067512e+000 75 87 72
8.842321e-001 6.513635e-001 -7.516456e+000 178 173 144
-2.453080e+001 3.030208e+000 -5.217564e+001 83 74 139
-2.663622e-002 5.113649e-001 -6.914821e+000 74 89 71
-2.663622e-002 5.113649e-001 -6.914821e+000 74 89 71
1.785281e-001 2.054717e-001 -6.614719e+000 185 169 113
1.785281e-001 2.054717e-001 -6.614719e+000 185 169 113
2.589680e-001 8.292532e-002 -6.505317e+000 177 166 103
2.589680e-001 8.292532e-002 -6.505317e+000 177 166 103
5.048199e-001 9.654033e-002 -6.640464e+000 174 164 96
5.048199e-001 9.654033e-002 -6.640464e+000 174 164 96
3.209660e-001 -2.878990e-001 -6.411775e+000 68 56 29
-2.351978e+001 -3.792975e+000 -4.261606e+001 216 210 254
-7.378045e-001 -5.391898e-001 -6.009548e+000 68 67 55
-7.378045e-001 -5.391898e-001 -6.009548e+000 68 67 55
-2.510928e-001 -5.565352e-001 -6.367501e+000 128 111 69
1.743576e-001 -9.181350e-001 -6.975120e+000 82 68 34
8.458210e-002 -1.161832e+000 -7.227880e+000 85 72 40
1.324281e+000 -1.615847e+000 -8.452414e+000 83 65 50
-1.573076e+000 -1.583151e+000 -6.722697e+000 91 77 50
-1.551350e+001 -1.147929e+001 -3.823213e+001 74 47 105
-2.167185e+000 2.046938e+000 -7.644458e+000 181 173 137
-1.602287e+000 2.206911e+000 -8.210454e+000 179 166 113
1.748195e-001 2.012976e+000 -8.921689e+000 176 147 116
1.748195e-001 2.012976e+000 -8.921689e+000 176 147 116
7.615033e-001 1.518905e+000 -8.576370e+000 87 90 75
-9.066169e-001 8.588650e-001 -6.686204e+000 166 72 73
-9.066169e-001 8.588650e-001 -6.686204e+000 166 72 73
1.001491e+000 6.044035e-001 -7.495155e+000 83 96 68
1.173103e+000 5.244347e-001 -7.516518e+000 99 115 76
4.216970e-001 1.028208e-001 -6.622080e+000 175 166 95
-2.544188e+001 -2.735012e+000 -4.470427e+001 76 51 115
-2.447402e+001 -2.910679e+000 -4.343706e+001 194 183 239
-2.065469e+001 -3.185669e+000 -4.649353e+001 82 60 132
-2.280815e+001 -4.092843e+000 -3.913065e+001 107 69 122
7.477708e-002 -7.129886e-001 -6.766574e+000 136 116 74
7.477708e-002 -7.129886e-001 -6.766574e+000 136 116 74
1.189988e+000 -1.592864e+000 -8.363699e+000 69 62 44
-1.975208e+001 -7.834673e+000 -3.799701e+001 225 43 84
-1.507276e+001 -8.253366e+000 -4.094395e+001 222 49 82
-7.176007e-001 2.013947e+000 -8.426936e+000 183 166 142
5.192076e-001 1.514383e+000 -8.430322e+000 170 148 101
-8.293221e-001 8.163295e-001 -6.654908e+000 202 185 185
-8.293221e-001 8.163295e-001 -6.654908e+000 202 185 185
-6.475591e-001 7.710479e-001 -6.678587e+000 204 178 118
8.668554e-001 7.233563e-001 -7.584728e+000 142 148 89
3.006916e-001 4.611935e-001 -7.023544e+000 148 109 72
1.323663e+000 3.384512e-001 -7.397555e+000 176 169 148
1.521343e+000 3.805450e-001 -7.506808e+000 129 143 117
-2.603320e+001 -8.422463e-001 -4.542293e+001 233 68 122
-2.513335e+001 -1.700737e+000 -4.438262e+001 74 52 114
-7.880462e-001 -6.785804e-001 -6.108295e+000 76 69 61
-6.499780e-001 -7.632670e-001 -6.313351e+000 108 96 74
-1.770290e+001 -6.574548e+000 -4.457883e+001 59 34 64
-1.621819e+001 -5.657680e+000 -4.176661e+001 226 44 85
-1.555872e+001 -6.054492e+000 -4.217043e+001 174 54 73
-1.919246e+001 -6.764521e+000 -4.240549e+001 197 26 70
-1.728021e+001 -6.611105e+000 -3.902626e+001 62 40 96
-1.653657e+001 -6.562043e+000 -4.249332e+001 205 35 66
-1.787127e+001 -7.636828e+000 -4.004148e+001 71 51 115
-1.561861e+001 -7.568659e+000 -4.049872e+001 226 42 76
-1.587073e+001 -9.103966e+000 -4.278600e+001 208 34 64
-1.694570e+000 -1.705919e+000 -6.751314e+000 76 63 44
-1.161215e+000 1.506333e+000 -7.499050e+000 131 72 74
-3.413772e+001 1.301388e+001 -8.030093e+001 169 161 178
-2.400940e+001 6.258021e+000 -5.549576e+001 70 46 94
3.326907e-001 6.211789e-001 -7.227762e+000 187 167 114
1.689155e-001 4.758089e-001 -6.922387e+000 191 173 133
5.426988e-001 4.499275e-001 -7.069066e+000 145 101 72
1.574990e+000 2.882734e-001 -7.449495e+000 140 155 132
-2.378863e+001 1.223659e+000 -4.907405e+001 210 25 67
-2.494006e+001 -1.712740e+000 -4.320379e+001 253 201 233
-2.588708e+001 -1.191259e+000 -4.695014e+001 90 70 155
-4.259197e-001 -8.755219e-001 -6.553359e+000 103 89 63
-1.712423e+001 -8.267614e+000 -3.787091e+001 66 45 107
-1.785134e+001 -9.216219e+000 -3.841519e+001 206 31 70
-1.696393e+001 -1.099898e+001 -3.716723e+001 49 35 69
-1.860229e+000 1.937269e+000 -7.668361e+000 94 119 90
-1.414153e+000 1.478328e+000 -7.311780e+000 135 71 66
-1.226281e+000 1.355691e+000 -7.208349e+000 176 136 141
-3.040077e+001 7.270674e+000 -5.303477e+001 254 67 123
-7.803050e-001 9.150748e-001 -6.770763e+000 160 68 69
-2.934120e+001 6.226434e+000 -5.190560e+001 82 62 125
-2.678915e+001 6.819079e+000 -5.643879e+001 230 42 84
-7.399516e-001 7.541131e-001 -6.607136e+000 157 66 67
-1.400787e-001 8.060430e-001 -7.305483e+000 84 81 62
-1.400787e-001 8.060430e-001 -7.305483e+000 84 81 62
-4.499138e-001 6.272679e-001 -6.850826e+000 193 183 181
8.966920e-001 4.629341e-001 -7.291816e+000 172 157 108
2.303238e-001 3.689888e-001 -6.777564e+000 188 173 126
2.922424e-001 2.307266e-001 -6.660245e+000 184 169 108
-1.916744e-001 -8.463978e-002 -6.084747e+000 165 151 86
-2.284136e+001 -3.912184e+000 -4.162140e+001 173 163 216
-1.894438e+001 -5.741427e+000 -4.164970e+001 201 27 62
-1.837954e+001 -7.207914e+000 -4.024541e+001 242 50 95
-1.795615e+001 -8.090523e+000 -3.872832e+001 250 56 101
6.925563e-001 1.186108e+000 -8.097648e+000 114 108 100
1.130864e-001 -1.950513e-001 -6.238198e+000 76 64 22
-1.698793e+001 -7.594602e+000 -4.078889e+001 67 54 124
-1.538464e+001 -7.933774e+000 -3.866278e+001 58 36 74
-8.976120e-001 1.155414e+000 -7.016588e+000 156 70 71
5.960195e-001 9.506577e-001 -7.707603e+000 177 171 135
-2.613664e+001 2.331408e+000 -4.752415e+001 73 53 112
-2.605165e+001 -8.614810e-002 -4.592753e+001 62 37 67
-2.178859e+001 -3.716550e+000 -4.332148e+001 255 62 110
8.540984e-001 8.433056e-003 -6.695582e+000 146 148 83
6.031783e-001 -4.794641e-001 -6.756786e+000 129 111 63
-2.465214e+001 -2.464302e+000 -4.506826e+001 69 47 109
1.328666e+000 1.629875e+000 -8.774770e+000 193 197 185
1.098130e+000 1.683463e-001 -7.134202e+000 169 156 115
-2.058658e+001 -3.328742e+000 -4.309313e+001 251 53 99
-9.202620e-001 4.670743e-001 -6.432049e+000 194 179 137
-2.819907e+001 1.096031e+000 -4.972806e+001 77 65 136
1.241223e-001 -3.263316e-002 3.826559e-001 0 255 0
1.232596e-001 -3.250393e-002 3.326635e-001 255 255 0
2.618910e-001 9.283714e-001 6.634473e-001 255 0 0
2.610992e-001 9.233169e-001 6.137098e-001 255 255 0
