ply
format ascii 1.0
element face 0
property list uchar int vertex_indices
element vertex 882
property float x
property float y
property float z
property uchar diffuse_red
property uchar diffuse_green
property uchar diffuse_blue
end_header
4.791047e-001 8.739119e-001 -6.829619e+000 18 10 20
-2.618833e-001 5.915878e-001 -7.652939e+000 166 150 142
5.242199e-001 3.603840e-001 -6.749379e+000 236 235 233
-2.602804e-001 2.150738e-001 -7.677298e+000 54 25 24
2.707102e-001 2.064852e-001 -7.007387e+000 146 133 125
-1.741797e-001 4.385397e-002 -6.894982e+000 82 44 35
-8.728724e-002 9.543412e-002 -6.986871e+000 124 111 102
-4.604425e-002 8.992430e-002 -6.934641e+000 166 157 148
5.871975e-002 -1.444084e-002 -6.881618e+000 132 119 111
7.303281e-002 -2.818383e-002 -6.887092e+000 155 142 134
9.392286e-001 1.435744e-002 -6.362159e+000 247 87 98
-1.747059e-001 -1.173383e-001 -6.829361e+000 33 17 4
8.306330e-001 -1.266290e-001 -6.473696e+000 206 50 54
-5.774797e-001 -1.913654e-001 -6.548104e+000 94 23 19
-4.957227e-001 -1.977085e-001 -6.638893e+000 122 38 20
-3.412820e-001 -1.945094e-001 -6.698291e+000 118 12 13
-1.607577e-001 -1.823255e-001 -6.877673e+000 131 107 70
-2.164284e-001 -2.304877e-001 -6.810920e+000 130 109 98
-3.404534e-001 -2.701363e-001 -6.687413e+000 32 12 14
-3.510719e-001 -2.887961e-001 -6.683729e+000 179 154 126
-3.357840e-001 -2.863022e-001 -6.689623e+000 175 116 101
-3.354017e-001 -2.849180e-001 -6.685489e+000 175 116 101
-3.382762e-001 -2.982576e-001 -6.680267e+000 34 17 11
-2.247280e-001 -3.323090e-001 -6.777827e+000 201 196 193
-9.369441e-002 -3.541623e-001 -6.935994e+000 255 251 242
3.736353e-001 -9.090589e-001 -7.243366e+000 162 140 96
-1.901060e-001 7.112227e-001 -7.582806e+000 207 44 50
7.063050e-002 5.439005e-001 -7.183683e+000 194 185 180
-3.165400e+000 7.983113e-001 -1.157101e+001 35 29 31
-2.529765e-001 2.304123e-001 -7.690548e+000 212 52 51
-2.003840e-001 2.325709e-001 -7.641305e+000 207 200 186
1.458090e-001 1.963484e-001 -6.948804e+000 154 140 124
9.100987e-001 1.563687e-001 -6.404537e+000 25 15 23
-9.486999e-004 3.930256e-002 -6.929753e+000 118 107 101
-5.466532e-002 2.211564e-002 -6.888098e+000 122 107 102
9.295052e-001 1.284850e-002 -6.371332e+000 233 78 82
-1.471076e-001 -7.130523e-002 -6.817382e+000 115 33 22
-1.353899e-001 -8.928977e-002 -6.804002e+000 149 67 49
-1.354609e-001 -8.928405e-002 -6.804227e+000 149 67 49
4.459712e-002 -1.489301e-001 -6.860001e+000 206 201 197
1.361797e-001 -1.462446e-001 -6.850990e+000 234 227 221
2.023332e-001 -1.233087e-001 -6.876701e+000 238 235 229
8.340742e-001 -1.469505e-001 -6.486570e+000 161 38 46
-4.877386e-001 -2.142111e-001 -6.647542e+000 154 52 29
3.720549e-001 -2.637999e-001 -6.896505e+000 211 204 195
-3.785007e-001 -2.824008e-001 -6.682422e+000 50 50 69
-2.260199e-001 -3.101049e-001 -6.761403e+000 163 155 150
-1.828743e-001 -3.089180e-001 -6.803331e+000 174 164 161
-1.828500e-001 -3.090747e-001 -6.810086e+000 174 164 161
-1.205680e-001 -2.949097e-001 -6.868913e+000 185 178 170
2.359621e-001 -4.009417e-001 -6.947206e+000 156 144 127
1.047195e+000 -3.205247e-001 -6.287280e+000 239 225 177
4.180539e-001 -4.956743e-001 -6.811717e+000 158 145 125
5.177951e-001 -5.926786e-001 -6.835072e+000 246 231 218
3.275231e-001 -9.247423e-001 -7.292760e+000 165 149 102
3.972807e-001 -9.014363e-001 -7.215454e+000 233 219 164
3.442013e-002 8.937461e-001 -7.295442e+000 202 190 185
6.225663e-001 6.893812e-001 -6.669431e+000 18 3 6
6.219206e-001 6.264551e-001 -6.613003e+000 167 39 45
7.351525e-001 4.963498e-001 -6.557469e+000 18 7 11
2.459999e-001 5.521178e-001 -7.102434e+000 184 177 167
6.441463e-001 4.339758e-001 -6.605225e+000 222 53 59
-8.939327e-002 4.170778e-001 -7.339839e+000 170 161 154
3.389335e-001 9.817593e-002 -6.832757e+000 154 141 132
-2.144752e-001 3.350794e-002 -6.940158e+000 72 27 22
-1.400465e-001 -2.225211e-002 -6.820395e+000 142 119 110
-3.501453e-001 -6.044473e-002 -6.764786e+000 86 18 7
-1.616182e-001 -7.955919e-002 -6.811052e+000 165 80 59
-4.631474e-001 -1.943444e-001 -6.739288e+000 134 33 10
-1.971358e-001 -2.470730e-001 -6.850825e+000 113 94 79
4.429257e-001 -2.509152e-001 -6.857593e+000 172 163 148
-2.537146e-001 -3.045551e-001 -6.723669e+000 181 172 170
-2.126757e-001 -3.262379e-001 -6.775594e+000 253 254 249
3.457045e-001 -4.462339e-001 -6.913688e+000 229 226 218
3.457045e-001 -4.462339e-001 -6.913688e+000 229 226 218
8.364265e-001 -5.430998e-001 -6.471428e+000 18 1 7
6.480969e-001 6.182880e-001 -6.618638e+000 196 55 61
-3.377221e-001 7.287609e-001 -7.744093e+000 30 16 16
7.262709e-001 4.810710e-001 -6.557595e+000 176 42 37
7.519836e-002 4.761608e-001 -7.176505e+000 186 177 168
4.049388e-001 4.269820e-001 -6.942365e+000 166 157 150
2.429304e-001 2.652599e-001 -7.034983e+000 123 110 99
8.981994e-001 1.807016e-001 -6.411207e+000 25 5 9
2.757050e-002 1.472059e-001 -7.016920e+000 178 169 160
2.757050e-002 1.472059e-001 -7.016920e+000 178 169 160
2.894362e-001 1.473892e-001 -6.849921e+000 142 129 113
5.889536e-001 7.753280e-002 -6.739033e+000 195 188 178
1.719298e-001 2.803792e-002 -6.850256e+000 192 182 172
1.730727e-001 6.921024e-004 -6.854362e+000 203 194 187
9.393210e-001 1.690848e-002 -6.375359e+000 243 79 98
-1.016247e-001 -2.889131e-002 -6.834707e+000 183 173 164
9.278716e-001 -1.168487e-001 -6.420098e+000 249 79 93
-7.567239e-001 -1.873611e-001 -6.577309e+000 135 113 67
-2.692886e+000 -5.980369e-001 -1.098970e+001 44 39 39
-3.939073e-001 -2.388433e-001 -6.709920e+000 188 105 67
4.575251e-001 -2.438636e-001 -6.808007e+000 243 240 231
5.389167e-001 -2.422110e-001 -6.717765e+000 172 158 147
6.749025e-001 -2.287142e-001 -6.592430e+000 158 145 134
-2.735199e-001 -3.192394e-001 -6.723018e+000 236 232 229
-3.447745e-002 -3.655962e-001 -6.994176e+000 255 254 249
7.177900e-001 -3.799606e-001 -6.536531e+000 182 159 106
7.386931e-001 -4.677477e-001 -6.594525e+000 169 147 134
3.804290e-001 -9.184937e-001 -7.222333e+000 45 32 34
7.044012e-001 -7.944106e-001 -6.765727e+000 253 82 93
3.167404e-001 8.353453e-001 -6.980888e+000 219 212 209
7.594989e-003 8.913630e-001 -7.322392e+000 192 35 44
6.588343e-001 6.561035e-001 -6.657904e+000 16 12 9
7.068584e-001 5.103679e-001 -6.578616e+000 203 42 57
-2.472977e-001 6.372088e-001 -7.606923e+000 206 191 183
3.824353e-001 4.445542e-001 -6.950499e+000 181 174 166
-9.060987e-002 4.445560e-001 -7.317527e+000 208 199 190
8.218302e-001 3.050213e-001 -6.448787e+000 214 49 60
8.033010e-001 2.177829e-001 -6.495719e+000 235 64 73
8.857132e-001 1.627900e-001 -6.404511e+000 229 58 64
5.555506e-001 1.184958e-001 -6.790479e+000 170 163 153
6.160072e-003 6.153951e-002 -6.938797e+000 179 168 162
2.605439e-002 4.077574e-002 -6.913382e+000 182 171 165
8.958521e-001 2.904614e-002 -6.353075e+000 204 53 62
9.529801e-001 5.028838e-002 -6.377591e+000 29 12 20
5.256350e-001 2.430691e-002 -6.701770e+000 162 150 138
8.807834e-001 6.621681e-003 -6.364160e+000 169 29 40
2.850129e-001 -2.854469e-002 -6.802828e+000 204 194 185
5.240304e-002 -9.698690e-002 -6.843133e+000 177 166 162
3.801288e-001 -1.030591e-001 -6.760776e+000 224 221 214
-5.826863e-001 -1.633567e-001 -6.566090e+000 145 60 38
-1.061590e-001 -1.977203e-001 -6.839833e+000 238 235 230
7.429411e-002 -2.038756e-001 -6.876569e+000 205 191 182
7.429411e-002 -2.038756e-001 -6.876569e+000 205 191 182
7.370186e-001 -1.701809e-001 -6.557424e+000 164 149 141
-8.905749e-002 -2.365978e-001 -6.890947e+000 241 240 237
2.564530e-001 -2.564909e-001 -6.926358e+000 215 208 200
-3.686163e-001 -2.838753e-001 -6.682652e+000 46 42 53
-1.586311e-001 -2.952317e-001 -6.830000e+000 159 143 131
3.382577e-001 -4.187588e-001 -6.921365e+000 254 255 250
4.107383e-001 -4.060845e-001 -6.848317e+000 151 132 94
5.227475e-001 -4.509013e-001 -6.729456e+000 239 233 224
3.530947e-001 -5.499787e-001 -6.966773e+000 254 255 250
7.513374e-001 -6.879825e-001 -6.642691e+000 28 11 12
2.897164e-001 -9.566071e-001 -7.350765e+000 208 191 147
3.021894e-001 8.849718e-001 -7.026761e+000 196 34 40
3.464931e-001 8.480839e-001 -6.960972e+000 206 37 44
6.615709e-001 5.945911e-001 -6.612497e+000 17 1 8
-3.124168e-001 7.557166e-001 -7.674189e+000 193 36 43
5.254467e-001 5.417016e-001 -6.760921e+000 148 124 116
5.170501e-001 5.124854e-001 -6.767736e+000 221 212 203
-8.265283e-002 4.800358e-001 -7.315411e+000 150 141 131
3.574752e-001 2.599954e-001 -7.009962e+000 142 132 119
8.635414e-001 2.213992e-001 -6.428680e+000 232 58 71
3.493957e-001 1.204185e-001 -6.842800e+000 194 184 174
3.548376e-001 3.887562e-002 -6.803215e+000 146 136 127
6.331362e-001 7.312298e-002 -6.688265e+000 188 181 171
-1.696802e-001 2.038891e-002 -6.882350e+000 77 20 13
-1.384274e-001 4.314229e-003 -6.867935e+000 156 144 132
4.613481e-001 2.621984e-002 -6.729018e+000 160 150 141
5.314550e-001 -6.237348e-003 -6.677524e+000 209 200 193
-2.291803e-001 -2.339091e-001 -6.769969e+000 169 145 135
3.385608e-001 -2.633019e-001 -6.898871e+000 227 220 210
5.616099e-001 -2.332994e-001 -6.683797e+000 177 166 154
-2.510135e-002 -3.995129e-001 -7.019225e+000 50 39 37
-3.487469e-001 -4.121270e-001 -6.843341e+000 40 34 25
3.723288e-001 -4.530591e-001 -6.898455e+000 254 253 249
7.674147e-001 -6.591697e-001 -6.640519e+000 250 255 249
2.219968e-001 7.437592e-001 -7.139956e+000 221 215 212
6.656424e-001 5.556357e-001 -6.610086e+000 227 55 67
3.753403e-001 6.090799e-001 -6.946818e+000 228 223 217
5.650716e-001 5.202213e-001 -6.671474e+000 219 53 65
-1.613602e-001 6.143457e-001 -7.532018e+000 156 143 134
1.129380e-001 5.485272e-001 -7.191243e+000 221 214 208
3.760291e-001 5.262835e-001 -6.964619e+000 240 233 227
4.639004e-002 5.224723e-001 -7.213493e+000 207 198 193
6.579870e-001 3.786259e-001 -6.634635e+000 215 204 198
4.941801e-002 4.295427e-001 -7.197013e+000 204 193 187
6.845115e-001 3.458674e-001 -6.579353e+000 213 45 54
-3.579749e-001 3.493019e-001 -7.709182e+000 212 202 193
1.794992e-001 2.760245e-001 -7.052360e+000 180 169 163
7.832792e-002 1.695621e-001 -6.983408e+000 138 125 116
7.310480e-001 1.596539e-001 -6.561475e+000 158 143 136
2.604270e-001 1.417790e-001 -6.899486e+000 198 190 179
9.028590e-001 9.672902e-002 -6.389166e+000 207 45 51
2.830398e-002 9.406991e-002 -6.973428e+000 129 119 109
7.551508e-002 9.470679e-002 -6.948660e+000 214 207 201
9.302488e-001 -1.523928e-002 -6.370985e+000 16 7 3
5.541625e-001 -3.103778e-002 -6.660233e+000 161 149 137
1.295149e-001 -1.218561e-001 -6.870278e+000 195 188 180
-6.650693e-001 -1.934070e-001 -6.557632e+000 122 56 50
9.001589e-001 -1.480344e-001 -6.418850e+000 122 23 36
-3.450912e-001 -2.079223e-001 -6.689104e+000 142 25 26
4.972352e-001 -2.533893e-001 -6.777992e+000 163 151 137
-4.018877e-001 -2.721641e-001 -6.711766e+000 239 188 141
4.583878e-001 -3.433900e-001 -6.769696e+000 161 138 94
3.716574e-001 -4.560284e-001 -6.900350e+000 255 254 250
7.697436e-001 -3.842664e-001 -6.506375e+000 230 217 208
3.775822e-001 -5.910244e-001 -6.980322e+000 225 222 215
6.123571e-001 -7.630728e-001 -6.841546e+000 44 28 34
3.739190e-001 7.806991e-001 -6.930928e+000 223 217 213
-1.932575e-002 8.348320e-001 -7.334954e+000 195 185 176
1.026198e-001 7.607761e-001 -7.236371e+000 206 199 193
5.452193e-001 5.947461e-001 -6.771493e+000 203 197 189
1.672816e-001 2.205236e-001 -7.020195e+000 126 113 104
8.068865e-001 1.600563e-001 -6.496522e+000 192 37 42
2.671515e-001 2.421616e-002 -6.837296e+000 160 152 141
1.332297e-001 -4.703121e-002 -6.858851e+000 255 254 250
1.994655e-001 -4.945123e-002 -6.857413e+000 209 198 192
6.005871e-001 -9.289855e-002 -6.614029e+000 145 131 120
9.029986e-001 -9.469381e-002 -6.383638e+000 241 66 78
-6.058720e-001 -1.774756e-001 -6.539691e+000 119 50 49
-5.742644e-001 -1.431129e-001 -6.576969e+000 149 68 39
-1.223128e-001 -2.562182e-001 -6.907537e+000 50 37 18
-1.224584e-001 -2.583285e-001 -6.921329e+000 50 37 18
-3.303015e-001 -2.794347e-001 -6.690695e+000 170 71 60
1.948589e-001 -3.402611e-001 -6.947359e+000 254 245 190
3.574076e-001 -2.959965e-001 -6.891045e+000 112 94 80
5.511110e-001 -4.203838e-001 -6.704772e+000 144 126 78
6.348095e-001 -3.862304e-001 -6.621004e+000 199 174 118
4.741583e-001 -5.181508e-001 -6.830034e+000 145 127 104
8.650904e-001 -6.483760e-001 -6.548614e+000 254 86 97
8.697764e-001 -6.531614e-001 -6.565850e+000 254 86 97
2.386269e-001 6.636550e-001 -7.078522e+000 163 154 145
1.522124e-001 6.354696e-001 -7.195287e+000 219 211 208
6.813557e-001 4.017075e-001 -6.557903e+000 162 31 39
7.460738e-001 3.744505e-001 -6.476557e+000 234 64 75
1.658727e-001 4.227310e-001 -7.108490e+000 214 205 198
7.755899e-001 1.397633e-001 -6.538036e+000 219 210 205
-1.615636e-001 -5.171931e-002 -6.821052e+000 85 24 16
1.849731e-001 -1.258555e-001 -6.859368e+000 254 255 250
9.020787e-001 -7.304321e-002 -6.409401e+000 243 67 77
8.473359e-001 -1.561017e-001 -6.453901e+000 135 32 35
-7.169548e-001 -2.324531e-001 -6.543223e+000 38 28 32
2.457300e-001 -2.260203e-001 -6.909695e+000 231 228 221
6.196891e-001 -2.588147e-001 -6.619433e+000 122 104 81
5.760622e-001 -3.237794e-001 -6.631124e+000 210 186 131
4.260912e-001 -4.509349e-001 -6.892539e+000 110 87 62
9.166961e-001 -3.604572e-001 -6.424792e+000 24 9 8
8.582358e-001 -5.612988e-001 -6.480182e+000 21 9 12
7.204997e-001 -7.659527e-001 -6.670973e+000 230 64 74
7.204997e-001 -7.659527e-001 -6.670973e+000 230 64 74
5.408395e-002 6.855502e-001 -7.221539e+000 170 157 151
5.408395e-002 6.855502e-001 -7.221539e+000 170 157 151
4.804999e-002 5.706096e-001 -7.197954e+000 208 199 194
2.747764e-001 5.642151e-001 -7.011128e+000 228 221 214
8.816588e-001 1.300335e-001 -6.408545e+000 216 46 55
8.362883e-001 4.929818e-002 -6.428511e+000 131 15 23
-6.323655e-001 -2.455811e-001 -6.588788e+000 246 124 75
7.495910e-002 -3.987577e-001 -6.968417e+000 255 255 253
7.207391e-001 -3.409451e-001 -6.539207e+000 154 132 86
5.171754e-001 -6.713229e-001 -6.892935e+000 22 12 13
7.314075e-001 -6.399164e-001 -6.650369e+000 255 255 253
9.433037e-001 -1.034294e-001 -6.342946e+000 42 30 32
-2.785009e-001 -3.674829e-001 -6.794850e+000 233 232 230
7.693749e-001 -5.019487e-001 -6.561459e+000 182 38 45
3.137484e-001 -8.855870e-001 -7.290690e+000 144 123 80
3.133536e-002 -2.635666e-002 -6.889005e+000 132 119 110
-6.548805e-002 -1.471701e-001 -6.859589e+000 248 244 242
5.810447e-001 3.977753e-001 -6.677281e+000 255 255 253
7.766298e-001 -1.782146e-002 -6.567617e+000 230 225 221
2.913709e-001 -5.250283e-001 -7.004391e+000 254 254 252
9.702886e-001 -2.405018e-001 -6.348012e+000 198 173 117
9.716216e-001 -2.403426e-001 -6.349613e+000 198 173 117
6.676276e-001 -5.640303e-001 -6.717297e+000 238 231 225
9.934274e-001 4.164312e-002 -6.415041e+000 46 34 34
1.886884e-002 8.747672e-001 -7.318267e+000 199 198 186
5.949392e-001 6.050085e-001 -6.575921e+000 219 51 60
6.057469e-001 5.630439e-001 -6.476740e+000 231 69 82
-1.732213e-001 6.857735e-001 -7.573779e+000 173 157 153
7.653094e-002 5.025654e-001 -7.193893e+000 178 165 159
9.398354e-001 7.285483e-002 -6.379851e+000 30 7 14
-1.315808e-002 5.123414e-002 -6.929477e+000 122 107 100
9.546680e-001 2.182868e-002 -6.368963e+000 22 12 11
-1.079852e-001 -1.826282e-002 -6.836108e+000 172 156 148
-1.438164e-001 -5.879333e-002 -6.824449e+000 162 69 54
-3.584863e-001 -1.412551e-001 -6.690177e+000 228 113 68
-2.231090e-001 -9.624533e-002 -6.696760e+000 75 18 11
-6.307155e-001 -1.518658e-001 -6.462035e+000 54 23 1
-1.287561e-001 -2.020631e-001 -6.893057e+000 124 102 57
-5.319522e-001 -2.097101e-001 -6.483820e+000 162 49 30
-3.593019e-001 -2.946886e-001 -6.665158e+000 47 35 45
-1.913880e-001 -3.101400e-001 -6.781838e+000 214 209 203
-1.909325e-001 -3.092134e-001 -6.779776e+000 214 209 203
-3.777435e-001 -3.842738e-001 -6.781065e+000 227 116 60
-1.038623e-001 -3.448176e-001 -6.840741e+000 45 34 30
1.386136e-001 7.880633e-001 -7.202352e+000 188 185 178
6.874742e-001 4.278005e-001 -6.612226e+000 168 32 38
-3.091033e-002 2.229806e-001 -7.179059e+000 157 147 137
3.092841e-002 1.820960e-001 -7.016582e+000 156 146 136
1.132806e-001 2.233576e-001 -6.937431e+000 148 134 122
-2.291338e-001 9.873063e-002 -6.849588e+000 114 55 46
-2.291338e-001 9.873063e-002 -6.849588e+000 114 55 46
-1.190532e-001 -1.858169e-001 -6.821394e+000 229 216 214
-5.504109e-001 -2.498935e-001 -6.518657e+000 217 106 79
-4.891164e-001 -2.350737e-001 -6.551607e+000 91 38 22
-1.629014e-001 -2.422303e-001 -6.813286e+000 46 30 11
-1.670252e-001 -2.729353e-001 -6.830000e+000 144 126 115
7.482602e-001 -2.199022e-001 -6.493953e+000 155 133 91
-2.246683e-001 -3.081700e-001 -6.744611e+000 163 155 150
-1.356048e-001 -3.129628e-001 -6.807229e+000 192 189 184
-1.356048e-001 -3.129628e-001 -6.807229e+000 192 189 184
2.846209e-001 8.840660e-001 -7.033393e+000 200 41 45
1.718824e-001 7.617347e-001 -7.176690e+000 225 218 212
8.138789e-001 3.467813e-001 -6.474595e+000 193 34 51
-7.161496e-002 3.798536e-001 -7.150189e+000 193 184 177
-2.512435e-001 9.143286e-002 -6.981434e+000 42 30 30
-1.223726e-001 -2.275598e-002 -6.828158e+000 102 37 22
-1.816286e-001 -1.507684e-001 -6.641470e+000 176 90 69
-5.292451e-001 -2.441336e-001 -6.581791e+000 167 47 36
-1.959970e-001 -2.460100e-001 -6.839623e+000 113 94 79
-5.708862e-001 -2.919684e-001 -6.603583e+000 210 94 65
-5.554625e-002 -3.653948e-001 -6.921640e+000 52 41 37
9.024640e-001 -3.971639e-001 -6.466503e+000 248 66 76
3.323243e-001 1.002742e+000 -6.993730e+000 28 16 22
-3.647511e-001 3.462858e-001 -7.730749e+000 219 206 198
7.855355e-001 1.450124e-001 -6.508944e+000 209 192 183
7.938504e-001 1.124319e-001 -6.493331e+000 192 178 168
-2.002899e-001 1.015551e-001 -7.070912e+000 37 25 20
-2.120540e-001 6.507152e-002 -6.968592e+000 47 28 22
5.148503e-001 -5.189683e-002 -6.666178e+000 222 215 209
-1.394246e-001 -1.787196e-001 -6.819453e+000 80 58 21
-4.782399e-001 -2.990358e-001 -6.739903e+000 48 29 27
-2.534448e-001 -3.027447e-001 -6.712984e+000 180 170 168
-1.294569e-001 3.669804e-001 -7.321611e+000 209 202 192
-1.538542e-002 2.578817e-001 -7.098661e+000 166 156 146
-1.538542e-002 2.578817e-001 -7.098661e+000 166 156 146
4.240992e-001 -7.008084e-002 -6.753480e+000 195 190 184
-6.972010e-001 -1.461713e-001 -6.411446e+000 190 163 108
7.049892e-001 -1.515404e-001 -6.597856e+000 195 188 182
3.560280e-001 -3.544729e-001 -6.881140e+000 183 163 112
7.525538e-001 -3.714687e-001 -6.552287e+000 178 154 106
2.123847e-001 -6.172386e-001 -7.301373e+000 72 62 35
5.044782e-001 8.120095e-001 -6.782732e+000 202 42 51
-7.834957e-002 4.761419e-001 -7.280628e+000 150 141 131
1.135332e-001 2.908349e-001 -6.918534e+000 181 168 159
-6.287239e-001 -1.051839e-001 -6.505348e+000 146 69 42
-2.372239e-001 -1.932283e-001 -6.660890e+000 121 73 56
-2.372239e-001 -1.932283e-001 -6.660890e+000 121 73 56
1.106196e-001 -3.362424e-001 -6.907972e+000 47 30 18
4.301108e-001 -3.539670e-001 -6.943465e+000 102 84 47
3.963030e-001 -4.330804e-001 -7.003345e+000 85 66 41
7.402082e-001 -4.709442e-001 -6.620205e+000 180 158 145
7.476081e-001 -8.258655e-001 -6.711982e+000 224 60 67
7.476081e-001 -8.258655e-001 -6.711982e+000 224 60 67
7.211779e-001 1.584095e-001 -6.529236e+000 158 143 136
4.862125e-001 -3.379551e-002 -6.668006e+000 191 184 175
-5.311608e-001 -2.775894e-001 -6.601684e+000 255 211 172
5.685727e-001 7.000999e-001 -6.666785e+000 194 34 44
7.492495e-001 4.230815e-001 -6.453343e+000 19 0 9
-1.622008e-001 5.533160e-001 -7.539297e+000 223 216 209
2.043634e-001 4.763861e-001 -7.055305e+000 149 139 129
3.615974e-001 3.955539e-001 -6.891587e+000 222 213 208
-3.049658e-001 -6.123246e-002 -6.627729e+000 87 23 15
8.946851e-001 -4.228390e-002 -6.376158e+000 248 77 87
5.458049e-001 -9.278209e-002 -6.653700e+000 241 241 233
6.910300e-001 -2.338546e-001 -6.569913e+000 111 91 67
7.702138e-001 -2.534900e-001 -6.553577e+000 165 141 95
6.825974e-001 -2.932636e-001 -6.588125e+000 188 166 113
4.730791e-001 -4.552702e-001 -6.798989e+000 205 195 184
4.740500e-001 5.123101e-001 -6.745769e+000 209 202 194
-1.782961e-001 -1.652688e-001 -6.918114e+000 93 66 37
3.818873e-001 -2.310120e-001 -6.894228e+000 247 245 241
1.733324e-001 -3.913674e-001 -6.938091e+000 61 39 25
8.279572e-001 -5.521321e-001 -6.559979e+000 255 78 92
2.752488e-001 5.646157e-001 -7.014214e+000 228 221 214
3.193294e-001 -9.008488e-001 -7.351070e+000 144 123 80
-4.589200e-001 -3.926440e-001 -6.883792e+000 45 33 33
9.137063e-001 -4.622675e-001 -6.455643e+000 24 8 11
-6.202158e-002 9.459183e-001 -7.409652e+000 148 23 29
-4.612361e-002 6.270692e-001 -7.313055e+000 212 206 197
6.272488e-001 6.391326e-001 -6.621710e+000 98 12 21
8.921068e-002 4.925838e-001 -7.216603e+000 155 145 135
6.916647e-001 5.450980e-001 -6.586486e+000 188 53 56
-8.807560e-002 3.671947e-001 -7.323287e+000 151 141 131
2.836114e-001 1.926579e-001 -6.958431e+000 143 129 118
-9.437571e-002 4.118384e-002 -6.873554e+000 135 120 113
-2.227966e-002 5.761310e-002 -6.943882e+000 122 110 103
-1.002618e-002 3.191141e-002 -6.916751e+000 153 143 133
1.495266e-001 3.900131e-002 -6.747670e+000 156 146 137
-4.848074e-001 -1.447440e-001 -6.729584e+000 156 71 47
-4.848074e-001 -1.447440e-001 -6.729584e+000 156 71 47
-4.103317e-001 -1.120291e-001 -6.715240e+000 176 90 62
-4.163759e-001 -1.163274e-001 -6.752229e+000 176 90 62
-2.197097e-001 -1.288656e-001 -6.739943e+000 145 58 35
-2.443989e-001 -1.464324e-001 -6.688447e+000 196 88 56
3.939398e-001 -2.874554e-002 -6.736130e+000 197 189 181
-4.686604e-001 -2.174658e-001 -6.773519e+000 187 84 56
-4.321069e-001 -2.095412e-001 -6.774230e+000 191 72 37
5.587336e-002 -2.049267e-001 -6.898004e+000 242 236 231
-5.735149e-002 -2.595149e-001 -6.944433e+000 44 33 15
-3.489100e-001 -2.982642e-001 -6.681672e+000 201 179 160
1.291120e-001 -3.003149e-001 -6.936132e+000 141 120 74
3.696602e-001 -5.065361e-001 -6.929102e+000 241 238 228
5.322697e-001 -6.493138e-001 -6.910331e+000 229 79 86
8.269571e-001 -5.096208e-001 -6.448894e+000 180 21 31
8.214915e-001 -5.270139e-001 -6.436526e+000 23 4 1
-2.761280e-001 6.091359e-001 -7.682435e+000 195 186 185
6.610325e-001 6.139581e-001 -6.614509e+000 18 6 10
7.338462e-002 5.238500e-001 -7.204718e+000 212 206 200
7.222697e-002 5.230300e-001 -7.189369e+000 212 206 200
5.977295e-001 4.469664e-001 -6.661380e+000 234 229 226
5.996927e-001 4.466831e-001 -6.670574e+000 234 229 226
1.222697e-001 2.218035e-001 -6.952108e+000 136 120 107
1.960966e-003 1.826170e-001 -7.080930e+000 152 139 130
-1.126017e-002 8.074214e-002 -6.950169e+000 128 114 105
2.698629e-001 1.645784e-001 -6.929197e+000 140 127 111
-1.132130e-001 5.595986e-002 -6.892769e+000 123 110 102
-1.132130e-001 5.595986e-002 -6.892769e+000 123 110 102
-6.066853e-002 1.372550e-002 -6.863027e+000 147 134 126
3.635764e-002 -1.886468e-002 -6.869697e+000 125 112 104
4.486011e-002 -4.466948e-003 -6.873322e+000 169 160 151
-2.315987e-001 -9.807304e-002 -6.753797e+000 65 4 1
-2.315987e-001 -9.807304e-002 -6.753797e+000 65 4 1
-1.424061e-001 -5.708576e-002 -6.819532e+000 172 87 71
-1.431768e-001 -9.813919e-002 -6.803155e+000 207 180 171
-5.671105e-001 -2.295362e-001 -6.575130e+000 230 112 81
-5.671105e-001 -2.295362e-001 -6.575130e+000 230 112 81
-4.376419e-001 -2.676768e-001 -6.783425e+000 66 24 20
-3.590067e-001 -2.895444e-001 -6.665187e+000 57 54 68
-1.849378e-001 -2.895530e-001 -6.809877e+000 179 166 158
3.347079e-001 -1.866589e-001 -6.886127e+000 230 227 220
-3.741167e-002 -3.587049e-001 -6.950284e+000 254 252 247
-2.387123e-002 -3.917466e-001 -7.028180e+000 46 35 29
5.962923e-001 -4.058366e-001 -6.615118e+000 211 186 130
9.933822e-001 -3.054743e-001 -6.359746e+000 198 175 121
1.975431e-001 -7.401085e-001 -7.116281e+000 41 31 23
3.481532e-001 -8.521177e-001 -7.217677e+000 150 128 79
8.388371e-001 -4.870197e-001 -6.465484e+000 211 46 55
4.513799e-001 9.080560e-001 -6.926706e+000 182 43 46
-2.615643e-001 5.914896e-001 -7.641085e+000 156 140 131
5.775379e-001 6.498505e-001 -6.633696e+000 113 9 17
-4.139616e-001 4.079537e-001 -7.871410e+000 34 24 16
-1.485986e-001 4.982426e-001 -7.555612e+000 205 198 188
-1.894029e-001 4.110423e-001 -7.590607e+000 217 210 200
-1.383529e-001 3.285330e-001 -7.381741e+000 144 131 120
-4.036150e-002 3.206372e-001 -7.275891e+000 172 162 152
5.706436e-001 4.078708e-001 -6.695066e+000 229 226 221
5.710922e-001 4.074917e-001 -6.698578e+000 229 226 221
1.159385e-001 1.814075e-001 -6.953280e+000 175 165 156
-1.361017e-001 1.027469e-001 -6.978942e+000 138 124 115
-2.068801e-002 2.285830e-002 -6.911616e+000 115 102 93
2.455796e-002 6.281031e-003 -6.899064e+000 123 113 104
-1.301026e-001 -8.387634e-002 -6.866893e+000 184 161 155
1.616408e-001 -3.404067e-002 -6.851502e+000 206 197 188
-6.235014e-001 -1.444218e-001 -6.553719e+000 77 22 2
-6.044755e-001 -1.610670e-001 -6.517664e+000 54 5 8
-2.251830e-001 -1.475966e-001 -6.719941e+000 219 97 66
-1.447828e-001 -1.775649e-001 -6.870607e+000 93 69 26
-5.012168e-001 -2.342168e-001 -6.651701e+000 225 183 143
-1.132398e-001 -2.256233e-001 -6.881137e+000 97 79 41
-1.650415e-001 -2.610618e-001 -6.846796e+000 203 193 181
-1.464878e-001 -3.611773e-001 -6.901307e+000 45 36 31
-2.678777e-001 -4.162095e-001 -6.862003e+000 234 233 229
8.947980e-001 -2.572810e-001 -6.395636e+000 152 124 77
4.479988e-001 -5.209602e-001 -6.816892e+000 160 147 126
5.125790e-001 -6.091537e-001 -6.862656e+000 174 33 33
8.127609e-001 -4.884699e-001 -6.453917e+000 214 52 58
-3.180699e-002 8.753132e-001 -7.345608e+000 173 35 41
-1.726976e-001 8.067924e-001 -7.574025e+000 195 44 52
-1.726976e-001 8.067924e-001 -7.574025e+000 195 44 52
-2.551842e-001 6.676915e-001 -7.606541e+000 210 44 53
-1.327241e-001 6.800609e-001 -7.538528e+000 203 195 185
-1.324348e-001 6.802004e-001 -7.539238e+000 203 195 185
-2.816190e-001 6.322589e-001 -7.686065e+000 183 34 41
-2.878570e-001 5.403562e-001 -7.679832e+000 178 166 154
2.020353e-001 5.667418e-001 -7.168963e+000 213 204 198
5.891497e-002 4.873412e-001 -7.199564e+000 195 185 177
2.305564e-001 5.431708e-001 -7.126196e+000 208 201 195
-8.292567e-002 3.940024e-001 -7.318270e+000 193 184 175
6.913108e-001 4.464795e-001 -6.602180e+000 203 45 53
7.065900e-001 4.793483e-001 -6.587363e+000 171 26 33
-2.253104e-001 1.429731e-001 -7.724462e+000 203 52 59
-4.283661e-002 1.721280e-001 -7.111818e+000 124 111 102
-5.563572e-003 1.324243e-001 -7.051052e+000 122 114 103
-1.905079e-001 4.474745e-002 -6.919583e+000 130 108 100
5.744294e-001 8.640340e-002 -6.762519e+000 188 179 170
-7.313159e-001 -1.465295e-001 -6.501990e+000 158 135 82
8.715882e-001 1.094057e-001 -6.500365e+000 222 55 65
4.207374e-001 -6.883505e-002 -6.730684e+000 202 197 191
-6.544730e-001 -1.986681e-001 -6.537898e+000 98 31 28
-3.316163e-001 -2.374546e-001 -6.691950e+000 143 9 18
4.404300e-001 -2.507252e-001 -6.851254e+000 165 151 141
4.153345e-001 -3.320495e-001 -6.829274e+000 91 74 38
5.198128e-001 -2.654215e-001 -6.730108e+000 165 152 135
4.931895e-001 -2.931613e-001 -6.736792e+000 148 138 123
7.711210e-001 -2.010340e-001 -6.496959e+000 83 65 39
7.630612e-001 -1.966516e-001 -6.475033e+000 83 65 39
9.039115e-001 -1.622774e-001 -6.396120e+000 140 118 71
7.601827e-001 -4.133109e-001 -6.542483e+000 197 167 159
1.051291e+000 -2.978411e-001 -6.278245e+000 27 14 14
5.352786e-001 -6.444355e-001 -6.762833e+000 39 28 23
6.569395e-001 -6.604020e-001 -6.699193e+000 224 57 65
-3.252453e+000 8.000040e-001 -1.162857e+001 11 7 8
2.167893e-001 6.872583e-001 -7.141743e+000 192 179 173
5.843963e-001 7.130492e-001 -6.699198e+000 183 29 39
-2.923378e-002 4.452037e-001 -7.227483e+000 183 173 163
3.954145e-001 3.236544e-001 -6.937092e+000 183 175 163
-2.016112e-001 1.995219e-001 -7.637473e+000 168 33 38
1.930124e-001 5.645559e-002 -6.878840e+000 159 144 137
-2.877568e-001 -2.963096e-002 -6.822456e+000 123 51 35
3.447831e-001 6.857842e-002 -6.826760e+000 179 171 160
-7.303343e-001 -2.010316e-001 -6.561482e+000 32 23 24
-4.216568e-001 -1.473891e-001 -6.720482e+000 234 122 84
-4.062002e-001 -1.694231e-001 -6.703098e+000 166 35 18
-2.077858e-002 -1.013629e-001 -6.809879e+000 241 236 233
9.044823e-001 5.636051e-002 -6.369052e+000 119 10 23
-3.667178e-001 -3.286127e-001 -6.745802e+000 161 144 133
-1.808459e-001 -3.536194e-001 -6.846881e+000 211 204 198
7.208614e-001 -2.115993e-001 -6.576266e+000 147 129 119
7.082730e-001 -2.410697e-001 -6.502471e+000 174 151 101
5.327817e-001 -4.677018e-001 -6.690271e+000 194 185 174
7.439345e-001 -3.682683e-001 -6.518109e+000 175 151 105
1.040533e+000 -3.143779e-001 -6.284086e+000 206 183 115
1.040533e+000 -3.143779e-001 -6.284086e+000 206 183 115
6.713671e-001 -5.634587e-001 -6.673147e+000 208 200 189
3.079407e-001 -8.991436e-001 -7.306465e+000 134 114 69
4.037902e-001 -8.685089e-001 -7.208588e+000 13 5 8
8.225815e-001 -4.721539e-001 -6.463842e+000 150 2 16
-1.766252e+000 -2.523297e+000 -1.025345e+001 37 31 33
-1.758102e+000 -2.648554e+000 -1.027684e+001 37 31 33
-1.289765e+000 -1.875026e+000 -8.512718e+000 39 33 35
-4.266779e-001 5.544565e-001 -7.869073e+000 191 41 42
-5.520803e-002 5.136726e-001 -7.301762e+000 206 197 188
-3.618031e-001 3.493487e-001 -7.767129e+000 208 194 184
-1.425213e-001 3.688216e-001 -7.387350e+000 202 194 183
3.863468e-001 2.326928e-001 -6.982670e+000 141 133 122
1.169426e-001 8.469339e-002 -6.916365e+000 155 145 136
-6.874051e-001 -1.309514e-001 -6.479589e+000 39 24 28
-1.509725e-001 -1.151446e-001 -6.844290e+000 182 160 154
3.674300e-001 4.196783e-003 -6.761752e+000 220 216 210
3.674300e-001 4.196783e-003 -6.761752e+000 220 216 210
2.203755e-001 -1.004089e-001 -6.867963e+000 255 252 244
4.989864e-001 -3.261609e-002 -6.691943e+000 188 179 172
5.331569e-001 -6.079078e-003 -6.682777e+000 213 205 196
5.969298e-001 -3.625194e-002 -6.664507e+000 180 172 160
5.970181e-001 -3.636564e-002 -6.664964e+000 180 172 160
4.350852e-001 -1.149271e-001 -6.762574e+000 226 221 217
4.350852e-001 -1.149271e-001 -6.762574e+000 226 221 217
8.825237e-001 -3.906600e-001 -6.443770e+000 229 58 69
-1.731575e+000 -2.454918e+000 -1.025673e+001 24 18 20
-1.685406e+000 -2.528043e+000 -1.016880e+001 20 14 16
-1.631474e+000 -2.670074e+000 -1.013255e+001 29 23 25
5.057506e-001 8.128762e-001 -6.806218e+000 199 40 48
-1.515290e-001 7.714799e-001 -7.582427e+000 191 41 48
-7.273643e-002 5.705745e-001 -7.289239e+000 177 168 159
-2.850524e-002 5.847496e-001 -7.267890e+000 218 211 201
5.576132e-001 6.039743e-001 -6.661443e+000 189 43 49
-4.248659e-001 3.981768e-001 -7.877980e+000 38 24 21
-9.566124e-002 3.526520e-001 -7.361870e+000 145 133 122
1.169469e-001 3.024481e-001 -7.060256e+000 188 175 166
3.033095e-001 2.679770e-001 -7.001539e+000 170 162 149
5.165317e-001 1.185188e-001 -6.830909e+000 155 145 134
-7.228085e-001 -1.556502e-001 -6.510219e+000 168 147 100
-7.228085e-001 -1.556502e-001 -6.510219e+000 168 147 100
-6.679155e-001 -1.497241e-001 -6.526681e+000 151 127 81
5.315830e-001 -6.277296e-003 -6.677999e+000 213 205 196
9.105230e-001 -3.986873e-002 -6.400935e+000 247 80 90
3.807722e-001 -4.139583e-001 -6.899840e+000 81 64 37
4.741554e-001 -4.543976e-001 -6.791832e+000 204 191 182
9.996635e-001 -2.738616e-001 -6.317347e+000 163 139 91
3.421839e-001 -9.394098e-001 -7.260054e+000 41 28 23
-1.556314e+000 -2.637040e+000 -1.014085e+001 68 64 65
-9.469619e-002 7.297118e-001 -7.297711e+000 220 197 200
4.329125e-001 4.542630e-001 -6.916215e+000 210 201 194
9.002417e-002 3.520006e-001 -7.117224e+000 153 141 129
2.808934e-001 3.720674e-001 -7.070769e+000 178 169 160
2.772303e-003 3.052973e-001 -7.226639e+000 140 130 118
7.987163e-002 1.688857e-001 -7.009483e+000 128 116 106
1.348320e-001 1.624909e-001 -6.959806e+000 201 194 184
3.849684e-001 2.413530e-001 -6.993753e+000 151 143 132
6.068647e-001 1.911302e-001 -6.698097e+000 249 245 240
8.925841e-002 -1.928832e-002 -6.885758e+000 127 117 107
-5.742134e-001 -1.420400e-001 -6.571866e+000 155 66 34
1.052484e-002 -2.322560e-001 -6.907757e+000 244 241 236
6.018538e-001 -9.369479e-002 -6.616493e+000 133 119 108
5.358270e-001 -2.022503e-001 -6.715296e+000 234 230 221
4.232801e-001 7.995812e-001 -6.900440e+000 207 41 48
-3.172067e-001 2.616713e-001 -7.727444e+000 37 29 27
7.683213e-001 4.284155e-001 -6.502393e+000 17 7 8
-3.097220e-001 -5.930135e-002 -6.724350e+000 87 27 18
1.787990e-001 -3.858085e-001 -6.909972e+000 63 35 24
8.460840e-001 -1.608725e-001 -6.465557e+000 108 27 33
5.726022e-001 -3.194631e-001 -6.612671e+000 222 197 140
7.556481e-001 -2.476514e-001 -6.485349e+000 175 151 103
7.428189e-001 -4.172087e-001 -6.549445e+000 227 214 206
2.646136e-001 5.591824e-001 -6.920394e+000 230 221 214
4.766713e-001 5.230896e-001 -6.838819e+000 215 208 200
3.466043e-001 3.947164e-001 -6.939606e+000 211 204 196
3.497641e-001 3.941276e-001 -6.954533e+000 211 204 196
6.250486e-001 2.517487e-001 -6.675725e+000 174 159 147
3.103896e-001 9.994942e-002 -6.855297e+000 178 168 159
8.507804e-001 -2.879042e-001 -6.435345e+000 108 88 50
4.860954e-002 5.705553e-001 -7.199694e+000 217 208 201
4.784110e-003 4.085830e-001 -7.255189e+000 186 176 167
4.351423e-002 2.861925e-001 -7.164622e+000 131 121 111
7.072476e-001 2.466908e-001 -6.562639e+000 249 248 244
6.039486e-001 -1.752000e-001 -6.614201e+000 247 240 234
3.162612e-001 -8.952948e-001 -7.312777e+000 140 121 72
1.123376e-001 8.330502e-001 -7.207368e+000 210 201 196
3.231849e-001 4.831839e-001 -6.952334e+000 233 224 217
-2.247010e-001 -7.289684e-002 -6.769010e+000 76 21 19
4.344278e-001 9.712044e-002 -6.761434e+000 138 126 114
4.628102e-001 -3.520764e-001 -6.811832e+000 170 148 100
-2.388488e-001 4.498999e-001 -7.726111e+000 215 206 197
-3.013688e-002 -5.433427e-001 -6.963867e+000 39 31 29
5.816215e-001 3.349843e-001 -6.694646e+000 243 242 237
-1.871619e-001 1.506940e-002 -6.877576e+000 73 25 18
1.635399e-004 1.635179e-002 -6.925332e+000 142 132 122
-1.465980e-001 -2.898950e-001 -6.832931e+000 172 159 150
-2.036455e-001 -3.107228e-001 -6.784685e+000 171 161 150
2.043317e-001 5.458103e-001 -7.175042e+000 175 166 157
2.102247e-001 1.766184e-001 -6.969112e+000 124 113 103
-1.180969e-001 -9.842694e-003 -6.873661e+000 149 136 128
-2.158776e-001 -2.437135e-001 -6.808429e+000 168 150 139
6.214744e-001 6.710705e-001 -6.661868e+000 122 32 33
-1.079701e-001 3.944423e-001 -7.381947e+000 164 156 145
-4.194443e-001 -6.382393e-002 -6.748494e+000 108 35 15
-3.020713e-001 -2.830846e-001 -6.653979e+000 168 149 148
9.260303e-001 5.094111e-002 -6.360373e+000 180 41 48
3.656463e-001 -9.479645e-002 -6.819456e+000 253 250 245
-1.285839e-001 -3.471095e-001 -6.917153e+000 240 237 230
5.125031e-001 -6.093832e-001 -6.862307e+000 181 39 35
6.830403e-001 5.118281e-001 -6.604163e+000 189 34 42
5.897601e-001 4.906088e-001 -6.657814e+000 249 64 78
8.409422e-001 1.796617e-001 -6.476248e+000 227 60 68
9.014561e-001 5.548455e-002 -6.373885e+000 121 11 20
-8.366609e+000 -6.145982e+000 -1.903260e+001 106 97 95
-3.468969e-001 7.260768e-001 -7.753525e+000 25 18 16
1.740931e-001 3.248956e-001 -7.075163e+000 134 124 111
-5.600115e-003 8.957359e-001 -7.321028e+000 181 36 41
1.013370e+000 -1.431930e-001 -6.286447e+000 190 165 111
1.013370e+000 -1.431930e-001 -6.286447e+000 190 165 111
1.342327e-001 3.126230e-002 -6.885557e+000 132 120 108
-4.897851e-001 -1.021879e-001 -6.707092e+000 69 22 15
4.391943e-001 5.729992e-002 -7.145927e+000 142 132 120
4.885401e-001 5.111903e-001 -6.810597e+000 194 186 177
-1.006525e-001 1.151486e-001 -6.888166e+000 102 88 79
-5.700305e-001 -1.154208e-001 -6.956119e+000 114 51 31
-3.782009e-001 -1.824191e-001 -6.713100e+000 186 45 12
1.980489e-001 7.073910e-001 -7.185989e+000 195 186 181
-7.233247e-001 -1.342458e-001 -6.460809e+000 140 113 65
-7.080431e-001 -2.795877e-001 -6.701480e+000 51 37 33
-3.956914e-001 -1.678874e-001 -6.651272e+000 146 24 8
-5.172818e-001 -2.646401e-001 -6.604193e+000 220 167 124
-4.945987e-001 -2.329069e-001 -6.573113e+000 82 29 13
-4.945987e-001 -2.329069e-001 -6.573113e+000 82 29 13
2.063525e-001 5.508900e-001 -6.921603e+000 209 200 191
4.819694e-001 6.203314e-001 -6.711890e+000 187 177 171
-1.600979e-001 2.234637e-002 -6.875202e+000 89 32 21
-5.469952e-001 -2.754931e-001 -6.641108e+000 252 220 167
-5.149180e-001 -2.476845e-001 -6.599537e+000 253 210 175
-4.679592e-001 -2.368192e-001 -6.746992e+000 160 51 24
-4.308905e-001 -2.287536e-001 -6.727350e+000 239 157 124
-2.262435e-001 -1.434655e-001 -6.702380e+000 218 101 62
3.173919e-001 8.377558e-001 -6.993414e+000 227 214 213
5.628001e-001 5.127713e-001 -6.682797e+000 208 52 57
5.119122e-001 4.521523e-001 -6.972707e+000 150 140 128
-6.995386e-001 -1.496546e-001 -6.541313e+000 46 31 24
-2.004039e-001 -1.372136e-001 -6.681829e+000 99 24 18
-4.859844e-001 -2.605152e-001 -6.627788e+000 237 191 148
-6.571395e-001 -1.389449e-001 -6.478140e+000 140 117 76
4.482232e-001 8.686942e-001 -6.844357e+000 196 44 50
-5.217862e-001 -2.630709e-001 -6.605211e+000 232 174 132
-6.686648e-001 -1.166903e-001 -6.619646e+000 137 59 23
-2.425706e-001 -1.704608e-001 -6.665686e+000 227 105 57
2.418226e-001 6.660871e-001 -7.071446e+000 153 142 134
-1.430803e-001 5.221779e-001 -7.531387e+000 171 163 153
-1.733526e+000 -2.262410e+000 -1.018635e+001 58 49 50
7.051830e-001 4.603818e-001 -6.586276e+000 200 52 59
5.653880e-001 -7.229458e-001 -6.785801e+000 230 98 105
1.783130e-001 -3.889597e-001 -6.922016e+000 63 35 24
3.755899e-001 9.512882e-001 -6.902002e+000 174 44 51
7.209930e-002 5.238614e-001 -7.138679e+000 216 207 198
5.745545e-001 6.334007e-001 -6.624881e+000 188 44 48
-1.294986e-001 3.000023e-001 -7.335539e+000 152 140 128
2.687791e-001 1.911376e-001 -6.929276e+000 121 109 94
1.873240e-001 1.210994e-001 -6.845232e+000 191 178 169
-2.377881e-001 -1.028932e-001 -6.750577e+000 84 16 7
-3.259161e-001 -1.929007e-001 -6.662778e+000 167 86 64
3.722678e-001 -6.798855e-002 -6.755699e+000 214 209 202
3.758311e-001 -9.152364e-002 -6.787402e+000 223 217 211
5.667165e-003 5.321348e-001 -7.264112e+000 205 198 190
6.249979e-001 6.432017e-001 -6.645730e+000 82 12 15
5.674866e-001 6.242492e-001 -6.553209e+000 206 47 61
5.504323e-002 1.863013e-001 -7.002838e+000 152 142 133
-3.285550e-001 -2.762764e-002 -6.802720e+000 118 50 32
-3.285550e-001 -2.762764e-002 -6.802720e+000 118 50 32
-2.189358e-002 4.345507e-002 -6.914113e+000 164 151 143
-2.009667e-001 -5.039965e-002 -6.843550e+000 84 17 11
1.885676e-001 -1.067070e-001 -6.854784e+000 254 254 249
-1.534943e+000 -3.150558e+000 -1.002727e+001 45 39 41
2.713076e-001 1.013469e+000 -7.057902e+000 200 48 52
3.306897e-001 8.844323e-001 -7.044081e+000 214 51 52
3.225534e-001 8.818918e-001 -6.994500e+000 214 51 52
-3.322272e-001 7.303130e-001 -7.752319e+000 20 20 18
-1.282712e-001 6.885581e-001 -7.523490e+000 203 196 186
-1.609677e-001 4.597897e-001 -7.549636e+000 180 171 162
-6.345893e-002 3.611349e-001 -7.307095e+000 180 172 162
-1.566187e-001 3.898098e-002 -6.892527e+000 135 120 113
8.772293e-001 -2.632879e-001 -6.385315e+000 170 147 95
8.941110e-001 -2.544409e-001 -6.390302e+000 164 139 85
6.273056e-001 4.575478e-001 -6.611358e+000 245 68 80
8.560330e-002 1.345134e-001 -6.946410e+000 162 152 142
5.268367e-001 1.731917e-001 -6.843813e+000 172 163 152
5.547788e-001 -2.169060e-001 -6.710692e+000 229 225 216
-6.368130e+000 -7.559923e+000 -1.796434e+001 31 32 36
-4.405972e+000 -6.250335e+000 -1.485661e+001 131 127 141
-4.210236e+000 -6.548783e+000 -1.499920e+001 21 19 22
-5.783905e+000 -8.512844e+000 -1.691591e+001 110 109 122
2.997863e-001 9.986183e-001 -7.017821e+000 204 47 54
3.369206e-001 9.703336e-001 -6.962768e+000 194 38 42
-1.055555e-001 4.033140e-001 -7.370654e+000 165 155 145
5.942318e-001 4.655149e-001 -6.661297e+000 250 245 244
8.619065e-002 -5.605102e-002 -6.861083e+000 160 146 135
2.284147e-001 -1.786797e-001 -6.909913e+000 218 209 202
2.284147e-001 -1.786797e-001 -6.909913e+000 218 209 202
3.311802e-001 -2.218862e-001 -6.905882e+000 217 210 200
9.293172e-001 -9.316255e-002 -6.381097e+000 25 9 12
6.761170e-001 -6.119105e-001 -6.706444e+000 210 205 196
7.577748e-001 -6.033687e-001 -6.597474e+000 250 75 86
8.813433e-001 -6.605104e-001 -6.538964e+000 250 86 94
8.813433e-001 -6.605104e-001 -6.538964e+000 250 86 94
-4.224145e+000 -6.434671e+000 -1.472151e+001 134 131 146
-5.372758e+000 -8.481357e+000 -1.708330e+001 51 51 59
1.100619e-001 -3.324041e-001 -6.905040e+000 44 28 15
1.015666e+000 -1.389048e-001 -6.278780e+000 204 174 122
1.015666e+000 -1.389048e-001 -6.278780e+000 204 174 122
8.703866e-001 -6.468945e-001 -6.523922e+000 250 78 90
8.703866e-001 -6.468945e-001 -6.523922e+000 250 78 90
8.213990e-001 2.984767e-001 -6.456313e+000 218 54 65
5.646716e-003 -4.219121e-001 -7.015327e+000 43 34 30
8.784036e-001 -1.242699e-001 -6.465200e+000 228 64 75
4.390397e-001 7.120352e-001 -6.840795e+000 230 219 215
1.993315e-001 4.850398e-001 -7.130340e+000 139 126 117
4.825487e-001 2.024080e-001 -6.864714e+000 209 202 194
-3.485948e-002 -2.706877e-001 -6.900526e+000 125 108 78
-6.152392e+000 -7.624905e+000 -1.762102e+001 115 112 119
-6.015340e+000 -7.910500e+000 -1.726070e+001 133 131 142
-6.015340e+000 -7.910500e+000 -1.726070e+001 133 131 142
4.458904e-001 7.028341e-001 -6.859171e+000 229 221 218
1.818465e-001 -3.946563e-001 -6.935452e+000 66 33 26
-4.526606e+000 -6.381158e+000 -1.539705e+001 167 169 184
-6.267234e+000 -6.445349e+000 -1.853230e+001 19 17 22
-2.372710e-001 4.512019e-001 -7.721899e+000 213 204 195
1.824881e-001 5.577653e-001 -7.260357e+000 177 170 162
6.474249e-001 6.298630e-001 -6.630303e+000 109 22 20
-1.411968e-001 8.942509e-002 -6.977905e+000 107 93 84
-1.117933e-001 6.745664e-002 -6.905542e+000 145 130 123
-3.231302e-001 -4.508562e-002 -6.818244e+000 87 19 8
-7.560277e-002 1.498512e-002 -6.864243e+000 128 114 109
-3.959334e-001 -1.017918e-001 -6.715114e+000 125 31 14
-6.033762e-001 -1.633121e-001 -6.566887e+000 87 29 14
-4.562618e+000 -5.935776e+000 -1.496705e+001 95 90 100
8.248252e-001 -5.230900e-001 -6.463724e+000 243 85 83
-1.036304e-001 7.007872e-001 -7.469558e+000 183 176 168
-4.042943e-001 4.617158e-001 -7.843092e+000 206 40 46
-1.385627e-001 4.820091e-001 -7.523707e+000 166 157 148
2.866410e-001 1.850365e-001 -7.058281e+000 144 130 119
-1.735456e-001 4.215391e-002 -6.899767e+000 79 33 28
-3.574968e-001 -4.811879e-002 -6.772784e+000 139 61 39
-4.921448e-001 -1.140065e-001 -6.684303e+000 74 17 10
2.666391e-001 -2.694093e-001 -6.918752e+000 126 110 95
5.250784e-001 -7.740674e-002 -6.665279e+000 218 214 205
5.250784e-001 -7.740674e-002 -6.665279e+000 218 214 205
-5.600416e+000 -8.689732e+000 -1.694597e+001 156 161 183
6.153626e-001 6.497335e-001 -6.650043e+000 76 7 10
1.138940e-001 1.613226e-001 -6.962253e+000 199 191 180
6.432989e-001 4.067442e-001 -6.667447e+000 207 201 195
8.117059e-001 2.897333e-001 -6.460331e+000 234 67 77
-2.270291e-001 -1.563965e-001 -6.745473e+000 214 102 65
6.682035e-001 -7.451234e-001 -6.780560e+000 226 78 79
-1.162623e+000 -2.277286e+000 -8.493294e+000 25 19 21
-4.427229e-001 4.428311e-001 -7.928736e+000 217 58 56
-1.238579e-001 2.832061e-001 -7.297317e+000 140 127 118
-5.740136e-002 3.410991e-001 -7.303695e+000 140 130 117
5.077132e-001 4.883679e-001 -6.804619e+000 166 156 146
2.369543e-001 2.140741e-001 -6.984928e+000 119 104 94
-2.166090e-001 3.684919e-002 -6.917369e+000 61 12 11
3.751629e-001 1.594535e-001 -6.893386e+000 120 108 94
-2.403661e-001 -5.257133e-002 -6.818483e+000 78 23 16
8.385054e-001 1.822906e-001 -6.468593e+000 242 73 82
-1.582419e-001 -3.067951e-001 -6.856916e+000 169 148 135
-4.676275e+000 -6.279416e+000 -1.488702e+001 9 8 14
-1.283295e+000 -4.237275e+000 -1.009729e+001 46 40 42
3.485611e-001 1.200592e-001 -6.843224e+000 203 195 185
6.095796e-001 6.263085e-002 -6.717081e+000 194 185 178
8.437156e-001 -3.139918e-001 -6.422468e+000 110 86 48
-4.581730e+000 -6.324914e+000 -1.478859e+001 155 153 167
-4.581730e+000 -6.324914e+000 -1.478859e+001 155 153 167
-5.834076e+000 -8.544730e+000 -1.682157e+001 130 131 149
-1.563608e-001 6.600055e-001 -7.552037e+000 202 193 185
3.739449e-001 5.674105e-001 -6.979725e+000 168 157 153
3.739449e-001 5.674105e-001 -6.979725e+000 168 157 153
4.944860e-001 2.601209e-001 -6.841680e+000 194 185 176
7.448019e-001 -8.134673e-001 -6.709552e+000 231 66 80
7.448019e-001 -8.134673e-001 -6.709552e+000 231 66 80
5.028460e-001 8.115865e-001 -6.793816e+000 209 45 56
6.883438e-001 -2.324889e-001 -6.566115e+000 91 74 54
7.168530e-001 -8.147653e-002 -6.580441e+000 164 151 143
7.494624e-001 -2.343740e-001 -6.457372e+000 182 157 108
-4.205510e+000 -6.489655e+000 -1.436550e+001 161 161 173
-5.396096e+000 -7.999386e+000 -1.670821e+001 10 8 12
-5.396096e+000 -7.999386e+000 -1.670821e+001 10 8 12
9.439750e-001 -1.112622e-001 -6.360364e+000 37 26 27
-5.742514e+000 -8.652304e+000 -1.709052e+001 168 173 195
-1.754586e-001 1.903707e-001 -7.434086e+000 122 28 31
-1.174709e-001 1.005477e-001 -6.807102e+000 142 129 120
-1.344901e-001 -3.840471e-002 -6.824098e+000 109 37 21
-1.137043e-001 -2.002785e-001 -6.862403e+000 240 229 226
3.550604e-001 -9.618681e-002 -6.825578e+000 238 235 228
-2.341881e-001 8.405273e-001 -7.612197e+000 29 19 19
-1.653256e-001 6.617675e-001 -7.655679e+000 203 194 185
2.156333e-001 5.775081e-001 -7.140388e+000 190 181 174
2.156333e-001 5.775081e-001 -7.140388e+000 190 181 174
1.510500e-001 1.862950e-001 -6.908512e+000 157 141 126
-3.664298e-001 -4.788620e-002 -6.745869e+000 144 65 43
-7.930815e-002 4.236441e-002 -6.934524e+000 131 116 109
-6.581370e-001 -1.880853e-001 -6.525122e+000 91 24 17
-4.184912e-001 -1.673196e-001 -6.666225e+000 251 139 101
-1.217043e-001 -2.876418e-001 -6.846289e+000 191 183 174
-1.543232e+000 -3.066276e+000 -9.992600e+000 41 35 37
6.935843e-001 -2.034569e-001 -6.573097e+000 139 122 110
3.991605e-001 -9.059774e-001 -7.222938e+000 241 221 182
1.086945e-002 1.030857e+000 -7.269642e+000 186 39 40
-2.288611e-001 -2.560370e-002 -7.743338e+000 35 27 26
-2.288611e-001 -2.560370e-002 -7.743338e+000 35 27 26
-4.345837e-001 -1.888495e-002 -6.823151e+000 69 16 8
-4.345837e-001 -1.888495e-002 -6.823151e+000 69 16 8
6.867348e-001 4.367053e-001 -6.633220e+000 214 57 66
-5.011186e-001 -1.347120e-001 -6.604836e+000 147 63 39
3.657240e-001 4.344704e-002 -6.842435e+000 131 119 107
-2.234865e-002 -1.795420e-001 -6.847694e+000 253 250 243
9.390673e-002 -1.579041e-001 -6.884304e+000 232 225 219
-5.429599e-001 -2.620101e-001 -6.598414e+000 43 35 33
-1.628848e-001 -3.262557e-001 -6.841009e+000 232 225 221
3.276213e-001 -3.530880e-001 -6.884009e+000 196 183 131
-1.479451e+000 -3.210390e+000 -1.009051e+001 53 47 47
4.841657e-002 9.189249e-001 -7.258411e+000 203 42 49
-2.277799e-001 -1.474473e-001 -6.724408e+000 227 116 77
-4.407424e-002 -1.589680e-001 -6.826487e+000 227 224 219
-3.594320e-001 3.506930e-001 -7.700217e+000 213 200 191
6.633081e-001 4.241299e-001 -6.608159e+000 174 33 44
6.241810e-002 -3.117133e-002 -6.861720e+000 159 149 140
6.241810e-002 -3.117133e-002 -6.861720e+000 159 149 140
-1.262678e-001 -3.240722e-001 -6.876143e+000 242 236 232
8.418323e-001 1.381688e-001 -6.461368e+000 195 35 45
8.418323e-001 1.381688e-001 -6.461368e+000 195 35 45
3.979974e-001 -2.609560e-001 -6.894801e+000 244 237 231
9.014214e-001 2.667558e-002 -6.359058e+000 229 83 91
5.946792e-001 -6.669932e-001 -6.756631e+000 219 47 59
2.277979e-001 7.401887e-001 -7.170446e+000 223 217 213
-3.625495e-001 -1.582124e-001 -6.701145e+000 249 132 87
5.176251e-001 -4.702003e-001 -6.755523e+000 229 217 208
-4.583403e-001 -9.982635e-002 -6.685007e+000 94 33 26
3.104323e-001 4.706235e-002 -6.832857e+000 199 190 181
4.071858e-001 2.755403e-002 -6.753726e+000 146 134 120
4.071858e-001 2.755403e-002 -6.753726e+000 146 134 120
4.234037e-001 -7.107640e-003 -6.705225e+000 214 207 199
4.563444e-001 -3.388962e-001 -6.747806e+000 178 156 106
1.087620e-001 1.012104e+000 -7.218985e+000 203 48 54
-1.442307e-001 1.998944e-001 -7.441681e+000 184 174 162
-2.138241e-001 3.865636e-002 -7.307973e+000 220 212 205
-9.056500e-002 4.997197e-001 -7.415600e+000 168 162 150
-9.056500e-002 4.997197e-001 -7.415600e+000 168 162 150
4.399649e-001 -6.328562e-001 -6.897482e+000 251 250 245
-5.008412e-001 -1.209915e-001 -6.764914e+000 65 17 12
5.391284e-001 -2.901824e-001 -6.696449e+000 100 85 64
6.195303e-001 -7.420053e-001 -6.728436e+000 50 36 36
-3.160515e-001 1.865122e-001 -7.549548e+000 38 27 27
-2.340157e-001 -8.253225e-002 -6.796174e+000 66 11 8
2.839343e-001 -1.236074e-001 -6.895454e+000 245 242 234
2.839343e-001 -1.236074e-001 -6.895454e+000 245 242 234
-7.695758e-003 -5.478424e-001 -6.995539e+000 35 30 27
5.831807e-002 -3.095804e-002 -3.760299e+000 0 255 0
5.810346e-002 -3.078398e-002 -3.810299e+000 255 255 0
-8.540556e-002 3.593028e-001 -3.910897e+000 255 0 0
-8.362010e-002 3.518143e-001 -3.960301e+000 255 255 0
-1.285653e-002 8.568734e-002 -3.893582e+000 0 255 0
-1.188684e-002 8.256045e-002 -3.943474e+000 255 255 0
-1.343601e-001 6.126789e-001 -3.857806e+000 255 0 0
-1.315338e-001 6.019016e-001 -3.906549e+000 255 255 0
-2.033824e-001 7.264632e-001 -3.730056e+000 0 255 0
-1.999453e-001 7.124322e-001 -3.777924e+000 255 255 0
-3.298941e-001 1.070087e+000 -3.846509e+000 255 0 0
-3.249472e-001 1.054959e+000 -3.893908e+000 255 255 0
-4.676695e-001 1.304419e+000 -3.989795e+000 0 255 0
-4.605320e-001 1.283340e+000 -4.034569e+000 255 255 0
