ply
format ascii 1.0
element face 0
property list uchar int vertex_indices
element vertex 297
property float x
property float y
property float z
property uchar diffuse_red
property uchar diffuse_green
property uchar diffuse_blue
end_header
1.145153e+000 -1.827386e+000 3.234099e+000 36 52 23
9.826592e-001 -2.163453e+000 3.242950e+000 208 53 72
1.036049e+000 -2.074849e+000 3.249281e+000 179 121 99
1.066686e+000 -2.038515e+000 3.251396e+000 148 21 33
9.182125e-001 -2.376855e+000 3.224939e+000 181 125 94
1.099555e+000 -2.035609e+000 3.259789e+000 119 74 32
1.015162e+000 -2.122370e+000 3.245552e+000 122 30 39
9.322727e-001 -2.214946e+000 3.238745e+000 181 126 96
9.608190e-001 -2.177662e+000 3.241747e+000 179 120 103
1.141055e+000 -1.895663e+000 3.261476e+000 78 29 35
1.125557e+000 -1.987085e+000 3.262049e+000 60 21 38
1.137564e+000 -1.902130e+000 3.261444e+000 166 84 82
1.139494e+000 -1.937074e+000 3.257819e+000 56 16 24
1.104395e+000 -2.027310e+000 3.260785e+000 161 114 64
1.132325e+000 -1.906929e+000 3.261213e+000 101 48 49
1.141007e+000 -1.921638e+000 3.259135e+000 66 29 29
1.146561e+000 -1.824305e+000 3.235402e+000 143 146 128
1.133422e+000 -1.916161e+000 3.260187e+000 73 32 30
1.153513e+000 -1.885326e+000 3.261321e+000 126 91 95
1.144231e+000 -1.859969e+000 3.264861e+000 178 37 45
1.144231e+000 -1.859969e+000 3.264861e+000 178 37 45
1.160456e+000 -1.858175e+000 3.261388e+000 35 71 98
1.155103e+000 -1.882106e+000 3.261392e+000 62 40 40
1.137074e+000 -1.859872e+000 3.265664e+000 131 82 67
1.147341e+000 -1.855822e+000 3.264916e+000 178 42 49
1.144691e+000 -1.883802e+000 3.262498e+000 179 105 80
1.155699e+000 -1.893200e+000 3.260124e+000 141 113 99
1.149739e+000 -1.917913e+000 3.258915e+000 139 105 95
1.155373e+000 -1.914018e+000 3.258780e+000 75 36 39
1.137020e+000 -1.894848e+000 3.262095e+000 172 130 80
1.111606e+000 -1.980975e+000 3.254963e+000 42 15 24
1.150767e+000 -1.880694e+000 3.262156e+000 71 34 30
1.152636e+000 -1.878509e+000 3.262197e+000 164 85 88
1.039863e+000 -2.095625e+000 3.246935e+000 123 29 35
1.110274e+000 -2.014473e+000 3.261927e+000 128 83 40
1.140134e+000 -1.903386e+000 3.260951e+000 64 22 29
1.147480e+000 -1.909496e+000 3.259695e+000 165 116 112
8.130739e-001 -2.434004e+000 3.223046e+000 126 26 31
1.011321e+000 -2.109350e+000 3.246652e+000 179 117 103
1.053363e+000 -2.061957e+000 3.249650e+000 186 52 59
9.943937e-001 -2.170366e+000 3.241897e+000 188 59 70
1.160455e+000 -1.888850e+000 3.260269e+000 28 15 13
9.248934e-001 -2.237225e+000 3.238539e+000 137 25 34
1.137043e+000 -1.859908e+000 3.265676e+000 131 82 67
1.125951e+000 -1.945049e+000 3.257655e+000 112 57 27
1.152517e+000 -1.869540e+000 3.262898e+000 18 73 104
1.126701e+000 -1.996671e+000 3.262706e+000 81 52 56
1.135588e+000 -1.889215e+000 3.262702e+000 13 74 108
1.153176e+000 -1.873100e+000 3.262425e+000 191 117 93
1.154772e+000 -1.871824e+000 3.262296e+000 76 34 42
1.136604e+000 -1.900909e+000 3.261578e+000 172 85 84
1.144478e+000 -1.890520e+000 3.261838e+000 71 33 28
1.148757e+000 -1.884666e+000 3.262062e+000 162 83 81
1.147247e+000 -1.888327e+000 3.261731e+000 77 35 33
1.130713e+000 -1.909146e+000 3.261183e+000 73 20 20
1.146932e+000 -1.890186e+000 3.261643e+000 162 79 81
1.141155e+000 -1.903923e+000 3.260824e+000 127 58 68
7.853149e-001 -2.441691e+000 3.224675e+000 232 73 90
1.136750e+000 -1.861920e+000 3.265549e+000 187 147 124
1.136750e+000 -1.861920e+000 3.265549e+000 187 147 124
1.135137e+000 -1.863582e+000 3.265489e+000 186 149 125
1.135184e+000 -1.863546e+000 3.265470e+000 186 149 125
1.153517e+000 -1.859597e+000 3.263692e+000 202 82 77
1.135747e+000 -1.911627e+000 3.260573e+000 147 75 81
1.159826e+000 -1.892975e+000 3.259997e+000 26 22 20
1.116574e+000 -1.973401e+000 3.255951e+000 86 35 44
1.134579e+000 -1.957247e+000 3.261531e+000 73 37 41
1.163987e+000 -1.858853e+000 3.260114e+000 76 52 65
1.119978e+000 -1.986495e+000 3.260401e+000 150 98 51
1.149437e+000 -1.852128e+000 3.265055e+000 168 155 121
1.149437e+000 -1.852128e+000 3.265055e+000 168 155 121
1.162110e+000 -1.851652e+000 3.261052e+000 19 72 104
1.128448e+000 -1.821266e+000 3.302048e+000 156 53 49
1.131786e+000 -1.842205e+000 3.263841e+000 29 37 9
1.141952e+000 -1.853180e+000 3.265001e+000 197 135 117
1.142658e+000 -1.892102e+000 3.261912e+000 179 97 81
1.138293e+000 -1.901270e+000 3.262479e+000 96 44 42
1.126739e+000 -1.818284e+000 3.302893e+000 165 55 57
1.167859e+000 -1.813104e+000 3.277492e+000 63 99 101
1.194776e+000 -1.797991e+000 3.291850e+000 200 176 150
1.135248e+000 -1.867510e+000 3.264489e+000 179 157 130
1.131457e+000 -1.950218e+000 3.256939e+000 150 106 57
1.122224e+000 -1.822092e+000 3.264927e+000 134 57 45
1.140725e+000 -1.835162e+000 3.266413e+000 127 145 51
1.140725e+000 -1.835162e+000 3.266413e+000 127 145 51
1.175126e+000 -1.826495e+000 3.269958e+000 191 138 114
1.140448e+000 -1.854344e+000 3.265879e+000 189 139 122
1.154456e+000 -1.855326e+000 3.264846e+000 226 148 121
1.155826e+000 -1.854515e+000 3.265104e+000 146 32 37
1.159752e+000 -1.848622e+000 3.265011e+000 225 141 103
1.163879e+000 -1.844318e+000 3.265152e+000 233 132 103
1.163479e+000 -1.844727e+000 3.264911e+000 233 132 103
1.158942e+000 -1.852792e+000 3.265090e+000 159 47 51
1.154000e+000 -1.864499e+000 3.263598e+000 32 60 70
1.157625e+000 -1.859699e+000 3.263331e+000 47 74 91
1.158237e+000 -1.859018e+000 3.263587e+000 47 74 91
1.160302e+000 -1.855198e+000 3.263835e+000 138 174 194
1.160702e+000 -1.854750e+000 3.264106e+000 138 174 194
1.171438e+000 -1.843845e+000 3.264383e+000 163 48 53
1.144984e+000 -1.887196e+000 3.262022e+000 85 33 25
1.158133e+000 -1.910204e+000 3.257742e+000 71 37 35
1.119269e+000 -1.819966e+000 3.260904e+000 174 38 39
1.130468e+000 -1.829678e+000 3.268038e+000 71 108 100
1.162185e+000 -1.847188e+000 3.264583e+000 147 33 38
1.171400e+000 -1.846160e+000 3.264253e+000 143 30 40
1.149310e+000 -1.871374e+000 3.263601e+000 33 62 81
1.149085e+000 -1.871654e+000 3.263497e+000 33 62 81
1.142890e+000 -1.890103e+000 3.262378e+000 98 39 43
1.114058e+000 -1.827115e+000 3.263753e+000 171 43 39
1.172159e+000 -1.827768e+000 3.268682e+000 183 150 118
1.141959e+000 -1.853232e+000 3.265073e+000 179 150 120
1.142829e+000 -1.852614e+000 3.265487e+000 179 150 120
1.138064e+000 -1.859068e+000 3.265137e+000 178 153 126
1.151424e+000 -1.852327e+000 3.265534e+000 154 35 41
1.161592e+000 -1.847253e+000 3.265321e+000 150 31 35
1.045024e+000 -1.974088e+000 3.265026e+000 197 126 102
1.062423e+000 -1.993700e+000 3.264043e+000 199 141 107
1.168685e+000 -1.831729e+000 3.265819e+000 166 117 100
1.168685e+000 -1.831729e+000 3.265819e+000 166 117 100
1.157404e+000 -1.860032e+000 3.263804e+000 141 164 173
1.157471e+000 -1.859939e+000 3.263899e+000 141 164 173
1.154201e+000 -1.848511e+000 3.265099e+000 183 36 37
1.153765e+000 -1.878845e+000 3.260744e+000 89 44 44
1.153765e+000 -1.878845e+000 3.260744e+000 89 44 44
1.137115e+000 -1.827756e+000 3.267268e+000 167 159 66
1.144272e+000 -1.829216e+000 3.267404e+000 37 60 35
1.144272e+000 -1.829216e+000 3.267404e+000 37 60 35
1.112695e+000 -1.851536e+000 3.264118e+000 174 163 61
1.151616e+000 -1.830154e+000 3.266971e+000 177 162 80
1.145366e+000 -1.826570e+000 3.268025e+000 174 160 99
1.120453e+000 -1.848870e+000 3.263959e+000 29 60 37
1.120453e+000 -1.848870e+000 3.263959e+000 29 60 37
1.157609e+000 -1.832020e+000 3.269018e+000 34 58 35
1.147058e+000 -1.856119e+000 3.264696e+000 180 40 47
1.162387e+000 -1.830077e+000 3.268661e+000 173 157 124
1.163143e+000 -1.829316e+000 3.266041e+000 173 157 124
1.130445e+000 -1.867644e+000 3.265017e+000 190 155 125
1.128733e+000 -1.822505e+000 3.268687e+000 224 139 108
1.133500e+000 -1.820632e+000 3.268600e+000 221 138 110
1.156411e+000 -1.851411e+000 3.264619e+000 215 144 112
1.155339e+000 -1.854081e+000 3.264009e+000 120 30 28
1.155339e+000 -1.854081e+000 3.264009e+000 120 30 28
1.162907e+000 -1.846878e+000 3.263160e+000 222 87 83
1.155551e+000 -1.862930e+000 3.263375e+000 35 64 81
1.139300e+000 -1.816533e+000 3.267065e+000 162 36 45
1.140955e+000 -1.816171e+000 3.267772e+000 162 36 45
1.134646e+000 -1.820712e+000 3.268451e+000 170 38 46
1.141847e+000 -1.816818e+000 3.268011e+000 153 40 40
1.140927e+000 -1.818584e+000 3.268515e+000 201 145 107
1.161079e+000 -1.847821e+000 3.262447e+000 146 25 36
1.143507e+000 -1.817004e+000 3.267751e+000 169 34 41
1.145908e+000 -1.825113e+000 3.268723e+000 28 50 30
1.161409e+000 -1.846328e+000 3.264047e+000 158 32 43
1.161464e+000 -1.849196e+000 3.264132e+000 222 89 88
1.161464e+000 -1.849196e+000 3.264132e+000 222 89 88
1.135343e+000 -1.823397e+000 3.275260e+000 177 31 44
1.141218e+000 -1.833877e+000 3.266872e+000 168 152 45
1.144051e+000 -1.833245e+000 3.266799e+000 32 56 29
1.134516e+000 -1.849105e+000 3.266376e+000 162 150 87
1.132684e+000 -1.850346e+000 3.265620e+000 162 150 87
1.159204e+000 -1.835710e+000 3.263991e+000 160 148 111
1.153942e+000 -1.841248e+000 3.265539e+000 157 146 118
1.160326e+000 -1.840352e+000 3.263360e+000 159 146 114
1.159921e+000 -1.846124e+000 3.265035e+000 146 30 36
1.161520e+000 -1.844321e+000 3.264906e+000 152 26 37
1.142511e+000 -1.824325e+000 3.268428e+000 28 54 29
1.161411e+000 -1.834362e+000 3.265440e+000 166 146 113
1.155371e+000 -1.851645e+000 3.265020e+000 151 30 46
1.139377e+000 -1.830708e+000 3.267256e+000 167 147 111
1.139377e+000 -1.830708e+000 3.267256e+000 167 147 111
1.153336e+000 -1.825235e+000 3.265373e+000 170 153 99
1.155533e+000 -1.860026e+000 3.264325e+000 18 72 100
1.135781e+000 -1.854156e+000 3.264708e+000 159 145 118
1.128350e+000 -1.840093e+000 3.265325e+000 164 147 112
1.128663e+000 -1.850725e+000 3.265631e+000 28 55 30
1.133102e+000 -1.878965e+000 3.264447e+000 154 24 35
1.133102e+000 -1.878965e+000 3.264447e+000 154 24 35
1.137541e+000 -1.885730e+000 3.264025e+000 19 74 113
1.122267e+000 -1.825162e+000 3.278042e+000 88 120 127
1.127298e+000 -1.818745e+000 3.299933e+000 152 49 47
1.129504e+000 -1.822262e+000 3.294960e+000 248 104 93
1.030348e+000 -2.144023e+000 3.270573e+000 112 68 53
1.099699e+000 -2.047774e+000 3.270825e+000 190 132 100
1.069372e+000 -2.120130e+000 3.282409e+000 140 44 28
1.157987e+000 -1.934305e+000 3.260007e+000 156 117 93
1.047658e+000 -2.199153e+000 3.296600e+000 178 149 126
1.126564e+000 -2.041536e+000 3.275807e+000 202 130 69
1.135214e+000 -2.033238e+000 3.276448e+000 196 120 62
1.145927e+000 -2.016660e+000 3.272233e+000 197 92 46
1.126972e+000 -1.818412e+000 3.301943e+000 169 62 62
1.128073e+000 -1.819522e+000 3.296194e+000 163 39 45
1.158052e+000 -1.898483e+000 3.258780e+000 144 114 103
1.021466e+000 -2.164188e+000 3.274820e+000 197 133 110
1.131516e+000 -2.017947e+000 3.271564e+000 199 57 55
1.126612e+000 -1.834119e+000 3.266335e+000 69 97 108
1.120294e+000 -2.031281e+000 3.272338e+000 194 133 92
1.135660e+000 -1.978905e+000 3.261938e+000 172 119 71
1.134212e+000 -1.831094e+000 3.294073e+000 27 58 35
1.079643e+000 -2.141692e+000 3.290959e+000 172 142 119
1.079643e+000 -2.141692e+000 3.290959e+000 172 142 119
1.104515e+000 -1.829100e+000 3.261029e+000 222 139 109
1.168521e+000 -1.849002e+000 3.264718e+000 146 72 49
1.158417e+000 -1.870138e+000 3.262353e+000 96 48 51
1.161193e+000 -1.870247e+000 3.261666e+000 82 61 64
1.158636e+000 -1.876720e+000 3.261126e+000 90 63 70
1.134540e+000 -1.921788e+000 3.259510e+000 81 35 37
1.166459e+000 -1.875798e+000 3.260868e+000 24 14 15
1.156600e+000 -1.920231e+000 3.261199e+000 120 66 76
1.138110e+000 -1.910665e+000 3.260720e+000 79 31 39
1.139917e+000 -1.892924e+000 3.262232e+000 187 136 79
1.145577e+000 -1.893475e+000 3.261298e+000 96 38 47
1.159671e+000 -1.847652e+000 3.264428e+000 223 141 106
1.132597e+000 -1.885663e+000 3.265020e+000 136 28 31
1.157833e+000 -1.859574e+000 3.263214e+000 42 68 81
1.157919e+000 -1.876316e+000 3.261841e+000 84 58 62
1.139482e+000 -1.817388e+000 3.267037e+000 153 40 40
1.117951e+000 -1.837605e+000 3.267076e+000 77 98 100
1.124014e+000 -1.821535e+000 3.269218e+000 176 32 38
1.160911e+000 -1.865893e+000 3.262856e+000 112 53 58
1.156862e+000 -1.851313e+000 3.264473e+000 84 33 28
1.147368e+000 -1.841550e+000 3.264923e+000 160 147 115
1.132866e+000 -1.865396e+000 3.266123e+000 178 143 116
1.135466e+000 -1.877071e+000 3.264803e+000 155 25 35
1.166233e+000 -1.829764e+000 3.266086e+000 90 35 18
1.156522e+000 -1.851310e+000 3.264717e+000 210 142 99
1.158346e+000 -1.849068e+000 3.264313e+000 206 135 97
1.158809e+000 -1.850514e+000 3.264067e+000 237 134 100
1.158809e+000 -1.850514e+000 3.264067e+000 237 134 100
1.161781e+000 -1.844826e+000 3.263988e+000 207 140 88
1.162549e+000 -1.845787e+000 3.263996e+000 208 131 79
1.157025e+000 -1.852778e+000 3.264493e+000 221 117 81
1.157025e+000 -1.852778e+000 3.264493e+000 221 117 81
1.166004e+000 -1.848472e+000 3.262051e+000 125 155 149
1.168728e+000 -1.844176e+000 3.262800e+000 37 58 59
1.167567e+000 -1.848156e+000 3.262202e+000 47 15 26
1.151325e+000 -1.879828e+000 3.260765e+000 70 25 23
1.164061e+000 -1.859474e+000 3.260797e+000 144 83 83
1.164061e+000 -1.859474e+000 3.260797e+000 144 83 83
1.165200e+000 -1.857602e+000 3.260874e+000 148 84 84
1.165200e+000 -1.857602e+000 3.260874e+000 148 84 84
1.148655e+000 -1.889128e+000 3.259742e+000 45 26 19
1.160317e+000 -1.872826e+000 3.259957e+000 148 114 108
1.165866e+000 -1.863025e+000 3.261039e+000 64 50 45
1.165866e+000 -1.863025e+000 3.261039e+000 64 50 45
1.158610e+000 -1.878733e+000 3.259426e+000 65 44 43
1.168762e+000 -1.831476e+000 3.265128e+000 199 132 93
1.159312e+000 -1.850796e+000 3.264011e+000 141 23 24
1.165289e+000 -1.848783e+000 3.262772e+000 35 49 57
1.146666e+000 -1.886187e+000 3.261028e+000 161 84 64
1.151047e+000 -1.892489e+000 3.259475e+000 115 79 62
1.166313e+000 -1.865807e+000 3.261023e+000 78 57 52
1.148585e+000 -1.814438e+000 3.271507e+000 152 22 20
1.169487e+000 -1.821607e+000 3.267132e+000 59 61 37
1.169487e+000 -1.821607e+000 3.267132e+000 59 61 37
1.162951e+000 -1.852517e+000 3.263200e+000 22 59 78
1.145885e+000 -1.889690e+000 3.259951e+000 166 84 63
1.164948e+000 -1.866241e+000 3.262177e+000 79 59 55
1.163711e+000 -1.843530e+000 3.264268e+000 141 22 23
1.168839e+000 -1.848843e+000 3.261885e+000 182 94 58
1.168328e+000 -1.850537e+000 3.261897e+000 70 55 57
1.157371e+000 -1.831465e+000 3.266335e+000 165 144 56
1.166338e+000 -1.832725e+000 3.264470e+000 162 139 95
1.166417e+000 -1.834125e+000 3.264770e+000 162 99 63
1.158470e+000 -1.849587e+000 3.263992e+000 102 36 18
1.154724e+000 -1.866573e+000 3.262744e+000 22 62 74
1.166989e+000 -1.866628e+000 3.260758e+000 128 97 76
1.166989e+000 -1.866628e+000 3.260758e+000 128 97 76
1.152417e+000 -1.848798e+000 3.262890e+000 157 142 101
1.170146e+000 -1.833959e+000 3.264422e+000 138 23 25
1.154875e+000 -1.841012e+000 3.266115e+000 156 139 96
1.154875e+000 -1.841012e+000 3.266115e+000 156 139 96
1.150742e+000 -1.850321e+000 3.265717e+000 160 141 99
1.150742e+000 -1.850321e+000 3.265717e+000 160 141 99
1.159647e+000 -1.838448e+000 3.266122e+000 153 139 95
1.158728e+000 -1.855108e+000 3.261990e+000 29 41 51
1.158728e+000 -1.855108e+000 3.261990e+000 29 41 51
1.169759e+000 -1.818472e+000 3.270394e+000 137 138 39
1.221766e+000 -1.784964e+000 3.235415e+000 0 255 0
1.264325e+000 -1.759045e+000 3.231311e+000 255 255 0
1.204439e+000 -1.803712e+000 3.235587e+000 255 0 0
1.246632e+000 -1.779936e+000 3.223157e+000 255 255 0
1.218114e+000 -1.797113e+000 3.299320e+000 0 255 0
1.174880e+000 -1.820794e+000 3.290951e+000 255 255 0
1.215081e+000 -1.797107e+000 3.297722e+000 255 0 0
1.173267e+000 -1.821987e+000 3.286209e+000 255 255 0
1.245409e+000 -1.763877e+000 3.303928e+000 0 255 0
1.204704e+000 -1.792303e+000 3.298001e+000 255 255 0
1.211111e+000 -1.798044e+000 3.296243e+000 255 0 0
1.169649e+000 -1.822479e+000 3.282687e+000 255 255 0
1.204257e+000 -1.801858e+000 3.295676e+000 0 255 0
1.162843e+000 -1.826614e+000 3.282557e+000 255 255 0
1.201621e+000 -1.801554e+000 3.296792e+000 255 0 0
1.163058e+000 -1.828097e+000 3.279233e+000 255 255 0
1.198321e+000 -1.802360e+000 3.296291e+000 0 255 0
1.159807e+000 -1.828673e+000 3.278284e+000 255 255 0
1.197453e+000 -1.802449e+000 3.296485e+000 255 0 0
1.157548e+000 -1.828339e+000 3.281079e+000 255 255 0
