ply
format ascii 1.0
element face 0
property list uchar int vertex_indices
element vertex 906
property float x
property float y
property float z
property uchar diffuse_red
property uchar diffuse_green
property uchar diffuse_blue
end_header
1.332634e+000 -1.438535e+000 2.988341e+000 36 52 23
6.823161e-001 -2.652708e+000 3.414933e+000 208 53 72
8.954830e-001 -2.261000e+000 3.303302e+000 179 121 99
1.027698e+000 -2.046636e+000 3.244984e+000 148 21 33
7.049592e-001 -2.771654e+000 3.467990e+000 181 125 94
8.431034e-001 -2.383257e+000 3.341192e+000 122 30 39
4.776288e-001 -2.968791e+000 3.497617e+000 179 120 103
1.251477e+000 -1.598379e+000 3.110935e+000 78 29 35
1.223683e+000 -1.734355e+000 3.173584e+000 60 21 38
1.242202e+000 -1.616518e+000 3.116809e+000 166 84 82
1.259505e+000 -1.649891e+000 3.134050e+000 56 16 24
1.224898e+000 -1.640204e+000 3.122511e+000 101 48 49
1.260208e+000 -1.628985e+000 3.125607e+000 66 29 29
1.334417e+000 -1.430858e+000 2.987346e+000 143 146 128
1.233281e+000 -1.647273e+000 3.127122e+000 73 32 30
1.289923e+000 -1.547432e+000 3.097978e+000 126 91 95
1.246005e+000 -1.536423e+000 3.084244e+000 178 37 45
1.246005e+000 -1.536423e+000 3.084244e+000 178 37 45
1.316390e+000 -1.478184e+000 3.068772e+000 35 71 98
1.294118e+000 -1.538852e+000 3.095239e+000 62 40 40
1.214731e+000 -1.559839e+000 3.087348e+000 131 82 67
1.256388e+000 -1.520229e+000 3.079863e+000 178 42 49
1.259778e+000 -1.570488e+000 3.101372e+000 179 105 80
1.298050e+000 -1.553005e+000 3.101683e+000 141 113 99
1.284615e+000 -1.599741e+000 3.118949e+000 139 105 95
1.299973e+000 -1.579794e+000 3.113867e+000 75 36 39
1.236150e+000 -1.610084e+000 3.112699e+000 172 130 80
1.184131e+000 -1.786129e+000 3.172923e+000 42 15 24
1.279654e+000 -1.548193e+000 3.096254e+000 71 34 30
1.285548e+000 -1.539510e+000 3.094116e+000 164 85 88
9.537254e-001 -2.204660e+000 3.292899e+000 123 29 35
1.187208e+000 -1.801581e+000 3.195301e+000 128 83 40
1.251109e+000 -1.610803e+000 3.116162e+000 64 22 29
1.276594e+000 -1.596213e+000 3.115501e+000 165 116 112
-3.418495e-001 -4.497602e+000 3.935668e+000 126 26 31
7.779334e-001 -2.461608e+000 3.358450e+000 179 117 103
9.843967e-001 -2.128809e+000 3.268787e+000 186 52 59
7.930970e-001 -2.499524e+000 3.377806e+000 188 59 70
1.310082e+000 -1.536275e+000 3.097822e+000 28 15 13
3.108590e-001 -3.275474e+000 3.586103e+000 137 25 34
1.214658e+000 -1.559902e+000 3.087313e+000 131 82 67
1.216331e+000 -1.707171e+000 3.148023e+000 112 57 27
1.281059e+000 -1.528310e+000 3.088371e+000 18 73 104
1.227056e+000 -1.738549e+000 3.178374e+000 81 52 56
1.226379e+000 -1.609597e+000 3.110664e+000 13 74 108
1.285118e+000 -1.531007e+000 3.090046e+000 191 117 93
1.290529e+000 -1.524469e+000 3.088294e+000 76 34 42
1.238496e+000 -1.617577e+000 3.116183e+000 172 85 84
1.261483e+000 -1.580557e+000 3.105955e+000 71 33 28
1.275518e+000 -1.557775e+000 3.099297e+000 162 83 81
1.269925e+000 -1.569684e+000 3.103035e+000 77 35 33
1.219826e+000 -1.648594e+000 3.124904e+000 73 20 20
1.270827e+000 -1.571308e+000 3.103898e+000 162 79 81
1.254705e+000 -1.608510e+000 3.116117e+000 127 58 68
-9.848797e-001 -5.521644e+000 4.209477e+000 232 73 90
1.214005e+000 -1.564907e+000 3.089474e+000 187 147 124
1.214005e+000 -1.564907e+000 3.089474e+000 187 147 124
1.208442e+000 -1.572649e+000 3.091326e+000 186 149 125
1.208547e+000 -1.572564e+000 3.091294e+000 186 149 125
1.281907e+000 -1.508644e+000 3.080044e+000 202 82 77
1.239318e+000 -1.634515e+000 3.123584e+000 147 75 81
1.308704e+000 -1.543418e+000 3.100403e+000 26 22 20
1.199370e+000 -1.758429e+000 3.165324e+000 86 35 44
1.244000e+000 -1.683129e+000 3.153102e+000 73 37 41
1.327613e+000 -1.472172e+000 3.067369e+000 76 52 65
1.208838e+000 -1.753555e+000 3.175250e+000 150 98 51
1.263168e+000 -1.507075e+000 3.075484e+000 168 155 121
1.263168e+000 -1.507075e+000 3.075484e+000 168 155 121
1.323545e+000 -1.461129e+000 3.060846e+000 19 72 104
1.234696e+000 -1.402616e+000 3.112093e+000 156 53 49
1.235973e+000 -1.485495e+000 3.067372e+000 29 37 9
1.237077e+000 -1.526513e+000 3.078048e+000 197 135 117
1.253252e+000 -1.592924e+000 3.108461e+000 179 97 81
1.214909e+000 -1.664951e+000 3.125146e+000 96 44 42
1.227542e+000 -1.400594e+000 3.111920e+000 165 55 57
1.233170e+000 -1.452930e+000 3.048622e+000 63 99 101
1.235434e+000 -1.548399e+000 3.092047e+000 179 157 130
1.227238e+000 -1.711709e+000 3.149493e+000 150 106 57
1.195420e+000 -1.465427e+000 3.050816e+000 134 57 45
1.237128e+000 -1.479266e+000 3.062365e+000 127 145 51
1.237128e+000 -1.479266e+000 3.062365e+000 127 145 51
1.333411e+000 -1.410097e+000 3.055909e+000 191 138 114
1.226204e+000 -1.538891e+000 3.081443e+000 189 139 122
1.281261e+000 -1.501970e+000 3.077791e+000 226 148 121
1.283025e+000 -1.501098e+000 3.077241e+000 146 32 37
1.298810e+000 -1.474903e+000 3.070887e+000 225 141 103
1.310625e+000 -1.458571e+000 3.066545e+000 233 132 103
1.314063e+000 -1.453400e+000 3.066753e+000 233 132 103
1.294816e+000 -1.487924e+000 3.074990e+000 159 47 51
1.283653e+000 -1.517624e+000 3.084271e+000 32 60 70
1.295714e+000 -1.498879e+000 3.078530e+000 47 74 91
1.295941e+000 -1.498530e+000 3.078440e+000 47 74 91
1.302864e+000 -1.484985e+000 3.075028e+000 138 174 194
1.303337e+000 -1.484212e+000 3.074989e+000 138 174 194
1.340160e+000 -1.430952e+000 3.064801e+000 163 48 53
1.261134e+000 -1.576248e+000 3.103497e+000 85 33 25
1.308127e+000 -1.563322e+000 3.108246e+000 71 37 35
1.233400e+000 -1.432386e+000 3.047997e+000 174 38 39
1.185072e+000 -1.499260e+000 3.060313e+000 71 108 100
1.307154e+000 -1.465917e+000 3.068701e+000 147 33 38
1.335055e+000 -1.444686e+000 3.066148e+000 143 30 40
1.266933e+000 -1.545849e+000 3.091813e+000 33 62 81
1.268340e+000 -1.543420e+000 3.091751e+000 33 62 81
1.253269e+000 -1.589192e+000 3.107411e+000 98 39 43
1.165069e+000 -1.495630e+000 3.054099e+000 171 43 39
1.330683e+000 -1.411178e+000 3.055242e+000 183 150 118
1.237564e+000 -1.525987e+000 3.078174e+000 179 150 120
1.222683e+000 -1.550108e+000 3.085034e+000 178 153 126
1.265856e+000 -1.508778e+000 3.076687e+000 154 35 41
1.304308e+000 -1.468224e+000 3.069883e+000 150 31 35
1.325806e+000 -1.420908e+000 3.055498e+000 166 117 100
1.326182e+000 -1.420341e+000 3.055592e+000 166 117 100
1.293907e+000 -1.501270e+000 3.079938e+000 141 164 173
1.293415e+000 -1.502184e+000 3.079963e+000 141 164 173
1.277921e+000 -1.490632e+000 3.071523e+000 183 36 37
1.292300e+000 -1.532503e+000 3.091288e+000 89 44 44
1.292300e+000 -1.532503e+000 3.091288e+000 89 44 44
1.220899e+000 -1.471370e+000 3.056564e+000 167 159 66
1.247767e+000 -1.458859e+000 3.057882e+000 37 60 35
1.247767e+000 -1.458859e+000 3.057882e+000 37 60 35
1.145226e+000 -1.570487e+000 3.078905e+000 174 163 61
1.270519e+000 -1.449696e+000 3.057119e+000 177 162 80
1.246679e+000 -1.454712e+000 3.055525e+000 174 160 99
1.175304e+000 -1.545896e+000 3.074815e+000 29 60 37
1.166028e+000 -1.556423e+000 3.074335e+000 29 60 37
1.281562e+000 -1.450585e+000 3.061449e+000 34 58 35
1.256290e+000 -1.520450e+000 3.079819e+000 180 40 47
1.293563e+000 -1.442176e+000 3.057640e+000 173 157 124
1.305298e+000 -1.430320e+000 3.053483e+000 173 157 124
1.194686e+000 -1.589182e+000 3.095814e+000 190 155 125
1.177740e+000 -1.484099e+000 3.053397e+000 224 139 108
1.206037e+000 -1.461000e+000 3.051768e+000 221 138 110
1.288920e+000 -1.487075e+000 3.073413e+000 215 144 112
1.286463e+000 -1.494284e+000 3.075019e+000 120 30 28
1.286463e+000 -1.494284e+000 3.075019e+000 120 30 28
1.318720e+000 -1.450007e+000 3.066577e+000 222 87 83
1.289914e+000 -1.508562e+000 3.082130e+000 35 64 81
1.245678e+000 -1.425474e+000 3.047014e+000 162 36 45
1.250699e+000 -1.421249e+000 3.047838e+000 162 36 45
1.209838e+000 -1.459345e+000 3.051351e+000 170 38 46
1.245813e+000 -1.427543e+000 3.047463e+000 153 40 40
1.311525e+000 -1.459134e+000 3.066264e+000 146 25 36
1.254292e+000 -1.422774e+000 3.047626e+000 169 34 41
1.306887e+000 -1.462551e+000 3.067196e+000 158 32 43
1.306769e+000 -1.468933e+000 3.069987e+000 222 89 88
1.306232e+000 -1.469877e+000 3.069920e+000 222 89 88
1.232580e+000 -1.481712e+000 3.061351e+000 168 152 45
1.246830e+000 -1.469715e+000 3.060815e+000 32 56 29
1.198619e+000 -1.545946e+000 3.077612e+000 162 150 87
1.197686e+000 -1.546929e+000 3.077677e+000 162 150 87
1.303895e+000 -1.439139e+000 3.057841e+000 160 148 111
1.282917e+000 -1.465846e+000 3.065634e+000 157 146 118
1.305523e+000 -1.449972e+000 3.060761e+000 159 146 114
1.300614e+000 -1.466951e+000 3.068721e+000 146 30 36
1.305618e+000 -1.459987e+000 3.066462e+000 152 26 37
1.245456e+000 -1.445684e+000 3.055200e+000 28 54 29
1.306863e+000 -1.435812e+000 3.058657e+000 166 146 113
1.284975e+000 -1.490450e+000 3.074284e+000 151 30 46
1.223675e+000 -1.479678e+000 3.058625e+000 167 147 111
1.223675e+000 -1.479678e+000 3.058625e+000 167 147 111
1.289563e+000 -1.421885e+000 3.051476e+000 170 153 99
1.286447e+000 -1.507525e+000 3.081223e+000 18 72 100
1.213530e+000 -1.544874e+000 3.079325e+000 159 145 118
1.189168e+000 -1.522085e+000 3.067023e+000 164 147 112
1.191518e+000 -1.546537e+000 3.078554e+000 28 55 30
1.205296e+000 -1.610196e+000 3.105345e+000 154 24 35
1.205296e+000 -1.610196e+000 3.105345e+000 154 24 35
1.226426e+000 -1.606997e+000 3.109405e+000 19 74 113
1.229606e+000 -1.402694e+000 3.107206e+000 152 49 47
1.237715e+000 -1.408981e+000 3.101057e+000 248 104 93
1.299771e+000 -1.612088e+000 3.129487e+000 156 117 93
1.186166e+000 -1.882798e+000 3.248285e+000 202 130 69
1.208114e+000 -1.849398e+000 3.238794e+000 196 120 62
1.238215e+000 -1.798205e+000 3.215375e+000 197 92 46
1.228398e+000 -1.401100e+000 3.110366e+000 169 62 62
1.232088e+000 -1.405975e+000 3.101446e+000 163 39 45
1.306957e+000 -1.550249e+000 3.101842e+000 144 114 103
1.209604e+000 -1.822014e+000 3.220582e+000 199 57 55
1.237740e+000 -1.734937e+000 3.173720e+000 172 119 71
1.255609e+000 -1.416140e+000 3.104849e+000 27 58 35
1.151508e+000 -1.504145e+000 3.053697e+000 222 139 109
1.325807e+000 -1.457153e+000 3.069483e+000 146 72 49
1.299827e+000 -1.515345e+000 3.086127e+000 96 48 51
1.310523e+000 -1.504745e+000 3.084454e+000 82 61 64
1.303557e+000 -1.522061e+000 3.089423e+000 90 63 70
1.244041e+000 -1.640524e+000 3.128237e+000 81 35 37
1.326261e+000 -1.500070e+000 3.086701e+000 24 14 15
1.287137e+000 -1.616136e+000 3.126252e+000 120 66 76
1.248279e+000 -1.623421e+000 3.121797e+000 79 31 39
1.244257e+000 -1.601036e+000 3.110667e+000 187 136 79
1.267128e+000 -1.579873e+000 3.107017e+000 96 38 47
1.300244e+000 -1.470684e+000 3.069187e+000 223 141 106
1.208479e+000 -1.619045e+000 3.112586e+000 136 28 31
1.297077e+000 -1.496433e+000 3.078431e+000 42 68 81
1.299620e+000 -1.526217e+000 3.090721e+000 84 58 62
1.245819e+000 -1.427714e+000 3.047648e+000 153 40 40
1.131334e+000 -1.553840e+000 3.068478e+000 77 98 100
1.151953e+000 -1.496641e+000 3.053171e+000 176 32 38
1.306965e+000 -1.501590e+000 3.082952e+000 112 53 58
1.291037e+000 -1.485015e+000 3.073022e+000 84 33 28
1.202823e+000 -1.578026e+000 3.094392e+000 178 143 116
1.212223e+000 -1.602075e+000 3.103820e+000 155 25 35
1.318763e+000 -1.420533e+000 3.054359e+000 90 35 18
1.287885e+000 -1.488799e+000 3.073384e+000 210 142 99
1.297120e+000 -1.474705e+000 3.070494e+000 206 135 97
1.298707e+000 -1.476844e+000 3.071382e+000 237 134 100
1.298707e+000 -1.476844e+000 3.071382e+000 237 134 100
1.309000e+000 -1.456981e+000 3.065762e+000 207 140 88
1.311223e+000 -1.457563e+000 3.066571e+000 208 131 79
1.291102e+000 -1.488492e+000 3.074380e+000 221 117 81
1.291102e+000 -1.488492e+000 3.074380e+000 221 117 81
1.325697e+000 -1.449716e+000 3.065979e+000 125 155 149
1.331266e+000 -1.439524e+000 3.062931e+000 37 58 59
1.328558e+000 -1.448908e+000 3.065647e+000 47 15 26
1.285179e+000 -1.538509e+000 3.092829e+000 70 25 23
1.323075e+000 -1.469366e+000 3.073758e+000 144 83 83
1.323092e+000 -1.469343e+000 3.073754e+000 144 83 83
1.325496e+000 -1.465051e+000 3.072180e+000 148 84 84
1.325478e+000 -1.465075e+000 3.072160e+000 148 84 84
1.281461e+000 -1.554581e+000 3.098918e+000 45 26 19
1.313711e+000 -1.500193e+000 3.083768e+000 148 114 108
1.326618e+000 -1.474966e+000 3.076733e+000 64 50 45
1.327161e+000 -1.473680e+000 3.076753e+000 64 50 45
1.309491e+000 -1.513709e+000 3.087909e+000 65 44 43
1.327927e+000 -1.417913e+000 3.054611e+000 199 132 93
1.300037e+000 -1.476896e+000 3.071440e+000 141 23 24
1.322073e+000 -1.454168e+000 3.067261e+000 35 49 57
1.271850e+000 -1.560199e+000 3.099474e+000 161 84 64
1.287801e+000 -1.556639e+000 3.100716e+000 115 79 62
1.326631e+000 -1.481425e+000 3.079119e+000 78 57 52
1.250246e+000 -1.421772e+000 3.047819e+000 152 22 20
1.329567e+000 -1.394784e+000 3.048565e+000 59 61 37
1.329567e+000 -1.394784e+000 3.048565e+000 59 61 37
1.312039e+000 -1.471964e+000 3.071214e+000 22 59 78
1.275255e+000 -1.558059e+000 3.099987e+000 166 84 63
1.323283e+000 -1.483820e+000 3.081205e+000 79 59 55
1.312223e+000 -1.454688e+000 3.064599e+000 141 22 23
1.333521e+000 -1.444964e+000 3.065807e+000 182 94 58
1.331423e+000 -1.450552e+000 3.067249e+000 70 55 57
1.286575e+000 -1.446366e+000 3.056311e+000 165 144 56
1.322071e+000 -1.423453e+000 3.055269e+000 162 139 95
1.320028e+000 -1.429599e+000 3.056377e+000 162 99 63
1.298361e+000 -1.474500e+000 3.070421e+000 102 36 18
1.290046e+000 -1.513225e+000 3.084342e+000 22 62 74
1.327450e+000 -1.484062e+000 3.079089e+000 128 97 76
1.327450e+000 -1.484062e+000 3.079089e+000 128 97 76
1.280393e+000 -1.484476e+000 3.068492e+000 157 142 101
1.334144e+000 -1.417547e+000 3.056121e+000 138 23 25
1.278452e+000 -1.473544e+000 3.065876e+000 156 139 96
1.278452e+000 -1.473544e+000 3.065876e+000 156 139 96
1.267221e+000 -1.500246e+000 3.075076e+000 160 141 99
1.267221e+000 -1.500246e+000 3.075076e+000 160 141 99
1.294569e+000 -1.457475e+000 3.062835e+000 153 139 95
1.298882e+000 -1.487912e+000 3.072054e+000 29 41 51
1.298882e+000 -1.487912e+000 3.072054e+000 29 41 51
1.330061e+000 -1.384832e+000 3.050893e+000 137 138 39
1.285682e+000 -1.655402e+000 3.143933e+000 150 139 171
1.241808e+000 -1.838387e+000 3.245119e+000 113 59 19
1.238363e+000 -1.827621e+000 3.232348e+000 192 165 146
1.290767e+000 -1.414436e+000 3.109029e+000 177 154 141
1.360094e+000 -1.367755e+000 3.101772e+000 160 102 86
1.360094e+000 -1.367755e+000 3.101772e+000 160 102 86
1.314702e+000 -1.405202e+000 3.108088e+000 195 125 96
1.293529e+000 -1.413512e+000 3.108530e+000 172 132 124
1.344888e+000 -1.477598e+000 3.081545e+000 141 84 83
1.350327e+000 -1.459535e+000 3.076509e+000 114 57 46
1.225643e+000 -1.503915e+000 3.069650e+000 128 108 38
1.265187e+000 -1.451224e+000 3.056453e+000 22 38 12
1.289032e+000 -1.506478e+000 3.082745e+000 76 110 104
1.302118e+000 -1.520897e+000 3.090395e+000 54 32 29
1.314784e+000 -1.493653e+000 3.082129e+000 46 28 26
1.314784e+000 -1.493653e+000 3.082129e+000 46 28 26
1.354269e+000 -1.433408e+000 3.064710e+000 26 41 39
1.307689e+000 -1.537060e+000 3.097600e+000 103 72 46
1.287467e+000 -1.493177e+000 3.077320e+000 94 12 13
1.327728e+000 -1.443976e+000 3.065277e+000 35 43 38
1.292265e+000 -1.529460e+000 3.091560e+000 60 29 24
1.316407e+000 -1.490706e+000 3.081033e+000 56 32 28
1.316454e+000 -1.490622e+000 3.081006e+000 56 32 28
1.319697e+000 -1.489795e+000 3.081767e+000 57 37 36
1.319697e+000 -1.489795e+000 3.081767e+000 57 37 36
1.352374e+000 -1.436102e+000 3.065495e+000 45 67 64
1.290489e+000 -1.540409e+000 3.095731e+000 51 24 6
1.333120e+000 -1.502131e+000 3.089899e+000 97 69 51
1.337257e+000 -1.417259e+000 3.055021e+000 118 99 53
1.292134e+000 -1.491869e+000 3.076418e+000 162 57 43
1.313254e+000 -1.469209e+000 3.071133e+000 15 42 49
1.341829e+000 -1.327695e+000 3.056054e+000 154 125 81
1.350920e+000 -1.432133e+000 3.063816e+000 11 38 47
1.322572e+000 -1.533069e+000 3.100060e+000 57 37 27
1.303413e+000 -1.416457e+000 3.050713e+000 123 103 46
1.315201e+000 -1.427456e+000 3.053963e+000 94 40 20
1.310617e+000 -1.651318e+000 3.150090e+000 125 56 46
1.257084e+000 -1.780935e+000 3.210254e+000 209 119 48
1.257880e+000 -1.379165e+000 3.045998e+000 211 180 147
1.257880e+000 -1.379165e+000 3.045998e+000 211 180 147
1.253179e+000 -1.418780e+000 3.045493e+000 247 133 113
1.274544e+000 -1.407486e+000 3.046405e+000 254 124 104
1.345143e+000 -1.472370e+000 3.079847e+000 106 54 43
1.322336e+000 -1.540749e+000 3.102768e+000 122 90 93
1.336457e+000 -1.319054e+000 3.070718e+000 199 177 155
1.247554e+000 -1.392139e+000 3.042966e+000 208 184 147
1.352278e+000 -1.436200e+000 3.068322e+000 73 115 139
1.277997e+000 -1.368902e+000 3.042583e+000 206 177 145
1.222016e+000 -1.441959e+000 3.048781e+000 175 35 46
1.257780e+000 -1.414224e+000 3.044933e+000 180 35 42
1.334523e+000 -1.436931e+000 3.063417e+000 27 61 98
1.308565e+000 -1.519927e+000 3.090497e+000 83 59 65
1.312836e+000 -1.510414e+000 3.087264e+000 84 58 69
1.245066e+000 -1.630396e+000 3.123544e+000 99 39 47
1.272693e+000 -1.369475e+000 3.051356e+000 172 146 121
1.253410e+000 -1.381923e+000 3.048920e+000 172 146 121
1.295668e+000 -1.423273e+000 3.051412e+000 178 160 88
1.295267e+000 -1.423769e+000 3.051300e+000 178 160 88
1.299164e+000 -1.398153e+000 3.049919e+000 170 158 38
1.238378e+000 -1.601797e+000 3.109999e+000 181 125 76
1.274883e+000 -1.554602e+000 3.096903e+000 166 84 83
1.355409e+000 -1.424897e+000 3.065156e+000 28 55 71
1.244908e+000 -1.608534e+000 3.114161e+000 74 34 29
1.265226e+000 -1.575469e+000 3.103951e+000 166 84 82
1.269313e+000 -1.573896e+000 3.104404e+000 173 84 83
1.331030e+000 -1.392752e+000 3.049123e+000 86 85 64
1.375442e+000 -1.448537e+000 3.077240e+000 126 77 45
1.192434e+000 -1.588313e+000 3.094290e+000 126 68 54
1.301911e+000 -1.488285e+000 3.075146e+000 127 142 137
1.302543e+000 -1.396751e+000 3.045432e+000 129 129 43
1.328641e+000 -1.443257e+000 3.063893e+000 115 137 138
1.328641e+000 -1.443257e+000 3.063893e+000 115 137 138
1.201240e+000 -1.527545e+000 3.071168e+000 163 150 108
1.259833e+000 -1.559039e+000 3.096370e+000 134 157 151
1.286339e+000 -1.536216e+000 3.092657e+000 75 27 24
1.309094e+000 -1.497177e+000 3.080538e+000 137 78 85
1.284336e+000 -1.563534e+000 3.103366e+000 124 100 96
1.333344e+000 -1.441179e+000 3.064182e+000 128 34 31
1.261160e+000 -1.584848e+000 3.106589e+000 164 86 82
1.283893e+000 -1.555524e+000 3.100395e+000 57 36 35
1.251110e+000 -1.620530e+000 3.119130e+000 73 31 35
1.329398e+000 -1.605532e+000 3.130616e+000 98 18 24
1.283866e+000 -1.464570e+000 3.065778e+000 150 140 110
1.298896e+000 -1.473505e+000 3.070409e+000 94 38 24
1.326333e+000 -1.442971e+000 3.063756e+000 17 60 88
1.276185e+000 -1.423786e+000 3.051329e+000 26 52 26
1.279809e+000 -1.442363e+000 3.055804e+000 28 52 22
1.285790e+000 -1.444538e+000 3.058303e+000 28 49 32
1.324236e+000 -1.414159e+000 3.055525e+000 100 40 32
1.309558e+000 -1.443441e+000 3.060902e+000 153 143 108
1.211016e+000 -1.534508e+000 3.075801e+000 160 146 119
1.241270e+000 -1.485142e+000 3.062572e+000 164 143 76
1.241270e+000 -1.485142e+000 3.062572e+000 164 143 76
1.233550e+000 -1.486955e+000 3.063776e+000 25 51 27
1.262230e+000 -1.464244e+000 3.060888e+000 27 49 26
1.287489e+000 -1.493431e+000 3.075115e+000 104 20 19
1.292639e+000 -1.491522e+000 3.075284e+000 90 16 11
1.299623e+000 -1.477686e+000 3.071413e+000 108 20 23
1.321574e+000 -1.455133e+000 3.067232e+000 31 37 31
1.287858e+000 -1.546887e+000 3.097849e+000 47 30 16
1.317413e+000 -1.498754e+000 3.081629e+000 60 43 39
1.289255e+000 -1.547825e+000 3.098552e+000 99 58 50
1.317402e+000 -1.491966e+000 3.081452e+000 60 41 37
1.251168e+000 -1.620069e+000 3.119346e+000 49 19 17
1.247736e+000 -1.470663e+000 3.058556e+000 132 106 20
1.308654e+000 -1.502108e+000 3.084100e+000 55 35 33
1.276017e+000 -1.405074e+000 3.045604e+000 126 23 22
1.276017e+000 -1.405074e+000 3.045604e+000 126 23 22
1.336600e+000 -1.439670e+000 3.064531e+000 69 11 17
1.311317e+000 -1.513517e+000 3.088209e+000 52 34 32
1.221733e+000 -1.475902e+000 3.056699e+000 21 35 21
1.287857e+000 -1.441617e+000 3.058902e+000 23 37 11
1.329248e+000 -1.454669e+000 3.069420e+000 57 37 38
1.255221e+000 -1.456811e+000 3.056625e+000 127 110 63
1.288656e+000 -1.435972e+000 3.055311e+000 129 110 54
1.306312e+000 -1.465069e+000 3.066801e+000 87 21 14
1.308922e+000 -1.457107e+000 3.065784e+000 164 100 63
1.310482e+000 -1.455675e+000 3.065400e+000 86 23 14
1.310482e+000 -1.455675e+000 3.065400e+000 86 23 14
1.311692e+000 -1.456062e+000 3.065846e+000 90 13 12
1.311692e+000 -1.456062e+000 3.065846e+000 90 13 12
1.304343e+000 -1.484326e+000 3.076157e+000 107 116 95
1.319719e+000 -1.458758e+000 3.068626e+000 28 39 41
1.319719e+000 -1.458758e+000 3.068626e+000 28 39 41
1.324285e+000 -1.449008e+000 3.065395e+000 92 108 89
1.330355e+000 -1.441509e+000 3.064073e+000 91 113 100
1.321159e+000 -1.458202e+000 3.068940e+000 23 47 49
1.329788e+000 -1.450870e+000 3.068137e+000 131 84 54
1.289225e+000 -1.535041e+000 3.093371e+000 52 19 14
1.324712e+000 -1.469439e+000 3.073720e+000 99 54 48
1.315552e+000 -1.498722e+000 3.083550e+000 53 37 30
1.297433e+000 -1.402922e+000 3.045171e+000 24 36 6
1.327732e+000 -1.418334e+000 3.054642e+000 148 89 57
1.297259e+000 -1.476714e+000 3.071970e+000 92 20 14
1.305916e+000 -1.465626e+000 3.068693e+000 158 94 62
1.314911e+000 -1.456209e+000 3.066344e+000 184 61 55
1.277593e+000 -1.547804e+000 3.095190e+000 60 18 11
1.314415e+000 -1.498395e+000 3.083749e+000 94 64 56
1.329924e+000 -1.482376e+000 3.080185e+000 82 58 34
1.349614e+000 -1.440869e+000 3.068011e+000 22 47 45
1.339969e+000 -1.495849e+000 3.087570e+000 69 49 42
1.273945e+000 -1.601726e+000 3.116542e+000 140 90 67
1.350100e+000 -1.435997e+000 3.066002e+000 82 92 84
1.315591e+000 -1.504019e+000 3.086467e+000 51 32 26
1.225525e+000 -1.644348e+000 3.125968e+000 139 94 50
1.354093e+000 -1.428705e+000 3.061748e+000 14 37 43
1.292175e+000 -1.445124e+000 3.059054e+000 125 106 64
1.341467e+000 -1.403491e+000 3.054174e+000 115 95 60
1.362502e+000 -1.452498e+000 3.076698e+000 116 78 41
1.300320e+000 -1.406628e+000 3.046291e+000 110 99 28
1.286684e+000 -1.494841e+000 3.075231e+000 89 13 17
1.288815e+000 -1.487237e+000 3.073426e+000 164 100 59
1.318627e+000 -1.459738e+000 3.070391e+000 107 116 101
1.321617e+000 -1.456381e+000 3.068199e+000 92 112 103
1.289800e+000 -1.558929e+000 3.103884e+000 48 20 17
1.354123e+000 -1.433553e+000 3.064775e+000 26 41 39
1.304901e+000 -1.544462e+000 3.099783e+000 115 83 53
1.325693e+000 -1.495939e+000 3.084283e+000 111 77 53
1.311925e+000 -1.535309e+000 3.097088e+000 13 6 1
1.226774e+000 -1.446048e+000 3.048655e+000 106 20 18
1.260894e+000 -1.418339e+000 3.045879e+000 113 26 22
1.299287e+000 -1.492538e+000 3.076593e+000 22 40 37
1.317629e+000 -1.523216e+000 3.095780e+000 114 82 59
1.329726e+000 -1.470119e+000 3.075410e+000 55 39 32
1.293577e+000 -1.410941e+000 3.044971e+000 20 34 10
1.333605e+000 -1.442282e+000 3.064885e+000 62 12 10
1.312717e+000 -1.495646e+000 3.081523e+000 54 36 35
1.160672e+000 -1.631376e+000 3.100556e+000 134 76 57
1.312994e+000 -1.539411e+000 3.099718e+000 107 82 52
1.315689e+000 -1.468849e+000 3.072092e+000 18 41 47
1.225446e+000 -1.496911e+000 3.063235e+000 21 34 14
1.321613e+000 -1.416423e+000 3.053369e+000 79 52 30
1.321613e+000 -1.416423e+000 3.053369e+000 79 52 30
1.305117e+000 -1.464111e+000 3.069201e+000 83 21 16
1.321029e+000 -1.455117e+000 3.068618e+000 36 43 36
1.321029e+000 -1.455117e+000 3.068618e+000 36 43 36
1.322000e+000 -1.454453e+000 3.067282e+000 32 41 36
1.326383e+000 -1.447182e+000 3.065117e+000 36 43 36
1.289622e+000 -1.552900e+000 3.100469e+000 101 74 65
1.289622e+000 -1.552900e+000 3.100469e+000 101 74 65
1.309662e+000 -1.543093e+000 3.101422e+000 108 77 56
1.313388e+000 -1.455458e+000 3.067100e+000 94 17 16
1.348992e+000 -1.442354e+000 3.066791e+000 22 39 46
1.325146e+000 -1.401520e+000 3.046577e+000 48 50 29
1.260939e+000 -1.513009e+000 3.077217e+000 123 111 71
1.306483e+000 -1.501553e+000 3.083534e+000 88 50 44
1.329342e+000 -1.478527e+000 3.079250e+000 95 73 60
1.292980e+000 -1.481474e+000 3.073165e+000 77 37 29
1.322247e+000 -1.420994e+000 3.053707e+000 152 84 56
1.284456e+000 -1.516445e+000 3.085127e+000 87 99 89
1.284986e+000 -1.515384e+000 3.085080e+000 87 99 89
1.349960e+000 -1.414608e+000 3.054427e+000 102 45 34
1.317733e+000 -1.425641e+000 3.056478e+000 118 103 70
1.286499e+000 -1.617898e+000 3.126607e+000 115 66 77
1.311092e+000 -1.587166e+000 3.118872e+000 29 20 32
1.204128e+000 -1.455815e+000 3.049366e+000 167 42 46
1.346273e+000 -1.470302e+000 3.080014e+000 129 74 71
1.264017e+000 -1.376295e+000 3.047888e+000 214 181 140
1.213177e+000 -1.450029e+000 3.049387e+000 239 129 108
1.234743e+000 -1.432906e+000 3.048013e+000 237 146 119
1.257708e+000 -1.415054e+000 3.046291e+000 247 133 113
1.266314e+000 -1.408412e+000 3.045481e+000 211 148 118
1.187611e+000 -1.476211e+000 3.052205e+000 230 127 102
1.205455e+000 -1.459744e+000 3.050421e+000 135 53 41
1.205801e+000 -1.459451e+000 3.050464e+000 135 53 41
1.237536e+000 -1.435403e+000 3.049014e+000 225 144 115
1.273620e+000 -1.408310e+000 3.046239e+000 254 124 104
1.301723e+000 -1.398504e+000 3.045570e+000 144 173 91
1.288769e+000 -1.534157e+000 3.092123e+000 166 87 88
1.309951e+000 -1.508240e+000 3.085737e+000 158 126 132
1.330881e+000 -1.491961e+000 3.083646e+000 144 111 89
1.219786e+000 -1.695017e+000 3.152490e+000 126 65 36
1.338863e+000 -1.490037e+000 3.084642e+000 146 99 97
1.352074e+000 -1.459591e+000 3.075178e+000 114 71 52
1.302202e+000 -1.583551e+000 3.114614e+000 154 105 106
1.280799e+000 -1.668732e+000 3.148029e+000 34 25 46
1.280799e+000 -1.668732e+000 3.148029e+000 34 25 46
1.330340e+000 -1.654147e+000 3.142633e+000 169 115 76
1.331833e+000 -1.670905e+000 3.146917e+000 191 146 117
1.280425e+000 -1.362662e+000 3.056834e+000 213 185 150
1.140327e+000 -1.517742e+000 3.056994e+000 225 141 112
1.281126e+000 -1.550385e+000 3.096869e+000 102 53 51
1.307669e+000 -1.511010e+000 3.086710e+000 75 58 60
1.271718e+000 -1.575570e+000 3.105728e+000 173 115 122
1.272574e+000 -1.577366e+000 3.105156e+000 85 54 59
1.308097e+000 -1.550916e+000 3.102994e+000 20 12 8
1.289431e+000 -1.605554e+000 3.121898e+000 67 30 35
1.300493e+000 -1.584301e+000 3.115125e+000 71 38 43
1.330938e+000 -1.518832e+000 3.094436e+000 121 88 95
1.300661e+000 -1.628745e+000 3.134793e+000 29 65 89
1.354612e+000 -1.458449e+000 3.076197e+000 83 52 47
1.328635e+000 -1.515202e+000 3.093073e+000 154 117 107
1.341123e+000 -1.488423e+000 3.084716e+000 88 59 66
1.280256e+000 -1.368012e+000 3.049166e+000 209 181 145
1.177074e+000 -1.477240e+000 3.051315e+000 183 39 52
1.234642e+000 -1.435486e+000 3.048853e+000 184 39 44
1.311981e+000 -1.416079e+000 3.051394e+000 41 54 29
1.338972e+000 -1.435618e+000 3.065136e+000 110 21 30
1.248809e+000 -1.609398e+000 3.113922e+000 94 33 43
1.318679e+000 -1.572584e+000 3.114687e+000 33 24 51
1.330767e+000 -1.570213e+000 3.115616e+000 172 119 85
1.324024e+000 -1.330400e+000 3.049360e+000 176 30 43
1.108883e+000 -1.530761e+000 3.055542e+000 180 39 46
1.302888e+000 -1.402040e+000 3.046395e+000 121 135 109
1.308152e+000 -1.556966e+000 3.105160e+000 153 120 103
1.377048e+000 -1.301746e+000 3.080184e+000 140 146 145
1.271146e+000 -1.425074e+000 3.050343e+000 172 160 66
1.316700e+000 -1.398092e+000 3.046908e+000 34 56 36
1.305372e+000 -1.413792e+000 3.051245e+000 172 161 98
1.271244e+000 -1.369330e+000 3.055830e+000 95 74 55
1.345987e+000 -1.478092e+000 3.081238e+000 97 66 72
1.269734e+000 -1.407521e+000 3.048459e+000 221 145 117
1.256910e+000 -1.607885e+000 3.115941e+000 93 35 43
1.283426e+000 -1.362088e+000 3.057649e+000 228 189 152
1.270283e+000 -1.375964e+000 3.048535e+000 209 180 133
1.270329e+000 -1.375916e+000 3.048543e+000 209 180 133
1.270315e+000 -1.378336e+000 3.043835e+000 214 179 136
1.270565e+000 -1.407866e+000 3.046054e+000 155 47 42
1.270565e+000 -1.407866e+000 3.046054e+000 155 47 42
1.325825e+000 -1.399154e+000 3.048772e+000 146 145 90
1.327988e+000 -1.417760e+000 3.054698e+000 202 137 115
1.276191e+000 -1.552129e+000 3.096810e+000 166 84 83
1.285720e+000 -1.532902e+000 3.091276e+000 72 28 35
1.288562e+000 -1.534544e+000 3.092115e+000 163 86 87
1.299254e+000 -1.529013e+000 3.092215e+000 79 48 54
1.352928e+000 -1.437835e+000 3.066911e+000 64 105 127
1.353550e+000 -1.436188e+000 3.067118e+000 64 105 127
1.328198e+000 -1.486809e+000 3.080097e+000 125 93 78
1.333028e+000 -1.488792e+000 3.083278e+000 30 16 7
1.273924e+000 -1.604450e+000 3.118449e+000 106 65 60
1.311031e+000 -1.538131e+000 3.098338e+000 166 115 107
1.342262e+000 -1.489943e+000 3.085031e+000 111 81 83
1.371756e+000 -1.430878e+000 3.072333e+000 127 78 37
1.316342e+000 -1.552302e+000 3.105456e+000 71 42 42
1.289812e+000 -1.638488e+000 3.136860e+000 35 29 44
1.255210e+000 -1.589342e+000 3.107961e+000 176 86 83
1.262648e+000 -1.581987e+000 3.106244e+000 170 90 87
1.302620e+000 -1.520581e+000 3.089397e+000 83 57 64
1.307982e+000 -1.510369e+000 3.086582e+000 81 59 62
1.227563e+000 -1.700033e+000 3.150423e+000 52 18 9
1.370177e+000 -1.436047e+000 3.073028e+000 161 107 60
1.315637e+000 -1.557177e+000 3.107000e+000 122 84 87
1.315125e+000 -1.558359e+000 3.107005e+000 122 84 87
1.233110e+000 -1.672776e+000 3.140594e+000 127 73 36
1.274973e+000 -1.599144e+000 3.116357e+000 181 120 113
1.249689e+000 -1.690163e+000 3.151337e+000 176 123 64
1.301217e+000 -1.596401e+000 3.122065e+000 75 45 47
1.291935e+000 -1.542094e+000 3.095816e+000 85 45 50
1.350112e+000 -1.451517e+000 3.071852e+000 77 16 24
1.355108e+000 -1.449900e+000 3.071976e+000 143 55 38
1.271429e+000 -1.609959e+000 3.122426e+000 62 21 25
1.283589e+000 -1.362349e+000 3.056673e+000 156 127 97
1.283589e+000 -1.362349e+000 3.056673e+000 156 127 97
1.285265e+000 -1.364802e+000 3.047802e+000 207 181 144
1.289436e+000 -1.387361e+000 3.038107e+000 53 97 110
1.295075e+000 -1.542453e+000 3.096641e+000 83 61 57
1.375626e+000 -1.429291e+000 3.070646e+000 33 20 26
1.277568e+000 -1.398937e+000 3.043107e+000 161 89 66
1.279916e+000 -1.396961e+000 3.043775e+000 161 89 66
1.316134e+000 -1.401430e+000 3.048569e+000 115 121 110
1.322735e+000 -1.448479e+000 3.065709e+000 20 65 95
1.346900e+000 -1.453816e+000 3.073175e+000 156 124 103
1.325462e+000 -1.499800e+000 3.085801e+000 28 12 17
1.325022e+000 -1.609490e+000 3.130758e+000 163 119 80
1.327367e+000 -1.680979e+000 3.148217e+000 179 138 110
1.286987e+000 -1.385858e+000 3.037107e+000 116 127 123
1.304824e+000 -1.409592e+000 3.051727e+000 35 52 33
1.381125e+000 -1.420224e+000 3.072250e+000 145 102 58
1.373820e+000 -1.445004e+000 3.074998e+000 49 17 22
1.337827e+000 -1.434095e+000 3.064069e+000 105 26 23
1.337827e+000 -1.434095e+000 3.064069e+000 105 26 23
1.349234e+000 -1.574235e+000 3.117636e+000 140 22 38
1.349234e+000 -1.574235e+000 3.117636e+000 140 22 38
1.298949e+000 -1.353837e+000 3.052930e+000 204 177 141
1.340710e+000 -1.411259e+000 3.056713e+000 165 138 107
1.284206e+000 -1.499145e+000 3.077363e+000 102 21 20
1.333767e+000 -1.434087e+000 3.061918e+000 41 56 61
1.333767e+000 -1.434087e+000 3.061918e+000 41 56 61
1.282921e+000 -1.540871e+000 3.093844e+000 165 86 73
1.288229e+000 -1.537290e+000 3.093482e+000 70 28 26
1.291192e+000 -1.531883e+000 3.091570e+000 76 38 37
1.293145e+000 -1.527255e+000 3.089965e+000 136 79 82
1.306942e+000 -1.514026e+000 3.087048e+000 63 41 43
1.347791e+000 -1.469147e+000 3.078417e+000 76 39 30
1.336032e+000 -1.495721e+000 3.085812e+000 72 47 40
1.336097e+000 -1.495605e+000 3.085847e+000 72 47 40
1.347637e+000 -1.471253e+000 3.079268e+000 142 84 80
1.348203e+000 -1.469717e+000 3.079193e+000 142 84 80
1.349225e+000 -1.469942e+000 3.078113e+000 77 52 46
1.348980e+000 -1.472827e+000 3.078790e+000 99 75 76
1.301283e+000 -1.588479e+000 3.117100e+000 77 48 47
1.334552e+000 -1.510090e+000 3.091307e+000 99 76 79
1.368135e+000 -1.444387e+000 3.072917e+000 114 69 36
1.190408e+000 -1.467922e+000 3.051274e+000 188 136 98
1.246352e+000 -1.426998e+000 3.047526e+000 159 31 42
1.335363e+000 -1.439441e+000 3.063791e+000 134 37 38
1.344946e+000 -1.450901e+000 3.069611e+000 81 18 19
1.349255e+000 -1.467473e+000 3.077846e+000 163 110 97
1.349255e+000 -1.467473e+000 3.077846e+000 163 110 97
1.277721e+000 -1.370758e+000 3.051320e+000 205 183 142
1.171952e+000 -1.482170e+000 3.053187e+000 198 144 100
1.344764e+000 -1.405216e+000 3.056398e+000 154 44 43
1.355464e+000 -1.424649e+000 3.063014e+000 19 57 74
1.339233e+000 -1.466390e+000 3.075616e+000 85 66 66
1.340915e+000 -1.479273e+000 3.080867e+000 159 112 92
1.370843e+000 -1.435051e+000 3.070425e+000 93 48 24
1.261585e+000 -1.411224e+000 3.045717e+000 168 32 40
1.143061e+000 -1.505241e+000 3.055572e+000 191 147 112
1.235364e+000 -1.434782e+000 3.049030e+000 159 38 33
1.324122e+000 -1.399595e+000 3.047617e+000 128 128 90
1.345251e+000 -1.438830e+000 3.065340e+000 109 16 25
1.362672e+000 -1.411696e+000 3.063388e+000 138 104 77
1.372657e+000 -1.425546e+000 3.068610e+000 137 101 65
1.287317e+000 -1.366176e+000 3.042857e+000 199 177 136
1.176042e+000 -1.511632e+000 3.061053e+000 157 149 42
1.176042e+000 -1.511632e+000 3.061053e+000 157 149 42
1.295627e+000 -1.405819e+000 3.046907e+000 95 106 44
1.330221e+000 -1.436370e+000 3.062177e+000 14 60 89
1.309760e+000 -1.474775e+000 3.072718e+000 107 117 108
1.310233e+000 -1.473850e+000 3.072760e+000 107 117 108
1.333621e+000 -1.452572e+000 3.069346e+000 102 49 57
1.347938e+000 -1.465962e+000 3.076639e+000 100 48 37
1.315984e+000 -1.401701e+000 3.048544e+000 103 117 101
1.335061e+000 -1.415831e+000 3.056440e+000 138 25 30
1.304539e+000 -1.409937e+000 3.051649e+000 28 52 29
1.312284e+000 -1.465629e+000 3.069949e+000 14 62 92
1.335286e+000 -1.472093e+000 3.076078e+000 85 65 74
1.320321e+000 -1.433440e+000 3.058785e+000 155 139 106
1.330488e+000 -1.372672e+000 3.046211e+000 79 105 104
1.344852e+000 -1.462674e+000 3.075315e+000 144 117 90
1.363490e+000 -1.424080e+000 3.066561e+000 146 108 69
1.340233e+000 -1.322992e+000 3.053962e+000 135 83 55
1.097506e+000 -1.552154e+000 3.061545e+000 224 132 96
1.183389e+000 -1.610905e+000 3.101461e+000 184 141 99
1.290615e+000 -1.507126e+000 3.082065e+000 32 57 64
1.305908e+000 -1.483283e+000 3.075831e+000 28 55 60
1.352603e+000 -1.428128e+000 3.062832e+000 109 147 147
1.353823e+000 -1.428919e+000 3.063353e+000 107 137 140
1.351682e+000 -1.435356e+000 3.065574e+000 32 53 53
1.352662e+000 -1.433343e+000 3.064827e+000 28 47 49
1.352890e+000 -1.436156e+000 3.066333e+000 32 54 57
1.353339e+000 -1.435137e+000 3.066296e+000 32 54 57
1.355867e+000 -1.430335e+000 3.065254e+000 50 92 102
1.327445e+000 -1.498050e+000 3.085776e+000 132 97 73
1.348529e+000 -1.463231e+000 3.076367e+000 91 49 29
1.345105e+000 -1.482572e+000 3.083270e+000 97 69 65
1.306454e+000 -1.576622e+000 3.114063e+000 88 63 51
1.195032e+000 -1.466684e+000 3.052299e+000 186 142 95
1.235580e+000 -1.439400e+000 3.049155e+000 200 142 98
1.350516e+000 -1.440084e+000 3.067217e+000 85 116 129
1.274108e+000 -1.601660e+000 3.116391e+000 183 121 96
1.368100e+000 -1.441213e+000 3.072405e+000 154 98 41
1.296426e+000 -1.358353e+000 3.049530e+000 208 171 127
1.288435e+000 -1.365119e+000 3.049342e+000 209 173 122
1.338058e+000 -1.488378e+000 3.084767e+000 99 67 47
1.374200e+000 -1.423181e+000 3.068625e+000 97 51 17
1.183842e+000 -1.471338e+000 3.052075e+000 164 23 26
1.230087e+000 -1.533941e+000 3.079749e+000 166 29 27
1.355476e+000 -1.420145e+000 3.062737e+000 21 54 72
1.347926e+000 -1.442509e+000 3.067104e+000 26 54 71
1.325319e+000 -1.502915e+000 3.088612e+000 133 102 74
1.354239e+000 -1.452879e+000 3.073499e+000 70 12 2
1.308177e+000 -1.349213e+000 3.049394e+000 195 171 117
1.356038e+000 -1.444537e+000 3.069941e+000 105 34 23
1.267777e+000 -1.699698e+000 3.153649e+000 32 21 42
1.211632e+000 -1.502542e+000 3.064512e+000 161 142 86
1.211632e+000 -1.502542e+000 3.064512e+000 161 142 86
1.196874e+000 -1.523275e+000 3.069050e+000 25 47 25
1.298292e+000 -1.573501e+000 3.109297e+000 129 94 72
1.259314e+000 -1.441534e+000 3.052460e+000 26 50 24
1.319725e+000 -1.516599e+000 3.091492e+000 134 104 75
1.362030e+000 -1.454498e+000 3.076802e+000 151 109 59
1.303992e+000 -1.464396e+000 3.067891e+000 189 107 65
1.304009e+000 -1.464368e+000 3.067892e+000 189 107 65
1.283237e+000 -1.495383e+000 3.076313e+000 182 100 70
1.316242e+000 -1.462608e+000 3.069225e+000 102 123 116
1.316501e+000 -1.462066e+000 3.069286e+000 102 123 116
1.330857e+000 -1.438706e+000 3.062624e+000 25 38 32
1.205906e+000 -1.636620e+000 3.115934e+000 20 40 46
1.321604e+000 -1.462411e+000 3.070133e+000 95 33 17
1.248419e+000 -1.605572e+000 3.113043e+000 127 58 42
1.273244e+000 -1.552153e+000 3.096844e+000 121 52 31
1.275860e+000 -1.554681e+000 3.098227e+000 46 19 15
1.279379e+000 -1.550634e+000 3.097532e+000 131 57 48
1.288504e+000 -1.536671e+000 3.093418e+000 53 25 13
1.309404e+000 -1.497318e+000 3.081636e+000 54 22 15
1.332870e+000 -1.453027e+000 3.069086e+000 52 26 20
1.279581e+000 -1.557363e+000 3.100239e+000 38 14 10
1.279581e+000 -1.557363e+000 3.100239e+000 38 14 10
1.326796e+000 -1.501022e+000 3.087585e+000 101 76 54
1.352918e+000 -1.442624e+000 3.068782e+000 44 1 4
1.328805e+000 -1.498601e+000 3.086369e+000 100 74 48
1.343198e+000 -1.477037e+000 3.080339e+000 62 28 16
1.283884e+000 -1.625137e+000 3.127783e+000 77 40 38
1.353245e+000 -1.458788e+000 3.075496e+000 119 81 61
1.193799e+000 -1.464809e+000 3.051635e+000 160 103 71
1.326705e+000 -1.446209e+000 3.065157e+000 33 42 40
1.354126e+000 -1.435024e+000 3.065886e+000 72 95 97
1.337863e+000 -1.501728e+000 3.089351e+000 73 49 45
1.337863e+000 -1.501728e+000 3.089351e+000 73 49 45
1.273730e+000 -1.568063e+000 3.103227e+000 53 22 16
1.309508e+000 -1.557803e+000 3.105244e+000 110 79 55
1.268291e+000 -1.505181e+000 3.076891e+000 118 25 17
1.325492e+000 -1.452259e+000 3.067215e+000 19 45 47
1.325492e+000 -1.452259e+000 3.067215e+000 19 45 47
1.303227e+000 -1.501970e+000 3.083130e+000 49 29 30
1.268358e+000 -1.628050e+000 3.123759e+000 98 67 49
1.272552e+000 -1.647091e+000 3.134235e+000 42 14 19
1.281224e+000 -1.642882e+000 3.134814e+000 61 37 31
1.307494e+000 -1.446332e+000 3.060441e+000 124 106 68
1.324948e+000 -1.337536e+000 3.055395e+000 76 56 19
1.197620e+000 -1.464376e+000 3.051203e+000 123 74 47
1.232917e+000 -1.463799e+000 3.054460e+000 22 35 17
1.278363e+000 -1.421218e+000 3.049346e+000 24 36 23
1.314634e+000 -1.410635e+000 3.048982e+000 119 106 54
1.316312e+000 -1.408128e+000 3.049546e+000 119 106 54
1.304919e+000 -1.439136e+000 3.058471e+000 129 105 67
1.285924e+000 -1.475206e+000 3.068750e+000 124 106 68
1.308783e+000 -1.443959e+000 3.060613e+000 126 105 68
1.316698e+000 -1.458120e+000 3.067976e+000 17 44 50
1.296698e+000 -1.475463e+000 3.070482e+000 172 98 66
1.287554e+000 -1.493899e+000 3.076056e+000 170 79 55
1.286960e+000 -1.494965e+000 3.076038e+000 170 79 55
1.308147e+000 -1.477861e+000 3.074187e+000 22 32 26
1.308213e+000 -1.475555e+000 3.073044e+000 96 109 90
1.319875e+000 -1.456419e+000 3.067626e+000 94 109 94
1.330079e+000 -1.440409e+000 3.063758e+000 99 111 91
1.325654e+000 -1.449722e+000 3.065989e+000 92 109 91
1.330125e+000 -1.441988e+000 3.064032e+000 91 113 100
1.335099e+000 -1.447274e+000 3.068565e+000 100 59 56
1.277516e+000 -1.556466e+000 3.099392e+000 55 23 15
1.294276e+000 -1.524769e+000 3.089881e+000 103 54 49
1.292603e+000 -1.530769e+000 3.092522e+000 130 62 53
1.324953e+000 -1.468795e+000 3.073722e+000 99 54 48
1.356000e+000 -1.424410e+000 3.063226e+000 19 31 32
1.355968e+000 -1.435580e+000 3.067973e+000 92 26 12
1.347499e+000 -1.467455e+000 3.077908e+000 113 56 31
1.335363e+000 -1.507536e+000 3.091305e+000 77 54 46
1.335317e+000 -1.507910e+000 3.091218e+000 77 54 46
1.344215e+000 -1.478729e+000 3.081805e+000 103 53 40
1.391105e+000 -1.433888e+000 3.074521e+000 73 33 15
1.284786e+000 -1.392713e+000 3.045069e+000 111 60 41
1.282004e+000 -1.497527e+000 3.076394e+000 155 107 61
1.315384e+000 -1.455357e+000 3.066404e+000 184 61 55
1.273943e+000 -1.553468e+000 3.097358e+000 59 21 15
1.280069e+000 -1.542866e+000 3.094787e+000 60 18 11
1.288629e+000 -1.540820e+000 3.095486e+000 62 29 22
1.239189e+000 -1.644801e+000 3.126843e+000 56 22 17
1.330578e+000 -1.466635e+000 3.075000e+000 60 42 39
1.329018e+000 -1.524641e+000 3.096279e+000 79 57 46
1.340841e+000 -1.493400e+000 3.087225e+000 69 49 42
1.368885e+000 -1.437784e+000 3.071442e+000 85 47 11
1.333314e+000 -1.333526e+000 3.051897e+000 162 129 77
1.234974e+000 -1.529990e+000 3.078364e+000 118 105 61
1.213787e+000 -1.567264e+000 3.088458e+000 134 101 60
1.246912e+000 -1.532430e+000 3.082271e+000 130 104 62
1.248364e+000 -1.530223e+000 3.082181e+000 130 104 62
1.280731e+000 -1.558175e+000 3.100648e+000 79 43 30
1.281380e+000 -1.556690e+000 3.100539e+000 79 43 30
1.347529e+000 -1.440806e+000 3.066523e+000 20 38 40
1.324567e+000 -1.420471e+000 3.054553e+000 125 100 64
1.341356e+000 -1.410909e+000 3.055349e+000 118 29 23
1.246933e+000 -1.613728e+000 3.114054e+000 55 15 14
1.320005e+000 -1.429826e+000 3.056425e+000 146 88 56
1.307132e+000 -1.522514e+000 3.091911e+000 54 36 32
1.285426e+000 -1.422005e+000 3.052118e+000 23 35 16
1.290660e+000 -1.440987e+000 3.054421e+000 23 34 17
1.303111e+000 -1.480205e+000 3.073844e+000 18 44 54
1.333693e+000 -1.434345e+000 3.061858e+000 27 34 31
1.198969e+000 -1.621350e+000 3.105466e+000 109 15 16
1.346925e+000 -1.477638e+000 3.081799e+000 75 52 44
1.313328e+000 -1.563625e+000 3.108444e+000 81 51 41
1.335196e+000 -1.508110e+000 3.091447e+000 72 50 47
1.295571e+000 -1.658211e+000 3.139081e+000 17 37 41
1.350838e+000 -1.619764e+000 3.150834e+000 67 21 3
1.342593e+000 -1.489450e+000 3.085246e+000 72 52 46
1.354290e+000 -1.449087e+000 3.073595e+000 54 11 6
1.303646e+000 -1.697127e+000 3.153100e+000 90 33 13
1.287956e+000 -1.409691e+000 3.047162e+000 20 37 18
1.340118e+000 -1.413059e+000 3.054306e+000 87 24 13
1.304062e+000 -1.482550e+000 3.075132e+000 101 122 109
1.319221e+000 -1.459180e+000 3.069265e+000 99 115 97
1.324945e+000 -1.447909e+000 3.065422e+000 94 118 113
1.292182e+000 -1.531722e+000 3.092664e+000 116 58 49
1.313101e+000 -1.503999e+000 3.085544e+000 45 34 30
1.353212e+000 -1.432702e+000 3.063911e+000 22 37 40
1.327847e+000 -1.496531e+000 3.085871e+000 104 71 56
1.356643e+000 -1.428488e+000 3.061996e+000 14 29 20
1.323082e+000 -1.419349e+000 3.053959e+000 154 89 60
1.322828e+000 -1.419771e+000 3.053928e+000 154 89 60
1.300453e+000 -1.478724e+000 3.072879e+000 97 18 19
1.267301e+000 -1.545731e+000 3.091940e+000 29 41 40
1.322522e+000 -1.453210e+000 3.067331e+000 36 43 42
1.307028e+000 -1.508567e+000 3.086394e+000 97 73 68
1.352835e+000 -1.433480e+000 3.064592e+000 25 37 40
1.352138e+000 -1.437229e+000 3.065437e+000 38 58 62
1.222472e+000 -1.445143e+000 3.047392e+000 124 18 22
1.285705e+000 -1.413997e+000 3.049498e+000 24 35 13
1.291059e+000 -1.522270e+000 3.089327e+000 52 20 18
1.273651e+000 -1.568476e+000 3.103181e+000 50 24 23
1.329067e+000 -1.475949e+000 3.078020e+000 57 40 33
1.341374e+000 -1.412019e+000 3.053477e+000 99 27 22
1.313286e+000 -1.469137e+000 3.071129e+000 16 44 51
1.216178e+000 -1.660458e+000 3.122451e+000 83 33 26
1.269293e+000 -1.431364e+000 3.049983e+000 19 36 17
1.300139e+000 -1.415927e+000 3.050219e+000 20 38 15
1.312715e+000 -1.509092e+000 3.088606e+000 53 35 35
1.286514e+000 -1.508602e+000 3.080132e+000 13 46 54
1.333640e+000 -1.434502e+000 3.061806e+000 29 38 34
1.298758e+000 -1.389982e+000 3.045512e+000 79 85 74
1.174567e+000 -1.530003e+000 3.071485e+000 21 39 17
1.313299e+000 -1.401016e+000 3.050062e+000 21 36 14
1.255886e+000 -1.455949e+000 3.056725e+000 124 110 68
1.316075e+000 -1.416941e+000 3.052336e+000 124 106 68
1.320396e+000 -1.420994e+000 3.055385e+000 147 90 59
1.320396e+000 -1.420994e+000 3.055385e+000 147 90 59
1.295656e+000 -1.521639e+000 3.089681e+000 90 50 45
1.333665e+000 -1.452372e+000 3.068880e+000 96 58 53
1.353900e+000 -1.430507e+000 3.063896e+000 20 36 36
1.202911e+000 -1.458600e+000 3.051616e+000 85 40 28
1.278626e+000 -1.407130e+000 3.045640e+000 117 115 85
1.223293e+000 -1.543690e+000 3.081765e+000 124 101 69
1.283907e+000 -1.498707e+000 3.076393e+000 161 87 61
1.303309e+000 -1.484210e+000 3.075196e+000 86 107 96
1.244190e+000 -1.613205e+000 3.112514e+000 46 15 9
1.324879e+000 -1.458721e+000 3.069432e+000 107 53 29
1.324879e+000 -1.458721e+000 3.069432e+000 107 53 29
1.307930e+000 -1.510179e+000 3.086688e+000 53 37 37
1.311627e+000 -1.503755e+000 3.085710e+000 93 69 62
1.314065e+000 -1.497108e+000 3.082811e+000 50 37 31
1.320171e+000 -1.491262e+000 3.081383e+000 57 42 37
1.351151e+000 -1.430365e+000 3.062361e+000 20 38 48
1.228990e+000 -1.445782e+000 3.048220e+000 153 101 62
1.315186e+000 -1.455731e+000 3.066371e+000 158 55 50
1.277906e+000 -1.576463e+000 3.107164e+000 112 73 62
1.379894e+000 -1.450755e+000 3.065370e+000 26 25 15
1.303874e+000 -1.484819e+000 3.075551e+000 72 81 66
1.303874e+000 -1.484819e+000 3.075551e+000 72 81 66
1.236583e+000 -1.446430e+000 3.050133e+000 29 60 62
1.236583e+000 -1.446430e+000 3.050133e+000 29 60 62
1.294791e+000 -1.512476e+000 3.084329e+000 133 94 47
1.294791e+000 -1.512476e+000 3.084329e+000 133 94 47
1.351684e+000 -1.341323e+000 3.049677e+000 95 93 52
1.320433e+000 -1.376238e+000 3.050378e+000 29 36 5
1.320252e+000 -1.417631e+000 3.055300e+000 171 110 78
1.320252e+000 -1.417631e+000 3.055300e+000 171 110 78
1.343622e+000 -1.391617e+000 3.044872e+000 102 55 37
1.345939e+000 -1.392572e+000 3.046073e+000 92 51 33
1.346188e+000 -1.391849e+000 3.046236e+000 92 51 33
1.347246e+000 -1.405554e+000 3.050241e+000 84 29 17
1.331189e+000 -1.437897e+000 3.061961e+000 102 126 117
1.351308e+000 -1.414511e+000 3.052293e+000 83 31 20
1.277688e+000 -1.526601e+000 3.087757e+000 23 52 66
1.299680e+000 -1.526688e+000 3.091486e+000 64 42 41
1.332060e+000 -1.411236e+000 3.053489e+000 134 112 77
1.333886e+000 -1.447840e+000 3.066030e+000 88 21 13
1.346948e+000 -1.354331e+000 3.046328e+000 32 33 14
1.339841e+000 -1.414124e+000 3.054472e+000 115 31 27
1.350692e+000 -1.343407e+000 3.049206e+000 30 31 15
1.291693e+000 -1.438814e+000 3.057282e+000 140 127 37
1.342523e+000 -1.383731e+000 3.044847e+000 84 23 22
1.284684e+000 -1.479807e+000 3.068932e+000 134 121 83
1.323644e+000 -1.422447e+000 3.057218e+000 159 102 75
1.333352e+000 -1.481054e+000 3.078063e+000 72 55 51
1.302399e+000 -1.404379e+000 3.051407e+000 27 40 25
1.297851e+000 -1.429447e+000 3.056001e+000 23 41 25
1.297851e+000 -1.429447e+000 3.056001e+000 23 41 25
1.318357e+000 -1.405543e+000 3.052961e+000 22 41 22
1.307084e+000 -1.434263e+000 3.058838e+000 137 121 85
1.285017e+000 -1.477927e+000 3.068800e+000 133 121 81
1.309640e+000 -1.443432e+000 3.060790e+000 137 119 83
1.345636e+000 -1.379097e+000 3.043222e+000 116 68 51
1.316362e+000 -1.467078e+000 3.070153e+000 32 64 84
1.350803e+000 -1.345213e+000 3.048473e+000 35 42 26
1.343447e+000 -1.380216e+000 3.042910e+000 97 35 33
1.309487e+000 -1.475668e+000 3.072891e+000 113 119 114
1.326278e+000 -1.385424e+000 3.051771e+000 101 119 107
1.326278e+000 -1.385424e+000 3.051771e+000 101 119 107
1.494017e+000 -1.263092e+000 2.973156e+000 0 255 0
1.528285e+000 -1.227209e+000 2.966983e+000 255 255 0
1.461186e+000 -1.309293e+000 2.983409e+000 255 0 0
1.497174e+000 -1.275905e+000 2.973919e+000 255 255 0
1.474236e+000 -1.217366e+000 3.060458e+000 0 255 0
1.440298e+000 -1.253623e+000 3.066263e+000 255 255 0
1.442429e+000 -1.263382e+000 3.069761e+000 255 0 0
1.408270e+000 -1.299749e+000 3.073011e+000 255 255 0
1.530237e+000 -1.128581e+000 3.036789e+000 0 255 0
1.497810e+000 -1.165821e+000 3.044637e+000 255 255 0
1.433599e+000 -1.267655e+000 3.073011e+000 255 0 0
1.399765e+000 -1.304451e+000 3.074144e+000 255 255 0
1.426972e+000 -1.270825e+000 3.074653e+000 0 255 0
1.393365e+000 -1.307806e+000 3.076376e+000 255 255 0
1.419374e+000 -1.275544e+000 3.075825e+000 255 0 0
1.387542e+000 -1.314102e+000 3.075842e+000 255 255 0
1.413384e+000 -1.278747e+000 3.076648e+000 0 255 0
1.381523e+000 -1.317279e+000 3.076298e+000 255 255 0
1.409449e+000 -1.282453e+000 3.077518e+000 255 0 0
1.376596e+000 -1.320135e+000 3.078408e+000 255 255 0
1.402165e+000 -1.286172e+000 3.076837e+000 0 255 0
1.370541e+000 -1.324885e+000 3.075723e+000 255 255 0
1.396762e+000 -1.288484e+000 3.074726e+000 255 0 0
1.367203e+000 -1.328742e+000 3.072355e+000 255 255 0
1.392941e+000 -1.291180e+000 3.073867e+000 0 255 0
1.363433e+000 -1.331511e+000 3.072230e+000 255 255 0
1.388122e+000 -1.293883e+000 3.070405e+000 255 0 0
1.358703e+000 -1.334125e+000 3.066520e+000 255 255 0
1.386125e+000 -1.295884e+000 3.068932e+000 0 255 0
1.356940e+000 -1.336400e+000 3.066353e+000 255 255 0
1.378743e+000 -1.304083e+000 3.065341e+000 255 0 0
1.349978e+000 -1.344362e+000 3.058257e+000 255 255 0
