ply
format ascii 1.0
element face 0
property list uchar int vertex_indices
element vertex 99
property float x
property float y
property float z
property uchar diffuse_red
property uchar diffuse_green
property uchar diffuse_blue
end_header
8.325622e-001 -2.320641e+000 3.135317e+000 152 24 38
7.112331e-001 -2.752470e+000 3.146640e+000 117 77 60
9.997500e-001 -1.644825e+000 3.119972e+000 36 52 23
9.333516e-001 -2.092935e+000 3.142028e+000 208 53 72
9.600120e-001 -2.064208e+000 3.141650e+000 179 121 99
9.257397e-001 -2.105353e+000 3.140751e+000 137 34 44
9.742841e-001 -2.082300e+000 3.135119e+000 148 21 33
8.278897e-001 -2.451202e+000 3.122396e+000 181 125 94
9.447781e-001 -2.724965e+000 3.155302e+000 119 74 32
7.112331e-001 -2.752470e+000 3.146640e+000 117 77 60
9.404057e-001 -2.112573e+000 3.138826e+000 122 30 39
9.236285e-001 -2.063337e+000 3.150601e+000 181 126 96
9.309561e-001 -2.066174e+000 3.148558e+000 179 120 103
1.087946e+000 -1.902965e+000 3.131866e+000 78 29 35
9.856401e-001 -3.111478e+000 3.186531e+000 60 21 38
1.081091e+000 -1.913700e+000 3.133038e+000 166 84 82
1.055821e+000 -2.105312e+000 3.111178e+000 56 16 24
9.347327e-001 -2.931389e+000 3.175478e+000 161 114 64
8.178035e-001 -2.206710e+000 3.142059e+000 133 33 41
1.073204e+000 -1.912232e+000 3.135353e+000 101 48 49
9.343324e-001 -2.108403e+000 3.140949e+000 152 21 37
1.068806e+000 -2.021956e+000 3.119046e+000 66 29 29
1.007082e+000 -1.634158e+000 3.120682e+000 143 146 128
-6.231394e-001 -8.133364e+000 3.505940e+000 178 123 93
1.067492e+000 -1.951941e+000 3.130611e+000 73 32 30
1.109429e+000 -1.916228e+000 3.121895e+000 126 91 95
1.120999e+000 -1.774248e+000 3.146938e+000 178 37 45
1.120999e+000 -1.774248e+000 3.146938e+000 178 37 45
1.131456e+000 -1.817131e+000 3.124083e+000 35 71 98
1.112564e+000 -1.904488e+000 3.119903e+000 62 40 40
9.479985e-001 -2.135650e+000 3.130305e+000 123 29 35
8.480887e-001 -2.194855e+000 3.135722e+000 183 52 63
1.114339e+000 -1.755976e+000 3.155412e+000 131 82 67
8.358786e-001 -2.233957e+000 3.132105e+000 206 74 87
1.128106e+000 -1.767739e+000 3.145954e+000 178 42 49
-8.192528e-002 -4.950638e+000 3.348808e+000 182 126 102
1.101013e+000 -1.869322e+000 3.134078e+000 179 105 80
1.104175e+000 -1.970606e+000 3.113596e+000 141 113 99
1.080179e+000 -2.084845e+000 3.109675e+000 139 105 95
1.091310e+000 -2.122109e+000 3.100477e+000 75 36 39
-7.013110e-001 -7.093172e+000 3.523507e+000 187 126 100
1.085762e+000 -1.883298e+000 3.136512e+000 172 130 80
4.519677e-001 -5.329158e+000 3.274526e+000 69 20 26
1.008982e+000 -2.115794e+000 3.121683e+000 42 15 24
1.109817e+000 -1.882324e+000 3.128176e+000 71 34 30
1.113999e+000 -1.880073e+000 3.126597e+000 164 85 88
9.446862e-001 -2.145312e+000 3.133121e+000 123 29 35
9.707519e-001 -2.789378e+000 3.163400e+000 128 83 40
1.081853e+000 -1.930991e+000 3.129747e+000 64 22 29
1.083624e+000 -2.003290e+000 3.117434e+000 165 116 112
8.874004e-001 -2.140492e+000 3.147497e+000 126 26 31
9.475597e-001 -2.067660e+000 3.144597e+000 179 117 103
9.626301e-001 -2.097337e+000 3.135501e+000 186 52 59
9.210094e-001 -2.163040e+000 3.136374e+000 188 59 70
1.114846e+000 -1.974443e+000 3.108130e+000 28 15 13
9.229614e-001 -2.074703e+000 3.146892e+000 137 25 34
1.114339e+000 -1.755976e+000 3.155412e+000 131 82 67
1.041369e+000 -2.036807e+000 3.124296e+000 112 57 27
1.120005e+000 -1.833077e+000 3.127631e+000 18 73 104
9.737085e-001 -3.442789e+000 3.188710e+000 81 52 56
9.222027e-001 -2.053046e+000 3.152230e+000 176 124 102
1.088561e+000 -1.857645e+000 3.140584e+000 13 74 108
1.117540e+000 -1.852179e+000 3.125640e+000 191 117 93
1.120074e+000 -1.852577e+000 3.123768e+000 76 34 42
1.081162e+000 -1.905333e+000 3.134268e+000 172 85 84
1.095610e+000 -1.896341e+000 3.130622e+000 71 33 28
1.104505e+000 -1.890424e+000 3.129076e+000 162 83 81
1.100048e+000 -1.899981e+000 3.128440e+000 77 35 33
1.070671e+000 -1.913147e+000 3.136144e+000 73 20 20
1.098022e+000 -1.906236e+000 3.128342e+000 162 79 81
1.082453e+000 -1.938474e+000 3.128030e+000 127 58 68
8.969576e-001 -2.092303e+000 3.152105e+000 232 73 90
1.003779e+000 -2.208260e+000 3.111745e+000 120 73 33
1.112551e+000 -1.762139e+000 3.154201e+000 187 147 124
1.112551e+000 -1.762139e+000 3.154201e+000 187 147 124
1.109393e+000 -1.764178e+000 3.155069e+000 186 149 125
1.109393e+000 -1.764178e+000 3.155069e+000 186 149 125
1.129466e+000 -1.794667e+000 3.131335e+000 202 82 77
1.072768e+000 -1.945170e+000 3.129977e+000 147 75 81
1.111375e+000 -1.998580e+000 3.106892e+000 26 22 20
9.146865e-001 -2.165686e+000 3.132768e+000 143 27 40
1.016497e+000 -2.114130e+000 3.122347e+000 86 35 44
1.060155e+000 -2.209353e+000 3.110903e+000 73 37 41
-2.262610e-001 -6.029220e+000 3.430255e+000 184 127 100
6.953116e-001 -2.621710e+000 3.138510e+000 186 126 107
-1.132863e+000 -6.947611e+000 3.537859e+000 187 116 96
1.131482e+000 -1.837355e+000 3.119506e+000 76 52 65
1.030068e+000 -2.245307e+000 3.113919e+000 150 98 51
1.133895e+000 -1.758362e+000 3.145423e+000 168 155 121
1.133895e+000 -1.758362e+000 3.145423e+000 168 155 121
1.136110e+000 -1.793809e+000 3.125122e+000 19 72 104
1.226602e+000 -1.490006e+000 2.822006e+000 0 255 0
1.249870e+000 -1.468225e+000 2.783480e+000 255 255 0
1.079724e+000 -1.663344e+000 3.037940e+000 255 0 0
1.081674e+000 -1.654687e+000 2.988734e+000 255 255 0
1.276136e+000 -1.662270e+000 3.366069e+000 0 255 0
1.238194e+000 -1.666817e+000 3.333824e+000 255 255 0
1.302944e+000 -1.659936e+000 3.348366e+000 255 0 0
1.264503e+000 -1.667440e+000 3.317285e+000 255 255 0
