ply
format ascii 1.0
element face 0
property list uchar int vertex_indices
element vertex 330
property float x
property float y
property float z
property uchar diffuse_red
property uchar diffuse_green
property uchar diffuse_blue
end_header
4.963782e-001 -5.429854e-001 2.888066e+000 34 64 36
4.963782e-001 -5.429854e-001 2.888066e+000 34 64 36
4.758134e-001 -3.454798e-001 2.825377e+000 172 41 52
6.369820e-001 -2.547461e-001 3.780928e+000 183 33 40
5.435778e-001 -3.683913e-001 2.787876e+000 174 31 40
5.114389e-001 -4.014262e-001 2.829064e+000 154 166 178
5.118608e-001 -4.010171e-001 2.831584e+000 154 166 178
5.820687e-001 -5.279533e-001 2.813192e+000 158 163 156
5.531141e-001 -4.891459e-001 2.828984e+000 164 162 167
5.166789e-001 -6.644329e-001 2.912787e+000 160 161 166
5.973506e-001 -6.504450e-001 2.849170e+000 171 161 170
5.554376e-001 -2.729393e-001 2.743592e+000 134 147 171
4.981091e-001 -4.734318e-001 2.864981e+000 162 174 74
5.796013e-001 -4.922955e-001 2.805492e+000 158 162 163
5.678354e-001 -7.117263e-001 2.895624e+000 224 150 141
6.495201e-001 -1.007431e+000 2.950653e+000 121 68 48
5.434048e-001 -4.511912e-001 2.828486e+000 161 164 157
5.717463e-001 -5.526283e-001 2.833049e+000 150 169 133
5.526745e-001 -4.888980e-001 2.827214e+000 164 162 167
5.198394e-001 -5.220793e-001 2.866119e+000 26 65 36
4.824248e-001 -3.470034e-001 2.823824e+000 169 44 47
5.485157e-001 -3.753073e-001 2.786500e+000 151 169 194
6.013362e-001 -5.075923e-001 2.793039e+000 140 162 52
4.511841e-001 -3.207309e-001 2.837246e+000 220 161 156
6.674309e-001 -2.448513e-001 3.762541e+000 160 35 42
5.093436e-001 -6.531073e-001 2.913676e+000 170 36 45
6.350489e-001 -2.183223e-001 3.766158e+000 171 35 40
6.453970e-001 -2.319820e-001 3.768913e+000 180 39 47
5.987641e-001 -5.767502e-001 2.820744e+000 27 63 37
5.684359e-001 -4.807390e-001 2.810121e+000 29 64 34
5.855666e-001 -4.472926e-001 2.786460e+000 28 61 30
5.003625e-001 -4.580795e-001 2.847449e+000 25 65 38
5.698144e-001 -5.173721e-001 2.820641e+000 149 174 116
5.982498e-001 -9.131690e-001 2.946404e+000 95 31 29
6.115324e-001 -9.443220e-001 2.947696e+000 106 18 19
5.434048e-001 -4.511912e-001 2.828486e+000 161 164 157
4.939949e-001 -5.892734e-001 2.906792e+000 170 41 42
5.065930e-001 -5.649254e-001 2.881957e+000 164 161 171
6.369820e-001 -2.547461e-001 3.780928e+000 183 33 40
6.637204e-001 -9.275750e-001 2.914181e+000 55 134 202
6.013362e-001 -5.075923e-001 2.793039e+000 140 162 52
5.159263e-001 -2.847336e-001 2.779141e+000 158 172 195
6.289778e-001 -5.831073e-001 2.803035e+000 23 61 36
6.150696e-001 -6.807294e-001 2.839710e+000 106 72 75
6.105428e-001 -9.067419e-001 2.933977e+000 185 135 112
4.889161e-001 -4.112769e-001 2.848181e+000 135 175 122
5.361123e-001 -4.213384e-001 2.817095e+000 137 171 124
5.418308e-001 -5.547576e-001 2.853698e+000 23 63 37
6.389570e-001 -9.815947e-001 2.948698e+000 146 63 41
5.936289e-001 -6.920666e-001 2.863755e+000 162 163 168
5.486155e-001 -7.579195e-001 2.923471e+000 101 142 186
6.416039e-001 -9.206709e-001 2.923687e+000 20 83 142
4.993357e-001 -6.464391e-001 2.919362e+000 169 37 48
6.652452e-001 -8.959216e-001 2.902167e+000 127 183 235
6.518969e-001 -5.894242e-001 2.794617e+000 79 100 95
5.159263e-001 -2.847336e-001 2.779141e+000 158 172 195
5.410555e-001 -7.613919e-001 2.926960e+000 23 80 140
6.548003e-001 -8.936785e-001 2.906704e+000 16 82 152
6.404552e-001 -5.763312e-001 2.794214e+000 137 153 157
5.419794e-001 -5.207991e-001 2.844137e+000 28 60 31
6.155239e-001 -7.798489e-001 2.883983e+000 33 82 138
6.155239e-001 -7.798489e-001 2.883983e+000 33 82 138
6.669396e-001 -9.078404e-001 2.905580e+000 124 183 239
6.517344e-001 -9.198651e-001 2.918404e+000 36 82 127
6.521238e-001 -9.206039e-001 2.918646e+000 36 82 127
5.643729e-001 -7.595500e-001 2.914206e+000 23 82 142
6.533239e-001 -7.442534e-001 2.852557e+000 166 161 170
6.011877e-001 -7.740309e-001 2.890609e+000 111 158 205
6.011877e-001 -7.740309e-001 2.890609e+000 111 158 205
6.236886e-001 -8.776505e-001 2.922175e+000 121 22 27
6.430173e-001 -9.055950e-001 2.912724e+000 34 80 128
6.546294e-001 -9.106488e-001 2.909342e+000 32 85 128
4.991184e-001 -4.238634e-001 2.840290e+000 29 61 40
6.341728e-001 -9.150887e-001 2.923962e+000 27 82 144
5.643729e-001 -7.595500e-001 2.914206e+000 23 82 142
6.881893e-001 -1.058578e+000 2.953233e+000 129 71 33
4.844954e-001 -4.690874e-001 2.872728e+000 165 166 163
4.844954e-001 -4.690874e-001 2.872728e+000 165 166 163
5.820687e-001 -5.279533e-001 2.813192e+000 158 163 156
5.160653e-001 -4.738675e-001 2.848766e+000 162 165 163
7.337174e-001 -8.362289e-001 2.882563e+000 138 34 30
6.817204e-001 -8.485194e-001 2.883042e+000 150 51 46
6.885309e-001 -8.501421e-001 2.880958e+000 225 108 95
6.619614e-001 -7.510841e-001 2.851314e+000 174 48 50
7.088946e-001 -1.078165e+000 2.956445e+000 149 70 43
7.127619e-001 -1.163562e+000 2.982712e+000 180 138 110
6.776676e-001 -9.082087e-001 2.903791e+000 18 79 142
6.739414e-001 -9.314640e-001 2.910312e+000 19 87 142
5.302352e-001 -5.071858e-001 2.850195e+000 135 172 120
6.328447e-001 -7.274252e-001 2.849342e+000 158 25 30
5.245375e-001 -3.548479e-001 2.800780e+000 156 38 44
7.441395e-001 -6.371439e-001 2.825733e+000 159 21 26
7.688460e-001 -7.175402e-001 2.864601e+000 167 112 89
7.684502e-001 -7.174026e-001 2.862276e+000 167 112 89
6.682157e-001 -8.402740e-001 2.882426e+000 195 75 74
5.156442e-001 -3.626436e-001 2.806294e+000 175 38 44
7.569529e-001 -6.401493e-001 2.827953e+000 213 134 88
6.612184e-001 -9.025621e-001 2.905661e+000 18 83 141
5.960985e-001 -9.018126e-001 2.943632e+000 176 137 119
6.689040e-001 -1.044576e+000 2.956524e+000 146 104 59
5.448965e-001 -7.062710e-001 2.910256e+000 189 140 132
7.459643e-001 -8.783714e-001 2.897027e+000 193 126 92
7.800160e-001 -3.220905e-001 2.760596e+000 165 32 30
5.684359e-001 -4.807390e-001 2.810121e+000 29 64 34
7.239958e-001 -1.156304e+000 2.982652e+000 72 25 19
5.576603e-001 -7.391247e-001 2.914808e+000 92 23 45
4.972266e-001 -4.898889e-001 2.870771e+000 28 63 40
7.529722e-001 -4.917716e-001 2.790378e+000 36 47 17
8.001191e-001 -5.003065e-001 2.812016e+000 38 49 6
7.820491e-001 -6.207544e-001 2.846158e+000 155 24 21
5.523739e-001 -7.078948e-001 2.906417e+000 142 27 30
6.656978e-001 -1.057982e+000 2.961791e+000 161 102 58
7.801990e-001 -4.554541e-001 2.803542e+000 32 52 23
7.755607e-001 -4.915363e-001 2.800548e+000 30 54 27
5.138753e-001 -4.866273e-001 2.854201e+000 166 172 61
6.949692e-001 -9.253989e-001 2.908348e+000 176 143 108
7.504147e-001 -3.808018e-001 2.751703e+000 32 54 16
7.539035e-001 -4.427822e-001 2.773442e+000 29 54 25
7.408255e-001 -7.805758e-001 2.865131e+000 189 125 89
7.462766e-001 -8.588257e-001 2.891563e+000 189 123 88
6.313327e-001 -9.095719e-001 2.924695e+000 51 122 191
6.021860e-001 -8.098120e-001 2.905754e+000 193 134 105
5.444977e-001 -4.349729e-001 2.809534e+000 26 61 37
7.172953e-001 -1.210762e+000 3.001047e+000 181 141 116
7.160416e-001 -1.091831e+000 2.961287e+000 42 13 18
6.001800e-001 -5.994583e-001 2.822203e+000 163 162 168
7.154608e-001 -8.968635e-001 2.901940e+000 130 22 28
6.259719e-001 -9.360866e-001 2.938604e+000 71 13 20
6.848145e-001 -7.137210e-001 2.846495e+000 165 164 160
7.302552e-001 -8.241562e-001 2.877160e+000 189 97 70
7.259397e-001 -1.141880e+000 2.977091e+000 178 136 103
7.721829e-001 -5.341195e-001 2.820116e+000 31 47 13
7.552699e-001 -6.300435e-001 2.828253e+000 148 24 27
7.610526e-001 -4.539428e-001 2.782255e+000 136 139 31
4.905089e-001 -4.784442e-001 2.870389e+000 31 60 30
7.945194e-001 -6.148135e-001 2.853557e+000 147 24 25
7.694401e-001 -8.227365e-001 2.894247e+000 187 124 85
4.897844e-001 -3.231245e-001 2.814307e+000 171 35 40
7.892065e-001 -4.062634e-001 2.784494e+000 29 53 21
8.008056e-001 -4.523798e-001 2.805781e+000 32 53 10
7.669244e-001 -6.272577e-001 2.835118e+000 154 24 24
7.779357e-001 -6.330386e-001 2.840493e+000 175 97 66
5.348849e-001 -6.638123e-001 2.900686e+000 172 34 40
7.472555e-001 -9.044433e-001 2.905956e+000 197 123 87
7.434760e-001 -8.307384e-001 2.881745e+000 192 124 87
7.997553e-001 -9.326199e-001 2.943188e+000 157 23 27
7.428856e-001 -3.171107e-001 2.740955e+000 137 143 123
7.076320e-001 -8.295272e-001 2.872997e+000 188 94 74
4.972880e-001 -4.894814e-001 2.870618e+000 28 63 40
7.407447e-001 -6.561354e-001 2.827938e+000 103 28 41
7.179964e-001 -6.799582e-001 2.829446e+000 157 155 143
7.410140e-001 -6.992738e-001 2.833116e+000 14 79 117
6.389570e-001 -9.815947e-001 2.948698e+000 146 63 41
5.895850e-001 -3.000833e-001 2.735994e+000 135 150 173
6.075515e-001 -7.372136e-001 2.863169e+000 158 22 32
8.341589e-001 -3.033975e-001 2.795029e+000 174 43 41
7.979461e-001 -3.375291e-001 2.776009e+000 141 46 27
7.662989e-001 -3.643060e-001 2.758004e+000 70 100 105
8.119509e-001 -4.540355e-001 2.815151e+000 144 153 40
8.119509e-001 -4.540355e-001 2.815151e+000 144 153 40
8.054531e-001 -7.645036e-001 2.903281e+000 125 78 51
8.057256e-001 -7.645015e-001 2.903610e+000 125 78 51
6.817204e-001 -8.485194e-001 2.883042e+000 150 51 46
7.590315e-001 -9.027564e-001 2.909485e+000 192 120 91
7.896867e-001 -8.883504e-001 2.922744e+000 198 115 76
7.867143e-001 -9.021461e-001 2.923391e+000 223 85 76
8.114469e-001 -8.930539e-001 2.940453e+000 204 68 54
7.592157e-001 -9.218045e-001 2.915967e+000 131 29 31
7.944987e-001 -9.219835e-001 2.940243e+000 208 57 59
8.222964e-001 -9.318212e-001 2.955992e+000 196 65 51
8.153869e-001 -9.460552e-001 2.956280e+000 202 66 51
8.153869e-001 -9.460552e-001 2.956280e+000 202 66 51
8.120667e-001 -1.066101e+000 2.991442e+000 172 130 72
7.711893e-001 -3.248007e-001 2.755686e+000 175 33 32
7.902889e-001 -3.181191e-001 2.768116e+000 180 38 26
8.255208e-001 -3.077003e-001 2.788670e+000 164 37 32
5.409138e-001 -7.125565e-001 2.911027e+000 121 26 31
7.806141e-001 -7.589040e-001 2.880934e+000 108 65 42
7.875425e-001 -7.897961e-001 2.896281e+000 101 63 37
7.696021e-001 -8.136179e-001 2.890746e+000 95 50 24
7.921204e-001 -8.374335e-001 2.912355e+000 120 68 41
7.921204e-001 -8.374335e-001 2.912355e+000 120 68 41
7.890041e-001 -8.454189e-001 2.910849e+000 193 124 83
7.952521e-001 -8.489244e-001 2.914739e+000 128 87 59
7.957000e-001 -8.501199e-001 2.916270e+000 128 87 59
8.385492e-001 -8.520450e-001 2.946575e+000 191 121 81
6.730374e-001 -9.183549e-001 2.906732e+000 69 137 207
6.730374e-001 -9.183549e-001 2.906732e+000 69 137 207
8.370058e-001 -9.673584e-001 2.982059e+000 191 119 86
7.891214e-001 -9.947849e-001 2.952673e+000 192 126 91
8.735209e-001 -1.057932e+000 3.037252e+000 151 118 72
7.529722e-001 -4.917716e-001 2.790378e+000 36 47 17
5.597895e-001 -5.509324e-001 2.841819e+000 30 60 31
4.810132e-001 -5.934567e-001 2.916190e+000 158 158 162
7.428083e-001 -6.697329e-001 2.831845e+000 11 52 77
7.829617e-001 -7.831936e-001 2.893409e+000 191 122 85
7.412402e-001 -8.180368e-001 2.879807e+000 189 124 94
7.694401e-001 -8.227365e-001 2.894247e+000 187 124 85
8.271325e-001 -8.682168e-001 2.939972e+000 191 122 76
8.005656e-001 -9.868714e-001 2.957084e+000 198 122 85
6.421556e-001 -1.009441e+000 2.955355e+000 179 136 111
8.478440e-001 -1.049984e+000 3.009974e+000 147 84 38
7.098203e-001 -1.146494e+000 2.977163e+000 179 138 108
8.061489e-001 -1.153784e+000 3.022414e+000 158 122 87
7.590617e-001 -3.911507e-001 2.764540e+000 113 134 68
7.590617e-001 -3.911507e-001 2.764540e+000 113 134 68
7.990975e-001 -3.784355e-001 2.782442e+000 29 56 12
8.008663e-001 -4.391426e-001 2.805145e+000 123 121 20
8.299219e-001 -4.757237e-001 2.824824e+000 158 161 73
8.452178e-001 -4.624853e-001 2.838037e+000 131 139 59
8.353878e-001 -5.986353e-001 2.881306e+000 155 25 31
8.333077e-001 -6.096900e-001 2.878480e+000 226 127 85
8.245708e-001 -6.523312e-001 2.883637e+000 12 50 69
7.547171e-001 -8.680865e-001 2.894693e+000 89 57 42
7.779881e-001 -1.087281e+000 2.971843e+000 179 137 89
7.514281e-001 -1.192319e+000 2.997526e+000 192 158 129
7.639657e-001 -3.402248e-001 2.752438e+000 213 132 84
8.329003e-001 -3.463355e-001 2.812141e+000 25 81 105
5.987641e-001 -5.767502e-001 2.820744e+000 27 63 37
7.946257e-001 -6.258016e-001 2.852661e+000 232 124 86
8.188770e-001 -7.624028e-001 2.911115e+000 190 121 80
7.832984e-001 -4.727246e-001 2.802714e+000 129 132 110
5.302352e-001 -5.071858e-001 2.850195e+000 135 172 120
8.233928e-001 -9.972994e-001 2.975783e+000 188 128 80
7.847884e-001 -1.051350e+000 2.966941e+000 178 137 91
5.678278e-001 -5.036536e-001 2.819540e+000 27 60 41
5.673841e-001 -5.033454e-001 2.817783e+000 27 60 41
4.810246e-001 -5.365810e-001 2.900272e+000 168 162 166
7.465559e-001 -1.184315e+000 2.993281e+000 193 162 132
7.282262e-001 -8.514672e-001 2.888114e+000 168 32 33
4.632241e-001 2.932457e-001 3.898576e+000 210 176 115
7.168153e-001 -9.395836e-001 2.919111e+000 176 143 108
7.031388e-001 -7.831234e-001 2.861334e+000 167 37 37
7.581330e-001 -3.334380e-001 2.747281e+000 229 147 105
7.582575e-001 -3.333336e-001 2.747551e+000 229 147 105
7.677628e-001 -3.303689e-001 2.752753e+000 233 149 105
7.679277e-001 -3.304161e-001 2.753095e+000 233 149 105
8.131158e-001 -3.327363e-001 2.781940e+000 151 43 41
8.368735e-001 -3.312064e-001 2.805662e+000 150 48 34
8.147466e-001 -4.447240e-001 2.813994e+000 147 159 40
8.091938e-001 -5.426496e-001 2.847268e+000 77 43 29
8.406070e-001 -5.615655e-001 2.863289e+000 173 151 114
7.529315e-001 -6.352969e-001 2.830660e+000 238 147 103
7.529167e-001 -6.354357e-001 2.830618e+000 238 147 103
6.941470e-001 -8.284579e-001 2.874605e+000 190 89 73
8.325998e-001 -8.557610e-001 2.946007e+000 191 123 80
8.363429e-001 -8.591838e-001 2.942823e+000 128 80 58
8.445659e-001 -8.784724e-001 2.956959e+000 152 39 32
8.397528e-001 -8.822664e-001 2.953848e+000 145 36 32
7.682676e-001 -9.188248e-001 2.922562e+000 145 25 32
7.704322e-001 -9.123598e-001 2.920486e+000 216 94 73
7.705872e-001 -9.121080e-001 2.920846e+000 216 94 73
7.677089e-001 -9.246129e-001 2.921013e+000 215 68 64
7.674291e-001 -9.355567e-001 2.927219e+000 205 62 63
7.799410e-001 -9.247617e-001 2.929790e+000 143 33 36
8.026604e-001 -9.536754e-001 2.950518e+000 192 65 48
8.027134e-001 -9.537311e-001 2.950910e+000 192 65 48
7.891843e-001 -9.594683e-001 2.943098e+000 192 60 53
8.353008e-001 -9.746055e-001 2.979404e+000 129 79 46
8.427390e-001 -9.699265e-001 2.982732e+000 107 55 26
7.768110e-001 -9.911307e-001 2.946120e+000 55 29 10
8.548232e-001 -1.055276e+000 3.021214e+000 194 149 87
7.864323e-001 -1.080564e+000 2.976434e+000 172 134 87
8.211719e-001 -1.059834e+000 2.989556e+000 174 132 81
9.183508e-001 -1.079970e+000 3.102952e+000 183 104 56
7.535478e-001 -3.299157e-001 2.743216e+000 171 43 34
5.600523e-001 -3.744639e-001 2.778070e+000 25 52 28
5.600523e-001 -3.744639e-001 2.778070e+000 25 52 28
8.085615e-001 -4.433414e-001 2.809713e+000 34 50 15
8.480199e-001 -5.560386e-001 2.869339e+000 175 153 115
7.616142e-001 -7.241600e-001 2.860360e+000 189 116 89
8.285311e-001 -7.135711e-001 2.904149e+000 189 118 81
8.244485e-001 -8.900000e-001 2.945679e+000 137 32 26
7.625280e-001 -9.167062e-001 2.918957e+000 216 96 79
6.481844e-001 -9.244454e-001 2.921277e+000 65 130 198
7.698684e-001 -9.647472e-001 2.933283e+000 141 31 29
7.658986e-001 -9.720694e-001 2.938178e+000 209 68 60
7.738294e-001 -9.577581e-001 2.938797e+000 197 59 55
8.781481e-001 -1.037932e+000 3.037943e+000 193 110 38
8.757978e-001 -1.112224e+000 3.065607e+000 141 75 20
1.027924e+000 -1.228294e+000 2.978891e+000 134 111 94
4.618588e-001 -3.419617e-001 2.833837e+000 168 43 50
5.044831e-001 -4.815951e-001 2.856501e+000 25 58 36
5.802855e-001 -5.172959e-001 2.812884e+000 29 58 30
5.485590e-001 -5.461024e-001 2.848126e+000 25 54 34
5.485590e-001 -5.461024e-001 2.848126e+000 25 54 34
7.659585e-001 -6.463128e-001 2.838746e+000 150 20 20
8.336161e-001 -6.327637e-001 2.883554e+000 12 52 67
7.146306e-001 -8.340678e-001 2.876972e+000 185 98 70
8.203533e-001 -8.804679e-001 2.943285e+000 143 23 27
8.269128e-001 -9.648182e-001 2.970035e+000 134 82 61
8.272421e-001 -9.723508e-001 2.973987e+000 188 123 86
8.237503e-001 -1.078480e+000 3.002126e+000 182 149 99
7.585446e-001 -3.648713e-001 2.760687e+000 130 126 63
7.599581e-001 -4.290339e-001 2.777316e+000 122 142 50
7.599581e-001 -4.290339e-001 2.777316e+000 122 142 50
5.958477e-001 -6.744856e-001 2.857236e+000 165 160 163
7.525659e-001 -7.612087e-001 2.864557e+000 186 126 89
7.525659e-001 -7.612087e-001 2.864557e+000 186 126 89
7.601763e-001 -8.756605e-001 2.905422e+000 194 122 79
7.603460e-001 -8.756106e-001 2.905380e+000 194 122 79
6.494974e-001 -1.007861e+000 2.952535e+000 121 68 48
7.777568e-001 -1.069885e+000 2.967843e+000 181 136 91
1.082021e+000 -1.182578e+000 3.015998e+000 130 107 91
1.048088e+000 -1.213957e+000 2.992529e+000 143 116 97
8.255539e-001 -3.932036e-001 2.804580e+000 34 56 13
8.199735e-001 -4.663166e-001 2.820120e+000 33 55 14
8.208170e-001 -6.041503e-001 2.873680e+000 150 28 24
8.696875e-001 -6.554756e-001 2.923875e+000 189 120 81
4.955024e-001 -7.270260e-001 2.962050e+000 101 139 199
7.390781e-001 -7.641840e-001 2.861252e+000 193 121 96
7.446429e-001 -9.163368e-001 2.913681e+000 134 23 30
7.505671e-001 -9.806830e-001 2.930325e+000 157 30 25
7.932294e-001 -3.283228e-001 2.767863e+000 187 99 62
8.222491e-001 -4.266470e-001 2.811581e+000 79 106 96
6.079965e-001 -5.304674e-001 2.796257e+000 115 135 168
7.829562e-001 -4.394709e-001 2.789367e+000 110 127 110
7.590294e-001 -7.349324e-001 2.862343e+000 187 123 87
7.891847e-001 -1.007019e+000 2.946198e+000 188 124 86
6.129383e-001 -4.009823e-001 2.778778e+000 110 138 172
-1.801925e-001 -8.356019e-001 -1.585339e+000 0 255 0
-1.886503e-001 -8.382871e-001 -1.634545e+000 255 255 0
1.429202e+000 -6.664381e-001 -1.065422e+000 255 0 0
1.438655e+000 -6.676544e-001 -1.114505e+000 255 255 0
1.701699e+000 -5.226201e-001 6.562516e+000 0 255 0
1.686667e+000 -5.230982e-001 6.514832e+000 255 255 0
1.064693e+000 -7.295133e-001 -1.442966e+000 255 0 0
1.069279e+000 -7.316777e-001 -1.492708e+000 255 255 0
-7.012644e+000 -1.645274e+000 3.294562e+001 0 255 0
-7.000339e+000 -1.643558e+000 3.289718e+001 255 255 0
