ply
format ascii 1.0
element face 0
property list uchar int vertex_indices
element vertex 300
property float x
property float y
property float z
property uchar diffuse_red
property uchar diffuse_green
property uchar diffuse_blue
end_header
9.279279e-001 1.923211e+000 -6.793217e+000 18 10 20
-6.478087e-001 1.284432e+000 -8.486593e+000 166 150 142
1.031286e+000 8.223304e-001 -6.632585e+000 236 235 233
-6.407716e-001 4.876034e-001 -8.551371e+000 54 25 24
4.818158e-001 4.833914e-001 -7.122599e+000 146 133 125
-4.685071e-001 1.350810e-001 -6.940632e+000 82 44 35
-2.801036e-001 2.469693e-001 -7.120968e+000 124 111 102
-1.925382e-001 2.343862e-001 -7.021688e+000 166 157 148
3.577265e-002 3.034005e-003 -7.081474e+000 132 119 111
6.251501e-002 -1.771800e-002 -6.919651e+000 155 142 134
1.939264e+000 8.387307e-002 -5.803383e+000 247 87 98
-4.726999e-001 -2.127834e-001 -6.830676e+000 33 17 4
1.699273e+000 -2.216112e-001 -6.039524e+000 206 50 54
-1.341907e+000 -3.708294e-001 -6.215628e+000 94 23 19
-1.162127e+000 -3.838255e-001 -6.403366e+000 122 38 20
-8.277701e-001 -3.759325e-001 -6.526782e+000 118 12 13
-4.367279e-001 -3.475213e-001 -6.896898e+000 131 107 70
-5.573172e-001 -4.526707e-001 -6.762120e+000 130 109 98
-8.275161e-001 -5.376111e-001 -6.512381e+000 32 12 14
-8.482730e-001 -5.737167e-001 -6.489256e+000 179 154 126
-8.160655e-001 -5.715033e-001 -6.506300e+000 175 116 101
-8.160655e-001 -5.715033e-001 -6.506300e+000 175 116 101
-8.211307e-001 -5.992264e-001 -6.487919e+000 34 17 11
-5.751362e-001 -6.715888e-001 -6.692650e+000 201 196 193
-2.935001e-001 -7.191549e-001 -7.034638e+000 255 251 242
7.192627e-001 -1.918409e+000 -7.712618e+000 162 140 96
-4.983262e-001 1.538143e+000 -8.346251e+000 207 44 50
5.210289e-002 1.193892e+000 -7.493483e+000 194 185 180
-6.354930e+000 1.573816e+000 -1.594717e+001 35 29 31
-6.198863e-001 5.147617e-001 -8.510071e+000 212 52 51
-5.212217e-001 5.224757e-001 -8.493316e+000 207 200 186
2.146632e-001 4.643595e-001 -7.024508e+000 154 140 124
1.867384e+000 3.910992e-001 -5.880342e+000 25 15 23
-9.510856e-002 1.276447e-001 -7.001645e+000 118 107 101
-2.090158e-001 9.059881e-002 -6.914074e+000 122 107 102
1.914562e+000 8.192588e-002 -5.815388e+000 233 78 82
-4.062528e-001 -1.073816e-001 -6.760137e+000 115 33 22
-3.853484e-001 -1.495777e-001 -6.765295e+000 149 67 49
-3.853484e-001 -1.495777e-001 -6.765295e+000 149 67 49
4.334733e-004 -2.765159e-001 -6.860368e+000 206 201 197
1.987491e-001 -2.696903e-001 -6.842090e+000 234 227 221
3.406545e-001 -2.194055e-001 -6.886491e+000 238 235 229
1.687126e+000 -2.606685e-001 -6.005358e+000 161 38 46
-1.142677e+000 -4.173248e-001 -6.416315e+000 154 52 29
7.054309e-001 -5.200696e-001 -6.934968e+000 211 204 195
-9.077295e-001 -5.640456e-001 -6.487701e+000 50 50 69
-5.763357e-001 -6.211806e-001 -6.645798e+000 163 155 150
-4.848574e-001 -6.212716e-001 -6.759949e+000 174 164 161
-4.848574e-001 -6.212716e-001 -6.759949e+000 174 164 161
-3.499802e-001 -5.929631e-001 -6.898792e+000 185 178 170
4.142404e-001 -8.159948e-001 -7.046614e+000 156 144 127
2.181248e+000 -6.418076e-001 -5.641307e+000 239 225 177
8.181973e-001 -1.037440e+000 -6.833975e+000 158 145 125
1.023254e+000 -1.230137e+000 -6.818910e+000 246 231 218
6.164211e-001 -1.951961e+000 -7.812879e+000 165 149 102
7.684927e-001 -1.899324e+000 -7.646315e+000 233 219 164
-2.354476e-002 1.942393e+000 -7.767267e+000 202 190 185
1.233946e+000 1.532276e+000 -6.438652e+000 18 3 6
1.233866e+000 1.392996e+000 -6.295714e+000 167 39 45
1.480200e+000 1.119300e+000 -6.198576e+000 18 7 11
4.295565e-001 1.224021e+000 -7.387676e+000 184 177 167
1.289953e+000 9.849805e-001 -6.321523e+000 222 53 59
-2.861900e-001 9.244498e-001 -7.853256e+000 170 161 154
6.293132e-001 2.562695e-001 -6.788683e+000 154 141 132
-5.520059e-001 1.135505e-001 -7.025100e+000 72 27 22
-3.930742e-001 -4.817160e-003 -6.779669e+000 142 119 110
-8.487530e-001 -8.497588e-002 -6.663696e+000 86 18 7
-4.414694e-001 -1.279342e-001 -6.780832e+000 165 80 59
-1.089479e+000 -3.766369e-001 -6.614879e+000 134 33 10
-5.136224e-001 -4.867367e-001 -6.841811e+000 113 94 79
8.586228e-001 -4.920686e-001 -6.854126e+000 172 163 148
-6.448967e-001 -6.219203e-001 -6.660364e+000 181 172 170
-5.491302e-001 -6.549055e-001 -6.680941e+000 253 254 249
6.521921e-001 -9.114218e-001 -6.967192e+000 229 226 218
6.521921e-001 -9.114218e-001 -6.967192e+000 229 226 218
1.715830e+000 -1.121626e+000 -6.035138e+000 18 1 7
1.291216e+000 1.378442e+000 -6.322199e+000 196 55 61
-8.075541e-001 1.571442e+000 -8.681484e+000 30 16 16
1.461971e+000 1.085910e+000 -6.195930e+000 176 42 37
5.906496e-002 1.048788e+000 -7.446899e+000 186 177 168
7.690220e-001 9.558655e-001 -7.011293e+000 166 157 150
4.244940e-001 6.094344e-001 -7.227227e+000 123 110 99
1.836653e+000 4.443774e-001 -5.883721e+000 25 5 9
-3.159832e-002 3.570246e-001 -7.170215e+000 178 169 160
-3.159832e-002 3.570246e-001 -7.170215e+000 178 169 160
5.224163e-001 3.588031e-001 -6.851937e+000 142 129 113
1.173045e+000 2.123741e-001 -6.611053e+000 195 188 178
-4.014420e+001 8.036410e-001 -8.853692e+001 101 92 85
2.687757e-001 1.055164e-001 -6.768311e+000 192 182 172
2.765565e-001 4.524421e-002 -6.852801e+000 203 194 187
1.935540e+000 8.945194e-002 -5.824862e+000 243 79 98
-3.136052e-001 -2.120875e-002 -6.865830e+000 183 173 164
1.898827e+000 -1.958610e-001 -5.878370e+000 249 79 93
-1.724655e+000 -3.562834e-001 -6.254300e+000 135 113 67
-5.485773e+000 -1.210825e+000 -1.497860e+001 44 39 39
-9.503292e-001 -4.740323e-001 -6.593610e+000 188 105 67
8.889140e-001 -4.792274e-001 -6.752984e+000 243 240 231
1.068246e+000 -4.776457e-001 -6.574634e+000 172 158 147
1.363930e+000 -4.454455e-001 -6.311173e+000 158 145 134
-6.809038e-001 -6.438829e-001 -6.577501e+000 236 232 229
-1.658276e-001 -7.410766e-001 -7.144490e+000 255 254 249
-4.824782e+001 -1.412665e+001 -1.052784e+002 82 74 71
1.460036e+000 -7.733640e-001 -6.184304e+000 182 159 106
1.518108e+000 -9.708409e-001 -6.341341e+000 169 147 134
7.293038e-001 -1.931942e+000 -7.651063e+000 45 32 34
1.432218e+000 -1.667973e+000 -6.673878e+000 253 82 93
-5.025710e+001 -2.989072e+001 -1.040477e+002 99 82 82
5.786729e-001 1.833697e+000 -7.120196e+000 219 212 209
-8.213400e-002 1.935263e+000 -7.816585e+000 192 35 44
1.306147e+000 1.454068e+000 -6.386394e+000 16 12 9
1.423162e+000 1.149895e+000 -6.251065e+000 203 42 57
-6.200730e-001 1.385476e+000 -8.415776e+000 206 191 183
7.224468e-001 9.960763e-001 -7.049866e+000 181 174 166
-2.854500e-001 9.841625e-001 -7.800314e+000 208 199 190
1.667169e+000 7.090079e-001 -5.946724e+000 214 49 60
1.648080e+000 5.235851e-001 -6.120013e+000 235 64 73
1.813566e+000 4.051322e-001 -5.874996e+000 229 58 64
1.097143e+000 3.007862e-001 -6.714046e+000 170 163 153
-8.006509e-002 1.747739e-001 -7.032204e+000 179 168 162
-3.799192e-002 1.287560e-001 -6.994381e+000 182 171 165
1.844328e+000 1.148928e-001 -5.790487e+000 204 53 62
1.963316e+000 1.622350e-001 -5.824100e+000 29 12 20
1.032253e+000 9.896804e-002 -6.534659e+000 162 150 138
1.803586e+000 6.822159e-002 -5.786933e+000 169 29 40
5.145013e-001 -1.443820e-002 -6.712378e+000 204 194 185
1.698448e-002 -1.599912e-001 -6.780852e+000 177 166 162
7.212584e-001 -1.727261e-001 -6.639414e+000 224 221 214
-1.347616e+000 -3.026775e-001 -6.228290e+000 145 60 38
-3.200343e-001 -3.818403e-001 -6.822332e+000 238 235 230
6.578705e-002 -3.959328e-001 -6.914909e+000 205 191 182
6.578705e-002 -3.959328e-001 -6.914909e+000 205 191 182
1.486813e+000 -3.127105e-001 -6.186122e+000 164 149 141
-2.824749e-001 -4.642882e-001 -6.932584e+000 241 240 237
4.558532e-001 -5.066586e-001 -6.994175e+000 215 208 200
-8.865420e-001 -5.685168e-001 -6.493542e+000 46 42 53
-4.315922e-001 -5.891862e-001 -6.793742e+000 159 143 131
-4.506196e+001 -1.082911e+001 -9.563637e+001 87 77 75
-4.268054e+001 -1.041533e+001 -9.374150e+001 85 78 76
6.380440e-001 -8.575004e-001 -7.008774e+000 254 255 250
7.925457e-001 -8.305492e-001 -6.846943e+000 151 132 94
1.041931e+000 -9.273748e-001 -6.608264e+000 239 233 224
6.695765e-001 -1.142132e+000 -7.117468e+000 254 255 250
1.546552e+000 -1.445845e+000 -6.439877e+000 28 11 12
5.396430e-001 -2.034502e+000 -7.982652e+000 208 191 147
-2.442738e+001 -1.870734e+001 -6.876148e+001 89 77 77
-2.332543e+001 -1.932306e+001 -6.628555e+001 98 88 87
5.427841e-001 1.936213e+000 -7.205253e+000 196 34 40
6.384010e-001 1.859467e+000 -7.060855e+000 206 37 44
1.324875e+000 1.329948e+000 -6.328815e+000 17 1 8
-7.563389e-001 1.636317e+000 -8.564024e+000 193 36 43
1.021048e+000 1.207402e+000 -6.616403e+000 148 124 116
1.007793e+000 1.145956e+000 -6.644001e+000 221 212 203
-2.691703e-001 1.066207e+000 -7.856608e+000 150 141 131
6.620588e-001 5.984576e-001 -7.097102e+000 142 132 119
1.764572e+000 5.302874e-001 -5.930578e+000 232 58 71
6.557952e-001 3.047203e-001 -6.825404e+000 194 184 174
6.634148e-001 1.271000e-001 -6.744486e+000 146 136 127
1.262569e+000 2.066133e-001 -6.471611e+000 188 181 171
-4.579980e-001 8.582299e-002 -6.925685e+000 77 20 13
-3.927636e-001 5.059148e-002 -6.902651e+000 156 144 132
8.972581e-001 1.011892e-001 -6.594342e+000 160 150 141
1.048001e+000 3.417360e-002 -6.475722e+000 209 200 193
-5.842603e-001 -4.563791e-001 -6.665667e+000 169 145 135
6.315284e-001 -5.182077e-001 -6.925175e+000 227 220 210
1.107699e+000 -4.493012e-001 -6.455138e+000 177 166 154
-1.377466e-001 -8.195418e-001 -7.242484e+000 50 39 37
-4.454614e+001 -1.163990e+001 -9.632733e+001 19 13 12
-4.430000e+001 -1.269021e+001 -9.487870e+001 138 129 130
-3.837450e+001 -1.101072e+001 -8.517689e+001 106 101 98
-8.445363e-001 -8.491343e-001 -6.874000e+000 40 34 25
7.098197e-001 -9.297311e-001 -6.958838e+000 254 253 249
-4.537123e+001 -1.336697e+001 -9.507257e+001 62 18 25
-5.383758e+001 -1.749354e+001 -1.124882e+002 133 115 121
1.573130e+000 -1.379905e+000 -6.415838e+000 250 255 249
-4.377823e+001 -2.787238e+001 -1.013411e+002 69 55 54
-3.595856e+001 -2.330541e+001 -8.102518e+001 55 13 23
-2.882735e+001 -1.944878e+001 -6.692614e+001 143 130 129
3.726196e-001 1.625727e+000 -7.422932e+000 221 215 212
1.335532e+000 1.245964e+000 -6.325945e+000 227 55 67
7.057966e-001 1.347157e+000 -7.040581e+000 228 223 217
1.117304e+000 1.168090e+000 -6.465762e+000 219 53 65
-4.448441e-001 1.332526e+000 -8.226505e+000 156 143 134
1.428024e-001 1.205874e+000 -7.507574e+000 221 214 208
7.097213e-001 1.172036e+000 -7.083856e+000 240 233 227
3.156896e-003 1.152957e+000 -7.611230e+000 207 198 193
1.317952e+000 8.638981e-001 -6.364690e+000 215 204 198
9.326108e-003 9.540328e-001 -7.543822e+000 204 193 187
1.375090e+000 7.953312e-001 -6.263925e+000 213 45 54
-8.453104e-001 7.732988e-001 -8.655521e+000 212 202 193
2.892207e-001 6.331867e-001 -7.258637e+000 180 169 163
7.499260e-002 4.052931e-001 -7.144697e+000 138 125 116
1.467039e+000 3.943556e-001 -6.188546e+000 158 143 136
4.619187e-001 3.496028e-001 -6.934840e+000 198 190 179
1.880063e+000 2.608480e-001 -5.924672e+000 207 45 51
-2.984178e-002 2.443786e-001 -7.132501e+000 129 119 109
6.756655e-002 2.469370e-001 -7.037076e+000 214 207 201
1.917855e+000 2.050482e-002 -5.824394e+000 16 7 3
1.099440e+000 -1.786520e-002 -6.440022e+000 161 149 137
1.832135e-001 -2.173903e-001 -6.879875e+000 195 188 180
-2.899852e+001 -3.062435e+000 -7.114756e+001 15 11 10
-2.899852e+001 -3.062435e+000 -7.114756e+001 15 11 10
-1.539059e+000 -3.763991e-001 -6.260473e+000 122 56 50
1.850845e+000 -2.659044e-001 -5.910746e+000 122 23 36
-8.367830e-001 -4.016768e-001 -6.513092e+000 142 25 26
9.685167e-001 -4.950649e-001 -6.659594e+000 163 151 137
-9.541758e-001 -5.351579e-001 -6.510593e+000 239 188 141
-4.940428e+001 -1.132963e+001 -9.743533e+001 66 56 54
8.906822e-001 -6.881380e-001 -6.663686e+000 161 138 94
7.082308e-001 -9.364936e-001 -6.964124e+000 255 254 250
1.573002e+000 -7.790692e-001 -6.107445e+000 230 217 208
-4.782168e+001 -1.365456e+001 -9.672762e+001 100 66 61
-4.115004e+001 -1.470218e+001 -8.507486e+001 55 43 45
7.251060e-001 -1.246477e+000 -7.200484e+000 225 222 215
1.235753e+000 -1.608420e+000 -6.853997e+000 44 28 34
-2.787853e+001 -2.030090e+001 -7.363395e+001 117 105 105
-2.751999e+001 -1.894937e+001 -6.655072e+001 140 126 126
-2.366211e+001 -1.897200e+001 -6.769755e+001 18 11 9
6.980927e-001 1.716294e+000 -6.992148e+000 223 217 213
-1.397577e-001 1.806583e+000 -7.799182e+000 195 185 176
1.182942e-001 1.661387e+000 -7.659318e+000 206 199 193
1.078921e+000 1.328757e+000 -6.703419e+000 203 197 189
2.632971e-001 5.146968e-001 -7.167130e+000 126 113 104
1.643135e+000 3.960324e-001 -6.081378e+000 192 37 42
4.778943e-001 9.786105e-002 -6.814346e+000 160 152 141
1.925399e-001 -5.842924e-002 -6.879086e+000 255 254 250
3.358348e-001 -6.369894e-002 -6.881036e+000 209 198 192
1.195742e+000 -1.512993e-001 -6.330934e+000 145 131 120
1.859982e+000 -1.538741e-001 -5.847679e+000 241 66 78
-1.402361e+000 -3.357263e-001 -6.183650e+000 119 50 49
-1.328127e+000 -2.591483e-001 -6.247442e+000 149 68 39
-3.539468e-001 -5.118743e-001 -7.003383e+000 50 37 18
-3.539468e-001 -5.118743e-001 -7.003383e+000 50 37 18
-8.068213e-001 -5.546626e-001 -6.497592e+000 170 71 60
3.291973e-001 -6.922781e-001 -7.085689e+000 254 245 190
6.760561e-001 -5.888584e-001 -6.923817e+000 112 94 80
1.088465e+000 -8.491699e-001 -6.490429e+000 144 126 78
1.272434e+000 -7.917896e-001 -6.371301e+000 199 174 118
9.353091e-001 -1.070823e+000 -6.815638e+000 145 127 104
-5.425218e+001 -1.716254e+001 -1.047176e+002 36 16 17
1.796394e+000 -1.368531e+000 -6.255543e+000 254 86 97
1.796394e+000 -1.368531e+000 -6.255543e+000 254 86 97
-4.210671e+001 -2.531220e+001 -8.959109e+001 61 35 38
-2.598145e+001 -2.252922e+001 -7.729955e+001 110 99 97
-2.732444e+001 -2.223538e+001 -7.410362e+001 118 111 111
4.060594e-001 1.452351e+000 -7.269403e+000 163 154 145
2.283519e-001 1.394489e+000 -7.539219e+000 219 211 208
1.367701e+000 9.139522e-001 -6.219760e+000 162 31 39
1.511286e+000 8.599441e-001 -6.058870e+000 234 64 75
2.635666e-001 9.453757e-001 -7.366703e+000 214 205 198
1.582208e+000 3.514721e-001 -6.194004e+000 219 210 205
-4.382208e-001 -6.553241e-002 -6.782195e+000 85 24 16
3.108661e-001 -2.268475e-001 -6.882538e+000 254 255 250
1.908745e+000 -1.256299e-001 -6.052437e+000 243 67 77
1.737845e+000 -2.875223e-001 -6.003342e+000 135 32 35
-1.660584e+000 -4.685341e-001 -6.270446e+000 38 28 32
4.354957e-001 -4.343930e-001 -6.939243e+000 231 228 221
1.242270e+000 -5.100507e-001 -6.355395e+000 122 104 81
1.149914e+000 -6.507732e-001 -6.380597e+000 210 186 131
8.353507e-001 -9.467738e-001 -7.047874e+000 110 87 62
1.900210e+000 -7.325447e-001 -5.952983e+000 24 9 8
1.775326e+000 -1.166919e+000 -6.070381e+000 21 9 12
1.487269e+000 -1.637877e+000 -6.555821e+000 230 64 74
1.487269e+000 -1.637877e+000 -6.555821e+000 230 64 74
1.618902e-002 1.499012e+000 -7.604055e+000 170 157 151
1.618902e-002 1.499012e+000 -7.604055e+000 170 157 151
2.347604e-003 1.253873e+000 -7.550595e+000 208 199 194
4.924733e-001 1.252715e+000 -7.206710e+000 228 221 214
1.809427e+000 3.330622e-001 -5.896293e+000 216 46 55
-4.723017e+001 2.595823e+000 -9.727885e+001 92 84 71
1.697106e+000 1.594676e-001 -5.906329e+000 131 15 23
-1.459249e+000 -4.838879e-001 -6.289986e+000 246 124 75
7.554814e-002 -8.130590e-001 -7.077535e+000 255 255 253
1.452735e+000 -6.844716e-001 -6.160824e+000 154 132 86
-4.805360e+001 -1.230369e+001 -9.916275e+001 15 10 16
1.026502e+000 -1.407704e+000 -6.975889e+000 22 12 13
1.482770e+000 -1.325929e+000 -6.391105e+000 255 255 253
-5.104866e+001 -2.774348e+001 -1.075914e+002 109 94 94
-4.302880e+001 2.168941e+000 -8.052447e+001 74 63 58
1.952057e+000 -1.721928e-001 -5.767990e+000 42 30 32
-6.717790e+001 -1.280611e+001 -1.292806e+002 72 62 61
-6.885166e-001 -7.517438e-001 -6.775922e+000 233 232 230
1.571347e+000 -1.040045e+000 -6.243452e+000 182 38 45
-6.074315e+001 -2.764687e+001 -1.278939e+002 53 42 40
-2.408947e+001 -1.677090e+001 -6.815535e+001 98 89 82
5.879564e-001 -1.861227e+000 -7.795268e+000 144 123 80
-2.264817e-002 -1.442502e-002 -6.957131e+000 132 119 110
-2.315243e-001 -2.772821e-001 -6.918940e+000 248 244 242
-3.837924e+001 -7.344490e+000 -9.569203e+001 111 102 97
1.159024e+000 9.062018e-001 -6.495914e+000 255 255 253
-3.536577e+001 -5.989768e-001 -7.064864e+001 103 97 97
1.559448e+000 1.985958e-002 -6.172966e+000 230 225 221
5.366316e-001 -1.085493e+000 -7.177073e+000 254 254 252
2.007181e+000 -4.663576e-001 -5.762229e+000 198 173 117
2.007181e+000 -4.663576e-001 -5.762229e+000 198 173 117
1.342260e+000 -1.159348e+000 -6.531865e+000 238 231 225
2.027845e+000 1.445207e-001 -5.849442e+000 46 34 34
1.479882e-002 6.318559e-003 -2.420334e-002 0 255 0
1.470974e-002 6.271942e-003 -7.420324e-002 255 255 0
-3.001541e-001 8.934136e-001 -3.227248e-001 255 0 0
-2.982510e-001 8.855789e-001 -3.720704e-001 255 255 0
